<svg width="73" height="81" viewBox="0 0 73 81" fill="none" xmlns="http://www.w3.org/2000/svg">
<g clip-path="url(#clip0_6_497)">
<g clip-path="url(#clip1_6_497)">
<g filter="url(#filter0_d_6_497)">
<path d="M33.2994 11.5329C36.1551 8.87942 40.6571 9.15621 43.1715 12.1398C44.7349 13.9951 47.167 14.8823 49.5557 14.467C53.3636 13.8049 56.962 16.4399 57.4822 20.2713L57.5052 20.4411C57.833 22.855 59.4 24.9224 61.6358 25.8904C65.2069 27.4367 66.8164 31.6121 65.206 35.1521L65.1497 35.2758C64.1362 37.5036 64.3567 40.1129 65.7164 42.1503C67.8925 45.4107 67.0012 49.8452 63.714 51.9739C61.6644 53.3012 60.4521 55.5985 60.5125 58.0408L60.517 58.2232C60.6127 62.0932 57.495 65.2757 53.6243 65.2589C51.1955 65.2484 48.9235 66.5532 47.6797 68.6385C45.6945 71.9665 41.2966 73.0194 38.0611 70.8813C36.0371 69.5437 33.455 69.3849 31.2846 70.4646C27.8151 72.1906 23.5769 70.6067 22.008 67.0602C21.025 64.838 18.9273 63.2645 16.5152 62.9774C12.6712 62.5198 9.96054 58.9791 10.5225 55.1494L10.549 54.969C10.9036 52.5522 9.97749 50.1234 8.10324 48.5549C5.09719 46.0392 4.7476 41.5284 7.30087 38.5588C8.89635 36.7032 9.42996 34.1402 8.69277 31.8047L8.65188 31.6751C7.48049 27.964 9.58184 24.0168 13.3131 22.9195C15.649 22.2325 17.4539 20.3724 18.0704 18.0166L18.1138 17.8509C19.0924 14.1116 22.982 11.937 26.6818 13.0607C29.0027 13.7655 31.5237 13.1828 33.2994 11.5329Z" fill="#FA12E3"/>
<path d="M57.0577 20.3282L57.4822 20.271M57.0577 20.3282L57.0807 20.498C57.4287 23.0607 59.0923 25.2556 61.4659 26.2833C64.8169 27.7343 66.3272 31.6522 64.816 34.9741L64.7598 35.0977M57.0577 20.3282C56.5702 16.7377 53.198 14.2684 49.6295 14.8888C47.0905 15.3303 44.5057 14.3873 42.844 12.4155C40.4875 9.61917 36.2676 9.35973 33.5912 11.8466C31.704 13.6002 29.0246 14.2196 26.5577 13.4704C23.0905 12.4173 19.4453 14.4553 18.5282 17.9594L18.4849 18.1251C17.8304 20.6262 15.9142 22.6009 13.4343 23.3303C9.93304 24.3599 7.96121 28.0638 9.06039 31.5462L9.1013 31.6758C9.88347 34.1538 9.31713 36.8709 7.62581 38.838C5.22656 41.6285 5.55716 45.8655 8.37799 48.2262C10.3665 49.8903 11.3491 52.4671 10.9728 55.0313L10.9463 55.2118C10.4194 58.8026 12.9611 62.1227 16.5655 62.5518C19.1305 62.8571 21.3565 64.5285 22.3997 66.8868C23.8721 70.2151 27.8477 71.6954 31.0935 70.0807C33.4006 68.9329 36.1455 69.1017 38.2971 70.5236C41.324 72.5239 45.4487 71.5416 47.3117 68.4184C48.6318 66.2054 51.0429 64.819 53.6257 64.8302C57.2551 64.8459 60.1785 61.8619 60.0888 58.2332L60.0842 58.0507C60.0202 55.4595 61.3063 53.0221 63.4809 51.6139C66.5656 49.6164 67.405 45.4513 65.3602 42.3876C63.9187 40.2279 63.6844 37.4616 64.7598 35.0977M64.7598 35.0977L65.1497 35.2755" stroke="#8A007C" stroke-width="0.856841"/>
</g>
<path d="M18.4869 45.5396L19.0993 35.4268L25.8453 35.8416L25.7293 37.7574L21.0084 37.4672L20.8709 39.7388L25.017 39.9937L24.9018 41.8958L20.7557 41.6409L20.5121 45.6641L18.4869 45.5396ZM32.5063 46.4015L30.5946 42.5892L29.3904 42.5152L29.1675 46.1963L27.1423 46.0717L27.7547 35.959L31.6271 36.1971C33.9944 36.3426 34.9971 37.9289 34.8952 39.6121C34.8215 40.83 34.1311 42.0237 32.6629 42.4554L34.8736 46.5471L32.5063 46.4015ZM29.6663 37.9583L29.5006 40.6951L31.1563 40.7969C32.2921 40.8668 32.7714 40.2095 32.8136 39.5116C32.8576 38.7863 32.4167 38.1274 31.4999 38.071L29.6663 37.9583ZM36.7866 46.6647L37.399 36.5519L44.2544 36.9734L44.1401 38.8619L39.3235 38.5657L39.1917 40.7415L43.6526 41.0158L43.5382 42.9042L39.0774 42.63L38.9398 44.9016L43.7565 45.1977L43.6421 47.0862L36.7866 46.6647ZM45.9097 47.2256L46.5221 37.1128L53.3776 37.5343L53.2632 39.4228L48.4466 39.1266L48.3148 41.3024L52.7757 41.5767L52.6614 43.4651L48.2005 43.1909L48.0629 45.4625L52.8796 45.7586L52.7652 47.6471L45.9097 47.2256Z" fill="white"/>
</g>
</g>
<defs>
<filter id="filter0_d_6_497" x="2.16758" y="9.70947" width="68.1659" height="69.1384" filterUnits="userSpaceOnUse" color-interpolation-filters="sRGB">
<feFlood flood-opacity="0" result="BackgroundImageFix"/>
<feColorMatrix in="SourceAlpha" type="matrix" values="0 0 0 0 0 0 0 0 0 0 0 0 0 0 0 0 0 0 127 0" result="hardAlpha"/>
<feOffset dy="3.42736"/>
<feGaussianBlur stdDeviation="1.71368"/>
<feComposite in2="hardAlpha" operator="out"/>
<feColorMatrix type="matrix" values="0 0 0 0 0.342829 0 0 0 0 0.2925 0 0 0 0 0.675 0 0 0 0.15 0"/>
<feBlend mode="normal" in2="BackgroundImageFix" result="effect1_dropShadow_6_497"/>
<feBlend mode="normal" in="SourceGraphic" in2="effect1_dropShadow_6_497" result="shape"/>
</filter>
<clipPath id="clip0_6_497">
<rect width="72" height="80" fill="white" transform="translate(0.93158 0.59375)"/>
</clipPath>
<clipPath id="clip1_6_497">
<rect width="72" height="72" fill="white" transform="translate(0.93158 4.59375)"/>
</clipPath>
</defs>
</svg>
