<svg width="56" height="56" viewBox="0 0 56 56" fill="none" xmlns="http://www.w3.org/2000/svg">
<mask id="mask0_6_128" style="mask-type:alpha" maskUnits="userSpaceOnUse" x="0" y="0" width="56" height="56">
<g clip-path="url(#clip0_6_128)">
<path d="M55.4316 27.6436C55.4316 21.4984 55.1655 16.519 54.822 12.6515C54.2474 6.18052 49.3946 1.32779 42.9237 0.753134C39.0562 0.409673 34.0768 0.143555 27.9316 0.143555C21.7864 0.143555 16.807 0.409673 12.9395 0.753134C6.46855 1.32779 1.61582 6.18052 1.04116 12.6515C0.697698 16.519 0.43158 21.4984 0.43158 27.6436C0.43158 34.0198 0.718085 39.1409 1.08021 43.0672C1.6554 49.3034 6.25873 53.981 12.4968 54.536C16.3462 54.8785 21.4268 55.1436 27.9316 55.1436C34.4364 55.1436 39.517 54.8785 43.3664 54.536C49.6045 53.981 54.2078 49.3034 54.783 43.0672C55.1451 39.1409 55.4316 34.0198 55.4316 27.6436Z" fill="black"/>
</g>
</mask>
<g mask="url(#mask0_6_128)">
<rect width="55" height="55" transform="translate(0.43158 0.143555)" fill="#F8F8FC"/>
<path d="M40.0117 21.7323L40.0211 21.7541L40.0317 21.7755C42.06 25.8574 41.7908 29.1818 40.2864 31.8386C38.7508 34.5508 35.8536 36.6958 32.4008 38.1862C25.654 41.0986 17.8858 38.6797 15.1897 32.4472C12.5172 26.2693 16.2647 19.5707 23.0759 16.6306C29.8871 13.6904 37.3392 15.5543 40.0117 21.7323ZM18.4684 31.7393C19.4912 34.1037 21.857 35.2079 24.1986 35.5646C26.5519 35.9231 29.1205 35.5744 30.9325 34.7922C32.8124 33.9806 34.0657 32.5675 34.5755 30.77C35.0781 28.9976 34.8326 26.9483 33.9285 24.8581C33.0256 22.7709 31.624 21.0065 29.944 19.9515C28.2462 18.8854 26.2378 18.5374 24.2688 19.3874C22.3749 20.205 20.4883 22.2017 19.2951 24.441C18.106 26.6728 17.4645 29.4184 18.4684 31.7393Z" fill="url(#paint0_linear_6_128)" stroke="#7F76B3" stroke-width="2"/>
<path opacity="0.8" d="M15.1307 32.0134C17.6343 39.5653 25.5247 44.2068 33.086 41.7206C40.6473 39.2343 44.2117 30.8264 41.7082 23.2744C39.2045 15.7223 31.3142 11.0808 23.7529 13.5671C16.1915 16.0533 12.6272 24.4613 15.1307 32.0134ZM36.0838 25.1238C37.2456 28.6285 34.2235 37.306 29.8624 38.74C25.5013 40.174 19.443 36.1729 19.4331 31.0165C19.4231 25.8601 22.3369 23.9818 26.4587 22.6096C30.5805 21.2373 34.9219 21.6189 36.0838 25.1238Z" fill="#7F76B3"/>
<path opacity="0.5" d="M39.5027 33.4674C43.0937 27.2477 41.4895 19.1415 35.2759 15.534C29.0623 11.9264 21.2533 14.5675 17.6623 20.7872C14.0714 27.0069 15.6755 35.1131 21.8891 38.7207C28.1028 42.3281 35.9118 39.6871 39.5027 33.4674ZM22.2843 23.4706C23.9508 20.5841 31.6162 17.4156 35.2 19.4963C38.7839 21.577 39.7205 28.0634 36.249 31.1641C32.7775 34.2647 29.7625 33.4265 26.3639 31.4702C22.9653 29.5139 20.6177 26.3571 22.2843 23.4706Z" fill="url(#paint1_linear_6_128)"/>
</g>
<defs>
<linearGradient id="paint0_linear_6_128" x1="22.7306" y1="15.7993" x2="32.7521" y2="39.0149" gradientUnits="userSpaceOnUse">
<stop stop-color="#7F76B3"/>
<stop offset="1" stop-color="#7F76B3" stop-opacity="0"/>
</linearGradient>
<linearGradient id="paint1_linear_6_128" x1="39.5027" y1="33.4674" x2="17.6317" y2="20.8402" gradientUnits="userSpaceOnUse">
<stop stop-color="white"/>
<stop offset="1" stop-color="white" stop-opacity="0"/>
</linearGradient>
<clipPath id="clip0_6_128">
<rect width="55" height="55" fill="white" transform="translate(0.43158 0.143555)"/>
</clipPath>
</defs>
</svg>
