<svg width="56" height="56" viewBox="0 0 56 56" fill="none" xmlns="http://www.w3.org/2000/svg">
<mask id="mask0_6_119" style="mask-type:alpha" maskUnits="userSpaceOnUse" x="0" y="0" width="56" height="56">
<g clip-path="url(#clip0_6_119)">
<path d="M55.4316 27.6436C55.4316 21.4984 55.1655 16.519 54.822 12.6515C54.2474 6.18052 49.3946 1.32779 42.9237 0.753134C39.0562 0.409673 34.0768 0.143555 27.9316 0.143555C21.7864 0.143555 16.807 0.409673 12.9395 0.753134C6.46855 1.32779 1.61582 6.18052 1.04116 12.6515C0.697698 16.519 0.43158 21.4984 0.43158 27.6436C0.43158 34.0198 0.718085 39.1409 1.08021 43.0672C1.6554 49.3034 6.25873 53.981 12.4968 54.536C16.3462 54.8785 21.4268 55.1436 27.9316 55.1436C34.4364 55.1436 39.517 54.8785 43.3664 54.536C49.6045 53.981 54.2078 49.3034 54.783 43.0672C55.1451 39.1409 55.4316 34.0198 55.4316 27.6436Z" fill="black"/>
</g>
</mask>
<g mask="url(#mask0_6_119)">
<rect width="55" height="55" transform="translate(0.43158 0.143555)" fill="#F8F8FC"/>
<g clip-path="url(#clip1_6_119)">
<path d="M41.2888 27.7785C41.2888 24.9068 41.1685 22.5623 41.0105 20.7216C40.7326 17.4853 38.3035 15.0562 35.0671 14.7783C33.2264 14.6202 30.882 14.4999 28.0103 14.4999C25.1387 14.4999 22.7942 14.6202 20.9534 14.7783C17.7172 15.0562 15.2881 17.4853 15.0102 20.7216C14.8521 22.5623 14.7317 24.9068 14.7317 27.7785C14.7317 30.7654 14.8619 33.1819 15.0294 35.0546C15.3082 38.1735 17.6125 40.5107 20.7323 40.7789C22.5692 40.9368 24.9669 41.057 28.0103 41.057C31.0537 41.057 33.4514 40.9368 35.2883 40.7789C38.4081 40.5107 40.7124 38.1735 40.9912 35.0546C41.1587 33.1819 41.2888 30.7654 41.2888 27.7785Z" stroke="#7F76B3" stroke-width="2" stroke-linecap="round" stroke-linejoin="round"/>
<path d="M40.778 21.906L34.9586 28.191C34.6013 28.5769 34.0897 28.7822 33.5647 28.7504L26.902 28.3466C26.3178 28.3112 25.7545 28.5692 25.3998 29.0347L22.3031 33.0992C22.0323 33.4546 21.6363 33.6933 21.1956 33.7667L15.753 34.6739" stroke="#7F76B3" stroke-width="2" stroke-linecap="round" stroke-linejoin="round"/>
<path d="M34.3942 28.5453L41.2888 21.906L40.7781 37.7382L36.437 40.8024L20.3495 41.0577L16.7745 39.2702L14.9871 34.6739L21.8817 33.6524L26.4781 28.29L34.3942 28.5453Z" fill="#7F76B3" fill-opacity="0.1"/>
</g>
</g>
<defs>
<clipPath id="clip0_6_119">
<rect width="55" height="55" fill="white" transform="translate(0.43158 0.143555)"/>
</clipPath>
<clipPath id="clip1_6_119">
<rect width="29.7" height="28.8" fill="white" transform="translate(13.0816 13.2435)"/>
</clipPath>
</defs>
</svg>
