<svg width="56" height="56" viewBox="0 0 56 56" fill="none" xmlns="http://www.w3.org/2000/svg">
<mask id="mask0_6_137" style="mask-type:alpha" maskUnits="userSpaceOnUse" x="0" y="0" width="56" height="56">
<g clip-path="url(#clip0_6_137)">
<path d="M55.4316 27.6436C55.4316 21.4984 55.1655 16.519 54.822 12.6515C54.2474 6.18052 49.3946 1.32779 42.9237 0.753134C39.0562 0.409673 34.0768 0.143555 27.9316 0.143555C21.7864 0.143555 16.807 0.409673 12.9395 0.753134C6.46855 1.32779 1.61582 6.18052 1.04116 12.6515C0.697698 16.519 0.43158 21.4984 0.43158 27.6436C0.43158 34.0198 0.718085 39.1409 1.08021 43.0672C1.6554 49.3034 6.25873 53.981 12.4968 54.536C16.3462 54.8785 21.4268 55.1436 27.9316 55.1436C34.4364 55.1436 39.517 54.8785 43.3664 54.536C49.6045 53.981 54.2078 49.3034 54.783 43.0672C55.1451 39.1409 55.4316 34.0198 55.4316 27.6436Z" fill="black"/>
</g>
</mask>
<g mask="url(#mask0_6_137)">
<rect width="55" height="55" transform="translate(0.43158 0.143555)" fill="#F8F8FC"/>
<g clip-path="url(#clip1_6_137)">
<path d="M41.367 27.6418C41.367 26.1442 41.3057 24.8428 41.2132 23.7314C40.9493 20.5615 38.4204 18.351 35.2461 18.1481C33.3904 18.0294 31.0128 17.9382 28.0885 17.9382C25.1642 17.9382 22.7866 18.0294 20.9309 18.1481C17.7566 18.351 15.2278 20.5615 14.9638 23.7314C14.8712 24.8428 14.8099 26.1442 14.8099 27.6418C14.8099 29.2132 14.8774 30.5684 14.9777 31.715C15.2471 34.7958 17.6805 36.9438 20.7669 37.1394C22.6094 37.2562 25.021 37.3454 28.0885 37.3454C31.1561 37.3454 33.5676 37.2562 35.4101 37.1394C38.4965 36.9438 40.9299 34.7958 41.1994 31.715C41.2996 30.5684 41.367 29.2132 41.367 27.6418Z" fill="#7F76B3" fill-opacity="0.1" stroke="#7F76B3" stroke-width="2" stroke-linecap="round" stroke-linejoin="round"/>
<path d="M29.1102 29.684L32.6852 32.2375L36.2602 29.684" stroke="#7F76B3" stroke-width="2" stroke-linecap="round" stroke-linejoin="round"/>
<path d="M36.2601 25.5987L32.6851 23.0452L29.1101 25.5987" stroke="#7F76B3" stroke-width="2" stroke-linecap="round" stroke-linejoin="round"/>
</g>
</g>
<defs>
<clipPath id="clip0_6_137">
<rect width="55" height="55" fill="white" transform="translate(0.43158 0.143555)"/>
</clipPath>
<clipPath id="clip1_6_137">
<rect width="29.7" height="22.5" fill="white" transform="translate(13.0816 16.3936)"/>
</clipPath>
</defs>
</svg>
