<svg width="56" height="56" viewBox="0 0 56 56" fill="none" xmlns="http://www.w3.org/2000/svg">
<mask id="mask0_6_97" style="mask-type:alpha" maskUnits="userSpaceOnUse" x="0" y="0" width="56" height="56">
<g clip-path="url(#clip0_6_97)">
<path d="M55.4316 27.6436C55.4316 21.4984 55.1655 16.519 54.822 12.6515C54.2474 6.18052 49.3946 1.32779 42.9237 0.753134C39.0562 0.409673 34.0768 0.143555 27.9316 0.143555C21.7864 0.143555 16.807 0.409673 12.9395 0.753134C6.46855 1.32779 1.61582 6.18052 1.04116 12.6515C0.697698 16.519 0.43158 21.4984 0.43158 27.6436C0.43158 34.0198 0.718085 39.1409 1.08021 43.0672C1.6554 49.3034 6.25873 53.981 12.4968 54.536C16.3462 54.8785 21.4268 55.1436 27.9316 55.1436C34.4364 55.1436 39.517 54.8785 43.3664 54.536C49.6045 53.981 54.2078 49.3034 54.783 43.0672C55.1451 39.1409 55.4316 34.0198 55.4316 27.6436Z" fill="black"/>
</g>
</mask>
<g mask="url(#mask0_6_97)">
<rect width="55" height="55" transform="translate(0.43158 0.143555)" fill="#F8F8FC"/>
<g clip-path="url(#clip1_6_97)">
<path d="M39.2867 14.6107L41.3296 17.4196L34.9456 34.2733L28.8171 31.975L35.9671 14.8661L39.2867 14.6107Z" fill="#7F76B3" fill-opacity="0.1"/>
<path d="M33.014 37.4219C31.7097 38.6295 29.1517 40.9382 28.7982 40.8038C28.4425 40.6686 28.1992 37.2535 28.0983 35.521C28.0603 34.8686 28.1687 34.2178 28.4064 33.6091L28.7982 32.6059L35.0948 16.4826C35.7274 14.8628 37.5243 13.9979 39.1497 14.616C40.7317 15.2175 41.4641 17.0196 40.8485 18.5961L34.625 34.5324L34.1537 35.7389C33.9039 36.3788 33.5181 36.9552 33.014 37.4219Z" fill="#7F76B3" fill-opacity="0.1"/>
<path d="M28.7982 32.6059L28.4064 33.6091C28.1687 34.2178 28.0603 34.8686 28.0983 35.521C28.1992 37.2535 28.4425 40.6686 28.7982 40.8038C29.1517 40.9382 31.7097 38.6295 33.014 37.4219C33.5181 36.9552 33.9039 36.3788 34.1537 35.7389L34.625 34.5324M28.7982 32.6059L35.0948 16.4826C35.7274 14.8628 37.5243 13.9979 39.1497 14.616C40.7317 15.2175 41.4641 17.0196 40.8485 18.596L34.625 34.5324M28.7982 32.6059C28.7982 32.6059 30.094 32.4106 31.8815 33.0017C33.669 33.5927 34.625 34.5324 34.625 34.5324" stroke="#7F76B3" stroke-width="2" stroke-linecap="round" stroke-linejoin="round"/>
<path d="M16.5603 18.9551C16.5603 18.9551 15.5389 20.9829 15.5389 27.6372C15.5389 34.2915 16.5603 36.3193 16.5603 36.3193" stroke="#7F76B3" stroke-width="2" stroke-linecap="round" stroke-linejoin="round"/>
<path d="M19.1136 16.4019C19.1136 16.4019 20.3904 15.6358 24.6038 15.3805C28.8172 15.1251 31.1154 15.6358 31.1154 15.6358" stroke="#7F76B3" stroke-width="2" stroke-linecap="round" stroke-linejoin="round"/>
<path d="M19.1137 38.8741H24.4761" stroke="#7F76B3" stroke-width="2" stroke-linecap="round" stroke-linejoin="round"/>
<path d="M14.5173 16.6588C14.5173 17.9281 15.5462 18.957 16.8155 18.957C18.0848 18.957 19.1137 17.9281 19.1137 16.6588C19.1137 15.3895 18.0848 14.3606 16.8155 14.3606C15.5462 14.3606 14.5173 15.3895 14.5173 16.6588Z" fill="#7F76B3" fill-opacity="0.1" stroke="#7F76B3" stroke-width="2" stroke-linecap="round" stroke-linejoin="round"/>
<path d="M14.5173 38.6192C14.5173 39.8884 15.5462 40.9173 16.8155 40.9173C18.0848 40.9173 19.1137 39.8884 19.1137 38.6192C19.1137 37.3499 18.0848 36.3209 16.8155 36.3209C15.5462 36.3209 14.5173 37.3499 14.5173 38.6192Z" fill="#7F76B3" fill-opacity="0.1" stroke="#7F76B3" stroke-width="2" stroke-linecap="round" stroke-linejoin="round"/>
</g>
</g>
<defs>
<clipPath id="clip0_6_97">
<rect width="55" height="55" fill="white" transform="translate(0.43158 0.143555)"/>
</clipPath>
<clipPath id="clip1_6_97">
<rect width="28.8" height="28.8" fill="white" transform="translate(13.5316 13.2435)"/>
</clipPath>
</defs>
</svg>
