<svg width="56" height="56" viewBox="0 0 56 56" fill="none" xmlns="http://www.w3.org/2000/svg">
<mask id="mask0_6_57" style="mask-type:alpha" maskUnits="userSpaceOnUse" x="0" y="0" width="56" height="56">
<g clip-path="url(#clip0_6_57)">
<path d="M55.4316 27.6436C55.4316 21.4984 55.1655 16.519 54.822 12.6515C54.2474 6.18052 49.3946 1.32779 42.9237 0.753134C39.0562 0.409673 34.0768 0.143555 27.9316 0.143555C21.7864 0.143555 16.807 0.409673 12.9395 0.753134C6.46855 1.32779 1.61582 6.18052 1.04116 12.6515C0.697698 16.519 0.43158 21.4984 0.43158 27.6436C0.43158 34.0198 0.718085 39.1409 1.08021 43.0672C1.6554 49.3034 6.25873 53.981 12.4968 54.536C16.3462 54.8785 21.4268 55.1436 27.9316 55.1436C34.4364 55.1436 39.517 54.8785 43.3664 54.536C49.6045 53.981 54.2078 49.3034 54.783 43.0672C55.1451 39.1409 55.4316 34.0198 55.4316 27.6436Z" fill="black"/>
</g>
</mask>
<g mask="url(#mask0_6_57)">
<rect width="55" height="55" transform="translate(0.43158 0.143555)" fill="#F8F8FC"/>
<g clip-path="url(#clip1_6_57)">
<path d="M34.6816 34.3936C33.5292 34.3936 32.5855 34.4134 31.8415 34.4396C30.4481 34.4889 29.2816 35.2494 29.2816 36.6436C29.2816 38.0396 30.4451 38.8034 31.8405 38.8505C32.5712 38.8753 33.5084 38.8936 34.6816 38.8936C35.8549 38.8936 36.792 38.8753 37.5227 38.8505C38.9181 38.8034 40.0816 38.0396 40.0816 36.6436C40.0816 35.2494 38.9151 34.4889 37.5217 34.4396C36.7777 34.4134 35.8341 34.3936 34.6816 34.3936Z" stroke="#7F76B3" stroke-width="2" stroke-linecap="round" stroke-linejoin="round"/>
<path d="M36.4816 27.6436C36.4816 27.6149 36.4814 27.5867 36.4811 27.5588C36.462 26.1379 35.085 25.517 33.6646 25.4726C32.3665 25.432 30.4686 25.3936 27.9316 25.3936C25.3946 25.3936 23.4966 25.432 22.1986 25.4726C20.7782 25.517 19.4012 26.1379 19.3822 27.5588C19.3818 27.5867 19.3816 27.6149 19.3816 27.6436C19.3816 27.6888 19.3821 27.7332 19.383 27.7767C19.4127 29.1662 20.7593 29.7735 22.1485 29.8171C23.4129 29.8567 25.2963 29.8936 27.9316 29.8936C30.5669 29.8936 32.4503 29.8567 33.7147 29.8171C35.1039 29.7735 36.4505 29.1662 36.4802 27.7767C36.4811 27.7332 36.4816 27.6888 36.4816 27.6436Z" stroke="#7F76B3" stroke-width="2" stroke-linecap="round" stroke-linejoin="round"/>
<path d="M21.1816 16.3936C20.0292 16.3936 19.0855 16.4134 18.3415 16.4397C16.9481 16.4889 15.7816 17.2494 15.7816 18.6436C15.7816 20.0397 16.9451 20.8034 18.3405 20.8506C19.0712 20.8753 20.0084 20.8936 21.1816 20.8936C22.3548 20.8936 23.2921 20.8753 24.0227 20.8506C25.4181 20.8034 26.5816 20.0397 26.5816 18.6436C26.5816 17.2494 25.4151 16.4889 24.0217 16.4397C23.2777 16.4134 22.3341 16.3936 21.1816 16.3936Z" stroke="#7F76B3" stroke-width="2" stroke-linecap="round" stroke-linejoin="round"/>
</g>
</g>
<defs>
<clipPath id="clip0_6_57">
<rect width="55" height="55" fill="white" transform="translate(0.43158 0.143555)"/>
</clipPath>
<clipPath id="clip1_6_57">
<rect width="26.1" height="24.3" fill="white" transform="translate(14.8816 15.4935)"/>
</clipPath>
</defs>
</svg>
