<svg width="56" height="56" viewBox="0 0 56 56" fill="none" xmlns="http://www.w3.org/2000/svg">
<mask id="mask0_6_66" style="mask-type:alpha" maskUnits="userSpaceOnUse" x="0" y="0" width="56" height="56">
<g clip-path="url(#clip0_6_66)">
<path d="M55.4316 27.6436C55.4316 21.4984 55.1655 16.519 54.822 12.6515C54.2474 6.18052 49.3946 1.32779 42.9237 0.753134C39.0562 0.409673 34.0768 0.143555 27.9316 0.143555C21.7864 0.143555 16.807 0.409673 12.9395 0.753134C6.46855 1.32779 1.61582 6.18052 1.04116 12.6515C0.697698 16.519 0.43158 21.4984 0.43158 27.6436C0.43158 34.0198 0.718085 39.1409 1.08021 43.0672C1.6554 49.3034 6.25873 53.981 12.4968 54.536C16.3462 54.8785 21.4268 55.1436 27.9316 55.1436C34.4364 55.1436 39.517 54.8785 43.3664 54.536C49.6045 53.981 54.2078 49.3034 54.783 43.0672C55.1451 39.1409 55.4316 34.0198 55.4316 27.6436Z" fill="black"/>
</g>
</mask>
<g mask="url(#mask0_6_66)">
<rect width="55" height="55" transform="translate(0.43158 0.143555)" fill="#F8F8FC"/>
<g clip-path="url(#clip1_6_66)">
<path fill-rule="evenodd" clip-rule="evenodd" d="M27.7941 40.8993C25.5719 40.8993 23.7843 40.7939 22.3813 40.6509C19.7071 40.3782 17.8297 38.3077 17.6102 35.6286C17.4532 33.7124 17.3245 31.0849 17.3245 27.6208C17.3245 24.1567 17.4532 21.5291 17.6102 19.6129C17.8297 16.9338 19.7071 14.8633 22.3813 14.5906C23.7843 14.4476 25.572 14.3422 27.7941 14.3422C29.9803 14.3422 31.7969 14.4442 33.2594 14.5837C36.1793 14.8624 38.28 17.1434 38.5073 20.0679C38.6558 21.9772 38.7745 24.4845 38.7745 27.6208C38.7745 28.8235 38.757 29.9339 38.7271 30.9534C36.238 33.0499 33.2324 33.0757 31.6674 32.9063C31.2052 32.8562 30.764 33.3224 30.8313 33.7824C31.055 35.3117 31.0833 38.2522 28.7969 40.892C28.4717 40.8968 28.1375 40.8993 27.7941 40.8993Z" fill="#7F76B3" fill-opacity="0.1"/>
<path d="M22.804 40.6921C24.1381 40.814 25.7894 40.8998 27.7943 40.8998C29.7533 40.8998 31.4155 40.8179 32.792 40.7005C36.0038 40.4265 38.3128 37.922 38.5424 34.7068C38.6741 32.8617 38.7747 30.5078 38.7747 27.6213C38.7747 24.7346 38.6741 22.3807 38.5424 20.5356C38.3128 17.3204 36.0038 14.816 32.792 14.542C31.4155 14.4246 29.7533 14.3427 27.7943 14.3427C25.7894 14.3427 24.1381 14.4284 22.804 14.5503C19.8623 14.819 17.7994 17.0911 17.5771 20.0366C17.4356 21.9107 17.3246 24.4056 17.3246 27.6213C17.3246 30.8369 17.4356 33.3318 17.5771 35.2058C17.7994 38.1514 19.8623 40.4235 22.804 40.6921Z" fill="#7F76B3" fill-opacity="0.1" stroke="#7F76B3" stroke-width="2" stroke-linecap="round" stroke-linejoin="round"/>
<path d="M38.5193 30.6859C35.6046 33.856 33.3715 30.7265 31.1139 32.9841C28.8564 35.2417 31.9858 37.4748 28.5604 40.6448" stroke="#7F76B3" stroke-width="2" stroke-linecap="round" stroke-linejoin="round"/>
<path d="M22.9424 20.4717H33.1567" stroke="#7F76B3" stroke-width="2" stroke-linecap="round" stroke-linejoin="round"/>
<path d="M22.9424 25.579H29.5817" stroke="#7F76B3" stroke-width="2" stroke-linecap="round" stroke-linejoin="round"/>
</g>
</g>
<defs>
<clipPath id="clip0_6_66">
<rect width="55" height="55" fill="white" transform="translate(0.43158 0.143555)"/>
</clipPath>
<clipPath id="clip1_6_66">
<rect width="24.3" height="28.8" fill="white" transform="translate(15.7816 13.2435)"/>
</clipPath>
</defs>
</svg>
