<svg width="70" height="70" viewBox="0 0 70 70" fill="none" xmlns="http://www.w3.org/2000/svg">
<mask id="mask0_6_111" style="mask-type:alpha" maskUnits="userSpaceOnUse" x="0" y="0" width="70" height="70">
<g clip-path="url(#clip0_6_111)">
<path d="M55.5616 27.7736C55.5616 21.6284 55.2955 16.649 54.952 12.7815C54.3774 6.31053 49.5246 1.4578 43.0537 0.883139C39.1862 0.539678 34.2068 0.27356 28.0616 0.27356C21.9164 0.27356 16.937 0.539678 13.0695 0.883139C6.59855 1.4578 1.74582 6.31053 1.17116 12.7815C0.827702 16.649 0.561584 21.6284 0.561584 27.7736C0.561584 34.1498 0.84809 39.2709 1.21022 43.1972C1.7854 49.4334 6.38873 54.111 12.6268 54.666C16.4762 55.0085 21.5568 55.2736 28.0616 55.2736C34.5664 55.2736 39.647 55.0085 43.4964 54.666C49.7345 54.111 54.3378 49.4334 54.913 43.1972C55.2751 39.2709 55.5616 34.1498 55.5616 27.7736Z" fill="black"/>
</g>
</mask>
<g mask="url(#mask0_6_111)">
<rect width="68.75" height="68.75" transform="translate(0.561584 0.27356)" fill="url(#paint0_linear_6_111)"/>
<g clip-path="url(#clip1_6_111)">
<path d="M51.3602 34.4755C51.3602 38.2092 51.1974 41.2299 50.988 43.5708C50.6395 47.4693 47.7592 50.3909 43.8594 50.7261C41.5632 50.9235 38.5661 51.0737 34.7619 51.0737C30.9576 51.0737 27.9606 50.9235 25.6645 50.7261C21.7647 50.3909 18.8843 47.4693 18.5358 43.5708C18.3265 41.2299 18.1637 38.2092 18.1637 34.4755C18.1637 30.8859 18.3141 27.9554 18.5117 25.6545C18.8591 21.6091 21.8955 18.5727 25.9409 18.2253C28.2419 18.0278 31.1724 17.8773 34.7619 17.8773" stroke="white" stroke-width="2" stroke-linecap="round" stroke-linejoin="round"/>
<path d="M27.9849 34.1266C31.998 36.8359 33.7173 39.2399 33.7173 39.2399C33.7173 39.2399 35.4472 35.3017 38.765 30.9593C42.3387 26.282 44.9876 24.5204 44.9876 24.5204" stroke="white" stroke-width="2" stroke-linecap="round" stroke-linejoin="round"/>
</g>
</g>
<defs>
<linearGradient id="paint0_linear_6_111" x1="-2.72346" y1="3.2457" x2="71.4735" y2="65.5043" gradientUnits="userSpaceOnUse">
<stop stop-color="#24223E"/>
<stop offset="1" stop-color="#282642"/>
</linearGradient>
<clipPath id="clip0_6_111">
<rect width="68.75" height="68.75" fill="white" transform="translate(0.561584 0.27356)"/>
</clipPath>
<clipPath id="clip1_6_111">
<rect width="36" height="36" fill="white" transform="translate(16.9316 16.6436)"/>
</clipPath>
</defs>
</svg>
