<svg width="97" height="43" viewBox="0 0 97 43" fill="none" xmlns="http://www.w3.org/2000/svg">
<path d="M61.5444 3.45598L63.5222 10.237L62.9571 27.7544L58.1539 31.1449L46.5698 31.3287L51.0904 1.76074L61.5444 3.45598Z" fill="#514B81" fill-opacity="0.1"/>
<path d="M42.6139 16.7352L39.9571 12.2186C39.853 12.0417 39.853 11.8224 39.9571 11.6455L42.614 7.12891" stroke="#514B81" stroke-width="2" stroke-linecap="round" stroke-linejoin="round"/>
<path d="M55.0471 16.7354L57.704 21.2521C57.808 21.4289 57.808 21.6483 57.704 21.8251L55.0471 26.3418" stroke="#514B81" stroke-width="2" stroke-linecap="round" stroke-linejoin="round"/>
<path d="M46.5707 30.8622L51.0913 2.32568" stroke="#514B81" stroke-width="2" stroke-linecap="round" stroke-linejoin="round"/>
<path d="M63.5223 16.7351C63.5223 12.9004 63.3283 9.91541 63.1011 7.73422C62.8053 4.89437 60.6709 2.75996 57.831 2.46414C55.6498 2.23692 52.6649 2.04297 48.8302 2.04297C44.9956 2.04297 42.0106 2.23692 39.8294 2.46414C36.9895 2.75996 34.8551 4.89437 34.5593 7.73422C34.3321 9.91541 34.1381 12.9004 34.1381 16.7351C34.1381 20.6826 34.3437 23.7296 34.5794 25.9264C34.8732 28.6631 36.8972 30.7233 39.6347 31.0106C41.78 31.2358 44.7912 31.4271 48.8302 31.4271C52.8692 31.4271 55.8804 31.2358 58.0258 31.0106C60.7632 30.7233 62.7872 28.6631 63.081 25.9264C63.3167 23.7296 63.5223 20.6826 63.5223 16.7351Z" stroke="#514B81" stroke-width="2" stroke-linecap="round" stroke-linejoin="round"/>
</svg>
