<svg width="41" height="41" viewBox="0 0 41 41" fill="none" xmlns="http://www.w3.org/2000/svg">
<mask id="mask0_6_459" style="mask-type:alpha" maskUnits="userSpaceOnUse" x="0" y="0" width="41" height="41">
<g clip-path="url(#clip0_6_459)">
<path d="M20.9316 40.5928C24.8317 40.5928 28.0861 40.4454 30.7209 40.2419C36.1185 39.8249 40.1637 35.7798 40.5807 30.3822C40.7842 27.7475 40.9316 24.4932 40.9316 20.5933C40.9316 16.6934 40.7842 13.4392 40.5807 10.8044C40.1637 5.40679 36.1185 1.3616 30.7209 0.944661C28.0861 0.741132 24.8317 0.59375 20.9316 0.59375C16.85 0.59375 13.4756 0.755166 10.7785 0.973428C5.57659 1.39438 1.68654 5.23381 1.28475 10.4372C1.08006 13.0882 0.93158 16.4419 0.93158 20.5933C0.931579 24.7447 1.08005 28.0984 1.28475 30.7493C1.68653 35.9527 5.57659 39.7922 10.7785 40.2131C13.4756 40.4314 16.85 40.5928 20.9316 40.5928Z" fill="black"/>
</g>
</mask>
<g mask="url(#mask0_6_459)">
<rect width="40" height="40" transform="translate(0.93158 0.59375)" fill="#F8F8FC"/>
<path fill-rule="evenodd" clip-rule="evenodd" d="M20.717 31.672C18.6003 31.672 16.9527 31.5582 15.7134 31.4134C13.7549 31.1847 12.3777 29.6627 12.1993 27.699C12.0503 26.0587 11.9199 23.7103 11.9199 20.5147C11.9199 17.3191 12.0503 14.9707 12.1993 13.3304C12.3777 11.3667 13.7549 9.84466 15.7134 9.61595C16.9527 9.47122 18.6003 9.35742 20.717 9.35742C22.8143 9.35742 24.5068 9.46915 25.8137 9.61199C27.9527 9.84577 29.4918 11.5183 29.6772 13.662C29.8205 15.32 29.9432 17.5924 29.9432 20.5147C29.9432 21.5252 29.9285 22.458 29.9034 23.3146C27.7491 25.1288 25.1346 25.0972 23.8567 24.9419C23.5182 24.9007 23.1974 25.2409 23.2519 25.5775C23.4541 26.826 23.5396 29.3802 21.5594 31.6658C21.2862 31.6699 21.0054 31.672 20.717 31.672Z" fill="#242236" fill-opacity="0.09"/>
<path d="M15.7135 31.4134C16.9529 31.5582 18.6004 31.672 20.7171 31.672C22.8144 31.672 24.507 31.5602 25.8139 31.4174C27.9528 31.1836 29.492 29.5111 29.6773 27.3674C29.8207 25.7094 29.9433 23.437 29.9433 20.5147C29.9433 17.5924 29.8207 15.32 29.6773 13.662C29.492 11.5183 27.9528 9.84577 25.8139 9.61199C24.507 9.46915 22.8144 9.35742 20.7171 9.35742C18.6004 9.35742 16.9529 9.47122 15.7135 9.61595C13.755 9.84466 12.3778 11.3667 12.1994 13.3304C12.0504 14.9707 11.92 17.3191 11.92 20.5147C11.92 23.7103 12.0504 26.0587 12.1994 27.699C12.3778 29.6627 13.755 31.1847 15.7135 31.4134Z" stroke="#24223E" stroke-width="2" stroke-linecap="round" stroke-linejoin="round"/>
<path d="M29.7285 23.0889C27.2794 25.7526 25.4031 23.1231 23.5062 25.02C21.6092 26.9169 24.2387 28.7933 21.3605 31.4569" stroke="#24223E" stroke-width="2" stroke-linecap="round" stroke-linejoin="round"/>
<path d="M16.6406 14.5063H25.2231" stroke="#24223E" stroke-width="2" stroke-linecap="round" stroke-linejoin="round"/>
<path d="M16.6406 18.7979H22.2192" stroke="#24223E" stroke-width="2" stroke-linecap="round" stroke-linejoin="round"/>
</g>
<defs>
<clipPath id="clip0_6_459">
<rect width="40" height="40" fill="white" transform="translate(0.93158 0.59375)"/>
</clipPath>
</defs>
</svg>
