<svg width="64" height="42" viewBox="0 0 64 42" fill="none" xmlns="http://www.w3.org/2000/svg">
<g clip-path="url(#clip0_6_374)">
<path d="M46.1825 21.2047C46.3731 19.5727 46.5229 17.4032 46.5229 14.616C46.5229 11.8542 46.3758 9.62541 46.1877 7.90452C45.8798 5.08791 43.6774 3.06108 40.8545 2.81705C38.6714 2.62831 35.6789 2.4668 31.8308 2.4668C27.9828 2.4668 24.9903 2.62831 22.8071 2.81705C19.9843 3.06108 17.7818 5.08791 17.474 7.90452C17.2859 9.62541 17.1388 11.8542 17.1388 14.616C17.1388 17.4032 17.2886 19.5727 17.4792 21.2047C17.7804 23.7837 19.7846 25.5972 22.3705 25.8321C24.5304 26.0284 27.6228 26.2001 31.8308 26.2001C36.0389 26.2001 39.1312 26.0284 41.2912 25.8321C43.8771 25.5972 45.8813 23.7837 46.1825 21.2047Z" fill="#24223E" fill-opacity="0.1" stroke="#514B81" stroke-width="2" stroke-linecap="round" stroke-linejoin="round"/>
<path d="M39.7423 20.5497V20.5497C39.7423 20.8617 39.9953 21.1147 40.3074 21.1147H40.3074C40.6194 21.1147 40.8724 20.8617 40.8724 20.5497V20.5497C40.8724 20.2376 40.6194 19.9846 40.3074 19.9846H40.3074C39.9953 19.9846 39.7423 20.2376 39.7423 20.5497Z" fill="#514B81" stroke="#514B81" stroke-width="2" stroke-linecap="round" stroke-linejoin="round"/>
<path d="M41.4374 30.7209C41.4374 30.7209 38.5252 30.1558 31.8311 30.1558C25.137 30.1558 22.2247 30.7209 22.2247 30.7209" stroke="#514B81" stroke-width="2" stroke-linecap="round" stroke-linejoin="round"/>
</g>
<defs>
<clipPath id="clip0_6_374">
<rect width="32" height="32" fill="white" transform="translate(16.0216 0.59375)"/>
</clipPath>
</defs>
</svg>
