<svg width="386" height="280" viewBox="0 0 386 280" fill="none" xmlns="http://www.w3.org/2000/svg">
<mask id="mask0_6_528" style="mask-type:alpha" maskUnits="userSpaceOnUse" x="0" y="0" width="386" height="280">
<g clip-path="url(#clip0_6_528)">
<path d="M-4.64069 4.53027L416.296 33.7522V328.983H-4.64069V4.53027Z" fill="black"/>
</g>
</mask>
<g mask="url(#mask0_6_528)">
<rect width="385" height="279" transform="translate(0.43158 0.983398)" fill="url(#paint0_linear_6_528)"/>
<g clip-path="url(#clip1_6_528)">
<path d="M45.8219 42.1896V45.6467H53.8321V50.2244H45.8219V58.3753H40.4316V37.6188H54.4204V42.1896H45.8219ZM58.7231 58.3753V37.6188H64.1134V58.3753H58.7231ZM84.5528 58.3753L74.6204 45.6741V58.3685H69.2301V37.6188H74.6204L84.5596 50.3132V37.6188H89.9499V58.3753H84.5528ZM108.953 58.3753L107.612 54.7679H100.17L98.7399 58.3753H93.076L100.922 37.6188H106.901L114.719 58.3753H108.953ZM103.904 44.0617L101.661 50.6617H106.148L103.904 44.0617ZM145.386 42.1896V58.3685H139.995V42.1896H135.001V37.6188H150.475V42.1896H145.386ZM164.635 58.3753L159.463 50.4089V58.3753H154.073V37.6188H162.487C164.45 37.6188 166.16 37.9946 167.563 39.4567C168.746 40.6728 169.341 42.3809 169.341 44.0617C169.341 45.3666 168.937 46.8287 168.158 47.8877C167.316 49.0356 166.194 49.5685 164.826 49.8759L171.338 58.3685H164.635V58.3753ZM160.489 41.7865H159.463V46.9244H160.489C162.172 46.9244 163.793 46.2685 163.793 44.3418C163.793 42.4082 162.138 41.7865 160.489 41.7865ZM188.659 58.3753L187.318 54.7679H179.875L178.446 58.3753H172.748L180.724 37.6188H186.613L194.432 58.3753H188.659ZM183.61 44.0617L181.367 50.6617H185.854L183.61 44.0617ZM131.964 55.3076C130.61 57.9449 127.367 58.9834 124.57 58.9834C121.957 58.9834 119.337 58.0542 117.196 56.5784L119.597 52.2263C120.951 53.4219 122.552 54.3648 124.412 54.3648C125.732 54.3648 127.025 53.7977 127.025 52.2877C127.025 48.6393 118.119 51.4064 118.119 44.0548C118.119 39.812 121.013 36.9834 125.233 36.9834C127.559 36.9834 129.604 37.4822 131.65 38.548L129.816 42.9822C128.777 42.1349 127.532 41.5132 126.143 41.5132C125.076 41.5132 123.817 42.1076 123.817 43.3374C123.817 46.4188 132.751 44.4033 132.751 51.5704C132.751 52.766 132.532 54.2418 131.964 55.3076Z" fill="white"/>
</g>
<path d="M46.955 102.745L45.871 107.101H44.4355L45.8124 102.745H46.955ZM43.9863 102.745L42.9316 107.101H41.4667L42.8339 102.745H43.9863ZM66.4081 102.979L62.4531 116.983H60.5292L57.6484 106.749C57.5247 106.313 57.4498 105.838 57.4238 105.323H57.3847C57.3456 105.805 57.261 106.274 57.1308 106.729L54.2304 116.983H52.3261L48.2245 102.979H50.0312L53.0097 113.722C53.1334 114.171 53.2115 114.64 53.2441 115.128H53.2929C53.3255 114.783 53.4264 114.314 53.5956 113.722L56.6913 102.979H58.2636L61.2324 113.8C61.3365 114.171 61.4147 114.607 61.4667 115.108H61.5058C61.5318 114.77 61.6197 114.321 61.7695 113.761L64.6308 102.979H66.4081ZM69.1035 104.444C68.817 104.444 68.5729 104.347 68.371 104.151C68.1692 103.956 68.0683 103.709 68.0683 103.409C68.0683 103.11 68.1692 102.862 68.371 102.667C68.5729 102.465 68.817 102.364 69.1035 102.364C69.3964 102.364 69.6438 102.465 69.8456 102.667C70.054 102.862 70.1581 103.11 70.1581 103.409C70.1581 103.696 70.054 103.94 69.8456 104.142C69.6438 104.343 69.3964 104.444 69.1035 104.444ZM69.8847 116.983H68.2831V106.983H69.8847V116.983ZM77.7656 116.886C77.388 117.094 76.8899 117.198 76.2714 117.198C74.5201 117.198 73.6445 116.222 73.6445 114.269V108.351H71.9257V106.983H73.6445V104.542L75.246 104.024V106.983H77.7656V108.351H75.246V113.985C75.246 114.656 75.36 115.134 75.5878 115.421C75.8157 115.707 76.1933 115.851 76.7206 115.851C77.1243 115.851 77.4726 115.74 77.7656 115.519V116.886ZM88.205 116.983H86.6035V111.222C86.6035 109.138 85.8287 108.097 84.2792 108.097C83.498 108.097 82.8404 108.399 82.3066 109.005C81.7727 109.604 81.5058 110.375 81.5058 111.319V116.983H79.9042V102.179H81.5058V108.644H81.5449C82.3131 107.381 83.4068 106.749 84.8261 106.749C87.0787 106.749 88.205 108.106 88.205 110.821V116.983ZM106.467 116.397C105.432 116.944 104.143 117.218 102.6 117.218C100.607 117.218 99.0123 116.576 97.8144 115.294C96.6165 114.011 96.0175 112.328 96.0175 110.245C96.0175 108.006 96.6913 106.196 98.039 104.815C99.3867 103.435 101.096 102.745 103.166 102.745C104.494 102.745 105.594 102.937 106.467 103.321V105.069C105.464 104.509 104.357 104.229 103.146 104.229C101.538 104.229 100.233 104.767 99.2304 105.841C98.2343 106.915 97.7363 108.351 97.7363 110.147C97.7363 111.853 98.2018 113.214 99.1328 114.229C100.07 115.239 101.297 115.743 102.814 115.743C104.221 115.743 105.438 115.431 106.467 114.806V116.397ZM110.705 116.983H109.103V102.179H110.705V116.983ZM114.768 104.444C114.481 104.444 114.237 104.347 114.035 104.151C113.833 103.956 113.732 103.709 113.732 103.409C113.732 103.11 113.833 102.862 114.035 102.667C114.237 102.465 114.481 102.364 114.768 102.364C115.06 102.364 115.308 102.465 115.51 102.667C115.718 102.862 115.822 103.11 115.822 103.409C115.822 103.696 115.718 103.94 115.51 104.142C115.308 104.343 115.06 104.444 114.768 104.444ZM115.549 116.983H113.947V106.983H115.549V116.983ZM125.607 116.524C124.839 116.987 123.928 117.218 122.873 117.218C121.447 117.218 120.295 116.756 119.416 115.831C118.544 114.9 118.107 113.696 118.107 112.218C118.107 110.571 118.579 109.249 119.523 108.253C120.467 107.25 121.727 106.749 123.303 106.749C124.182 106.749 124.956 106.912 125.627 107.237V108.878C124.885 108.357 124.09 108.097 123.244 108.097C122.222 108.097 121.382 108.465 120.725 109.2C120.074 109.929 119.748 110.89 119.748 112.081C119.748 113.253 120.054 114.177 120.666 114.854C121.284 115.532 122.111 115.87 123.146 115.87C124.019 115.87 124.839 115.58 125.607 115.001V116.524ZM136.33 116.983H134.084L129.67 112.179H129.631V116.983H128.029V102.179H129.631V111.563H129.67L133.869 106.983H135.969L131.33 111.808L136.33 116.983ZM148.43 111.319C148.43 115.252 146.656 117.218 143.107 117.218C139.709 117.218 138.01 115.326 138.01 111.544V102.979H139.65V111.437C139.65 114.308 140.861 115.743 143.283 115.743C145.62 115.743 146.789 114.356 146.789 111.583V102.979H148.43V111.319ZM153.361 115.538H153.322V121.583H151.721V106.983H153.322V108.741H153.361C154.149 107.413 155.301 106.749 156.818 106.749C158.107 106.749 159.113 107.198 159.836 108.097C160.559 108.989 160.92 110.187 160.92 111.69C160.92 113.364 160.513 114.705 159.699 115.714C158.885 116.716 157.772 117.218 156.359 117.218C155.064 117.218 154.064 116.658 153.361 115.538ZM153.322 111.505V112.901C153.322 113.728 153.589 114.431 154.123 115.011C154.663 115.584 155.347 115.87 156.174 115.87C157.144 115.87 157.902 115.499 158.449 114.757C159.003 114.015 159.279 112.983 159.279 111.661C159.279 110.548 159.022 109.675 158.508 109.044C157.993 108.412 157.297 108.097 156.418 108.097C155.487 108.097 154.738 108.422 154.172 109.073C153.605 109.718 153.322 110.528 153.322 111.505ZM181.564 106.983L178.566 116.983H176.906L174.846 109.825C174.768 109.552 174.715 109.243 174.689 108.897H174.65C174.631 109.132 174.562 109.435 174.445 109.806L172.209 116.983H170.607L167.58 106.983H169.26L171.33 114.503C171.395 114.731 171.441 115.03 171.467 115.401H171.545C171.564 115.115 171.623 114.809 171.721 114.483L174.025 106.983H175.49L177.56 114.522C177.626 114.763 177.674 115.063 177.707 115.421H177.785C177.798 115.167 177.853 114.868 177.951 114.522L179.982 106.983H181.564ZM191.457 112.384H184.396C184.422 113.497 184.722 114.356 185.295 114.962C185.868 115.567 186.656 115.87 187.658 115.87C188.784 115.87 189.82 115.499 190.764 114.757V116.261C189.885 116.899 188.723 117.218 187.277 117.218C185.865 117.218 184.754 116.765 183.947 115.86C183.14 114.949 182.736 113.67 182.736 112.022C182.736 110.466 183.176 109.2 184.055 108.224C184.94 107.241 186.037 106.749 187.346 106.749C188.654 106.749 189.667 107.172 190.383 108.019C191.099 108.865 191.457 110.04 191.457 111.544V112.384ZM189.816 111.026C189.81 110.102 189.585 109.382 189.143 108.868C188.706 108.354 188.098 108.097 187.316 108.097C186.561 108.097 185.92 108.367 185.393 108.907C184.865 109.448 184.54 110.154 184.416 111.026H189.816ZM195.275 102.979V107.345H193.859V102.979H195.275ZM206.359 106.983L202.375 116.983H200.803L197.014 106.983H198.771L201.31 114.249C201.499 114.783 201.616 115.248 201.662 115.646H201.701C201.766 115.144 201.87 114.692 202.014 114.288L204.67 106.983H206.359ZM216.125 112.384H209.064C209.09 113.497 209.39 114.356 209.963 114.962C210.536 115.567 211.324 115.87 212.326 115.87C213.452 115.87 214.488 115.499 215.432 114.757V116.261C214.553 116.899 213.391 117.218 211.945 117.218C210.532 117.218 209.422 116.765 208.615 115.86C207.808 114.949 207.404 113.67 207.404 112.022C207.404 110.466 207.844 109.2 208.723 108.224C209.608 107.241 210.705 106.749 212.014 106.749C213.322 106.749 214.335 107.172 215.051 108.019C215.767 108.865 216.125 110.04 216.125 111.544V112.384ZM214.484 111.026C214.478 110.102 214.253 109.382 213.81 108.868C213.374 108.354 212.766 108.097 211.984 108.097C211.229 108.097 210.588 108.367 210.06 108.907C209.533 109.448 209.208 110.154 209.084 111.026H214.484ZM223.439 116.622V114.903C224.312 115.548 225.272 115.87 226.32 115.87C227.727 115.87 228.43 115.401 228.43 114.464C228.43 114.197 228.368 113.972 228.244 113.79C228.127 113.601 227.964 113.435 227.756 113.292C227.554 113.149 227.313 113.022 227.033 112.911C226.76 112.794 226.463 112.674 226.144 112.55C225.702 112.374 225.311 112.198 224.973 112.022C224.641 111.84 224.361 111.638 224.133 111.417C223.911 111.189 223.742 110.932 223.625 110.646C223.514 110.359 223.459 110.024 223.459 109.64C223.459 109.171 223.566 108.757 223.781 108.399C223.996 108.035 224.282 107.732 224.641 107.491C224.999 107.244 225.406 107.058 225.861 106.935C226.324 106.811 226.799 106.749 227.287 106.749C228.153 106.749 228.928 106.899 229.611 107.198V108.819C228.876 108.338 228.029 108.097 227.072 108.097C226.773 108.097 226.503 108.132 226.262 108.204C226.021 108.269 225.812 108.364 225.637 108.487C225.467 108.611 225.334 108.761 225.236 108.937C225.145 109.106 225.1 109.295 225.1 109.503C225.1 109.763 225.145 109.981 225.236 110.157C225.334 110.333 225.474 110.489 225.656 110.626C225.838 110.763 226.06 110.886 226.32 110.997C226.581 111.108 226.877 111.228 227.209 111.358C227.652 111.528 228.049 111.703 228.4 111.886C228.752 112.062 229.051 112.263 229.299 112.491C229.546 112.713 229.735 112.97 229.865 113.263C230.002 113.556 230.07 113.904 230.07 114.308C230.07 114.802 229.96 115.232 229.738 115.597C229.523 115.961 229.234 116.264 228.869 116.505C228.504 116.746 228.085 116.925 227.609 117.042C227.134 117.159 226.636 117.218 226.115 117.218C225.087 117.218 224.195 117.019 223.439 116.622ZM240.578 112.384H233.518C233.544 113.497 233.843 114.356 234.416 114.962C234.989 115.567 235.777 115.87 236.779 115.87C237.906 115.87 238.941 115.499 239.885 114.757V116.261C239.006 116.899 237.844 117.218 236.398 117.218C234.986 117.218 233.876 116.765 233.068 115.86C232.261 114.949 231.857 113.67 231.857 112.022C231.857 110.466 232.297 109.2 233.176 108.224C234.061 107.241 235.158 106.749 236.467 106.749C237.775 106.749 238.788 107.172 239.504 108.019C240.22 108.865 240.578 110.04 240.578 111.544V112.384ZM238.937 111.026C238.931 110.102 238.706 109.382 238.264 108.868C237.827 108.354 237.219 108.097 236.437 108.097C235.682 108.097 235.041 108.367 234.514 108.907C233.986 109.448 233.661 110.154 233.537 111.026H238.937ZM251.047 112.384H243.986C244.012 113.497 244.312 114.356 244.885 114.962C245.458 115.567 246.245 115.87 247.248 115.87C248.374 115.87 249.409 115.499 250.353 114.757V116.261C249.475 116.899 248.312 117.218 246.867 117.218C245.454 117.218 244.344 116.765 243.537 115.86C242.73 114.949 242.326 113.67 242.326 112.022C242.326 110.466 242.766 109.2 243.644 108.224C244.53 107.241 245.627 106.749 246.935 106.749C248.244 106.749 249.256 107.172 249.973 108.019C250.689 108.865 251.047 110.04 251.047 111.544V112.384ZM249.406 111.026C249.4 110.102 249.175 109.382 248.732 108.868C248.296 108.354 247.687 108.097 246.906 108.097C246.151 108.097 245.51 108.367 244.982 108.907C244.455 109.448 244.129 110.154 244.006 111.026H249.406ZM261.779 116.983H260.178V111.28C260.178 109.158 259.403 108.097 257.853 108.097C257.053 108.097 256.389 108.399 255.861 109.005C255.34 109.604 255.08 110.362 255.08 111.28V116.983H253.478V106.983H255.08V108.644H255.119C255.874 107.381 256.968 106.749 258.4 106.749C259.494 106.749 260.331 107.104 260.91 107.813C261.49 108.517 261.779 109.535 261.779 110.87V116.983ZM277.453 116.983H275.852V115.421H275.812C275.116 116.619 274.09 117.218 272.736 117.218C271.74 117.218 270.959 116.954 270.393 116.427C269.833 115.899 269.553 115.2 269.553 114.327C269.553 112.459 270.653 111.371 272.853 111.065L275.852 110.646C275.852 108.946 275.165 108.097 273.791 108.097C272.587 108.097 271.499 108.507 270.529 109.327V107.687C271.512 107.062 272.645 106.749 273.928 106.749C276.278 106.749 277.453 107.993 277.453 110.479V116.983ZM275.852 111.925L273.439 112.257C272.697 112.361 272.137 112.547 271.76 112.813C271.382 113.074 271.193 113.539 271.193 114.21C271.193 114.698 271.366 115.099 271.711 115.411C272.062 115.717 272.528 115.87 273.107 115.87C273.902 115.87 274.556 115.593 275.07 115.04C275.591 114.48 275.852 113.774 275.852 112.921V111.925ZM49.7285 129.979V138.808H51.4081V141.112H49.7285V143.983H46.916V141.112H40.8124V138.7C41.3528 138.095 41.9127 137.434 42.4921 136.718C43.0716 135.995 43.6314 135.253 44.1718 134.491C44.7122 133.729 45.2135 132.965 45.6757 132.196C46.1445 131.422 46.5416 130.683 46.8671 129.979H49.7285ZM43.5761 138.808H46.916V133.915C46.6881 134.338 46.4407 134.768 46.1738 135.204C45.9068 135.634 45.6269 136.06 45.3339 136.483C45.041 136.9 44.7447 137.307 44.4453 137.704C44.1458 138.095 43.8561 138.463 43.5761 138.808ZM57.6093 144.228C54.276 144.228 52.6093 141.887 52.6093 137.206C52.6093 134.778 53.0585 132.929 53.957 131.659C54.8619 130.383 56.1705 129.745 57.8828 129.745C61.138 129.745 62.7656 132.125 62.7656 136.884C62.7656 139.254 62.3196 141.07 61.4277 142.333C60.5423 143.596 59.2695 144.228 57.6093 144.228ZM57.746 132.099C56.4114 132.099 55.7441 133.775 55.7441 137.128C55.7441 140.285 56.3984 141.864 57.707 141.864C58.983 141.864 59.621 140.237 59.621 136.981C59.621 133.726 58.996 132.099 57.746 132.099ZM67.6386 137.079C66.6425 137.079 65.8385 136.763 65.2265 136.132C64.621 135.5 64.3183 134.651 64.3183 133.583C64.3183 132.418 64.6406 131.493 65.2851 130.81C65.9361 130.126 66.802 129.784 67.8828 129.784C68.9179 129.784 69.7252 130.093 70.3046 130.712C70.8906 131.33 71.1835 132.2 71.1835 133.319C71.1835 134.472 70.8613 135.386 70.2167 136.063C69.5722 136.741 68.7128 137.079 67.6386 137.079ZM67.8242 131.503C66.8736 131.503 66.3984 132.164 66.3984 133.485C66.3984 134.735 66.8509 135.36 67.7558 135.36C68.6803 135.36 69.1425 134.709 69.1425 133.407C69.1425 132.138 68.7031 131.503 67.8242 131.503ZM77.8632 129.979L68.7421 143.983H66.3593L75.4609 129.979H77.8632ZM76.3593 144.179C75.3632 144.179 74.5592 143.863 73.9472 143.231C73.3417 142.6 73.039 141.75 73.039 140.683C73.039 139.517 73.3613 138.593 74.0058 137.909C74.6568 137.226 75.5227 136.884 76.6035 136.884C77.6451 136.884 78.4557 137.19 79.0351 137.802C79.6145 138.414 79.9042 139.28 79.9042 140.399C79.9042 141.552 79.582 142.47 78.9374 143.153C78.2929 143.837 77.4335 144.179 76.3593 144.179ZM76.5156 138.603C75.5716 138.603 75.0995 139.263 75.0995 140.585C75.0995 141.835 75.5585 142.46 76.4765 142.46C77.401 142.46 77.8632 141.809 77.8632 140.507C77.8632 139.901 77.7395 139.433 77.4921 139.101C77.2447 138.769 76.9192 138.603 76.5156 138.603ZM89.1718 132.401C88.651 132.401 88.2245 132.248 87.8925 131.942C87.5605 131.63 87.3945 131.249 87.3945 130.8C87.3945 130.338 87.5605 129.96 87.8925 129.667C88.2245 129.374 88.651 129.228 89.1718 129.228C89.6992 129.228 90.1256 129.374 90.4511 129.667C90.7831 129.96 90.9492 130.338 90.9492 130.8C90.9492 131.269 90.7831 131.653 90.4511 131.952C90.1256 132.252 89.6992 132.401 89.1718 132.401ZM90.6953 143.983H87.6093V133.983H90.6953V143.983ZM109.172 143.983H106.096V138.28C106.096 136.828 105.562 136.103 104.494 136.103C103.986 136.103 103.573 136.321 103.254 136.757C102.935 137.193 102.775 137.737 102.775 138.388V143.983H99.6894V138.222C99.6894 136.809 99.1653 136.103 98.1171 136.103C97.5898 136.103 97.1666 136.311 96.8476 136.728C96.5351 137.144 96.3788 137.711 96.3788 138.427V143.983H93.2929V133.983H96.3788V135.546H96.4179C96.7369 135.012 97.1829 134.579 97.7558 134.247C98.3352 133.909 98.9667 133.739 99.6503 133.739C101.063 133.739 102.03 134.361 102.551 135.604C103.312 134.361 104.432 133.739 105.91 133.739C108.085 133.739 109.172 135.08 109.172 137.763V143.983ZM114.738 142.821H114.699V148.583H111.613V133.983H114.699V135.487H114.738C115.5 134.322 116.571 133.739 117.951 133.739C119.247 133.739 120.246 134.185 120.949 135.077C121.659 135.963 122.014 137.17 122.014 138.7C122.014 140.367 121.6 141.705 120.773 142.714C119.953 143.723 118.859 144.228 117.492 144.228C116.288 144.228 115.37 143.759 114.738 142.821ZM114.65 138.72V139.521C114.65 140.211 114.833 140.774 115.197 141.21C115.562 141.646 116.04 141.864 116.633 141.864C117.336 141.864 117.879 141.594 118.264 141.054C118.654 140.507 118.85 139.735 118.85 138.739C118.85 136.981 118.166 136.103 116.799 136.103C116.167 136.103 115.65 136.343 115.246 136.825C114.849 137.3 114.65 137.932 114.65 138.72ZM130.539 136.767C130.168 136.565 129.735 136.464 129.24 136.464C128.57 136.464 128.046 136.711 127.668 137.206C127.29 137.694 127.102 138.362 127.102 139.208V143.983H124.016V133.983H127.102V135.839H127.141C127.629 134.485 128.508 133.808 129.777 133.808C130.103 133.808 130.357 133.847 130.539 133.925V136.767ZM136.672 144.228C135.005 144.228 133.693 143.762 132.736 142.831C131.786 141.894 131.31 140.624 131.31 139.022C131.31 137.369 131.805 136.076 132.795 135.146C133.784 134.208 135.122 133.739 136.809 133.739C138.469 133.739 139.771 134.208 140.715 135.146C141.659 136.076 142.131 137.31 142.131 138.847C142.131 140.507 141.643 141.819 140.666 142.782C139.696 143.746 138.365 144.228 136.672 144.228ZM136.75 136.103C136.021 136.103 135.454 136.353 135.051 136.854C134.647 137.356 134.445 138.065 134.445 138.983C134.445 140.904 135.22 141.864 136.769 141.864C138.247 141.864 138.986 140.878 138.986 138.905C138.986 137.037 138.241 136.103 136.75 136.103ZM153.654 133.983L149.934 143.983H146.418L142.873 133.983H146.174L147.912 140.146C148.107 140.842 148.221 141.435 148.254 141.923H148.293C148.338 141.461 148.459 140.888 148.654 140.204L150.432 133.983H153.654ZM163.762 139.862H157.238C157.342 141.314 158.257 142.04 159.982 142.04C161.083 142.04 162.049 141.78 162.883 141.259V143.485C161.958 143.98 160.757 144.228 159.279 144.228C157.665 144.228 156.411 143.782 155.519 142.89C154.628 141.991 154.182 140.741 154.182 139.14C154.182 137.479 154.663 136.164 155.627 135.194C156.59 134.224 157.775 133.739 159.182 133.739C160.64 133.739 161.766 134.172 162.56 135.038C163.361 135.904 163.762 137.079 163.762 138.563V139.862ZM160.9 137.968C160.9 136.535 160.321 135.819 159.162 135.819C158.667 135.819 158.238 136.024 157.873 136.435C157.515 136.845 157.297 137.356 157.219 137.968H160.9ZM181.477 143.983H178.4V138.28C178.4 136.828 177.866 136.103 176.799 136.103C176.291 136.103 175.878 136.321 175.559 136.757C175.24 137.193 175.08 137.737 175.08 138.388V143.983H171.994V138.222C171.994 136.809 171.47 136.103 170.422 136.103C169.894 136.103 169.471 136.311 169.152 136.728C168.84 137.144 168.684 137.711 168.684 138.427V143.983H165.598V133.983H168.684V135.546H168.723C169.042 135.012 169.488 134.579 170.06 134.247C170.64 133.909 171.271 133.739 171.955 133.739C173.368 133.739 174.335 134.361 174.855 135.604C175.617 134.361 176.737 133.739 178.215 133.739C180.389 133.739 181.477 135.08 181.477 137.763V143.983ZM192.902 139.862H186.379C186.483 141.314 187.398 142.04 189.123 142.04C190.223 142.04 191.19 141.78 192.023 141.259V143.485C191.099 143.98 189.898 144.228 188.42 144.228C186.805 144.228 185.552 143.782 184.66 142.89C183.768 141.991 183.322 140.741 183.322 139.14C183.322 137.479 183.804 136.164 184.768 135.194C185.731 134.224 186.916 133.739 188.322 133.739C189.781 133.739 190.907 134.172 191.701 135.038C192.502 135.904 192.902 137.079 192.902 138.563V139.862ZM190.041 137.968C190.041 136.535 189.462 135.819 188.303 135.819C187.808 135.819 187.378 136.024 187.014 136.435C186.656 136.845 186.437 137.356 186.359 137.968H190.041ZM204.396 143.983H201.32V138.427C201.32 136.877 200.767 136.103 199.66 136.103C199.126 136.103 198.687 136.308 198.342 136.718C197.997 137.128 197.824 137.649 197.824 138.28V143.983H194.738V133.983H197.824V135.565H197.863C198.599 134.348 199.67 133.739 201.076 133.739C203.29 133.739 204.396 135.113 204.396 137.86V143.983ZM212.893 143.866C212.437 144.107 211.75 144.228 210.832 144.228C208.657 144.228 207.57 143.098 207.57 140.839V136.259H205.949V133.983H207.57V131.825L210.646 130.946V133.983H212.893V136.259H210.646V140.302C210.646 141.343 211.06 141.864 211.887 141.864C212.212 141.864 212.547 141.77 212.893 141.581V143.866ZM221.271 131.444C220.985 131.444 220.741 131.347 220.539 131.151C220.337 130.956 220.236 130.709 220.236 130.409C220.236 130.11 220.337 129.862 220.539 129.667C220.741 129.465 220.985 129.364 221.271 129.364C221.564 129.364 221.812 129.465 222.014 129.667C222.222 129.862 222.326 130.11 222.326 130.409C222.326 130.696 222.222 130.94 222.014 131.142C221.812 131.343 221.564 131.444 221.271 131.444ZM222.053 143.983H220.451V133.983H222.053V143.983ZM233.596 143.983H231.994V138.28C231.994 136.158 231.219 135.097 229.67 135.097C228.869 135.097 228.205 135.399 227.678 136.005C227.157 136.604 226.896 137.362 226.896 138.28V143.983H225.295V133.983H226.896V135.644H226.935C227.691 134.381 228.784 133.749 230.217 133.749C231.31 133.749 232.147 134.104 232.727 134.813C233.306 135.517 233.596 136.535 233.596 137.87V143.983ZM246.291 144.218C244.813 144.218 243.631 143.752 242.746 142.821C241.867 141.884 241.428 140.644 241.428 139.101C241.428 137.421 241.887 136.109 242.805 135.165C243.723 134.221 244.963 133.749 246.525 133.749C248.016 133.749 249.178 134.208 250.012 135.126C250.852 136.044 251.271 137.317 251.271 138.944C251.271 140.539 250.819 141.819 249.914 142.782C249.016 143.739 247.808 144.218 246.291 144.218ZM246.408 135.097C245.379 135.097 244.566 135.448 243.967 136.151C243.368 136.848 243.068 137.812 243.068 139.042C243.068 140.227 243.371 141.161 243.977 141.845C244.582 142.528 245.393 142.87 246.408 142.87C247.443 142.87 248.238 142.535 248.791 141.864C249.351 141.194 249.631 140.24 249.631 139.003C249.631 137.753 249.351 136.789 248.791 136.112C248.238 135.435 247.443 135.097 246.408 135.097ZM261.916 143.983H260.314V142.401H260.275C259.611 143.612 258.583 144.218 257.189 144.218C254.807 144.218 253.615 142.799 253.615 139.96V133.983H255.207V139.706C255.207 141.815 256.014 142.87 257.629 142.87C258.41 142.87 259.051 142.584 259.553 142.011C260.06 141.431 260.314 140.676 260.314 139.745V133.983H261.916V143.983ZM270.373 135.604C270.093 135.39 269.689 135.282 269.162 135.282C268.478 135.282 267.906 135.604 267.443 136.249C266.988 136.894 266.76 137.772 266.76 138.886V143.983H265.158V133.983H266.76V136.044H266.799C267.027 135.341 267.375 134.794 267.844 134.403C268.312 134.006 268.837 133.808 269.416 133.808C269.833 133.808 270.152 133.853 270.373 133.944V135.604ZM282.238 143.886C281.861 144.094 281.363 144.198 280.744 144.198C278.993 144.198 278.117 143.222 278.117 141.269V135.351H276.398V133.983H278.117V131.542L279.719 131.024V133.983H282.238V135.351H279.719V140.985C279.719 141.656 279.833 142.134 280.06 142.421C280.288 142.707 280.666 142.851 281.193 142.851C281.597 142.851 281.945 142.74 282.238 142.519V143.886ZM288.557 144.218C287.079 144.218 285.897 143.752 285.012 142.821C284.133 141.884 283.693 140.644 283.693 139.101C283.693 137.421 284.152 136.109 285.07 135.165C285.988 134.221 287.228 133.749 288.791 133.749C290.282 133.749 291.444 134.208 292.277 135.126C293.117 136.044 293.537 137.317 293.537 138.944C293.537 140.539 293.085 141.819 292.18 142.782C291.281 143.739 290.074 144.218 288.557 144.218ZM288.674 135.097C287.645 135.097 286.831 135.448 286.232 136.151C285.633 136.848 285.334 137.812 285.334 139.042C285.334 140.227 285.637 141.161 286.242 141.845C286.848 142.528 287.658 142.87 288.674 142.87C289.709 142.87 290.503 142.535 291.057 141.864C291.616 141.194 291.896 140.24 291.896 139.003C291.896 137.753 291.616 136.789 291.057 136.112C290.503 135.435 289.709 135.097 288.674 135.097ZM300.734 143.886C300.357 144.094 299.859 144.198 299.24 144.198C297.489 144.198 296.613 143.222 296.613 141.269V135.351H294.894V133.983H296.613V131.542L298.215 131.024V133.983H300.734V135.351H298.215V140.985C298.215 141.656 298.329 142.134 298.557 142.421C298.784 142.707 299.162 142.851 299.689 142.851C300.093 142.851 300.441 142.74 300.734 142.519V143.886ZM310.031 143.983H308.43V142.421H308.391C307.694 143.619 306.669 144.218 305.314 144.218C304.318 144.218 303.537 143.954 302.971 143.427C302.411 142.899 302.131 142.2 302.131 141.327C302.131 139.459 303.231 138.371 305.432 138.065L308.43 137.646C308.43 135.946 307.743 135.097 306.369 135.097C305.165 135.097 304.077 135.507 303.107 136.327V134.687C304.09 134.062 305.223 133.749 306.506 133.749C308.856 133.749 310.031 134.993 310.031 137.479V143.983ZM308.43 138.925L306.018 139.257C305.275 139.361 304.715 139.547 304.338 139.813C303.96 140.074 303.771 140.539 303.771 141.21C303.771 141.698 303.944 142.099 304.289 142.411C304.641 142.717 305.106 142.87 305.685 142.87C306.48 142.87 307.134 142.593 307.648 142.04C308.169 141.48 308.43 140.774 308.43 139.921V138.925ZM314.65 143.983H313.049V129.179H314.65V143.983ZM50.5878 170.183C50.5878 173.854 48.83 175.69 45.3144 175.69C44.0774 175.69 42.9967 175.456 42.0722 174.987V173.386C43.1985 174.011 44.2727 174.323 45.2949 174.323C47.7558 174.323 48.9863 173.015 48.9863 170.397V169.304H48.9472C48.1855 170.58 47.0397 171.218 45.5097 171.218C44.2662 171.218 43.2636 170.775 42.5019 169.89C41.7467 168.998 41.3691 167.803 41.3691 166.306C41.3691 164.606 41.776 163.256 42.5898 162.253C43.4101 161.25 44.5299 160.749 45.9492 160.749C47.2968 160.749 48.2962 161.289 48.9472 162.37H48.9863V160.983H50.5878V170.183ZM48.9863 166.462V164.987C48.9863 164.193 48.7161 163.513 48.1757 162.946C47.6419 162.38 46.9745 162.097 46.1738 162.097C45.1842 162.097 44.4094 162.458 43.8495 163.181C43.2897 163.897 43.0097 164.903 43.0097 166.198C43.0097 167.312 43.2766 168.203 43.8105 168.874C44.3509 169.538 45.0637 169.87 45.9492 169.87C46.8476 169.87 47.5768 169.551 48.1367 168.913C48.7031 168.275 48.9863 167.458 48.9863 166.462ZM58.0097 171.218C56.5318 171.218 55.3502 170.752 54.4648 169.821C53.5859 168.884 53.1464 167.644 53.1464 166.101C53.1464 164.421 53.6054 163.109 54.5234 162.165C55.4413 161.221 56.6816 160.749 58.2441 160.749C59.735 160.749 60.8971 161.208 61.7304 162.126C62.5703 163.044 62.9902 164.317 62.9902 165.944C62.9902 167.539 62.5377 168.819 61.6328 169.782C60.7343 170.739 59.5266 171.218 58.0097 171.218ZM58.1269 162.097C57.0982 162.097 56.2844 162.448 55.6855 163.151C55.0865 163.848 54.787 164.812 54.787 166.042C54.787 167.227 55.0898 168.161 55.6953 168.845C56.3007 169.528 57.1113 169.87 58.1269 169.87C59.162 169.87 59.9563 169.535 60.5097 168.864C61.0696 168.194 61.3495 167.24 61.3495 166.003C61.3495 164.753 61.0696 163.789 60.5097 163.112C59.9563 162.435 59.162 162.097 58.1269 162.097ZM70.666 166.042H65.3339V164.782H70.666V166.042ZM78.1953 170.886C77.8176 171.094 77.3196 171.198 76.7011 171.198C74.9498 171.198 74.0742 170.222 74.0742 168.269V162.351H72.3554V160.983H74.0742V158.542L75.6757 158.024V160.983H78.1953V162.351H75.6757V167.985C75.6757 168.656 75.7897 169.134 76.0175 169.421C76.2454 169.707 76.623 169.851 77.1503 169.851C77.554 169.851 77.9023 169.74 78.1953 169.519V170.886ZM84.5136 171.218C83.0357 171.218 81.8541 170.752 80.9687 169.821C80.0898 168.884 79.6503 167.644 79.6503 166.101C79.6503 164.421 80.1093 163.109 81.0273 162.165C81.9453 161.221 83.1855 160.749 84.748 160.749C86.2389 160.749 87.401 161.208 88.2343 162.126C89.0742 163.044 89.4941 164.317 89.4941 165.944C89.4941 167.539 89.0416 168.819 88.1367 169.782C87.2382 170.739 86.0305 171.218 84.5136 171.218ZM84.6308 162.097C83.6022 162.097 82.7884 162.448 82.1894 163.151C81.5904 163.848 81.291 164.812 81.291 166.042C81.291 167.227 81.5937 168.161 82.1992 168.845C82.8046 169.528 83.6152 169.87 84.6308 169.87C85.666 169.87 86.4602 169.535 87.0136 168.864C87.5735 168.194 87.8535 167.24 87.8535 166.003C87.8535 164.753 87.5735 163.789 87.0136 163.112C86.4602 162.435 85.666 162.097 84.6308 162.097ZM97.1699 166.042H91.8378V164.782H97.1699V166.042ZM114.26 170.983H112.658V165.241C112.658 164.134 112.486 163.334 112.141 162.839C111.802 162.344 111.229 162.097 110.422 162.097C109.738 162.097 109.156 162.409 108.674 163.034C108.199 163.659 107.961 164.408 107.961 165.28V170.983H106.359V165.046C106.359 163.08 105.601 162.097 104.084 162.097C103.381 162.097 102.801 162.393 102.346 162.985C101.89 163.571 101.662 164.336 101.662 165.28V170.983H100.06V160.983H101.662V162.565H101.701C102.411 161.354 103.446 160.749 104.807 160.749C105.49 160.749 106.086 160.941 106.594 161.325C107.102 161.703 107.45 162.201 107.639 162.819C108.381 161.439 109.488 160.749 110.959 160.749C113.159 160.749 114.26 162.106 114.26 164.821V170.983ZM124.445 170.983H122.844V169.421H122.805C122.108 170.619 121.083 171.218 119.728 171.218C118.732 171.218 117.951 170.954 117.385 170.427C116.825 169.899 116.545 169.2 116.545 168.327C116.545 166.459 117.645 165.371 119.846 165.065L122.844 164.646C122.844 162.946 122.157 162.097 120.783 162.097C119.579 162.097 118.491 162.507 117.521 163.327V161.687C118.504 161.062 119.637 160.749 120.92 160.749C123.27 160.749 124.445 161.993 124.445 164.479V170.983ZM122.844 165.925L120.432 166.257C119.689 166.361 119.129 166.547 118.752 166.813C118.374 167.074 118.185 167.539 118.185 168.21C118.185 168.698 118.358 169.099 118.703 169.411C119.055 169.717 119.52 169.87 120.1 169.87C120.894 169.87 121.548 169.593 122.062 169.04C122.583 168.48 122.844 167.774 122.844 166.921V165.925ZM132.678 162.604C132.398 162.39 131.994 162.282 131.467 162.282C130.783 162.282 130.21 162.604 129.748 163.249C129.292 163.894 129.064 164.772 129.064 165.886V170.983H127.463V160.983H129.064V163.044H129.103C129.331 162.341 129.68 161.794 130.148 161.403C130.617 161.006 131.141 160.808 131.721 160.808C132.137 160.808 132.456 160.853 132.678 160.944V162.604ZM142.717 170.983H140.471L136.057 166.179H136.018V170.983H134.416V156.179H136.018V165.563H136.057L140.256 160.983H142.355L137.717 165.808L142.717 170.983ZM152.394 166.384H145.334C145.36 167.497 145.659 168.356 146.232 168.962C146.805 169.567 147.593 169.87 148.596 169.87C149.722 169.87 150.757 169.499 151.701 168.757V170.261C150.822 170.899 149.66 171.218 148.215 171.218C146.802 171.218 145.692 170.765 144.885 169.86C144.077 168.949 143.674 167.67 143.674 166.022C143.674 164.466 144.113 163.2 144.992 162.224C145.878 161.241 146.975 160.749 148.283 160.749C149.592 160.749 150.604 161.172 151.32 162.019C152.036 162.865 152.394 164.04 152.394 165.544V166.384ZM150.754 165.026C150.747 164.102 150.523 163.382 150.08 162.868C149.644 162.354 149.035 162.097 148.254 162.097C147.499 162.097 146.857 162.367 146.33 162.907C145.803 163.448 145.477 164.154 145.353 165.026H150.754ZM159.465 170.886C159.087 171.094 158.589 171.198 157.971 171.198C156.219 171.198 155.344 170.222 155.344 168.269V162.351H153.625V160.983H155.344V158.542L156.945 158.024V160.983H159.465V162.351H156.945V167.985C156.945 168.656 157.059 169.134 157.287 169.421C157.515 169.707 157.893 169.851 158.42 169.851C158.824 169.851 159.172 169.74 159.465 169.519V170.886ZM175.129 166.384H168.068C168.094 167.497 168.394 168.356 168.967 168.962C169.54 169.567 170.327 169.87 171.33 169.87C172.456 169.87 173.491 169.499 174.435 168.757V170.261C173.557 170.899 172.394 171.218 170.949 171.218C169.536 171.218 168.426 170.765 167.619 169.86C166.812 168.949 166.408 167.67 166.408 166.022C166.408 164.466 166.848 163.2 167.727 162.224C168.612 161.241 169.709 160.749 171.018 160.749C172.326 160.749 173.338 161.172 174.055 162.019C174.771 162.865 175.129 164.04 175.129 165.544V166.384ZM173.488 165.026C173.482 164.102 173.257 163.382 172.814 162.868C172.378 162.354 171.769 162.097 170.988 162.097C170.233 162.097 169.592 162.367 169.064 162.907C168.537 163.448 168.212 164.154 168.088 165.026H173.488ZM182.502 157.585C182.189 157.409 181.835 157.321 181.437 157.321C180.318 157.321 179.758 158.028 179.758 159.44V160.983H182.102V162.351H179.758V170.983H178.166V162.351H176.457V160.983H178.166V159.362C178.166 158.314 178.469 157.487 179.074 156.882C179.68 156.27 180.435 155.964 181.34 155.964C181.828 155.964 182.215 156.022 182.502 156.14V157.585ZM188.771 157.585C188.459 157.409 188.104 157.321 187.707 157.321C186.587 157.321 186.027 158.028 186.027 159.44V160.983H188.371V162.351H186.027V170.983H184.435V162.351H182.727V160.983H184.435V159.362C184.435 158.314 184.738 157.487 185.344 156.882C185.949 156.27 186.704 155.964 187.609 155.964C188.098 155.964 188.485 156.022 188.771 156.14V157.585ZM190.92 158.444C190.633 158.444 190.389 158.347 190.187 158.151C189.986 157.956 189.885 157.709 189.885 157.409C189.885 157.11 189.986 156.862 190.187 156.667C190.389 156.465 190.633 156.364 190.92 156.364C191.213 156.364 191.46 156.465 191.662 156.667C191.87 156.862 191.975 157.11 191.975 157.409C191.975 157.696 191.87 157.94 191.662 158.142C191.46 158.343 191.213 158.444 190.92 158.444ZM191.701 170.983H190.1V160.983H191.701V170.983ZM201.76 170.524C200.991 170.987 200.08 171.218 199.025 171.218C197.6 171.218 196.447 170.756 195.568 169.831C194.696 168.9 194.26 167.696 194.26 166.218C194.26 164.571 194.732 163.249 195.676 162.253C196.62 161.25 197.879 160.749 199.455 160.749C200.334 160.749 201.109 160.912 201.779 161.237V162.878C201.037 162.357 200.243 162.097 199.396 162.097C198.374 162.097 197.534 162.465 196.877 163.2C196.226 163.929 195.9 164.89 195.9 166.081C195.9 167.253 196.206 168.177 196.818 168.854C197.437 169.532 198.264 169.87 199.299 169.87C200.171 169.87 200.991 169.58 201.76 169.001V170.524ZM205.002 158.444C204.715 158.444 204.471 158.347 204.269 158.151C204.068 157.956 203.967 157.709 203.967 157.409C203.967 157.11 204.068 156.862 204.269 156.667C204.471 156.465 204.715 156.364 205.002 156.364C205.295 156.364 205.542 156.465 205.744 156.667C205.952 156.862 206.057 157.11 206.057 157.409C206.057 157.696 205.952 157.94 205.744 158.142C205.542 158.343 205.295 158.444 205.002 158.444ZM205.783 170.983H204.182V160.983H205.783V170.983ZM217.062 166.384H210.002C210.028 167.497 210.327 168.356 210.9 168.962C211.473 169.567 212.261 169.87 213.264 169.87C214.39 169.87 215.425 169.499 216.369 168.757V170.261C215.49 170.899 214.328 171.218 212.883 171.218C211.47 171.218 210.36 170.765 209.553 169.86C208.745 168.949 208.342 167.67 208.342 166.022C208.342 164.466 208.781 163.2 209.66 162.224C210.546 161.241 211.643 160.749 212.951 160.749C214.26 160.749 215.272 161.172 215.988 162.019C216.704 162.865 217.062 164.04 217.062 165.544V166.384ZM215.422 165.026C215.415 164.102 215.191 163.382 214.748 162.868C214.312 162.354 213.703 162.097 212.922 162.097C212.167 162.097 211.525 162.367 210.998 162.907C210.471 163.448 210.145 164.154 210.021 165.026H215.422ZM227.795 170.983H226.193V165.28C226.193 163.158 225.419 162.097 223.869 162.097C223.068 162.097 222.404 162.399 221.877 163.005C221.356 163.604 221.096 164.362 221.096 165.28V170.983H219.494V160.983H221.096V162.644H221.135C221.89 161.381 222.984 160.749 224.416 160.749C225.51 160.749 226.346 161.104 226.926 161.813C227.505 162.517 227.795 163.535 227.795 164.87V170.983ZM237.639 170.524C236.87 170.987 235.959 171.218 234.904 171.218C233.478 171.218 232.326 170.756 231.447 169.831C230.575 168.9 230.139 167.696 230.139 166.218C230.139 164.571 230.611 163.249 231.555 162.253C232.499 161.25 233.758 160.749 235.334 160.749C236.213 160.749 236.988 160.912 237.658 161.237V162.878C236.916 162.357 236.122 162.097 235.275 162.097C234.253 162.097 233.413 162.465 232.756 163.2C232.105 163.929 231.779 164.89 231.779 166.081C231.779 167.253 232.085 168.177 232.697 168.854C233.316 169.532 234.143 169.87 235.178 169.87C236.05 169.87 236.87 169.58 237.639 169.001V170.524ZM248.019 160.983L243.42 172.585C242.6 174.655 241.447 175.69 239.963 175.69C239.546 175.69 239.198 175.648 238.918 175.563V174.128C239.263 174.245 239.579 174.304 239.865 174.304C240.672 174.304 241.278 173.822 241.682 172.858L242.482 170.964L238.576 160.983H240.353L243.059 168.679C243.091 168.776 243.159 169.03 243.264 169.44H243.322C243.355 169.284 243.42 169.037 243.518 168.698L246.359 160.983H248.019ZM251.789 156.979L251.603 167.038H250.285L250.109 156.979H251.789ZM250.969 171.159C250.669 171.159 250.412 171.055 250.197 170.847C249.989 170.638 249.885 170.384 249.885 170.085C249.885 169.785 249.989 169.532 250.197 169.323C250.412 169.108 250.669 169.001 250.969 169.001C251.262 169.001 251.516 169.108 251.73 169.323C251.945 169.532 252.053 169.785 252.053 170.085C252.053 170.384 251.945 170.638 251.73 170.847C251.516 171.055 251.262 171.159 250.969 171.159ZM260.373 156.745L259.006 161.101H257.853L258.908 156.745H260.373ZM257.404 156.745L256.037 161.101H254.885L255.969 156.745H257.404Z" fill="white"/>
<rect x="40.4316" y="206.983" width="305" height="41" rx="14" fill="white" fill-opacity="0.1"/>
<path d="M145.49 230.983V220.802H149.119C149.908 220.802 150.563 220.937 151.083 221.209C151.607 221.481 151.998 221.857 152.257 222.338C152.515 222.815 152.644 223.367 152.644 223.993C152.644 224.616 152.513 225.165 152.252 225.639C151.993 226.11 151.602 226.476 151.078 226.738C150.558 226.999 149.903 227.13 149.114 227.13H146.365V225.808H148.975C149.472 225.808 149.877 225.737 150.188 225.594C150.503 225.452 150.734 225.245 150.879 224.973C151.025 224.701 151.098 224.374 151.098 223.993C151.098 223.609 151.024 223.276 150.874 222.994C150.729 222.712 150.498 222.497 150.183 222.348C149.872 222.195 149.462 222.119 148.955 222.119H147.026V230.983H145.49ZM150.516 226.39L153.032 230.983H151.282L148.816 226.39H150.516ZM157.59 231.138C156.837 231.138 156.189 230.977 155.646 230.655C155.106 230.33 154.688 229.875 154.393 229.288C154.101 228.698 153.956 228.007 153.956 227.215C153.956 226.433 154.101 225.743 154.393 225.147C154.688 224.55 155.099 224.084 155.626 223.75C156.156 223.415 156.776 223.248 157.485 223.248C157.916 223.248 158.334 223.319 158.738 223.461C159.143 223.604 159.506 223.828 159.827 224.133C160.149 224.437 160.402 224.834 160.588 225.321C160.773 225.805 160.866 226.393 160.866 227.086V227.613H154.796V226.499H159.409C159.409 226.108 159.33 225.762 159.171 225.46C159.012 225.155 158.788 224.915 158.5 224.739C158.215 224.563 157.88 224.476 157.495 224.476C157.078 224.476 156.713 224.578 156.402 224.784C156.093 224.986 155.855 225.251 155.686 225.579C155.52 225.904 155.437 226.257 155.437 226.638V227.508C155.437 228.019 155.527 228.453 155.706 228.811C155.888 229.169 156.141 229.442 156.466 229.631C156.791 229.817 157.171 229.91 157.605 229.91C157.886 229.91 158.143 229.87 158.375 229.79C158.607 229.707 158.808 229.585 158.977 229.422C159.146 229.26 159.275 229.059 159.365 228.821L160.772 229.074C160.659 229.489 160.457 229.852 160.165 230.163C159.877 230.471 159.514 230.712 159.076 230.884C158.642 231.053 158.147 231.138 157.59 231.138ZM164.738 231.152C164.254 231.152 163.816 231.063 163.425 230.884C163.034 230.702 162.724 230.438 162.496 230.093C162.27 229.749 162.157 229.326 162.157 228.826C162.157 228.395 162.24 228.04 162.406 227.762C162.572 227.483 162.795 227.263 163.077 227.101C163.359 226.938 163.674 226.816 164.022 226.733C164.37 226.65 164.724 226.587 165.086 226.544C165.543 226.491 165.914 226.448 166.199 226.415C166.484 226.378 166.692 226.32 166.821 226.241C166.95 226.161 167.015 226.032 167.015 225.853V225.818C167.015 225.384 166.892 225.047 166.647 224.809C166.405 224.57 166.044 224.451 165.563 224.451C165.063 224.451 164.668 224.562 164.38 224.784C164.095 225.003 163.898 225.246 163.788 225.515L162.391 225.196C162.557 224.732 162.799 224.358 163.117 224.073C163.438 223.785 163.808 223.576 164.226 223.446C164.643 223.314 165.082 223.248 165.543 223.248C165.848 223.248 166.171 223.284 166.513 223.357C166.857 223.427 167.179 223.556 167.477 223.745C167.779 223.934 168.026 224.204 168.218 224.555C168.41 224.903 168.506 225.356 168.506 225.912V230.983H167.054V229.939H166.995C166.899 230.132 166.755 230.321 166.562 230.506C166.37 230.692 166.123 230.846 165.822 230.968C165.52 231.091 165.159 231.152 164.738 231.152ZM165.061 229.959C165.472 229.959 165.823 229.878 166.115 229.716C166.41 229.553 166.634 229.341 166.786 229.079C166.942 228.814 167.02 228.531 167.02 228.229V227.245C166.967 227.298 166.864 227.348 166.711 227.394C166.562 227.437 166.392 227.475 166.199 227.508C166.007 227.538 165.82 227.566 165.638 227.593C165.455 227.616 165.303 227.636 165.18 227.652C164.892 227.689 164.628 227.75 164.39 227.836C164.154 227.923 163.965 228.047 163.823 228.209C163.684 228.368 163.614 228.58 163.614 228.846C163.614 229.214 163.75 229.492 164.022 229.681C164.294 229.866 164.64 229.959 165.061 229.959ZM173.345 231.133C172.728 231.133 172.178 230.975 171.694 230.66C171.214 230.342 170.836 229.89 170.561 229.303C170.289 228.713 170.153 228.005 170.153 227.18C170.153 226.355 170.291 225.649 170.566 225.062C170.844 224.476 171.225 224.026 171.709 223.715C172.193 223.403 172.742 223.248 173.355 223.248C173.829 223.248 174.21 223.327 174.498 223.486C174.79 223.642 175.015 223.824 175.174 224.033C175.337 224.242 175.463 224.426 175.552 224.585H175.642V220.802H177.128V230.983H175.676V229.795H175.552C175.463 229.958 175.333 230.143 175.164 230.352C174.999 230.561 174.77 230.743 174.478 230.899C174.187 231.055 173.809 231.133 173.345 231.133ZM173.673 229.865C174.1 229.865 174.462 229.752 174.757 229.527C175.055 229.298 175.28 228.982 175.433 228.577C175.589 228.173 175.667 227.702 175.667 227.165C175.667 226.635 175.59 226.171 175.438 225.773C175.285 225.375 175.062 225.066 174.767 224.843C174.472 224.621 174.107 224.51 173.673 224.51C173.225 224.51 172.853 224.626 172.554 224.858C172.256 225.09 172.031 225.407 171.878 225.808C171.729 226.209 171.654 226.661 171.654 227.165C171.654 227.676 171.731 228.135 171.883 228.542C172.036 228.95 172.261 229.273 172.559 229.512C172.861 229.747 173.232 229.865 173.673 229.865ZM188.677 225.211L187.33 225.45C187.274 225.278 187.184 225.114 187.061 224.958C186.942 224.802 186.78 224.674 186.574 224.575C186.369 224.476 186.112 224.426 185.804 224.426C185.383 224.426 185.031 224.52 184.75 224.709C184.468 224.895 184.327 225.135 184.327 225.43C184.327 225.685 184.421 225.891 184.61 226.047C184.799 226.202 185.104 226.33 185.525 226.429L186.738 226.708C187.441 226.87 187.965 227.12 188.309 227.459C188.654 227.797 188.826 228.236 188.826 228.776C188.826 229.233 188.694 229.641 188.429 229.999C188.167 230.354 187.801 230.632 187.33 230.834C186.863 231.036 186.321 231.138 185.704 231.138C184.849 231.138 184.151 230.955 183.611 230.591C183.071 230.223 182.739 229.701 182.617 229.025L184.054 228.806C184.143 229.18 184.327 229.464 184.605 229.656C184.884 229.845 185.247 229.939 185.694 229.939C186.181 229.939 186.571 229.838 186.863 229.636C187.154 229.431 187.3 229.18 187.3 228.885C187.3 228.647 187.211 228.446 187.032 228.284C186.856 228.121 186.586 227.999 186.221 227.916L184.929 227.633C184.216 227.47 183.689 227.212 183.348 226.857C183.01 226.502 182.841 226.053 182.841 225.51C182.841 225.059 182.966 224.665 183.218 224.326C183.47 223.988 183.818 223.725 184.262 223.536C184.707 223.344 185.215 223.248 185.789 223.248C186.614 223.248 187.264 223.427 187.738 223.785C188.211 224.139 188.525 224.615 188.677 225.211ZM194.025 223.347V224.54H189.854V223.347H194.025ZM190.973 221.517H192.459V228.741C192.459 229.03 192.502 229.247 192.589 229.392C192.675 229.535 192.786 229.633 192.922 229.686C193.061 229.736 193.212 229.76 193.374 229.76C193.493 229.76 193.598 229.752 193.687 229.736C193.777 229.719 193.846 229.706 193.896 229.696L194.165 230.924C194.078 230.957 193.956 230.99 193.797 231.023C193.638 231.06 193.439 231.08 193.2 231.083C192.809 231.089 192.444 231.02 192.106 230.874C191.768 230.728 191.495 230.503 191.286 230.198C191.077 229.893 190.973 229.51 190.973 229.049V221.517ZM198.804 231.138C198.088 231.138 197.464 230.973 196.93 230.645C196.396 230.317 195.982 229.858 195.687 229.268C195.392 228.678 195.245 227.989 195.245 227.2C195.245 226.408 195.392 225.715 195.687 225.122C195.982 224.529 196.396 224.068 196.93 223.74C197.464 223.412 198.088 223.248 198.804 223.248C199.52 223.248 200.145 223.412 200.679 223.74C201.212 224.068 201.626 224.529 201.921 225.122C202.216 225.715 202.364 226.408 202.364 227.2C202.364 227.989 202.216 228.678 201.921 229.268C201.626 229.858 201.212 230.317 200.679 230.645C200.145 230.973 199.52 231.138 198.804 231.138ZM198.809 229.89C199.273 229.89 199.658 229.767 199.963 229.522C200.268 229.276 200.493 228.95 200.639 228.542C200.788 228.135 200.863 227.686 200.863 227.195C200.863 226.708 200.788 226.26 200.639 225.853C200.493 225.442 200.268 225.112 199.963 224.863C199.658 224.615 199.273 224.491 198.809 224.491C198.342 224.491 197.954 224.615 197.646 224.863C197.341 225.112 197.114 225.442 196.965 225.853C196.819 226.26 196.746 226.708 196.746 227.195C196.746 227.686 196.819 228.135 196.965 228.542C197.114 228.95 197.341 229.276 197.646 229.522C197.954 229.767 198.342 229.89 198.809 229.89ZM204.023 230.983V223.347H205.46V224.56H205.54C205.679 224.149 205.924 223.826 206.275 223.591C206.63 223.352 207.031 223.233 207.478 223.233C207.571 223.233 207.681 223.236 207.807 223.243C207.936 223.249 208.037 223.258 208.11 223.267V224.689C208.05 224.673 207.944 224.655 207.792 224.635C207.639 224.611 207.487 224.6 207.334 224.6C206.983 224.6 206.67 224.674 206.395 224.824C206.123 224.969 205.907 225.173 205.748 225.435C205.589 225.694 205.51 225.989 205.51 226.32V230.983H204.023ZM210.568 233.847C210.346 233.847 210.144 233.829 209.962 233.792C209.779 233.759 209.644 233.723 209.554 233.683L209.912 232.465C210.184 232.538 210.426 232.569 210.638 232.559C210.85 232.549 211.037 232.47 211.2 232.321C211.365 232.172 211.511 231.928 211.637 231.59L211.821 231.083L209.027 223.347H210.618L212.552 229.273H212.632L214.565 223.347H216.161L213.014 232.003C212.869 232.4 212.683 232.737 212.458 233.012C212.232 233.29 211.964 233.499 211.652 233.638C211.341 233.777 210.979 233.847 210.568 233.847Z" fill="white"/>
<g clip-path="url(#clip2_6_528)">
<path d="M240.306 223.516L234.331 229.491M240.306 223.516L235.991 223.648M240.306 223.516L240.174 227.83" stroke="white" stroke-width="1.26748" stroke-linecap="round" stroke-linejoin="round"/>
</g>
<rect x="-3.56842" y="2.29346" width="392.69" height="6" transform="rotate(4 -3.56842 2.29346)" fill="white"/>
</g>
<defs>
<linearGradient id="paint0_linear_6_528" x1="284.456" y1="-49.0384" x2="100.544" y2="328.038" gradientUnits="userSpaceOnUse">
<stop stop-color="#26ABFA" stop-opacity="0.8"/>
<stop offset="0.525" stop-color="#7612FA" stop-opacity="0.8"/>
</linearGradient>
<clipPath id="clip0_6_528">
<rect width="385" height="279" fill="white" transform="translate(0.43158 0.983398)"/>
</clipPath>
<clipPath id="clip1_6_528">
<rect width="154" height="22" fill="white" transform="translate(40.4316 36.9834)"/>
</clipPath>
<clipPath id="clip2_6_528">
<rect width="8" height="8" fill="white" transform="translate(233.492 222.483)"/>
</clipPath>
</defs>
</svg>
