<svg width="40" height="42" viewBox="0 0 40 42" fill="none" xmlns="http://www.w3.org/2000/svg">
<g clip-path="url(#clip0_6_353)">
<path d="M33.1294 28.2262C33.7981 26.4254 34.6776 23.0283 34.6776 17.6175C34.6776 15.9904 34.3915 12.0157 34.3915 12.0157C34.3915 12.0157 29.2411 10.8711 19.7987 10.8711C10.3563 10.8711 4.91983 12.0157 4.91983 12.0157L4.9198 17.6175C4.9198 23.1349 5.83432 26.527 6.50729 28.2762C6.89631 29.2873 7.6935 30.0445 8.73366 30.3476C10.4375 30.8441 13.7827 31.4727 19.7987 31.4727C25.6551 31.4727 28.9806 30.9043 30.7247 30.4371C31.8541 30.1346 32.7225 29.3223 33.1294 28.2262Z" fill="#514B81" fill-opacity="0.1" stroke="#292D34"/>
<path d="M16.3651 23.4609H22.6601" stroke="#292D34" stroke-width="2" stroke-linecap="round" stroke-linejoin="round"/>
<path d="M16.3651 18.3105H27.2382" stroke="#292D34" stroke-width="2" stroke-linecap="round" stroke-linejoin="round"/>
<path d="M12.3593 17.7383C12.0432 17.7383 11.787 17.9945 11.787 18.3105C11.787 18.6266 12.0432 18.8828 12.3593 18.8828C12.6753 18.8828 12.9315 18.6266 12.9315 18.3105C12.9315 17.9945 12.6753 17.7383 12.3593 17.7383Z" fill="#514B81" stroke="#292D34" stroke-width="2" stroke-linecap="round" stroke-linejoin="round"/>
<path d="M12.3593 22.8887C12.0432 22.8887 11.787 23.1449 11.787 23.4609C11.787 23.777 12.0432 24.0332 12.3593 24.0332C12.6753 24.0332 12.9315 23.777 12.9315 23.4609C12.9315 23.1449 12.6753 22.8887 12.3593 22.8887Z" fill="#514B81" stroke="#292D34" stroke-width="2" stroke-linecap="round" stroke-linejoin="round"/>
<path d="M34.4687 12.0156C34.4117 11.227 34.3465 10.5028 34.2777 9.84408C33.9666 6.86864 31.6932 4.64152 28.7139 4.37016C26.5237 4.17067 23.5661 4.00391 19.7987 4.00391C16.0313 4.00391 13.0738 4.17067 10.8836 4.37016C7.90425 4.64152 5.63086 6.86864 5.31977 9.84408C5.2509 10.5028 5.1857 11.227 5.12871 12.0156M34.4687 12.0156C34.5925 13.7284 34.6776 15.7444 34.6776 18.0504C34.6776 21.4063 34.4974 24.0498 34.2799 26.0179C33.9736 28.7909 31.8725 30.8314 29.0949 31.0936C26.9233 31.2987 23.8789 31.4726 19.7987 31.4726C15.7186 31.4726 12.6741 31.2987 10.5025 31.0936C7.72498 30.8314 5.62385 28.7909 5.31749 26.0179C5.10005 24.0498 4.9198 21.4063 4.9198 18.0504C4.9198 15.7444 5.00491 13.7284 5.12871 12.0156M34.4687 12.0156C34.4687 12.0156 28.9613 10.871 19.7987 10.871C10.6361 10.871 5.12871 12.0156 5.12871 12.0156" stroke="#292D34" stroke-width="2" stroke-linecap="round" stroke-linejoin="round"/>
<path d="M11.831 1.71484C11.831 1.71484 11.787 2.62092 11.787 6.86523M27.7664 1.71484C27.7664 1.71484 27.8104 2.62092 27.8104 6.86523" stroke="#292D34" stroke-width="2" stroke-linecap="round" stroke-linejoin="round"/>
</g>
<defs>
<clipPath id="clip0_6_353">
<rect width="32" height="32" fill="white" transform="translate(3.74158 0.59375)"/>
</clipPath>
</defs>
</svg>
