<svg width="41" height="41" viewBox="0 0 41 41" fill="none" xmlns="http://www.w3.org/2000/svg">
<mask id="mask0_6_481" style="mask-type:alpha" maskUnits="userSpaceOnUse" x="0" y="0" width="41" height="41">
<g clip-path="url(#clip0_6_481)">
<path d="M20.9316 40.5928C24.8317 40.5928 28.0861 40.4454 30.7209 40.2419C36.1185 39.8249 40.1637 35.7798 40.5807 30.3822C40.7842 27.7475 40.9316 24.4932 40.9316 20.5933C40.9316 16.6934 40.7842 13.4392 40.5807 10.8044C40.1637 5.40679 36.1185 1.3616 30.7209 0.944661C28.0861 0.741132 24.8317 0.59375 20.9316 0.59375C16.85 0.59375 13.4756 0.755166 10.7785 0.973428C5.57659 1.39438 1.68654 5.23381 1.28475 10.4372C1.08006 13.0882 0.93158 16.4419 0.93158 20.5933C0.931579 24.7447 1.08005 28.0984 1.28475 30.7493C1.68653 35.9527 5.57659 39.7922 10.7785 40.2131C13.4756 40.4314 16.85 40.5928 20.9316 40.5928Z" fill="black"/>
</g>
</mask>
<g mask="url(#mask0_6_481)">
<rect width="40" height="40" transform="translate(0.93158 0.59375)" fill="#F8F8FC"/>
<g clip-path="url(#clip1_6_481)">
<path d="M20.7392 8.7124C14.2827 8.7124 9.04877 13.9464 9.04877 20.4028C9.04877 20.7178 9.06122 21.0298 9.08566 21.3385C9.24015 23.2894 11.6405 23.718 13.119 22.4359C15.9301 19.9981 20.3938 16.9011 25.0107 16.8058C28.5598 16.7325 30.2187 18.4738 30.9775 20.3605C31.242 21.018 32.4296 21.1116 32.4296 20.4029C32.4296 13.9464 27.1957 8.7124 20.7392 8.7124Z" fill="#242236" fill-opacity="0.09"/>
<path d="M25.0103 19.2783L21.8629 26.6972" stroke="#24223E" stroke-width="2" stroke-linecap="round" stroke-linejoin="round"/>
<path d="M31.5304 24.9071C32.1097 23.5208 32.4296 21.9992 32.4296 20.4029C32.4296 13.9464 27.1957 8.7124 20.7392 8.7124C14.2827 8.7124 9.04877 13.9464 9.04877 20.4028C9.04877 22.1706 9.44112 23.8467 10.1435 25.3488" stroke="#24223E" stroke-width="2" stroke-linecap="round" stroke-linejoin="round"/>
<path d="M13.096 20.6582C13.096 16.2958 16.7196 12.7593 21.1894 12.7593" stroke="#24223E" stroke-width="2" stroke-linecap="round" stroke-linejoin="round"/>
<path d="M20.7388 32.0933C22.2287 32.0933 23.4366 30.8855 23.4366 29.3955C23.4366 27.9056 22.2287 26.6978 20.7388 26.6978C19.2488 26.6978 18.041 27.9056 18.041 29.3955C18.041 30.8855 19.2488 32.0933 20.7388 32.0933Z" fill="#242236" fill-opacity="0.09" stroke="#24223E" stroke-width="2" stroke-linecap="round" stroke-linejoin="round"/>
</g>
</g>
<defs>
<clipPath id="clip0_6_481">
<rect width="40" height="40" fill="white" transform="translate(0.93158 0.59375)"/>
</clipPath>
<clipPath id="clip1_6_481">
<rect width="26" height="26" fill="white" transform="translate(7.93158 7.59375)"/>
</clipPath>
</defs>
</svg>
