<svg width="61" height="29" viewBox="0 0 61 29" fill="none" xmlns="http://www.w3.org/2000/svg">
<g clip-path="url(#clip0_6_611)">
<path d="M47.1504 0.863281H14.984C7.37275 0.863281 1.20261 7.0334 1.20261 14.6446C1.20261 22.2559 7.37275 28.426 14.984 28.426H47.1504C54.7617 28.426 60.9318 22.2559 60.9318 14.6446C60.9318 7.0334 54.7617 0.863281 47.1504 0.863281Z" fill="#4AB9FD"/>
<path d="M46.9105 24.8678C52.6584 24.8678 57.3179 20.2899 57.3179 14.6429C57.3179 8.99581 52.6584 4.41797 46.9105 4.41797C41.1627 4.41797 36.5031 8.99581 36.5031 14.6429C36.5031 20.2899 41.1627 24.8678 46.9105 24.8678Z" fill="white"/>
</g>
<defs>
<clipPath id="clip0_6_611">
<rect width="60" height="28" fill="white" transform="translate(0.93161 0.863281)"/>
</clipPath>
</defs>
</svg>
