<svg width="41" height="41" viewBox="0 0 41 41" fill="none" xmlns="http://www.w3.org/2000/svg">
<mask id="mask0_6_471" style="mask-type:alpha" maskUnits="userSpaceOnUse" x="0" y="0" width="41" height="41">
<g clip-path="url(#clip0_6_471)">
<path d="M20.9316 40.5928C24.8317 40.5928 28.0861 40.4454 30.7209 40.2419C36.1185 39.8249 40.1637 35.7798 40.5807 30.3822C40.7842 27.7475 40.9316 24.4932 40.9316 20.5933C40.9316 16.6934 40.7842 13.4392 40.5807 10.8044C40.1637 5.40679 36.1185 1.3616 30.7209 0.944661C28.0861 0.741132 24.8317 0.59375 20.9316 0.59375C16.85 0.59375 13.4756 0.755166 10.7785 0.973428C5.57659 1.39438 1.68654 5.23381 1.28475 10.4372C1.08006 13.0882 0.93158 16.4419 0.93158 20.5933C0.931579 24.7447 1.08005 28.0984 1.28475 30.7493C1.68653 35.9527 5.57659 39.7922 10.7785 40.2131C13.4756 40.4314 16.85 40.5928 20.9316 40.5928Z" fill="black"/>
</g>
</mask>
<g mask="url(#mask0_6_471)">
<rect width="40" height="40" transform="translate(0.93158 0.59375)" fill="#F8F8FC"/>
<g clip-path="url(#clip1_6_471)">
<path d="M31.7259 20.3315C31.7259 18.4382 31.6612 16.8286 31.5679 15.4922C31.3481 12.3401 28.9873 9.97937 25.8352 9.75952C24.4988 9.6663 22.8891 9.60156 20.9957 9.60156C19.1024 9.60156 17.4927 9.6663 16.1562 9.75952C13.0041 9.97937 10.6434 12.3401 10.4235 15.4922C10.3303 16.8286 10.2656 18.4382 10.2656 20.3315C10.2656 22.3264 10.3374 24.0064 10.4388 25.3837C10.6623 28.4216 12.9032 30.689 15.9419 30.9009C17.298 30.9955 18.9698 31.0614 20.9957 31.0614C23.0216 31.0614 24.6935 30.9955 26.0496 30.9009C29.0883 30.689 31.3292 28.4216 31.5527 25.3837C31.654 24.0064 31.7259 22.3264 31.7259 20.3315Z" stroke="#24223E" stroke-width="2" stroke-linecap="round" stroke-linejoin="round"/>
<path d="M31.314 15.5938L26.7044 20.5719C26.3568 20.9473 25.8591 21.147 25.3485 21.1161L20.2549 20.8075C19.6867 20.7731 19.1387 21.024 18.7937 21.4768L16.4541 24.5475C16.1907 24.8932 15.8055 25.1254 15.3768 25.1968L11.0917 25.9109" stroke="#24223E" stroke-width="2" stroke-linecap="round" stroke-linejoin="round"/>
<path d="M26.1571 20.9508L31.7285 15.5859L31.3158 28.3792L27.8079 30.8553L14.8079 31.0617L11.919 29.6173L10.4745 25.9031L16.046 25.0777L19.7603 20.7445L26.1571 20.9508Z" fill="#24223E" fill-opacity="0.1"/>
</g>
</g>
<defs>
<clipPath id="clip0_6_471">
<rect width="40" height="40" fill="white" transform="translate(0.93158 0.59375)"/>
</clipPath>
<clipPath id="clip1_6_471">
<rect width="24" height="24" fill="white" transform="translate(8.93158 8.59375)"/>
</clipPath>
</defs>
</svg>
