<svg width="41" height="41" viewBox="0 0 41 41" fill="none" xmlns="http://www.w3.org/2000/svg">
<mask id="mask0_6_449" style="mask-type:alpha" maskUnits="userSpaceOnUse" x="0" y="0" width="41" height="41">
<g clip-path="url(#clip0_6_449)">
<path d="M20.9316 40.5928C24.8317 40.5928 28.0861 40.4454 30.7209 40.2419C36.1185 39.8249 40.1637 35.7798 40.5807 30.3822C40.7842 27.7475 40.9316 24.4932 40.9316 20.5933C40.9316 16.6934 40.7842 13.4392 40.5807 10.8044C40.1637 5.40679 36.1185 1.3616 30.7209 0.944661C28.0861 0.741132 24.8317 0.59375 20.9316 0.59375C16.85 0.59375 13.4756 0.755166 10.7785 0.973428C5.57659 1.39438 1.68654 5.23381 1.28475 10.4372C1.08006 13.0882 0.93158 16.4419 0.93158 20.5933C0.931579 24.7447 1.08005 28.0984 1.28475 30.7493C1.68653 35.9527 5.57659 39.7922 10.7785 40.2131C13.4756 40.4314 16.85 40.5928 20.9316 40.5928Z" fill="black"/>
</g>
</mask>
<g mask="url(#mask0_6_449)">
<rect width="40" height="40" transform="translate(0.93158 0.59375)" fill="#F8F8FC"/>
<g clip-path="url(#clip1_6_449)">
<path d="M24.8526 20.5933C24.8526 18.427 23.0964 16.6709 20.9302 16.6709C18.7639 16.6709 17.0078 18.427 17.0078 20.5933C17.0078 22.7596 18.7639 24.5157 20.9302 24.5157C23.0964 24.5157 24.8526 22.7596 24.8526 20.5933Z" stroke="#24223E" stroke-width="2" stroke-linecap="round" stroke-linejoin="round"/>
<path d="M18.7546 29.7271C19.4513 29.9105 20.1803 30.0081 20.931 30.0081C21.7571 30.0081 22.5571 29.8902 23.3165 29.6694L23.7568 30.4728C24.2508 31.3743 25.2244 31.7566 26.0802 31.2361L27.1132 30.6078C27.9689 30.0873 28.1264 29.017 27.6323 28.1155L27.1931 27.3139C28.3025 26.1681 29.1299 24.7203 29.5552 23.0968H30.4732C31.4613 23.0968 32.2624 22.2529 32.2624 21.2118V19.9552C32.2624 18.9142 31.4613 18.0703 30.4732 18.0703H29.5552C29.1299 16.4467 28.3025 14.999 27.1931 13.8532L27.6323 13.0516C28.1264 12.15 27.9689 11.0797 27.1131 10.5592L26.0802 9.93092C25.2244 9.41041 24.2659 9.80186 23.7718 10.7034L23.2301 11.4731C22.4964 11.2681 21.7258 11.1589 20.931 11.1589C20.1048 11.1589 19.3049 11.2768 18.5454 11.4976L18.0902 10.7034C17.5961 9.80185 16.6375 9.41041 15.7817 9.93092L14.7487 10.5592C13.893 11.0797 13.7205 12.1592 14.2146 13.0607L14.6689 13.8532C13.5594 14.999 12.732 16.4467 12.3067 18.0703H11.3887C10.4006 18.0703 9.59955 18.9142 9.59955 19.9552V21.2118C9.59955 22.2529 10.4006 23.0968 11.3887 23.0968H12.3067C12.732 24.7203 13.5594 26.1681 14.6689 27.3139L14.2296 28.1155C13.7355 29.017 13.893 30.0873 14.7488 30.6078L15.7817 31.2361C16.6375 31.7566 17.7317 31.4477 18.2258 30.5461L18.7546 29.7271Z" stroke="#24223E" stroke-width="2" stroke-linecap="round" stroke-linejoin="round"/>
<path fill-rule="evenodd" clip-rule="evenodd" d="M20.931 30.0081C20.1803 30.0081 19.4513 29.9105 18.7546 29.7271L18.2258 30.5461C17.7317 31.4477 16.6375 31.7566 15.7817 31.2361L14.7488 30.6078C13.893 30.0873 13.7355 29.017 14.2296 28.1154L14.6689 27.3139C13.5594 26.168 12.732 24.7203 12.3067 23.0967H11.3887C10.4006 23.0967 9.59955 22.2528 9.59955 21.2118V19.9552C9.59955 18.9142 10.4006 18.0703 11.3887 18.0703H12.3067C12.732 16.4467 13.5594 14.999 14.6689 13.8532L14.2146 13.0607C13.7205 12.1592 13.893 11.0797 14.7487 10.5592L15.7817 9.93092C16.6375 9.41041 17.5961 9.80185 18.0902 10.7034L18.5454 11.4976C19.3049 11.2768 20.1048 11.1589 20.931 11.1589C21.7258 11.1589 22.4964 11.2681 23.2301 11.4731L23.7718 10.7034C24.2659 9.80187 25.2244 9.41041 26.0802 9.93092L27.1131 10.5592C27.9689 11.0797 28.1264 12.15 27.6323 13.0516L27.1931 13.8532C28.3025 14.999 29.1299 16.4467 29.5552 18.0703H30.4732C31.4613 18.0703 32.2624 18.9142 32.2624 19.9552V21.2118C32.2624 22.2528 31.4613 23.0967 30.4732 23.0967H29.5552C29.1299 24.7203 28.3025 26.168 27.1931 27.3139L27.6323 28.1154C28.1264 29.017 27.9689 30.0873 27.1132 30.6078L26.0802 31.2361C25.2244 31.7566 24.2508 31.3743 23.7568 30.4727L23.3165 29.6694C22.5571 29.8902 21.7571 30.0081 20.931 30.0081ZM20.9302 16.6707C18.7639 16.6707 17.0077 18.4268 17.0077 20.5932C17.0077 22.7594 18.7639 24.5156 20.9302 24.5156C23.0965 24.5156 24.8526 22.7594 24.8526 20.5932C24.8526 18.4268 23.0965 16.6707 20.9302 16.6707Z" fill="#242236" fill-opacity="0.09"/>
</g>
</g>
<defs>
<clipPath id="clip0_6_449">
<rect width="40" height="40" fill="white" transform="translate(0.93158 0.59375)"/>
</clipPath>
<clipPath id="clip1_6_449">
<rect width="26" height="24" fill="white" transform="translate(7.93158 8.59375)"/>
</clipPath>
</defs>
</svg>
