<svg width="145" height="33" viewBox="0 0 145 33" fill="none" xmlns="http://www.w3.org/2000/svg">
<g clip-path="url(#clip0_6_930)">
<path d="M23.1616 0.363281H2.70158C1.73158 0.363281 0.93158 1.13328 0.93158 2.08328V22.6433C0.93158 23.5933 1.73158 24.3633 2.70158 24.3633H23.1616C24.1416 24.3633 24.9316 23.5933 24.9316 22.6433V2.08328C24.9316 1.13328 24.1316 0.363281 23.1616 0.363281ZM8.20158 20.4633H4.58158V9.60328H8.20158V20.4633ZM6.40158 8.12328H6.37158C5.15158 8.12328 4.37158 7.29328 4.37158 6.25328C4.37158 5.19328 5.17158 4.38328 6.42158 4.38328C7.66158 4.38328 8.42158 5.18328 8.44158 6.25328C8.44158 7.29328 7.66158 8.12328 6.39158 8.12328H6.40158ZM21.2716 20.4633H17.6416V14.6633C17.6416 13.2133 17.1216 12.2133 15.8116 12.2133C14.8116 12.2133 14.2116 12.8833 13.9416 13.5333C13.8416 13.7633 13.8316 14.0833 13.8316 14.4133V20.4633H10.2116C10.2116 20.4633 10.2616 10.6433 10.2116 9.62328H13.8416V11.1633C14.1693 10.5946 14.6462 10.1263 15.2208 9.80901C15.7953 9.49176 16.4457 9.33762 17.1016 9.36328C19.4916 9.36328 21.2816 10.9233 21.2816 14.2533V20.4633H21.2716Z" fill="white"/>
</g>
<g clip-path="url(#clip1_6_930)">
<path d="M63.4316 0.363281C64.2616 0.363281 64.9316 1.03328 64.9316 1.86328V22.8633C64.9316 23.6933 64.2616 24.3633 63.4316 24.3633H57.4316V15.3633H60.4316L61.1816 11.6133H57.4316V10.1133C57.4316 8.61328 58.1816 7.86328 59.6816 7.86328H61.1816V4.11328H58.1816C55.4216 4.11328 53.6816 6.27328 53.6816 9.36328V11.6133H50.6816V15.3633H53.6816V24.3633H42.4316C42.0338 24.3633 41.6522 24.2052 41.3709 23.9239C41.0896 23.6426 40.9316 23.2611 40.9316 22.8633V1.86328C40.9316 1.03328 41.6016 0.363281 42.4316 0.363281H63.4316Z" fill="white"/>
</g>
<g clip-path="url(#clip2_6_930)">
<path d="M97.9116 0.363484C98.8484 0.331138 99.782 0.490023 100.655 0.830445C101.529 1.17087 102.324 1.68569 102.992 2.34348C103.635 3.01129 104.139 3.80137 104.472 4.66704C104.805 5.5327 104.961 6.45638 104.932 7.38348V17.3435C104.932 19.4235 104.252 21.2135 102.952 22.4735C101.572 23.7467 99.7475 24.4257 97.8716 24.3635H87.9916C86.1313 24.4211 84.3236 23.7419 82.9616 22.4735C82.2864 21.7972 81.7578 20.9892 81.4085 20.0998C81.0593 19.2103 80.8969 18.2584 80.9316 17.3035V7.38348C80.9316 3.16348 83.7316 0.363484 87.9516 0.363484H97.9116ZM97.9616 2.59348H87.9916C86.5416 2.59348 85.2916 3.02348 84.4616 3.84348C84.0181 4.31587 83.6744 4.87283 83.451 5.48107C83.2276 6.08931 83.1292 6.73634 83.1616 7.38348V17.3035C83.1616 18.8035 83.5916 20.0035 84.4616 20.8835C85.4319 21.7417 86.6974 22.1898 87.9916 22.1335H97.8716C99.1657 22.1898 100.431 21.7417 101.402 20.8835C101.867 20.4226 102.232 19.8699 102.473 19.2605C102.714 18.6512 102.826 17.9983 102.802 17.3435V7.38348C102.834 6.09615 102.368 4.84601 101.502 3.89348C101.029 3.44998 100.472 3.10627 99.864 2.88291C99.2558 2.65954 98.6087 2.56111 97.9616 2.59348ZM92.9316 6.12348C96.3216 6.12348 99.1316 8.92348 99.1316 12.3235C99.1316 13.9678 98.4784 15.5448 97.3156 16.7075C96.1529 17.8703 94.5759 18.5235 92.9316 18.5235C91.2872 18.5235 89.7102 17.8703 88.5475 16.7075C87.3848 15.5448 86.7316 13.9678 86.7316 12.3235C86.7316 10.6791 87.3848 9.10215 88.5475 7.93942C89.7102 6.7767 91.2872 6.12348 92.9316 6.12348ZM92.9316 8.34348C91.8803 8.34874 90.8736 8.7687 90.1302 9.51208C89.3868 10.2555 88.9668 11.2622 88.9616 12.3135C88.9668 13.3648 89.3868 14.3715 90.1302 15.1149C90.8736 15.8583 91.8803 16.2782 92.9316 16.2835C93.9829 16.2782 94.9896 15.8583 95.733 15.1149C96.4764 14.3715 96.8963 13.3648 96.9016 12.3135C96.8963 11.2622 96.4764 10.2555 95.733 9.51208C94.9896 8.7687 93.9829 8.34874 92.9316 8.34348ZM99.3716 4.57348C99.7429 4.57348 100.099 4.72098 100.362 4.98353C100.624 5.24609 100.772 5.60218 100.772 5.97348C100.772 6.34479 100.624 6.70088 100.362 6.96343C100.099 7.22598 99.7429 7.37348 99.3716 7.37348C99.0003 7.37348 98.6442 7.22598 98.3816 6.96343C98.1191 6.70088 97.9716 6.34479 97.9716 5.97348C97.9716 5.60218 98.1191 5.24609 98.3816 4.98353C98.6442 4.72098 99.0003 4.57348 99.3716 4.57348Z" fill="white"/>
</g>
<path d="M139.176 2.61328H142.484L135.257 10.8733L143.759 22.1133H137.102L131.888 15.2963L125.922 22.1133H122.612L130.342 13.2783L122.186 2.61328H129.012L133.725 8.84428L139.176 2.61328ZM138.015 20.1333H139.848L128.016 4.48928H126.049L138.015 20.1333Z" fill="white"/>
<defs>
<clipPath id="clip0_6_930">
<rect width="24" height="24" fill="white" transform="translate(0.93158 0.363281)"/>
</clipPath>
<clipPath id="clip1_6_930">
<rect width="24" height="24" fill="white" transform="translate(40.9316 0.363281)"/>
</clipPath>
<clipPath id="clip2_6_930">
<rect width="24" height="24" fill="white" transform="translate(80.9316 0.363281)"/>
</clipPath>
</defs>
</svg>
