<svg width="386" height="284" viewBox="0 0 386 284" fill="none" xmlns="http://www.w3.org/2000/svg">
<mask id="mask0_6_543" style="mask-type:alpha" maskUnits="userSpaceOnUse" x="0" y="0" width="386" height="284">
<g clip-path="url(#clip0_6_543)">
<path d="M-4.64069 4.53027L416.296 33.7522V328.983H-4.64069V4.53027Z" fill="black"/>
</g>
</mask>
<g mask="url(#mask0_6_543)">
<rect width="385" height="283" transform="translate(0.43158 0.983398)" fill="url(#paint0_linear_6_543)"/>
<path d="M60.7165 53.2239C59.5783 56.7469 57.586 59.8048 52.4225 60.007C44.7397 60.007 42.4023 53.6291 42.4023 50.2064C42.4023 41.3989 49.4964 39.272 52.3421 39.272C55.5734 39.272 60.1474 40.7511 60.1474 44.5572C60.1474 45.8933 59.2934 47.1897 57.9115 47.1897C56.5703 47.1897 55.5734 46.2992 55.5734 44.8612C55.5734 42.938 57.159 42.6744 57.159 42.1479C57.159 40.8117 54.0291 40.265 52.9315 40.265C48.1544 40.265 46.914 43.7274 46.914 50.2072C46.914 53.1834 47.6665 55.4512 47.9507 56.1395C48.7033 57.7797 50.2272 58.8124 52.809 58.954C55.7162 59.1165 58.4806 56.7873 59.6798 53.2239H60.7165ZM66.8573 49.62C66.8573 53.7706 66.8986 59.0154 71.9192 59.0154C76.9399 59.0154 76.9797 53.7706 76.9797 49.6193C76.9797 45.5098 76.9399 40.265 71.9192 40.265C66.8986 40.265 66.8573 45.5091 66.8573 49.62ZM81.5132 49.62C81.5132 55.613 77.1429 60.007 71.9395 60.007C66.7355 60.007 62.3456 55.5928 62.3456 49.62C62.3456 43.6465 66.7152 39.2727 71.9192 39.2727C77.1226 39.2727 81.5132 43.6262 81.5132 49.62ZM85.0294 40.9121H82.3056V39.7782H83.3423C84.2776 39.7992 85.1918 39.7587 86.1263 39.6771C87.0616 39.6172 87.9968 39.4749 88.9118 39.2727V44.5167H89.0133C90.3951 41.3989 92.3265 39.2727 95.9443 39.2727C97.7336 39.2727 101.86 39.6771 101.86 44.2127V58.2051H104.542V59.3389H95.3962V58.2051H97.9772V44.841C97.9772 41.2371 96.8389 40.6897 94.8474 40.6897C91.4732 40.6897 88.8922 45.2866 88.8922 48.9917V58.1848H91.5747V59.3187H82.3056V58.1848H85.0294V40.9121ZM116.271 39.779V40.9129H119.299L114.279 55.1074H114.177L109.36 40.9121H112.002V39.7782H103.059V40.9121H105.437L112.083 60.0063H113.791L120.641 40.9121H123.019V39.7782L116.271 39.779ZM136.372 46.643V44.9624C136.372 41.3989 134.278 40.265 131.798 40.265C128.81 40.265 127.469 43.0384 127.367 43.3829C127.062 44.4359 126.879 45.5495 126.879 46.643H136.372ZM140.844 53.2239C139.847 57.8201 136.473 60.007 132.103 60.007C127.042 60.007 122.163 55.9575 122.163 50.4498C122.163 44.6186 126.046 39.2727 131.94 39.2727C137.002 39.2727 140.824 42.6946 140.885 48.0809H126.818V50.1053C126.818 55.0056 127.469 58.954 132.876 58.954C135.701 58.954 139.035 56.484 139.726 53.2239H140.844ZM144.667 40.9121H141.943V39.7782H142.979C143.914 39.7992 144.829 39.7587 145.764 39.6771C146.699 39.6172 147.634 39.4749 148.549 39.2727V44.5167H148.651C150.033 41.3989 151.964 39.2727 155.602 39.2727C157.391 39.2727 161.517 39.6771 161.517 44.2127V58.2051H164.201V59.3389H155.053V58.2051H157.635V44.841C157.635 41.2371 156.497 40.6897 154.504 40.6897C151.13 40.6897 148.549 45.2866 148.549 48.9917V58.1848H151.232V59.3187H141.943V58.1848H144.667V40.9121ZM178.897 46.643V44.9624C178.897 41.3989 176.804 40.265 174.324 40.265C171.336 40.265 169.994 43.0384 169.913 43.3829C169.608 44.4359 169.425 45.5495 169.425 46.643H178.897ZM183.369 53.2239C182.373 57.8201 178.999 60.007 174.629 60.007C169.568 60.007 164.709 55.9575 164.709 50.4498C164.709 44.6186 168.572 39.2727 174.487 39.2727C179.548 39.2727 183.369 42.6946 183.43 48.0809H169.364V50.1053C169.364 55.0056 170.014 58.954 175.421 58.954C178.247 58.954 181.58 56.484 182.271 53.2239H183.369Z" fill="white"/>
<path d="M46.955 106.745L45.871 111.101H44.4355L45.8124 106.745H46.955ZM43.9863 106.745L42.9316 111.101H41.4667L42.8339 106.745H43.9863ZM59.3378 120.397C58.3027 120.944 57.0136 121.218 55.4706 121.218C53.4785 121.218 51.8834 120.576 50.6855 119.294C49.4876 118.011 48.8886 116.328 48.8886 114.245C48.8886 112.006 49.5624 110.196 50.9101 108.815C52.2578 107.435 53.9667 106.745 56.037 106.745C57.3652 106.745 58.4654 106.937 59.3378 107.321V109.069C58.3352 108.509 57.2285 108.229 56.0175 108.229C54.4094 108.229 53.1041 108.767 52.1015 109.841C51.1054 110.915 50.6074 112.351 50.6074 114.147C50.6074 115.853 51.0729 117.214 52.0038 118.229C52.9413 119.239 54.1686 119.743 55.6855 119.743C57.0917 119.743 58.3092 119.431 59.3378 118.806V120.397ZM63.5761 120.983H61.9745V106.179H63.5761V120.983ZM67.6386 108.444C67.3522 108.444 67.108 108.347 66.9062 108.151C66.7044 107.956 66.6035 107.709 66.6035 107.409C66.6035 107.11 66.7044 106.862 66.9062 106.667C67.108 106.465 67.3522 106.364 67.6386 106.364C67.9316 106.364 68.179 106.465 68.3808 106.667C68.5891 106.862 68.6933 107.11 68.6933 107.409C68.6933 107.696 68.5891 107.94 68.3808 108.142C68.179 108.343 67.9316 108.444 67.6386 108.444ZM68.4199 120.983H66.8183V110.983H68.4199V120.983ZM78.4785 120.524C77.7102 120.987 76.7988 121.218 75.7441 121.218C74.3183 121.218 73.166 120.756 72.287 119.831C71.4147 118.9 70.9785 117.696 70.9785 116.218C70.9785 114.571 71.4505 113.249 72.3945 112.253C73.3385 111.25 74.5982 110.749 76.1738 110.749C77.0527 110.749 77.8274 110.912 78.498 111.237V112.878C77.7558 112.357 76.9615 112.097 76.1152 112.097C75.093 112.097 74.2532 112.465 73.5956 113.2C72.9446 113.929 72.6191 114.89 72.6191 116.081C72.6191 117.253 72.9251 118.177 73.537 118.854C74.1555 119.532 74.9824 119.87 76.0175 119.87C76.8899 119.87 77.7102 119.58 78.4785 119.001V120.524ZM89.2011 120.983H86.955L82.541 116.179H82.5019V120.983H80.9003V106.179H82.5019V115.563H82.541L86.7402 110.983H88.8398L84.2011 115.808L89.2011 120.983ZM101.301 115.319C101.301 119.252 99.5266 121.218 95.9785 121.218C92.58 121.218 90.8808 119.326 90.8808 115.544V106.979H92.5214V115.437C92.5214 118.308 93.7324 119.743 96.1542 119.743C98.4915 119.743 99.6601 118.356 99.6601 115.583V106.979H101.301V115.319ZM106.232 119.538H106.193V125.583H104.592V110.983H106.193V112.741H106.232C107.02 111.413 108.172 110.749 109.689 110.749C110.978 110.749 111.984 111.198 112.707 112.097C113.43 112.989 113.791 114.187 113.791 115.69C113.791 117.364 113.384 118.705 112.57 119.714C111.756 120.716 110.643 121.218 109.23 121.218C107.935 121.218 106.935 120.658 106.232 119.538ZM106.193 115.505V116.901C106.193 117.728 106.46 118.431 106.994 119.011C107.534 119.584 108.218 119.87 109.045 119.87C110.015 119.87 110.773 119.499 111.32 118.757C111.874 118.015 112.15 116.983 112.15 115.661C112.15 114.548 111.893 113.675 111.379 113.044C110.865 112.412 110.168 112.097 109.289 112.097C108.358 112.097 107.609 112.422 107.043 113.073C106.477 113.718 106.193 114.528 106.193 115.505ZM122.658 108.444C122.372 108.444 122.128 108.347 121.926 108.151C121.724 107.956 121.623 107.709 121.623 107.409C121.623 107.11 121.724 106.862 121.926 106.667C122.128 106.465 122.372 106.364 122.658 106.364C122.951 106.364 123.199 106.465 123.4 106.667C123.609 106.862 123.713 107.11 123.713 107.409C123.713 107.696 123.609 107.94 123.4 108.142C123.199 108.343 122.951 108.444 122.658 108.444ZM123.439 120.983H121.838V110.983H123.439V120.983ZM126.076 120.622V118.903C126.949 119.548 127.909 119.87 128.957 119.87C130.363 119.87 131.066 119.401 131.066 118.464C131.066 118.197 131.004 117.972 130.881 117.79C130.764 117.601 130.601 117.435 130.393 117.292C130.191 117.149 129.95 117.022 129.67 116.911C129.396 116.794 129.1 116.674 128.781 116.55C128.338 116.374 127.948 116.198 127.609 116.022C127.277 115.84 126.997 115.638 126.769 115.417C126.548 115.189 126.379 114.932 126.262 114.646C126.151 114.359 126.096 114.024 126.096 113.64C126.096 113.171 126.203 112.757 126.418 112.399C126.633 112.035 126.919 111.732 127.277 111.491C127.635 111.244 128.042 111.058 128.498 110.935C128.96 110.811 129.435 110.749 129.924 110.749C130.79 110.749 131.564 110.899 132.248 111.198V112.819C131.512 112.338 130.666 112.097 129.709 112.097C129.409 112.097 129.139 112.132 128.898 112.204C128.657 112.269 128.449 112.364 128.273 112.487C128.104 112.611 127.971 112.761 127.873 112.937C127.782 113.106 127.736 113.295 127.736 113.503C127.736 113.763 127.782 113.981 127.873 114.157C127.971 114.333 128.111 114.489 128.293 114.626C128.475 114.763 128.697 114.886 128.957 114.997C129.217 115.108 129.514 115.228 129.846 115.358C130.288 115.528 130.685 115.703 131.037 115.886C131.389 116.062 131.688 116.263 131.935 116.491C132.183 116.713 132.372 116.97 132.502 117.263C132.639 117.556 132.707 117.904 132.707 118.308C132.707 118.802 132.596 119.232 132.375 119.597C132.16 119.961 131.87 120.264 131.506 120.505C131.141 120.746 130.721 120.925 130.246 121.042C129.771 121.159 129.273 121.218 128.752 121.218C127.723 121.218 126.831 121.019 126.076 120.622ZM148.967 120.983H147.365V115.222C147.365 113.138 146.59 112.097 145.041 112.097C144.26 112.097 143.602 112.399 143.068 113.005C142.534 113.604 142.268 114.375 142.268 115.319V120.983H140.666V106.179H142.268V112.644H142.307C143.075 111.381 144.169 110.749 145.588 110.749C147.84 110.749 148.967 112.106 148.967 114.821V120.983ZM156.174 121.218C154.696 121.218 153.514 120.752 152.629 119.821C151.75 118.884 151.31 117.644 151.31 116.101C151.31 114.421 151.769 113.109 152.687 112.165C153.605 111.221 154.846 110.749 156.408 110.749C157.899 110.749 159.061 111.208 159.894 112.126C160.734 113.044 161.154 114.317 161.154 115.944C161.154 117.539 160.702 118.819 159.797 119.782C158.898 120.739 157.691 121.218 156.174 121.218ZM156.291 112.097C155.262 112.097 154.449 112.448 153.85 113.151C153.251 113.848 152.951 114.812 152.951 116.042C152.951 117.227 153.254 118.161 153.859 118.845C154.465 119.528 155.275 119.87 156.291 119.87C157.326 119.87 158.12 119.535 158.674 118.864C159.234 118.194 159.514 117.24 159.514 116.003C159.514 114.753 159.234 113.789 158.674 113.112C158.12 112.435 157.326 112.097 156.291 112.097ZM176.31 110.983L173.312 120.983H171.652L169.592 113.825C169.514 113.552 169.462 113.243 169.435 112.897H169.396C169.377 113.132 169.309 113.435 169.191 113.806L166.955 120.983H165.353L162.326 110.983H164.006L166.076 118.503C166.141 118.731 166.187 119.03 166.213 119.401H166.291C166.31 119.115 166.369 118.809 166.467 118.483L168.771 110.983H170.236L172.307 118.522C172.372 118.763 172.421 119.063 172.453 119.421H172.531C172.544 119.167 172.6 118.868 172.697 118.522L174.728 110.983H176.31ZM187.834 121.218C186.356 121.218 185.174 120.752 184.289 119.821C183.41 118.884 182.971 117.644 182.971 116.101C182.971 114.421 183.43 113.109 184.348 112.165C185.266 111.221 186.506 110.749 188.068 110.749C189.559 110.749 190.721 111.208 191.555 112.126C192.394 113.044 192.814 114.317 192.814 115.944C192.814 117.539 192.362 118.819 191.457 119.782C190.559 120.739 189.351 121.218 187.834 121.218ZM187.951 112.097C186.922 112.097 186.109 112.448 185.51 113.151C184.911 113.848 184.611 114.812 184.611 116.042C184.611 117.227 184.914 118.161 185.519 118.845C186.125 119.528 186.935 119.87 187.951 119.87C188.986 119.87 189.781 119.535 190.334 118.864C190.894 118.194 191.174 117.24 191.174 116.003C191.174 114.753 190.894 113.789 190.334 113.112C189.781 112.435 188.986 112.097 187.951 112.097ZM203.459 120.983H201.857V119.401H201.818C201.154 120.612 200.126 121.218 198.732 121.218C196.35 121.218 195.158 119.799 195.158 116.96V110.983H196.75V116.706C196.75 118.815 197.557 119.87 199.172 119.87C199.953 119.87 200.594 119.584 201.096 119.011C201.603 118.431 201.857 117.676 201.857 116.745V110.983H203.459V120.983ZM211.916 112.604C211.636 112.39 211.232 112.282 210.705 112.282C210.021 112.282 209.449 112.604 208.986 113.249C208.531 113.894 208.303 114.772 208.303 115.886V120.983H206.701V110.983H208.303V113.044H208.342C208.57 112.341 208.918 111.794 209.387 111.403C209.855 111.006 210.379 110.808 210.959 110.808C211.376 110.808 211.695 110.853 211.916 110.944V112.604ZM223.781 120.886C223.404 121.094 222.906 121.198 222.287 121.198C220.536 121.198 219.66 120.222 219.66 118.269V112.351H217.941V110.983H219.66V108.542L221.262 108.024V110.983H223.781V112.351H221.262V117.985C221.262 118.656 221.376 119.134 221.603 119.421C221.831 119.707 222.209 119.851 222.736 119.851C223.14 119.851 223.488 119.74 223.781 119.519V120.886ZM233.957 116.384H226.896C226.922 117.497 227.222 118.356 227.795 118.962C228.368 119.567 229.156 119.87 230.158 119.87C231.284 119.87 232.32 119.499 233.264 118.757V120.261C232.385 120.899 231.223 121.218 229.777 121.218C228.365 121.218 227.254 120.765 226.447 119.86C225.64 118.949 225.236 117.67 225.236 116.022C225.236 114.466 225.676 113.2 226.555 112.224C227.44 111.241 228.537 110.749 229.846 110.749C231.154 110.749 232.167 111.172 232.883 112.019C233.599 112.865 233.957 114.04 233.957 115.544V116.384ZM232.316 115.026C232.31 114.102 232.085 113.382 231.643 112.868C231.206 112.354 230.598 112.097 229.816 112.097C229.061 112.097 228.42 112.367 227.893 112.907C227.365 113.448 227.04 114.154 226.916 115.026H232.316ZM243.547 120.983H241.945V119.421H241.906C241.21 120.619 240.184 121.218 238.83 121.218C237.834 121.218 237.053 120.954 236.486 120.427C235.926 119.899 235.646 119.2 235.646 118.327C235.646 116.459 236.747 115.371 238.947 115.065L241.945 114.646C241.945 112.946 241.258 112.097 239.885 112.097C238.68 112.097 237.593 112.507 236.623 113.327V111.687C237.606 111.062 238.739 110.749 240.021 110.749C242.372 110.749 243.547 111.993 243.547 114.479V120.983ZM241.945 115.925L239.533 116.257C238.791 116.361 238.231 116.547 237.853 116.813C237.476 117.074 237.287 117.539 237.287 118.21C237.287 118.698 237.46 119.099 237.805 119.411C238.156 119.717 238.622 119.87 239.201 119.87C239.995 119.87 240.65 119.593 241.164 119.04C241.685 118.48 241.945 117.774 241.945 116.921V115.925ZM260.764 120.983H259.162V115.241C259.162 114.134 258.99 113.334 258.644 112.839C258.306 112.344 257.733 112.097 256.926 112.097C256.242 112.097 255.659 112.409 255.178 113.034C254.702 113.659 254.465 114.408 254.465 115.28V120.983H252.863V115.046C252.863 113.08 252.105 112.097 250.588 112.097C249.885 112.097 249.305 112.393 248.85 112.985C248.394 113.571 248.166 114.336 248.166 115.28V120.983H246.564V110.983H248.166V112.565H248.205C248.915 111.354 249.95 110.749 251.31 110.749C251.994 110.749 252.59 110.941 253.098 111.325C253.605 111.703 253.954 112.201 254.143 112.819C254.885 111.439 255.991 110.749 257.463 110.749C259.663 110.749 260.764 112.106 260.764 114.821V120.983ZM263.185 120.622V118.903C264.058 119.548 265.018 119.87 266.066 119.87C267.473 119.87 268.176 119.401 268.176 118.464C268.176 118.197 268.114 117.972 267.99 117.79C267.873 117.601 267.71 117.435 267.502 117.292C267.3 117.149 267.059 117.022 266.779 116.911C266.506 116.794 266.21 116.674 265.891 116.55C265.448 116.374 265.057 116.198 264.719 116.022C264.387 115.84 264.107 115.638 263.879 115.417C263.657 115.189 263.488 114.932 263.371 114.646C263.26 114.359 263.205 114.024 263.205 113.64C263.205 113.171 263.312 112.757 263.527 112.399C263.742 112.035 264.029 111.732 264.387 111.491C264.745 111.244 265.152 111.058 265.607 110.935C266.07 110.811 266.545 110.749 267.033 110.749C267.899 110.749 268.674 110.899 269.357 111.198V112.819C268.622 112.338 267.775 112.097 266.818 112.097C266.519 112.097 266.249 112.132 266.008 112.204C265.767 112.269 265.559 112.364 265.383 112.487C265.213 112.611 265.08 112.761 264.982 112.937C264.891 113.106 264.846 113.295 264.846 113.503C264.846 113.763 264.891 113.981 264.982 114.157C265.08 114.333 265.22 114.489 265.402 114.626C265.585 114.763 265.806 114.886 266.066 114.997C266.327 115.108 266.623 115.228 266.955 115.358C267.398 115.528 267.795 115.703 268.146 115.886C268.498 116.062 268.797 116.263 269.045 116.491C269.292 116.713 269.481 116.97 269.611 117.263C269.748 117.556 269.816 117.904 269.816 118.308C269.816 118.802 269.706 119.232 269.484 119.597C269.269 119.961 268.98 120.264 268.615 120.505C268.251 120.746 267.831 120.925 267.355 121.042C266.88 121.159 266.382 121.218 265.861 121.218C264.833 121.218 263.941 121.019 263.185 120.622ZM49.3085 147.622C48.6119 148.026 47.6061 148.228 46.291 148.228C44.7545 148.228 43.511 147.762 42.5605 146.831C41.61 145.9 41.1347 144.699 41.1347 143.228C41.1347 141.528 41.6425 140.19 42.6581 139.214C43.6803 138.231 45.0442 137.739 46.7499 137.739C47.9283 137.739 48.7812 137.896 49.3085 138.208V140.825C48.664 140.343 47.9446 140.103 47.1503 140.103C46.2649 140.103 45.5618 140.363 45.041 140.884C44.5266 141.398 44.2695 142.111 44.2695 143.022C44.2695 143.908 44.5169 144.604 45.0117 145.112C45.5064 145.614 46.1868 145.864 47.0527 145.864C47.8209 145.864 48.5729 145.623 49.3085 145.142V147.622ZM60.3242 143.862H53.8007C53.9049 145.314 54.8196 146.04 56.5449 146.04C57.6451 146.04 58.6119 145.78 59.4453 145.259V147.485C58.5208 147.98 57.3196 148.228 55.8417 148.228C54.2272 148.228 52.9739 147.782 52.082 146.89C51.19 145.991 50.7441 144.741 50.7441 143.14C50.7441 141.479 51.2259 140.164 52.1894 139.194C53.1529 138.224 54.3378 137.739 55.7441 137.739C57.2024 137.739 58.3287 138.172 59.123 139.038C59.9238 139.904 60.3242 141.079 60.3242 142.563V143.862ZM57.4628 141.968C57.4628 140.535 56.8834 139.819 55.7245 139.819C55.2298 139.819 54.8001 140.024 54.4355 140.435C54.0774 140.845 53.8593 141.356 53.7812 141.968H57.4628ZM71.8183 147.983H68.7421V142.427C68.7421 140.877 68.1887 140.103 67.082 140.103C66.5481 140.103 66.1087 140.308 65.7636 140.718C65.4186 141.128 65.246 141.649 65.246 142.28V147.983H62.1601V137.983H65.246V139.565H65.2851C66.0208 138.348 67.0917 137.739 68.498 137.739C70.7115 137.739 71.8183 139.113 71.8183 141.86V147.983ZM80.3144 147.866C79.8587 148.107 79.1718 148.228 78.2538 148.228C76.0794 148.228 74.9921 147.098 74.9921 144.839V140.259H73.371V137.983H74.9921V135.825L78.0683 134.946V137.983H80.3144V140.259H78.0683V144.302C78.0683 145.343 78.4817 145.864 79.3085 145.864C79.6341 145.864 79.9693 145.77 80.3144 145.581V147.866ZM88.5859 140.767C88.2148 140.565 87.7818 140.464 87.287 140.464C86.6165 140.464 86.0924 140.711 85.7148 141.206C85.3372 141.694 85.1484 142.362 85.1484 143.208V147.983H82.0624V137.983H85.1484V139.839H85.1874C85.6757 138.485 86.5546 137.808 87.8242 137.808C88.1497 137.808 88.4036 137.847 88.5859 137.925V140.767ZM98.3515 147.983H95.4316V146.548H95.3925C94.7219 147.668 93.7291 148.228 92.414 148.228C91.4439 148.228 90.679 147.954 90.1191 147.407C89.5657 146.854 89.289 146.118 89.289 145.2C89.289 143.26 90.4381 142.14 92.7363 141.841L95.4511 141.479C95.4511 140.386 94.8587 139.839 93.6738 139.839C92.4824 139.839 91.3495 140.194 90.2753 140.903V138.579C90.705 138.358 91.291 138.162 92.0331 137.993C92.7818 137.824 93.4622 137.739 94.0742 137.739C96.9257 137.739 98.3515 139.162 98.3515 142.007V147.983ZM95.4511 143.921V143.247L93.6347 143.481C92.6321 143.612 92.1308 144.064 92.1308 144.839C92.1308 145.19 92.2512 145.48 92.4921 145.708C92.7395 145.929 93.0716 146.04 93.4882 146.04C94.0676 146.04 94.5397 145.841 94.9042 145.444C95.2688 145.041 95.4511 144.533 95.4511 143.921ZM103.879 147.983H100.793V133.179H103.879V147.983ZM108.039 136.401C107.518 136.401 107.092 136.248 106.76 135.942C106.428 135.63 106.262 135.249 106.262 134.8C106.262 134.338 106.428 133.96 106.76 133.667C107.092 133.374 107.518 133.228 108.039 133.228C108.566 133.228 108.993 133.374 109.318 133.667C109.65 133.96 109.816 134.338 109.816 134.8C109.816 135.269 109.65 135.653 109.318 135.952C108.993 136.252 108.566 136.401 108.039 136.401ZM109.562 147.983H106.477V137.983H109.562V147.983ZM120.08 147.983H111.105V146.704L116.125 140.259H111.603V137.983H120.041V139.507L115.285 145.708H120.08V147.983ZM130.734 143.862H124.211C124.315 145.314 125.23 146.04 126.955 146.04C128.055 146.04 129.022 145.78 129.855 145.259V147.485C128.931 147.98 127.73 148.228 126.252 148.228C124.637 148.228 123.384 147.782 122.492 146.89C121.6 145.991 121.154 144.741 121.154 143.14C121.154 141.479 121.636 140.164 122.6 139.194C123.563 138.224 124.748 137.739 126.154 137.739C127.613 137.739 128.739 138.172 129.533 139.038C130.334 139.904 130.734 141.079 130.734 142.563V143.862ZM127.873 141.968C127.873 140.535 127.294 139.819 126.135 139.819C125.64 139.819 125.21 140.024 124.846 140.435C124.488 140.845 124.269 141.356 124.191 141.968H127.873ZM152.58 137.983L149.699 147.983H146.457L144.982 142.124C144.885 141.733 144.829 141.307 144.816 140.845H144.758C144.712 141.353 144.647 141.766 144.562 142.085L142.98 147.983H139.777L136.955 137.983H140.1L141.477 144.507C141.542 144.813 141.59 145.184 141.623 145.62H141.682C141.714 145.164 141.773 144.78 141.857 144.468L143.576 137.983H146.516L148.059 144.507C148.098 144.67 148.143 145.047 148.195 145.64H148.264C148.296 145.262 148.348 144.884 148.42 144.507L149.719 137.983H152.58ZM158.723 148.228C157.056 148.228 155.744 147.762 154.787 146.831C153.837 145.894 153.361 144.624 153.361 143.022C153.361 141.369 153.856 140.076 154.846 139.146C155.835 138.208 157.173 137.739 158.859 137.739C160.519 137.739 161.822 138.208 162.766 139.146C163.71 140.076 164.182 141.31 164.182 142.847C164.182 144.507 163.693 145.819 162.717 146.782C161.747 147.746 160.415 148.228 158.723 148.228ZM158.801 140.103C158.072 140.103 157.505 140.353 157.102 140.854C156.698 141.356 156.496 142.065 156.496 142.983C156.496 144.904 157.271 145.864 158.82 145.864C160.298 145.864 161.037 144.878 161.037 142.905C161.037 141.037 160.292 140.103 158.801 140.103ZM172.707 140.767C172.336 140.565 171.903 140.464 171.408 140.464C170.738 140.464 170.213 140.711 169.836 141.206C169.458 141.694 169.269 142.362 169.269 143.208V147.983H166.184V137.983H169.269V139.839H169.309C169.797 138.485 170.676 137.808 171.945 137.808C172.271 137.808 172.525 137.847 172.707 137.925V140.767ZM184.172 147.983H180.471L177.277 143.022H177.238V147.983H174.152V133.179H177.238V142.603H177.277L180.256 137.983H183.918L180.334 142.681L184.172 147.983ZM187.131 145.757L185.568 150.562H184.426L185.568 145.757H187.131ZM194.885 147.622V145.903C195.757 146.548 196.717 146.87 197.766 146.87C199.172 146.87 199.875 146.401 199.875 145.464C199.875 145.197 199.813 144.972 199.689 144.79C199.572 144.601 199.409 144.435 199.201 144.292C198.999 144.149 198.758 144.022 198.478 143.911C198.205 143.794 197.909 143.674 197.59 143.55C197.147 143.374 196.756 143.198 196.418 143.022C196.086 142.84 195.806 142.638 195.578 142.417C195.357 142.189 195.187 141.932 195.07 141.646C194.96 141.359 194.904 141.024 194.904 140.64C194.904 140.171 195.012 139.757 195.227 139.399C195.441 139.035 195.728 138.732 196.086 138.491C196.444 138.244 196.851 138.058 197.307 137.935C197.769 137.811 198.244 137.749 198.732 137.749C199.598 137.749 200.373 137.899 201.057 138.198V139.819C200.321 139.338 199.475 139.097 198.518 139.097C198.218 139.097 197.948 139.132 197.707 139.204C197.466 139.269 197.258 139.364 197.082 139.487C196.913 139.611 196.779 139.761 196.682 139.937C196.59 140.106 196.545 140.295 196.545 140.503C196.545 140.763 196.59 140.981 196.682 141.157C196.779 141.333 196.919 141.489 197.102 141.626C197.284 141.763 197.505 141.886 197.766 141.997C198.026 142.108 198.322 142.228 198.654 142.358C199.097 142.528 199.494 142.703 199.846 142.886C200.197 143.062 200.497 143.263 200.744 143.491C200.991 143.713 201.18 143.97 201.31 144.263C201.447 144.556 201.516 144.904 201.516 145.308C201.516 145.802 201.405 146.232 201.184 146.597C200.969 146.961 200.679 147.264 200.314 147.505C199.95 147.746 199.53 147.925 199.055 148.042C198.579 148.159 198.081 148.218 197.56 148.218C196.532 148.218 195.64 148.019 194.885 147.622ZM208.625 147.886C208.247 148.094 207.749 148.198 207.131 148.198C205.379 148.198 204.504 147.222 204.504 145.269V139.351H202.785V137.983H204.504V135.542L206.105 135.024V137.983H208.625V139.351H206.105V144.985C206.105 145.656 206.219 146.134 206.447 146.421C206.675 146.707 207.053 146.851 207.58 146.851C207.984 146.851 208.332 146.74 208.625 146.519V147.886ZM217.922 147.983H216.32V146.421H216.281C215.585 147.619 214.559 148.218 213.205 148.218C212.209 148.218 211.428 147.954 210.861 147.427C210.301 146.899 210.021 146.2 210.021 145.327C210.021 143.459 211.122 142.371 213.322 142.065L216.32 141.646C216.32 139.946 215.633 139.097 214.26 139.097C213.055 139.097 211.968 139.507 210.998 140.327V138.687C211.981 138.062 213.114 137.749 214.396 137.749C216.747 137.749 217.922 138.993 217.922 141.479V147.983ZM216.32 142.925L213.908 143.257C213.166 143.361 212.606 143.547 212.228 143.813C211.851 144.074 211.662 144.539 211.662 145.21C211.662 145.698 211.835 146.099 212.18 146.411C212.531 146.717 212.997 146.87 213.576 146.87C214.37 146.87 215.025 146.593 215.539 146.04C216.06 145.48 216.32 144.774 216.32 143.921V142.925ZM228.898 137.983L224.299 149.585C223.478 151.655 222.326 152.69 220.842 152.69C220.425 152.69 220.077 152.648 219.797 152.563V151.128C220.142 151.245 220.458 151.304 220.744 151.304C221.551 151.304 222.157 150.822 222.56 149.858L223.361 147.964L219.455 137.983H221.232L223.937 145.679C223.97 145.776 224.038 146.03 224.143 146.44H224.201C224.234 146.284 224.299 146.037 224.396 145.698L227.238 137.983H228.898ZM240.295 148.218C238.817 148.218 237.635 147.752 236.75 146.821C235.871 145.884 235.432 144.644 235.432 143.101C235.432 141.421 235.891 140.109 236.809 139.165C237.727 138.221 238.967 137.749 240.529 137.749C242.02 137.749 243.182 138.208 244.016 139.126C244.855 140.044 245.275 141.317 245.275 142.944C245.275 144.539 244.823 145.819 243.918 146.782C243.019 147.739 241.812 148.218 240.295 148.218ZM240.412 139.097C239.383 139.097 238.57 139.448 237.971 140.151C237.372 140.848 237.072 141.812 237.072 143.042C237.072 144.227 237.375 145.161 237.98 145.845C238.586 146.528 239.396 146.87 240.412 146.87C241.447 146.87 242.241 146.535 242.795 145.864C243.355 145.194 243.635 144.24 243.635 143.003C243.635 141.753 243.355 140.789 242.795 140.112C242.241 139.435 241.447 139.097 240.412 139.097ZM256.135 147.983H254.533V142.28C254.533 140.158 253.758 139.097 252.209 139.097C251.408 139.097 250.744 139.399 250.217 140.005C249.696 140.604 249.435 141.362 249.435 142.28V147.983H247.834V137.983H249.435V139.644H249.475C250.23 138.381 251.324 137.749 252.756 137.749C253.85 137.749 254.686 138.104 255.266 138.813C255.845 139.517 256.135 140.535 256.135 141.87V147.983ZM269.289 147.886C268.911 148.094 268.413 148.198 267.795 148.198C266.044 148.198 265.168 147.222 265.168 145.269V139.351H263.449V137.983H265.168V135.542L266.769 135.024V137.983H269.289V139.351H266.769V144.985C266.769 145.656 266.883 146.134 267.111 146.421C267.339 146.707 267.717 146.851 268.244 146.851C268.648 146.851 268.996 146.74 269.289 146.519V147.886ZM276.643 139.604C276.363 139.39 275.959 139.282 275.432 139.282C274.748 139.282 274.175 139.604 273.713 140.249C273.257 140.894 273.029 141.772 273.029 142.886V147.983H271.428V137.983H273.029V140.044H273.068C273.296 139.341 273.644 138.794 274.113 138.403C274.582 138.006 275.106 137.808 275.685 137.808C276.102 137.808 276.421 137.853 276.643 137.944V139.604ZM285.539 147.983H283.937V146.421H283.898C283.202 147.619 282.176 148.218 280.822 148.218C279.826 148.218 279.045 147.954 278.478 147.427C277.919 146.899 277.639 146.2 277.639 145.327C277.639 143.459 278.739 142.371 280.939 142.065L283.937 141.646C283.937 139.946 283.251 139.097 281.877 139.097C280.672 139.097 279.585 139.507 278.615 140.327V138.687C279.598 138.062 280.731 137.749 282.014 137.749C284.364 137.749 285.539 138.993 285.539 141.479V147.983ZM283.937 142.925L281.525 143.257C280.783 143.361 280.223 143.547 279.846 143.813C279.468 144.074 279.279 144.539 279.279 145.21C279.279 145.698 279.452 146.099 279.797 146.411C280.148 146.717 280.614 146.87 281.193 146.87C281.988 146.87 282.642 146.593 283.156 146.04C283.677 145.48 283.937 144.774 283.937 143.921V142.925ZM295.373 147.524C294.605 147.987 293.693 148.218 292.639 148.218C291.213 148.218 290.06 147.756 289.182 146.831C288.309 145.9 287.873 144.696 287.873 143.218C287.873 141.571 288.345 140.249 289.289 139.253C290.233 138.25 291.493 137.749 293.068 137.749C293.947 137.749 294.722 137.912 295.393 138.237V139.878C294.65 139.357 293.856 139.097 293.01 139.097C291.988 139.097 291.148 139.465 290.49 140.2C289.839 140.929 289.514 141.89 289.514 143.081C289.514 144.253 289.82 145.177 290.432 145.854C291.05 146.532 291.877 146.87 292.912 146.87C293.784 146.87 294.605 146.58 295.373 146.001V147.524ZM306.096 147.983H303.85L299.435 143.179H299.396V147.983H297.795V133.179H299.396V142.563H299.435L303.635 137.983H305.734L301.096 142.808L306.096 147.983ZM309.201 145.757L307.639 150.562H306.496L307.639 145.757H309.201ZM49.2109 174.983H47.6093V173.421H47.5703C46.8736 174.619 45.8482 175.218 44.4941 175.218C43.498 175.218 42.7167 174.954 42.1503 174.427C41.5904 173.899 41.3105 173.2 41.3105 172.327C41.3105 170.459 42.4107 169.371 44.6113 169.065L47.6093 168.646C47.6093 166.946 46.9225 166.097 45.5488 166.097C44.3443 166.097 43.2571 166.507 42.287 167.327V165.687C43.2701 165.062 44.4029 164.749 45.6855 164.749C48.0357 164.749 49.2109 165.993 49.2109 168.479V174.983ZM47.6093 169.925L45.1972 170.257C44.455 170.361 43.8951 170.547 43.5175 170.813C43.1399 171.074 42.9511 171.539 42.9511 172.21C42.9511 172.698 43.1236 173.099 43.4687 173.411C43.8203 173.717 44.2857 173.87 44.8652 173.87C45.6594 173.87 46.3137 173.593 46.8281 173.04C47.3489 172.48 47.6093 171.774 47.6093 170.921V169.925ZM60.5292 174.983H58.9277V169.28C58.9277 167.158 58.1529 166.097 56.6035 166.097C55.8027 166.097 55.1386 166.399 54.6113 167.005C54.0904 167.604 53.83 168.362 53.83 169.28V174.983H52.2285V164.983H53.83V166.644H53.8691C54.6243 165.381 55.718 164.749 57.1503 164.749C58.2441 164.749 59.0807 165.104 59.6601 165.813C60.2395 166.517 60.5292 167.535 60.5292 168.87V174.983ZM72.0917 174.983H70.4902V173.284H70.4511C69.7089 174.573 68.5631 175.218 67.0136 175.218C65.7571 175.218 64.7512 174.772 63.996 173.88C63.2473 172.981 62.873 171.761 62.873 170.218C62.873 168.564 63.2897 167.239 64.123 166.243C64.9563 165.247 66.0663 164.749 67.4531 164.749C68.8268 164.749 69.8261 165.289 70.4511 166.37H70.4902V160.179H72.0917V174.983ZM70.4902 170.462V168.987C70.4902 168.18 70.2232 167.496 69.6894 166.937C69.1555 166.377 68.4785 166.097 67.6581 166.097C66.6816 166.097 65.9134 166.455 65.3535 167.171C64.7936 167.887 64.5136 168.877 64.5136 170.14C64.5136 171.292 64.7805 172.203 65.3144 172.874C65.8548 173.538 66.5774 173.87 67.4824 173.87C68.3743 173.87 69.0969 173.548 69.6503 172.903C70.2102 172.259 70.4902 171.445 70.4902 170.462ZM88.8593 170.384H81.7988C81.8248 171.497 82.1243 172.356 82.6972 172.962C83.2701 173.567 84.0579 173.87 85.0605 173.87C86.1868 173.87 87.2219 173.499 88.166 172.757V174.261C87.287 174.899 86.1249 175.218 84.6796 175.218C83.2669 175.218 82.1568 174.765 81.3495 173.86C80.5423 172.949 80.1386 171.67 80.1386 170.022C80.1386 168.466 80.5781 167.2 81.457 166.224C82.3424 165.241 83.4394 164.749 84.748 164.749C86.0566 164.749 87.0689 165.172 87.7851 166.019C88.5012 166.865 88.8593 168.04 88.8593 169.544V170.384ZM87.2187 169.026C87.2122 168.102 86.9876 167.382 86.5449 166.868C86.1087 166.354 85.4999 166.097 84.7187 166.097C83.9635 166.097 83.3222 166.367 82.7949 166.907C82.2675 167.448 81.942 168.154 81.8183 169.026H87.2187ZM98.4492 174.983H96.8476V173.421H96.8085C96.1119 174.619 95.0865 175.218 93.7324 175.218C92.7363 175.218 91.955 174.954 91.3886 174.427C90.8287 173.899 90.5488 173.2 90.5488 172.327C90.5488 170.459 91.649 169.371 93.8495 169.065L96.8476 168.646C96.8476 166.946 96.1607 166.097 94.787 166.097C93.5826 166.097 92.4954 166.507 91.5253 167.327V165.687C92.5084 165.062 93.6412 164.749 94.9238 164.749C97.274 164.749 98.4492 165.993 98.4492 168.479V174.983ZM96.8476 169.925L94.4355 170.257C93.6933 170.361 93.1334 170.547 92.7558 170.813C92.3782 171.074 92.1894 171.539 92.1894 172.21C92.1894 172.698 92.3619 173.099 92.707 173.411C93.0585 173.717 93.524 173.87 94.1035 173.87C94.8977 173.87 95.552 173.593 96.0663 173.04C96.5872 172.48 96.8476 171.774 96.8476 170.921V169.925ZM100.861 174.622V172.903C101.734 173.548 102.694 173.87 103.742 173.87C105.148 173.87 105.852 173.401 105.852 172.464C105.852 172.197 105.79 171.972 105.666 171.79C105.549 171.601 105.386 171.435 105.178 171.292C104.976 171.149 104.735 171.022 104.455 170.911C104.182 170.794 103.885 170.674 103.566 170.55C103.124 170.374 102.733 170.198 102.394 170.022C102.062 169.84 101.782 169.638 101.555 169.417C101.333 169.189 101.164 168.932 101.047 168.646C100.936 168.359 100.881 168.024 100.881 167.64C100.881 167.171 100.988 166.757 101.203 166.399C101.418 166.035 101.704 165.732 102.062 165.491C102.421 165.244 102.827 165.058 103.283 164.935C103.745 164.811 104.221 164.749 104.709 164.749C105.575 164.749 106.35 164.899 107.033 165.198V166.819C106.297 166.338 105.451 166.097 104.494 166.097C104.195 166.097 103.924 166.132 103.684 166.204C103.443 166.269 103.234 166.364 103.059 166.487C102.889 166.611 102.756 166.761 102.658 166.937C102.567 167.106 102.521 167.295 102.521 167.503C102.521 167.763 102.567 167.981 102.658 168.157C102.756 168.333 102.896 168.489 103.078 168.626C103.26 168.763 103.482 168.886 103.742 168.997C104.003 169.108 104.299 169.228 104.631 169.358C105.074 169.528 105.471 169.703 105.822 169.886C106.174 170.062 106.473 170.263 106.721 170.491C106.968 170.713 107.157 170.97 107.287 171.263C107.424 171.556 107.492 171.904 107.492 172.308C107.492 172.802 107.381 173.232 107.16 173.597C106.945 173.961 106.656 174.264 106.291 174.505C105.926 174.746 105.506 174.925 105.031 175.042C104.556 175.159 104.058 175.218 103.537 175.218C102.508 175.218 101.616 175.019 100.861 174.622ZM110.783 162.444C110.497 162.444 110.253 162.347 110.051 162.151C109.849 161.956 109.748 161.709 109.748 161.409C109.748 161.11 109.849 160.862 110.051 160.667C110.253 160.465 110.497 160.364 110.783 160.364C111.076 160.364 111.324 160.465 111.525 160.667C111.734 160.862 111.838 161.11 111.838 161.409C111.838 161.696 111.734 161.94 111.525 162.142C111.324 162.343 111.076 162.444 110.783 162.444ZM111.564 174.983H109.963V164.983H111.564V174.983ZM116.408 174.983H114.807V160.179H116.408V174.983ZM127.609 164.983L123.01 176.585C122.189 178.655 121.037 179.69 119.553 179.69C119.136 179.69 118.788 179.648 118.508 179.563V178.128C118.853 178.245 119.169 178.304 119.455 178.304C120.262 178.304 120.868 177.822 121.271 176.858L122.072 174.964L118.166 164.983H119.943L122.648 172.679C122.681 172.776 122.749 173.03 122.853 173.44H122.912C122.945 173.284 123.01 173.037 123.107 172.698L125.949 164.983H127.609ZM141.643 174.524C140.874 174.987 139.963 175.218 138.908 175.218C137.482 175.218 136.33 174.756 135.451 173.831C134.579 172.9 134.143 171.696 134.143 170.218C134.143 168.571 134.615 167.249 135.559 166.253C136.503 165.25 137.762 164.749 139.338 164.749C140.217 164.749 140.991 164.912 141.662 165.237V166.878C140.92 166.357 140.126 166.097 139.279 166.097C138.257 166.097 137.417 166.465 136.76 167.2C136.109 167.929 135.783 168.89 135.783 170.081C135.783 171.253 136.089 172.177 136.701 172.854C137.32 173.532 138.146 173.87 139.182 173.87C140.054 173.87 140.874 173.58 141.643 173.001V174.524ZM148.244 175.218C146.766 175.218 145.585 174.752 144.699 173.821C143.82 172.884 143.381 171.644 143.381 170.101C143.381 168.421 143.84 167.109 144.758 166.165C145.676 165.221 146.916 164.749 148.478 164.749C149.969 164.749 151.131 165.208 151.965 166.126C152.805 167.044 153.225 168.317 153.225 169.944C153.225 171.539 152.772 172.819 151.867 173.782C150.969 174.739 149.761 175.218 148.244 175.218ZM148.361 166.097C147.333 166.097 146.519 166.448 145.92 167.151C145.321 167.848 145.021 168.812 145.021 170.042C145.021 171.227 145.324 172.161 145.93 172.845C146.535 173.528 147.346 173.87 148.361 173.87C149.396 173.87 150.191 173.535 150.744 172.864C151.304 172.194 151.584 171.24 151.584 170.003C151.584 168.753 151.304 167.789 150.744 167.112C150.191 166.435 149.396 166.097 148.361 166.097ZM157.385 174.983H155.783V160.179H157.385V174.983ZM162.228 174.983H160.627V160.179H162.228V174.983ZM172.629 174.983H171.027V173.421H170.988C170.292 174.619 169.266 175.218 167.912 175.218C166.916 175.218 166.135 174.954 165.568 174.427C165.008 173.899 164.728 173.2 164.728 172.327C164.728 170.459 165.829 169.371 168.029 169.065L171.027 168.646C171.027 166.946 170.34 166.097 168.967 166.097C167.762 166.097 166.675 166.507 165.705 167.327V165.687C166.688 165.062 167.821 164.749 169.103 164.749C171.454 164.749 172.629 165.993 172.629 168.479V174.983ZM171.027 169.925L168.615 170.257C167.873 170.361 167.313 170.547 166.935 170.813C166.558 171.074 166.369 171.539 166.369 172.21C166.369 172.698 166.542 173.099 166.887 173.411C167.238 173.717 167.704 173.87 168.283 173.87C169.077 173.87 169.732 173.593 170.246 173.04C170.767 172.48 171.027 171.774 171.027 170.921V169.925ZM177.287 173.538H177.248V174.983H175.646V160.179H177.248V166.741H177.287C178.075 165.413 179.227 164.749 180.744 164.749C182.027 164.749 183.029 165.198 183.752 166.097C184.481 166.989 184.846 168.187 184.846 169.69C184.846 171.364 184.439 172.705 183.625 173.714C182.811 174.716 181.698 175.218 180.285 175.218C178.963 175.218 177.964 174.658 177.287 173.538ZM177.248 169.505V170.901C177.248 171.728 177.515 172.431 178.049 173.011C178.589 173.584 179.273 173.87 180.1 173.87C181.07 173.87 181.828 173.499 182.375 172.757C182.928 172.015 183.205 170.983 183.205 169.661C183.205 168.548 182.948 167.675 182.434 167.044C181.919 166.412 181.223 166.097 180.344 166.097C179.413 166.097 178.664 166.422 178.098 167.073C177.531 167.718 177.248 168.528 177.248 169.505ZM191.584 175.218C190.106 175.218 188.924 174.752 188.039 173.821C187.16 172.884 186.721 171.644 186.721 170.101C186.721 168.421 187.18 167.109 188.098 166.165C189.016 165.221 190.256 164.749 191.818 164.749C193.309 164.749 194.471 165.208 195.305 166.126C196.144 167.044 196.564 168.317 196.564 169.944C196.564 171.539 196.112 172.819 195.207 173.782C194.309 174.739 193.101 175.218 191.584 175.218ZM191.701 166.097C190.672 166.097 189.859 166.448 189.26 167.151C188.661 167.848 188.361 168.812 188.361 170.042C188.361 171.227 188.664 172.161 189.269 172.845C189.875 173.528 190.685 173.87 191.701 173.87C192.736 173.87 193.531 173.535 194.084 172.864C194.644 172.194 194.924 171.24 194.924 170.003C194.924 168.753 194.644 167.789 194.084 167.112C193.531 166.435 192.736 166.097 191.701 166.097ZM204.338 166.604C204.058 166.39 203.654 166.282 203.127 166.282C202.443 166.282 201.87 166.604 201.408 167.249C200.952 167.894 200.725 168.772 200.725 169.886V174.983H199.123V164.983H200.725V167.044H200.764C200.991 166.341 201.34 165.794 201.809 165.403C202.277 165.006 202.801 164.808 203.381 164.808C203.797 164.808 204.116 164.853 204.338 164.944V166.604ZM213.234 174.983H211.633V173.421H211.594C210.897 174.619 209.872 175.218 208.518 175.218C207.521 175.218 206.74 174.954 206.174 174.427C205.614 173.899 205.334 173.2 205.334 172.327C205.334 170.459 206.434 169.371 208.635 169.065L211.633 168.646C211.633 166.946 210.946 166.097 209.572 166.097C208.368 166.097 207.281 166.507 206.31 167.327V165.687C207.294 165.062 208.426 164.749 209.709 164.749C212.059 164.749 213.234 165.993 213.234 168.479V174.983ZM211.633 169.925L209.221 170.257C208.478 170.361 207.919 170.547 207.541 170.813C207.163 171.074 206.975 171.539 206.975 172.21C206.975 172.698 207.147 173.099 207.492 173.411C207.844 173.717 208.309 173.87 208.889 173.87C209.683 173.87 210.337 173.593 210.852 173.04C211.372 172.48 211.633 171.774 211.633 170.921V169.925ZM220.891 174.886C220.513 175.094 220.015 175.198 219.396 175.198C217.645 175.198 216.769 174.222 216.769 172.269V166.351H215.051V164.983H216.769V162.542L218.371 162.024V164.983H220.891V166.351H218.371V171.985C218.371 172.656 218.485 173.134 218.713 173.421C218.941 173.707 219.318 173.851 219.846 173.851C220.249 173.851 220.598 173.74 220.891 173.519V174.886ZM231.066 170.384H224.006C224.032 171.497 224.331 172.356 224.904 172.962C225.477 173.567 226.265 173.87 227.268 173.87C228.394 173.87 229.429 173.499 230.373 172.757V174.261C229.494 174.899 228.332 175.218 226.887 175.218C225.474 175.218 224.364 174.765 223.557 173.86C222.749 172.949 222.346 171.67 222.346 170.022C222.346 168.466 222.785 167.2 223.664 166.224C224.549 165.241 225.646 164.749 226.955 164.749C228.264 164.749 229.276 165.172 229.992 166.019C230.708 166.865 231.066 168.04 231.066 169.544V170.384ZM229.426 169.026C229.419 168.102 229.195 167.382 228.752 166.868C228.316 166.354 227.707 166.097 226.926 166.097C226.171 166.097 225.529 166.367 225.002 166.907C224.475 167.448 224.149 168.154 224.025 169.026H229.426ZM234.055 175.198C233.755 175.198 233.498 175.091 233.283 174.876C233.075 174.661 232.971 174.404 232.971 174.104C232.971 173.805 233.075 173.548 233.283 173.333C233.498 173.112 233.755 173.001 234.055 173.001C234.361 173.001 234.621 173.112 234.836 173.333C235.051 173.548 235.158 173.805 235.158 174.104C235.158 174.404 235.051 174.661 234.836 174.876C234.621 175.091 234.361 175.198 234.055 175.198ZM242.775 160.745L241.408 165.101H240.256L241.31 160.745H242.775ZM239.807 160.745L238.439 165.101H237.287L238.371 160.745H239.807Z" fill="white"/>
<rect x="40.4316" y="210.983" width="305" height="41" rx="14" fill="white" fill-opacity="0.1"/>
<path d="M145.49 234.983V224.802H149.119C149.908 224.802 150.563 224.937 151.083 225.209C151.607 225.481 151.998 225.857 152.257 226.338C152.515 226.815 152.644 227.367 152.644 227.993C152.644 228.616 152.513 229.165 152.252 229.639C151.993 230.11 151.602 230.476 151.078 230.738C150.558 230.999 149.903 231.13 149.114 231.13H146.365V229.808H148.975C149.472 229.808 149.877 229.737 150.188 229.594C150.503 229.452 150.734 229.245 150.879 228.973C151.025 228.701 151.098 228.374 151.098 227.993C151.098 227.609 151.024 227.276 150.874 226.994C150.729 226.712 150.498 226.497 150.183 226.348C149.872 226.195 149.462 226.119 148.955 226.119H147.026V234.983H145.49ZM150.516 230.39L153.032 234.983H151.282L148.816 230.39H150.516ZM157.59 235.138C156.837 235.138 156.189 234.977 155.646 234.655C155.106 234.33 154.688 233.875 154.393 233.288C154.101 232.698 153.956 232.007 153.956 231.215C153.956 230.433 154.101 229.743 154.393 229.147C154.688 228.55 155.099 228.084 155.626 227.75C156.156 227.415 156.776 227.248 157.485 227.248C157.916 227.248 158.334 227.319 158.738 227.461C159.143 227.604 159.506 227.828 159.827 228.133C160.149 228.437 160.402 228.834 160.588 229.321C160.773 229.805 160.866 230.393 160.866 231.086V231.613H154.796V230.499H159.409C159.409 230.108 159.33 229.762 159.171 229.46C159.012 229.155 158.788 228.915 158.5 228.739C158.215 228.563 157.88 228.476 157.495 228.476C157.078 228.476 156.713 228.578 156.402 228.784C156.093 228.986 155.855 229.251 155.686 229.579C155.52 229.904 155.437 230.257 155.437 230.638V231.508C155.437 232.019 155.527 232.453 155.706 232.811C155.888 233.169 156.141 233.442 156.466 233.631C156.791 233.817 157.171 233.91 157.605 233.91C157.886 233.91 158.143 233.87 158.375 233.79C158.607 233.707 158.808 233.585 158.977 233.422C159.146 233.26 159.275 233.059 159.365 232.821L160.772 233.074C160.659 233.489 160.457 233.852 160.165 234.163C159.877 234.471 159.514 234.712 159.076 234.884C158.642 235.053 158.147 235.138 157.59 235.138ZM164.738 235.152C164.254 235.152 163.816 235.063 163.425 234.884C163.034 234.702 162.724 234.438 162.496 234.093C162.27 233.749 162.157 233.326 162.157 232.826C162.157 232.395 162.24 232.04 162.406 231.762C162.572 231.483 162.795 231.263 163.077 231.101C163.359 230.938 163.674 230.816 164.022 230.733C164.37 230.65 164.724 230.587 165.086 230.544C165.543 230.491 165.914 230.448 166.199 230.415C166.484 230.378 166.692 230.32 166.821 230.241C166.95 230.161 167.015 230.032 167.015 229.853V229.818C167.015 229.384 166.892 229.047 166.647 228.809C166.405 228.57 166.044 228.451 165.563 228.451C165.063 228.451 164.668 228.562 164.38 228.784C164.095 229.003 163.898 229.246 163.788 229.515L162.391 229.196C162.557 228.732 162.799 228.358 163.117 228.073C163.438 227.785 163.808 227.576 164.226 227.446C164.643 227.314 165.082 227.248 165.543 227.248C165.848 227.248 166.171 227.284 166.513 227.357C166.857 227.427 167.179 227.556 167.477 227.745C167.779 227.934 168.026 228.204 168.218 228.555C168.41 228.903 168.506 229.356 168.506 229.912V234.983H167.054V233.939H166.995C166.899 234.132 166.755 234.321 166.562 234.506C166.37 234.692 166.123 234.846 165.822 234.968C165.52 235.091 165.159 235.152 164.738 235.152ZM165.061 233.959C165.472 233.959 165.823 233.878 166.115 233.716C166.41 233.553 166.634 233.341 166.786 233.079C166.942 232.814 167.02 232.531 167.02 232.229V231.245C166.967 231.298 166.864 231.348 166.711 231.394C166.562 231.437 166.392 231.475 166.199 231.508C166.007 231.538 165.82 231.566 165.638 231.593C165.455 231.616 165.303 231.636 165.18 231.652C164.892 231.689 164.628 231.75 164.39 231.836C164.154 231.923 163.965 232.047 163.823 232.209C163.684 232.368 163.614 232.58 163.614 232.846C163.614 233.214 163.75 233.492 164.022 233.681C164.294 233.866 164.64 233.959 165.061 233.959ZM173.345 235.133C172.728 235.133 172.178 234.975 171.694 234.66C171.214 234.342 170.836 233.89 170.561 233.303C170.289 232.713 170.153 232.005 170.153 231.18C170.153 230.355 170.291 229.649 170.566 229.062C170.844 228.476 171.225 228.026 171.709 227.715C172.193 227.403 172.742 227.248 173.355 227.248C173.829 227.248 174.21 227.327 174.498 227.486C174.79 227.642 175.015 227.824 175.174 228.033C175.337 228.242 175.463 228.426 175.552 228.585H175.642V224.802H177.128V234.983H175.676V233.795H175.552C175.463 233.958 175.333 234.143 175.164 234.352C174.999 234.561 174.77 234.743 174.478 234.899C174.187 235.055 173.809 235.133 173.345 235.133ZM173.673 233.865C174.1 233.865 174.462 233.752 174.757 233.527C175.055 233.298 175.28 232.982 175.433 232.577C175.589 232.173 175.667 231.702 175.667 231.165C175.667 230.635 175.59 230.171 175.438 229.773C175.285 229.375 175.062 229.066 174.767 228.843C174.472 228.621 174.107 228.51 173.673 228.51C173.225 228.51 172.853 228.626 172.554 228.858C172.256 229.09 172.031 229.407 171.878 229.808C171.729 230.209 171.654 230.661 171.654 231.165C171.654 231.676 171.731 232.135 171.883 232.542C172.036 232.95 172.261 233.273 172.559 233.512C172.861 233.747 173.232 233.865 173.673 233.865ZM188.677 229.211L187.33 229.45C187.274 229.278 187.184 229.114 187.061 228.958C186.942 228.802 186.78 228.674 186.574 228.575C186.369 228.476 186.112 228.426 185.804 228.426C185.383 228.426 185.031 228.52 184.75 228.709C184.468 228.895 184.327 229.135 184.327 229.43C184.327 229.685 184.421 229.891 184.61 230.047C184.799 230.202 185.104 230.33 185.525 230.429L186.738 230.708C187.441 230.87 187.965 231.12 188.309 231.459C188.654 231.797 188.826 232.236 188.826 232.776C188.826 233.233 188.694 233.641 188.429 233.999C188.167 234.354 187.801 234.632 187.33 234.834C186.863 235.036 186.321 235.138 185.704 235.138C184.849 235.138 184.151 234.955 183.611 234.591C183.071 234.223 182.739 233.701 182.617 233.025L184.054 232.806C184.143 233.18 184.327 233.464 184.605 233.656C184.884 233.845 185.247 233.939 185.694 233.939C186.181 233.939 186.571 233.838 186.863 233.636C187.154 233.431 187.3 233.18 187.3 232.885C187.3 232.647 187.211 232.446 187.032 232.284C186.856 232.121 186.586 231.999 186.221 231.916L184.929 231.633C184.216 231.47 183.689 231.212 183.348 230.857C183.01 230.502 182.841 230.053 182.841 229.51C182.841 229.059 182.966 228.665 183.218 228.326C183.47 227.988 183.818 227.725 184.262 227.536C184.707 227.344 185.215 227.248 185.789 227.248C186.614 227.248 187.264 227.427 187.738 227.785C188.211 228.139 188.525 228.615 188.677 229.211ZM194.025 227.347V228.54H189.854V227.347H194.025ZM190.973 225.517H192.459V232.741C192.459 233.03 192.502 233.247 192.589 233.392C192.675 233.535 192.786 233.633 192.922 233.686C193.061 233.736 193.212 233.76 193.374 233.76C193.493 233.76 193.598 233.752 193.687 233.736C193.777 233.719 193.846 233.706 193.896 233.696L194.165 234.924C194.078 234.957 193.956 234.99 193.797 235.023C193.638 235.06 193.439 235.08 193.2 235.083C192.809 235.089 192.444 235.02 192.106 234.874C191.768 234.728 191.495 234.503 191.286 234.198C191.077 233.893 190.973 233.51 190.973 233.049V225.517ZM198.804 235.138C198.088 235.138 197.464 234.973 196.93 234.645C196.396 234.317 195.982 233.858 195.687 233.268C195.392 232.678 195.245 231.989 195.245 231.2C195.245 230.408 195.392 229.715 195.687 229.122C195.982 228.529 196.396 228.068 196.93 227.74C197.464 227.412 198.088 227.248 198.804 227.248C199.52 227.248 200.145 227.412 200.679 227.74C201.212 228.068 201.626 228.529 201.921 229.122C202.216 229.715 202.364 230.408 202.364 231.2C202.364 231.989 202.216 232.678 201.921 233.268C201.626 233.858 201.212 234.317 200.679 234.645C200.145 234.973 199.52 235.138 198.804 235.138ZM198.809 233.89C199.273 233.89 199.658 233.767 199.963 233.522C200.268 233.276 200.493 232.95 200.639 232.542C200.788 232.135 200.863 231.686 200.863 231.195C200.863 230.708 200.788 230.26 200.639 229.853C200.493 229.442 200.268 229.112 199.963 228.863C199.658 228.615 199.273 228.491 198.809 228.491C198.342 228.491 197.954 228.615 197.646 228.863C197.341 229.112 197.114 229.442 196.965 229.853C196.819 230.26 196.746 230.708 196.746 231.195C196.746 231.686 196.819 232.135 196.965 232.542C197.114 232.95 197.341 233.276 197.646 233.522C197.954 233.767 198.342 233.89 198.809 233.89ZM204.023 234.983V227.347H205.46V228.56H205.54C205.679 228.149 205.924 227.826 206.275 227.591C206.63 227.352 207.031 227.233 207.478 227.233C207.571 227.233 207.681 227.236 207.807 227.243C207.936 227.249 208.037 227.258 208.11 227.267V228.689C208.05 228.673 207.944 228.655 207.792 228.635C207.639 228.611 207.487 228.6 207.334 228.6C206.983 228.6 206.67 228.674 206.395 228.824C206.123 228.969 205.907 229.173 205.748 229.435C205.589 229.694 205.51 229.989 205.51 230.32V234.983H204.023ZM210.568 237.847C210.346 237.847 210.144 237.829 209.962 237.792C209.779 237.759 209.644 237.723 209.554 237.683L209.912 236.465C210.184 236.538 210.426 236.569 210.638 236.559C210.85 236.549 211.037 236.47 211.2 236.321C211.365 236.172 211.511 235.928 211.637 235.59L211.821 235.083L209.027 227.347H210.618L212.552 233.273H212.632L214.565 227.347H216.161L213.014 236.003C212.869 236.4 212.683 236.737 212.458 237.012C212.232 237.29 211.964 237.499 211.652 237.638C211.341 237.777 210.979 237.847 210.568 237.847Z" fill="white"/>
<g clip-path="url(#clip1_6_543)">
<path d="M240.306 227.516L234.331 233.491M240.306 227.516L235.991 227.648M240.306 227.516L240.174 231.83" stroke="white" stroke-width="1.26748" stroke-linecap="round" stroke-linejoin="round"/>
</g>
<rect x="-3.56842" y="2.29346" width="392.69" height="6" transform="rotate(4 -3.56842 2.29346)" fill="white"/>
</g>
<defs>
<linearGradient id="paint0_linear_6_543" x1="285.244" y1="-48.6541" x2="99.7557" y2="331.654" gradientUnits="userSpaceOnUse">
<stop stop-color="#26ABFA" stop-opacity="0.8"/>
<stop offset="0.525" stop-color="#7612FA" stop-opacity="0.8"/>
</linearGradient>
<clipPath id="clip0_6_543">
<rect width="385" height="283" fill="white" transform="translate(0.43158 0.983398)"/>
</clipPath>
<clipPath id="clip1_6_543">
<rect width="8" height="8" fill="white" transform="translate(233.492 226.483)"/>
</clipPath>
</defs>
</svg>
