<svg width="83" height="42" viewBox="0 0 83 42" fill="none" xmlns="http://www.w3.org/2000/svg">
<g clip-path="url(#clip0_6_365)">
<path d="M41.5504 1.90186C46.5953 1.90186 50.0195 2.03856 52.2224 2.18175C54.226 2.31199 55.7483 3.87557 55.9152 5.87654C56.0767 7.81269 56.2386 10.2636 56.2418 12.337C56.2452 14.5514 56.0675 17.1965 55.9007 19.1852C55.7488 20.9959 54.4729 22.4721 52.6737 22.7252C50.6178 23.0144 47.4202 23.3182 42.8812 23.3678C42.4586 23.3725 42.5755 23.3749 42.1296 23.3749C42.1296 23.3749 40.3198 25.4884 37.8917 27.613C35.1154 30.0422 33.0883 31.286 33.0883 31.286C33.0883 31.286 33.371 29.2368 33.371 27.0479C33.371 25.581 33.2441 24.2487 33.1603 23.5295C33.1227 23.2069 32.8479 22.9699 32.5232 22.9699C31.7482 22.8914 31.0703 22.808 30.4847 22.7257C28.6833 22.4725 27.4017 20.9942 27.2453 19.1819C27.0738 17.1936 26.8895 14.5502 26.8861 12.337C26.8829 10.2624 27.0386 7.8098 27.1955 5.87312C27.3575 3.87379 28.8742 2.31219 30.8759 2.18197C33.0783 2.03869 36.5029 1.90186 41.5504 1.90186Z" fill="#24223E" fill-opacity="0.1"/>
<path d="M42.1296 23.3749C42.5755 23.3749 42.4586 23.3725 42.8812 23.3678M42.1296 23.3749L42.8812 23.3678M42.1296 23.3749C42.1296 23.3749 40.3198 25.4884 37.8917 27.613C35.1154 30.0422 33.0883 31.286 33.0883 31.286C33.0883 31.286 33.371 29.2368 33.371 27.0479C33.371 25.581 33.2441 24.2487 33.1603 23.5295C33.1227 23.2069 32.8479 22.9699 32.5232 22.9699C31.7482 22.8914 31.0703 22.808 30.4847 22.7257C28.6833 22.4725 27.4017 20.9942 27.2453 19.1819C27.0738 17.1936 26.8895 14.5502 26.8861 12.337C26.8829 10.2624 27.0386 7.8098 27.1955 5.87312C27.3575 3.87379 28.8742 2.31219 30.8759 2.18197C33.0783 2.03869 36.5029 1.90186 41.5504 1.90186C46.5953 1.90186 50.0195 2.03856 52.2224 2.18175C54.226 2.31199 55.7483 3.87557 55.9152 5.87654C56.0767 7.81269 56.2386 10.2636 56.2418 12.337C56.2452 14.5514 56.0675 17.1965 55.9007 19.1852C55.7488 20.9959 54.4729 22.4721 52.6737 22.7252C50.6178 23.0144 47.4202 23.3182 42.8812 23.3678" stroke="#514B81" stroke-width="2" stroke-linecap="round" stroke-linejoin="round"/>
<path d="M34.7839 14.8984H42.6951" stroke="#514B81" stroke-width="2" stroke-linecap="round" stroke-linejoin="round"/>
<path d="M34.7839 9.24756H48.3458" stroke="#514B81" stroke-width="2" stroke-linecap="round" stroke-linejoin="round"/>
</g>
<defs>
<clipPath id="clip0_6_365">
<rect width="32" height="32" fill="white" transform="translate(25.3816 0.59375)"/>
</clipPath>
</defs>
</svg>
