<svg width="73" height="42" viewBox="0 0 73 42" fill="none" xmlns="http://www.w3.org/2000/svg">
<g clip-path="url(#clip0_6_392)">
<path d="M49.0715 2.08691L51.3318 5.19484L44.2683 23.8424L37.4874 21.2996L45.3985 2.36945L49.0715 2.08691Z" fill="#24223E" fill-opacity="0.1"/>
<path d="M37.4647 21.9918L36.9805 23.2315C36.7509 23.8196 36.6462 24.4467 36.6821 25.077C36.7885 26.9428 37.0613 30.909 37.4647 31.0624C37.8657 31.2149 40.832 28.5247 42.2368 27.2208C42.7231 26.7694 43.0956 26.213 43.337 25.5949L43.9116 24.1234M37.4647 21.9918L44.4315 4.15221C45.1314 2.35998 47.1197 1.40307 48.9181 2.08691C50.6684 2.75244 51.4788 4.74642 50.7977 6.49064L43.9116 24.1234M37.4647 21.9918C37.4647 21.9918 38.8984 21.7758 40.8762 22.4297C42.8539 23.0837 43.9116 24.1234 43.9116 24.1234" stroke="#514B81" stroke-width="2" stroke-linecap="round" stroke-linejoin="round"/>
<path d="M23.9229 6.89014C23.9229 6.89014 22.7928 9.13382 22.7928 16.4964C22.7928 23.8591 23.9229 26.1028 23.9229 26.1028" stroke="#514B81" stroke-width="2" stroke-linecap="round" stroke-linejoin="round"/>
<path d="M26.749 4.06474C26.749 4.06474 28.1617 3.21712 32.8236 2.93458C37.4855 2.65204 40.0284 3.21712 40.0284 3.21712" stroke="#514B81" stroke-width="2" stroke-linecap="round" stroke-linejoin="round"/>
<path d="M26.7493 28.9282H32.6827" stroke="#514B81" stroke-width="2" stroke-linecap="round" stroke-linejoin="round"/>
<path d="M21.6631 4.34706C21.6631 5.75144 22.8016 6.88992 24.206 6.88992C25.6104 6.88992 26.7489 5.75144 26.7489 4.34706C26.7489 2.94268 25.6104 1.8042 24.206 1.8042C22.8016 1.8042 21.6631 2.94268 21.6631 4.34706Z" stroke="#514B81" stroke-width="2" stroke-linecap="round" stroke-linejoin="round"/>
<path d="M21.6631 28.6454C21.6631 30.0498 22.8016 31.1882 24.206 31.1882C25.6104 31.1882 26.7489 30.0498 26.7489 28.6454C26.7489 27.241 25.6104 26.1025 24.206 26.1025C22.8016 26.1025 21.6631 27.241 21.6631 28.6454Z" stroke="#514B81" stroke-width="2" stroke-linecap="round" stroke-linejoin="round"/>
</g>
<defs>
<clipPath id="clip0_6_392">
<rect width="33" height="32" fill="white" transform="translate(19.8116 0.59375)"/>
</clipPath>
</defs>
</svg>
