<svg width="32" height="32" viewBox="0 0 32 32" fill="none" xmlns="http://www.w3.org/2000/svg">
<g clip-path="url(#clip0_6_615)">
<path d="M21.2394 6.7622L17.4194 2.89563C16.5792 2.04521 15.217 2.04521 14.3769 2.89563L10.6065 6.71197C10.6065 6.71197 16.8577 9.41855 13.0379 13.3197C9.20149 17.2378 6.50973 10.8587 6.50973 10.8587L2.7394 14.675C1.89923 15.5254 1.89923 16.9042 2.7394 17.7546L6.55941 21.6212C6.55941 21.6212 0.282014 24.2863 4.18885 28.2062C8.07884 32.1092 10.6946 25.8068 10.6946 25.8068L14.5146 29.6734C15.3548 30.5238 16.7169 30.5238 17.5571 29.6733L21.3275 25.857C21.3275 25.857 15.0762 23.1504 18.8961 19.2493C22.7325 15.3312 25.4242 21.7103 25.4242 21.7103L29.1946 17.894C30.0347 17.0436 30.0347 15.6648 29.1946 14.8144L25.3746 10.9478C25.3746 10.9478 31.6519 8.28266 27.7451 4.36275C23.8551 0.459733 21.2394 6.7622 21.2394 6.7622Z" fill="white" fill-opacity="0.09" stroke="white" stroke-width="2" stroke-linecap="round" stroke-linejoin="round"/>
</g>
<defs>
<clipPath id="clip0_6_615">
<rect width="31" height="31" fill="white" transform="translate(0.261597 0.863281)"/>
</clipPath>
</defs>
</svg>
