<svg width="33" height="33" viewBox="0 0 33 33" fill="none" xmlns="http://www.w3.org/2000/svg">
<g clip-path="url(#clip0_6_593)">
<path d="M14.027 4.65071V19.2613L23.9174 27.6489C23.9174 27.6489 31.1347 20.3754 26.8578 12.2266C22.3136 3.56844 14.027 4.65071 14.027 4.65071Z" fill="white" fill-opacity="0.09"/>
<path d="M1.73157 17.7495C1.73157 10.5156 7.5958 4.65137 14.8297 4.65137C22.0636 4.65137 27.9278 10.5156 27.9278 17.7495V18.0688C27.9278 25.3027 22.0636 31.167 14.8297 31.167C7.5958 31.167 1.73157 25.3027 1.73157 18.0688V17.7495Z" fill="white" fill-opacity="0.09" stroke="white" stroke-width="2" stroke-linecap="round" stroke-linejoin="round"/>
<path d="M14.027 19.2617L17.7693 22.5086" stroke="white" stroke-width="2" stroke-linecap="round" stroke-linejoin="round"/>
<path d="M14.027 19.2615V11.1445" stroke="white" stroke-width="2" stroke-linecap="round" stroke-linejoin="round"/>
<path d="M22.5823 3.02754C22.5823 3.02754 26.4837 2.64737 28.1958 4.38037C29.908 6.11337 29.5325 10.0623 29.5325 10.0623" stroke="white" stroke-width="2" stroke-linecap="round" stroke-linejoin="round"/>
</g>
<defs>
<clipPath id="clip0_6_593">
<rect width="32" height="32" fill="white" transform="translate(0.261597 0.863281)"/>
</clipPath>
</defs>
</svg>
