<svg width="60" height="29" viewBox="0 0 60 29" fill="none" xmlns="http://www.w3.org/2000/svg">
<g clip-path="url(#clip0_6_618)">
<path d="M45.3541 0.863281H14.942C7.33076 0.863281 1.16061 7.0334 1.16061 14.6446C1.16061 22.2559 7.33076 28.426 14.942 28.426H45.3541C52.9654 28.426 59.1355 22.2559 59.1355 14.6446C59.1355 7.0334 52.9654 0.863281 45.3541 0.863281Z" fill="#020202" fill-opacity="0.2"/>
<path d="M14.776 24.8678C20.355 24.8678 24.8777 20.2899 24.8777 14.6429C24.8777 8.99581 20.355 4.41797 14.776 4.41797C9.197 4.41797 4.67432 8.99581 4.67432 14.6429C4.67432 20.2899 9.197 24.8678 14.776 24.8678Z" fill="white"/>
</g>
<defs>
<clipPath id="clip0_6_618">
<rect width="59" height="28" fill="white" transform="translate(0.93161 0.863281)"/>
</clipPath>
</defs>
</svg>
