<svg width="60" height="29" viewBox="0 0 60 29" fill="none" xmlns="http://www.w3.org/2000/svg">
<g clip-path="url(#clip0_6_600)">
<path d="M45.3541 0.363281H14.942C7.33076 0.363281 1.16061 6.5334 1.16061 14.1446C1.16061 21.7559 7.33076 27.926 14.942 27.926H45.3541C52.9654 27.926 59.1355 21.7559 59.1355 14.1446C59.1355 6.5334 52.9654 0.363281 45.3541 0.363281Z" fill="#020202" fill-opacity="0.2"/>
<path d="M14.776 24.3678C20.355 24.3678 24.8777 19.7899 24.8777 14.1429C24.8777 8.49581 20.355 3.91797 14.776 3.91797C9.197 3.91797 4.67432 8.49581 4.67432 14.1429C4.67432 19.7899 9.197 24.3678 14.776 24.3678Z" fill="white"/>
</g>
<defs>
<clipPath id="clip0_6_600">
<rect width="59" height="28" fill="white" transform="translate(0.93161 0.363281)"/>
</clipPath>
</defs>
</svg>
