<svg width="147" height="39" viewBox="0 0 147 39" fill="none" xmlns="http://www.w3.org/2000/svg">
<g clip-path="url(#clip0_6_919)">
<path fill-rule="evenodd" clip-rule="evenodd" d="M6.54669 27.6221L11.5612 23.7715C14.2253 27.2569 17.0558 28.8635 20.2065 28.8635C23.3402 28.8635 26.0907 27.2759 28.6348 23.8179L33.7209 27.5757C30.0501 32.5622 25.4884 35.1968 20.2065 35.1968C14.9414 35.1968 10.3355 32.579 6.54669 27.6221Z" fill="url(#paint0_linear_6_919)"/>
<path fill-rule="evenodd" clip-rule="evenodd" d="M19.9239 10.8857L10.9985 18.5954L6.87274 13.799L19.9428 2.50879L32.9097 13.8074L28.765 18.587L19.9239 10.8857Z" fill="url(#paint1_linear_6_919)"/>
<path d="M52.6855 30.44C49.6381 30.44 47.0982 29.4499 45.0385 27.4696C42.9788 25.462 41.9637 22.8885 41.9637 19.7472C41.9637 16.5805 43.0062 13.9775 45.0659 11.9403C47.1551 9.87562 49.695 8.85806 52.715 8.85806C56.4406 8.85806 59.7408 10.4689 61.6615 12.9874L58.3023 16.5235C56.6933 14.7966 54.9432 13.9205 53.0541 13.9205C51.4451 13.9205 50.1183 14.4567 49.0168 15.5609C47.9448 16.665 47.4099 18.052 47.4099 19.7197C47.4099 21.3326 47.9448 22.6901 49.0168 23.7942C50.1183 24.8687 51.4451 25.405 53.0246 25.405C55.0843 25.405 56.8913 24.4993 58.3866 22.7175L61.8868 26.0847C60.9265 27.3577 59.6291 28.4049 58.0201 29.224C56.4111 30.0452 54.6336 30.44 52.6855 30.44ZM67.8069 8.54562V30.1296H62.8408V8.54562H67.8069ZM72.5139 13.1267C70.8501 13.1267 69.637 11.9107 69.637 10.243C69.637 8.63006 70.907 7.41406 72.5139 7.41406C74.1229 7.41406 75.3654 8.63006 75.3654 10.243C75.3654 11.9107 74.1229 13.1289 72.5139 13.1289V13.1267ZM75.0264 14.5137V30.1296H70.0309V14.5137H75.0264ZM84.5878 30.4695C82.1321 30.4695 80.1567 29.7053 78.6066 28.1769C77.0819 26.6505 76.3195 24.6977 76.3195 22.2932C76.3195 19.8886 77.0819 17.938 78.634 16.4095C80.1862 14.8811 82.189 14.119 84.672 14.119C87.9174 14.119 90.769 15.7023 92.0937 18.6726L88.1154 20.7669C87.3256 19.4369 86.2242 18.7571 84.7857 18.7571C83.7411 18.7571 82.8945 19.097 82.2164 19.7767C81.8946 20.1104 81.6417 20.5044 81.4722 20.9363C81.3028 21.3681 81.22 21.8292 81.2286 22.2932C81.2286 24.3579 82.7239 25.8863 84.7289 25.8863C86.1673 25.8863 87.4941 25.0946 88.0585 23.8786L92.0389 26.2536C90.6826 28.8566 87.89 30.4695 84.5878 30.4695ZM109.361 30.1296H103.433L98.8309 23.9335L98.098 24.6133V30.1296H93.1341V8.54562H98.1001V19.04L102.784 14.5137H108.852L102.165 20.7943L109.361 30.1296ZM109.694 22.0103V9.22328H114.999V21.9259C114.999 24.2734 116.354 25.405 118.302 25.405C120.22 25.405 121.574 24.2164 121.574 21.9259V9.22328H126.909V22.0103C126.909 28.1769 122.646 30.497 118.302 30.497C113.984 30.497 109.694 28.1769 109.694 22.0103ZM138.699 14.119C140.929 14.119 142.736 14.9106 144.174 16.494C145.613 18.0499 146.318 20.0026 146.318 22.2932C146.318 24.5859 145.585 26.5365 144.147 28.1494C142.706 29.7327 140.901 30.5265 138.728 30.5265C137.005 30.5265 135.51 29.9607 134.297 28.8292V36.5516H129.301V14.5137H134.213V15.9577C135.426 14.7396 136.921 14.119 138.699 14.119ZM141.238 22.3502C141.238 20.313 139.773 18.7571 137.74 18.7571C135.708 18.7571 134.213 20.313 134.213 22.3502C134.213 23.3403 134.55 24.189 135.2 24.8962C135.876 25.6034 136.723 25.9433 137.74 25.9433C138.755 25.9433 139.602 25.6034 140.251 24.8962C140.898 24.2085 141.253 23.2955 141.241 22.3502H141.238Z" fill="white"/>
</g>
<defs>
<linearGradient id="paint0_linear_6_919" x1="6.54669" y1="31.5419" x2="33.7209" y2="31.5419" gradientUnits="userSpaceOnUse">
<stop stop-color="#8930FD"/>
<stop offset="1" stop-color="#49CCF9"/>
</linearGradient>
<linearGradient id="paint1_linear_6_919" x1="6.87274" y1="13.4493" x2="32.9097" y2="13.4493" gradientUnits="userSpaceOnUse">
<stop stop-color="#FF02F0"/>
<stop offset="1" stop-color="#FFC800"/>
</linearGradient>
<clipPath id="clip0_6_919">
<rect width="146" height="38" fill="white" transform="translate(0.93158 0.363281)"/>
</clipPath>
</defs>
</svg>
