<svg width="147" height="47" viewBox="0 0 147 47" fill="none" xmlns="http://www.w3.org/2000/svg">
<g clip-path="url(#clip0_6_974)">
<path fill-rule="evenodd" clip-rule="evenodd" d="M6.54669 27.9028L11.5612 24.0522C14.2253 27.5376 17.0558 29.1442 20.2065 29.1442C23.3402 29.1442 26.0907 27.5566 28.6348 24.0986L33.7209 27.8564C30.0501 32.8429 25.4884 35.4775 20.2065 35.4775C14.9414 35.4775 10.3355 32.8597 6.54669 27.9028Z" fill="url(#paint0_linear_6_974)"/>
<path fill-rule="evenodd" clip-rule="evenodd" d="M19.9239 11.1664L10.9985 18.8761L6.87274 14.0797L19.9428 2.78949L32.9097 14.0881L28.765 18.8677L19.9239 11.1664Z" fill="url(#paint1_linear_6_974)"/>
<path d="M52.6855 30.7203C49.6381 30.7203 47.0982 29.7302 45.0385 27.7499C42.9788 25.7423 41.9637 23.1688 41.9637 20.0275C41.9637 16.8608 43.0062 14.2578 45.0659 12.2206C47.1551 10.156 49.695 9.1384 52.715 9.1384C56.4406 9.1384 59.7408 10.7492 61.6615 13.2677L58.3023 16.8038C56.6933 15.0769 54.9432 14.2008 53.0541 14.2008C51.4451 14.2008 50.1183 14.737 49.0168 15.8412C47.9448 16.9453 47.4099 18.3323 47.4099 20C47.4099 21.6129 47.9448 22.9704 49.0168 24.0745C50.1183 25.149 51.4451 25.6853 53.0246 25.6853C55.0843 25.6853 56.8913 24.7796 58.3866 22.9978L61.8868 26.365C60.9265 27.638 59.6291 28.6852 58.0201 29.5043C56.4111 30.3255 54.6336 30.7203 52.6855 30.7203ZM67.8069 8.82596V30.4099H62.8408V8.82596H67.8069ZM72.5139 13.407C70.8501 13.407 69.637 12.191 69.637 10.5233C69.637 8.9104 70.907 7.6944 72.5139 7.6944C74.1229 7.6944 75.3654 8.9104 75.3654 10.5233C75.3654 12.191 74.1229 13.4092 72.5139 13.4092V13.407ZM75.0264 14.794V30.4099H70.0309V14.794H75.0264ZM84.5878 30.7498C82.1321 30.7498 80.1567 29.9856 78.6066 28.4572C77.0819 26.9308 76.3195 24.978 76.3195 22.5735C76.3195 20.1689 77.0819 18.2183 78.634 16.6898C80.1862 15.1614 82.189 14.3993 84.672 14.3993C87.9174 14.3993 90.769 15.9826 92.0937 18.9529L88.1154 21.0472C87.3256 19.7172 86.2242 19.0374 84.7857 19.0374C83.7411 19.0374 82.8945 19.3773 82.2164 20.057C81.8946 20.3907 81.6417 20.7847 81.4722 21.2166C81.3028 21.6484 81.22 22.1095 81.2286 22.5735C81.2286 24.6382 82.7239 26.1666 84.7289 26.1666C86.1673 26.1666 87.4941 25.3749 88.0585 24.1589L92.0389 26.5339C90.6826 29.1369 87.89 30.7498 84.5878 30.7498ZM109.361 30.4099H103.433L98.8309 24.2138L98.098 24.8936V30.4099H93.1341V8.82596H98.1001V19.3203L102.784 14.794H108.852L102.165 21.0746L109.361 30.4099ZM109.694 22.2906V9.50362H114.999V22.2062C114.999 24.5537 116.354 25.6853 118.302 25.6853C120.22 25.6853 121.574 24.4967 121.574 22.2062V9.50362H126.909V22.2906C126.909 28.4572 122.646 30.7773 118.302 30.7773C113.984 30.7773 109.694 28.4572 109.694 22.2906ZM138.699 14.3993C140.929 14.3993 142.736 15.1909 144.174 16.7743C145.613 18.3302 146.318 20.2829 146.318 22.5735C146.318 24.8662 145.585 26.8168 144.147 28.4297C142.706 30.013 140.901 30.8068 138.728 30.8068C137.005 30.8068 135.51 30.241 134.297 29.1095V36.8319H129.301V14.794H134.213V16.238C135.426 15.0199 136.921 14.3993 138.699 14.3993ZM141.238 22.6305C141.238 20.5933 139.773 19.0374 137.74 19.0374C135.708 19.0374 134.213 20.5933 134.213 22.6305C134.213 23.6206 134.55 24.4693 135.2 25.1765C135.876 25.8837 136.723 26.2236 137.74 26.2236C138.755 26.2236 139.602 25.8837 140.251 25.1765C140.898 24.4888 141.253 23.5758 141.241 22.6305H141.238Z" fill="black"/>
</g>
<defs>
<linearGradient id="paint0_linear_6_974" x1="6.54669" y1="31.8226" x2="33.7209" y2="31.8226" gradientUnits="userSpaceOnUse">
<stop stop-color="#8930FD"/>
<stop offset="1" stop-color="#49CCF9"/>
</linearGradient>
<linearGradient id="paint1_linear_6_974" x1="6.87274" y1="13.73" x2="32.9097" y2="13.73" gradientUnits="userSpaceOnUse">
<stop stop-color="#FF02F0"/>
<stop offset="1" stop-color="#FFC800"/>
</linearGradient>
<clipPath id="clip0_6_974">
<rect width="146" height="38" fill="white" transform="translate(0.93158 0.643616)"/>
</clipPath>
</defs>
</svg>
