<svg width="106" height="28" viewBox="0 0 106 28" fill="none" xmlns="http://www.w3.org/2000/svg">
<g clip-path="url(#clip0_6_227)">
<path d="M23.6739 16.4021C21.9443 16.4021 20.6053 15.0631 20.6053 13.2777C20.6053 11.548 21.9443 10.209 23.6739 10.209C25.4035 10.209 26.7426 11.548 26.7426 13.2777C26.7426 15.0073 25.3478 16.4021 23.6739 16.4021ZM29.2533 10.0974V7.97723H25.5151C24.9014 7.69826 24.2877 7.64248 23.6739 7.64248C20.4379 7.64248 17.9272 10.0974 17.9272 13.3335C17.9272 16.5695 20.4379 18.9686 23.6181 18.9686C26.7984 18.9686 29.3091 16.5137 29.3091 13.3335C29.3091 12.2176 28.9744 11.2133 28.4164 10.4322L29.2533 10.0974ZM11.2319 16.4021C9.50224 16.4021 8.16319 15.0631 8.16319 13.2777C8.16319 11.548 9.50224 10.209 11.2319 10.209C12.9615 10.209 14.3005 11.548 14.3005 13.2777C14.3005 15.0073 13.0173 16.4021 11.2319 16.4021ZM11.2319 7.64248C7.99581 7.64248 5.54087 10.0974 5.54087 13.2777C5.54087 16.4579 8.0516 18.9686 11.2319 18.9686C14.4121 18.9686 16.9229 16.5137 16.9229 13.3335C16.9229 10.1532 14.4679 7.64248 11.2319 7.64248ZM1.80267 18.6897H4.42499V3.51372H1.80267V18.6897ZM30.425 18.6897H33.0473V7.97723H30.425V18.6897ZM23.6739 22.4279C21.9443 22.4279 20.6053 21.0888 20.6053 19.3592H17.9272C17.9272 22.5953 20.4379 24.9944 23.6181 24.9944C26.7984 24.9944 29.3649 22.5395 29.3649 19.3592H26.7426C26.6868 21.1446 25.3478 22.4279 23.6739 22.4279ZM42.9229 12.2176C43.3134 10.8227 44.3177 10.0416 45.7126 10.0416C47.1074 10.0416 48.1675 10.8227 48.4465 12.2176H42.9229ZM45.8241 7.64248C42.5881 7.64248 40.189 10.0974 40.189 13.3335C40.189 16.5695 42.3649 18.8571 45.8241 18.8571C47.6653 18.8571 49.395 18.1317 50.6782 16.8485L48.837 15.0073C47.9443 15.9 46.9958 16.4021 45.8799 16.4021C44.3735 16.4021 43.3134 15.5094 42.9787 14.2262H51.292V13.6124C51.292 10.0974 49.0044 7.64248 45.8241 7.64248ZM69.3692 7.64248C68.0301 7.64248 66.9143 8.08882 66.1332 8.98152V3.45793H63.5108V18.6339H66.1332V12.8313C66.1332 11.2691 67.0816 10.2648 68.6997 10.2648C70.2061 10.2648 71.043 11.2133 71.043 12.8313V18.6339H73.6653V12.385C73.7769 9.42789 71.8799 7.64248 69.3692 7.64248ZM57.8198 10.2648C58.9357 10.2648 59.8284 10.8227 60.5538 11.6596L62.395 9.81845C61.3349 8.47939 59.7726 7.69827 57.8198 7.69827C54.5838 7.69827 52.1289 10.1532 52.1289 13.3335C52.1289 16.5137 54.6396 18.9686 57.8198 18.9686C59.6611 18.9686 61.3349 18.0759 62.395 16.8485L60.5538 15.0073C59.8284 15.7884 58.8799 16.4021 57.8198 16.4021C56.0902 16.4021 54.8628 15.0631 54.8628 13.3335C54.7512 11.6038 56.146 10.2648 57.8198 10.2648ZM38.4035 4.6854H35.7812V7.97723H34.3864V10.3206H35.7812V18.6339H38.4035V10.3206H39.91V7.97723H38.4035V4.6854ZM31.8199 3.17896C30.8714 3.17896 30.0902 3.96008 30.0902 5.02016C30.0902 5.96866 30.8714 6.74977 31.8199 6.74977C32.8799 6.74977 33.6611 5.96866 33.6611 5.02016C33.5495 3.96008 32.7684 3.17896 31.8199 3.17896Z" fill="black"/>
<path fill-rule="evenodd" clip-rule="evenodd" d="M91.3419 1.02197V6.434C87.1015 6.434 83.7539 9.78163 83.7539 14.022C83.7539 18.1507 87.1015 21.61 91.3419 21.61V27.022C84.1445 27.022 78.2861 21.2194 78.2861 14.022C78.2861 6.82455 84.1445 1.02197 91.3419 1.02197Z" fill="#00B8FD"/>
<path fill-rule="evenodd" clip-rule="evenodd" d="M105.747 9.03735H94.0859V14.3378H100.391V20.6425H105.747V9.03735Z" fill="#00B8FD"/>
</g>
<defs>
<clipPath id="clip0_6_227">
<rect width="105" height="27" fill="white" transform="translate(0.93158 0.593506)"/>
</clipPath>
</defs>
</svg>
