<svg width="1441" height="361" viewBox="0 0 1441 361" fill="none" xmlns="http://www.w3.org/2000/svg">
<g clip-path="url(#clip0_6_212)">
<g clip-path="url(#clip1_6_212)">
<path d="M-264.492 359.888V66.9969C-264.356 66.9712 -264.192 66.9403 -264.001 66.9044C-263.343 66.781 -262.355 66.598 -261.04 66.359C-258.409 65.8813 -254.466 65.1803 -249.218 64.2881C-238.722 62.5036 -223.008 59.9541 -202.138 56.8943C-160.398 50.7749 -98.0367 42.6151 -15.5589 34.4551C149.396 18.1349 394.817 1.81396 716.66 1.81396C1038.5 1.81396 1283.92 18.1349 1448.88 34.4551C1531.36 42.6151 1593.72 50.7749 1635.45 56.8943C1656.33 59.9541 1672.04 62.5036 1682.53 64.2881C1687.78 65.1803 1691.74 65.8813 1694.36 66.359C1695.68 66.598 1696.67 66.781 1697.32 66.9044C1697.51 66.9403 1697.68 66.9712 1697.81 66.9969V359.888L1696.79 359.739C1695.64 359.575 1693.93 359.329 1691.7 359.01C1687.22 358.37 1680.61 357.433 1672.05 356.241C1654.93 353.854 1630.06 350.445 1599.01 346.355C1536.92 338.175 1450.15 327.267 1351.38 316.36C1153.87 294.546 908.396 272.729 716.66 272.729C524.924 272.729 279.456 294.546 81.9364 316.36C-16.8268 327.267 -103.608 338.175 -165.698 346.355C-196.743 350.445 -221.615 353.854 -238.727 356.241C-247.283 357.433 -253.898 358.37 -258.375 359.01C-260.613 359.329 -262.317 359.575 -263.461 359.739C-263.88 359.8 -264.224 359.849 -264.492 359.888Z" fill="url(#paint0_linear_6_212)" stroke="url(#paint1_linear_6_212)" stroke-width="1.22034"/>
</g>
</g>
<defs>
<linearGradient id="paint0_linear_6_212" x1="716.66" y1="99.1699" x2="716.66" y2="333.713" gradientUnits="userSpaceOnUse">
<stop stop-color="#FAFAFF"/>
<stop offset="1" stop-color="#FAFAFF" stop-opacity="0"/>
</linearGradient>
<linearGradient id="paint1_linear_6_212" x1="716.05" y1="-185.508" x2="716.05" y2="186.085" gradientUnits="userSpaceOnUse">
<stop stop-color="#CECEEA" stop-opacity="0.62"/>
<stop offset="1" stop-color="#CECEEA" stop-opacity="0"/>
</linearGradient>
<clipPath id="clip0_6_212">
<rect width="1440" height="360" fill="white" transform="translate(0.93158 0.593506)"/>
</clipPath>
<clipPath id="clip1_6_212">
<rect width="1952.54" height="360" fill="white" transform="translate(-255.34 0.593506)"/>
</clipPath>
</defs>
</svg>
