<svg width="125" height="17" viewBox="0 0 125 17" fill="none" xmlns="http://www.w3.org/2000/svg">
<g clip-path="url(#clip0_6_219)">
<mask id="mask0_6_219" style="mask-type:luminance" maskUnits="userSpaceOnUse" x="0" y="1" width="125" height="16">
<path d="M124.803 1.02197H0.93158V16.022H124.803V1.02197Z" fill="white"/>
</mask>
<g mask="url(#mask0_6_219)">
<path d="M81.1572 15.4444H77.7698V1.62012L88.6641 1.62909C88.6641 1.62909 90.6587 1.55469 91.9276 2.80825C91.9276 2.80825 93.2227 3.88974 93.2227 6.53311V15.4423H89.8441V6.30284C89.8441 6.30284 89.8857 5.37063 89.5681 5.04349C89.5681 5.04349 89.2873 4.68815 88.7534 4.68815H81.1489L81.156 15.4395L81.1572 15.4444ZM95.5771 15.442V2.49913V1.63044H109.172V4.7026L98.9438 4.70181V7.05059H106.049V10.0171H98.9438V12.3739H109.235V15.4468H95.5691L95.5771 15.442ZM71.8669 15.442V2.49913V1.63044H75.24V15.4468H71.8669V15.442ZM114.027 15.442V4.69863H110.843V1.62647H123.508V4.69863H117.403V15.442H114.029H114.027ZM60.7264 15.442V4.69863H57.5423V1.62647H70.2073V4.69863H64.1019V15.442H60.7288H60.7264ZM50.5547 7.04106C51.3789 7.03471 51.8721 7.04186 52.0706 6.921C52.0706 6.921 52.4169 6.72948 52.4209 6.31848L52.4217 5.41486C52.4217 5.00196 52.0714 4.81234 52.0714 4.81234C51.8084 4.66941 51.3627 4.69625 50.3046 4.69522H43.7331V7.04083H50.7056L50.5547 7.04106ZM52.3723 15.442V10.727C52.3723 10.3031 52.018 10.1255 52.018 10.1255C51.8582 10.0263 51.3797 10.0084 50.6753 10.0084H50.839H43.7331V15.4413H40.36V2.49833V1.62965H50.889C52.7074 1.63521 53.9628 1.90264 54.8275 2.74211C55.6771 3.60762 55.7899 4.73992 55.7946 5.91829V6.90211C55.8056 7.9034 55.2795 8.81655 54.652 9.34856L54.7781 9.41113C55.0342 9.53516 55.1742 9.71088 55.1742 9.71088C55.6515 10.3203 55.6457 10.8448 55.6446 11.4895V15.4447H52.3724L52.3723 15.442ZM1.36286 1.62568V2.49516V15.4381H4.73596V10.01H14.9553V7.04186H4.73596V4.69466H16.6149V1.6225H1.36127L1.36286 1.62568Z" fill="#231F20"/>
<path d="M122.367 12.9987V13.633H122.958C123.118 13.633 123.273 13.5894 123.296 13.3521C123.33 13.0375 123.103 12.9987 122.958 12.9987H122.367ZM122.13 12.7903H122.953C123.239 12.7903 123.515 12.8439 123.538 13.2597C123.548 13.498 123.476 13.5844 123.296 13.7203C123.486 13.8414 123.491 13.8702 123.519 14.1897C123.538 14.4319 123.505 14.4707 123.607 14.6304H123.326L123.287 14.3982C123.248 14.1798 123.355 13.8414 122.973 13.8414H122.367V14.6305H122.13V12.7903ZM122.749 12.2821C121.936 12.2821 121.273 12.9451 121.279 13.7638C121.279 14.5769 121.937 15.2399 122.755 15.236C123.569 15.236 124.232 14.5769 124.232 13.759C124.232 12.9451 123.568 12.2821 122.749 12.2821ZM122.755 15.4281C121.831 15.4281 121.084 14.6827 121.084 13.759C121.08 12.8387 121.831 12.0884 122.755 12.0884C123.675 12.0884 124.426 12.8387 124.426 13.759C124.426 14.6833 123.675 15.4249 122.755 15.4281Z" fill="#231F20"/>
<path d="M35.7212 15.5795C36.817 15.2072 37.6698 13.9453 37.8746 12.3588V11.9003H32.2568V15.5799L35.7212 15.5795ZM37.8754 5.15367V4.73878C37.6601 3.0832 36.7439 1.77858 35.5759 1.47208H32.2576V5.15327L37.8754 5.15367ZM18.1037 11.9007V12.3552C18.3072 13.9433 19.1598 15.2075 20.2588 15.5799H23.7049V11.9003L18.1037 11.9007ZM20.4025 1.47486C19.236 1.78152 18.3173 3.08677 18.1037 4.74474V5.15669H23.7049V1.4755L20.4025 1.47486ZM37.8794 6.68856H32.2615V10.3697H37.8794V6.68856ZM25.2382 15.5818H30.7338V11.9022H25.2382V15.5818ZM30.7338 1.47168H25.2382V5.15288H30.7338V1.47168ZM18.1085 10.365H23.7097V6.68379H18.1085V10.365Z" fill="#EE2E24"/>
</g>
</g>
<defs>
<clipPath id="clip0_6_219">
<rect width="124" height="16" fill="white" transform="translate(0.93158 0.0935059)"/>
</clipPath>
</defs>
</svg>
