<svg width="138" height="34" viewBox="0 0 138 34" fill="none" xmlns="http://www.w3.org/2000/svg">
<path d="M101.073 8.47606C101.073 8.69795 101.031 8.91768 100.948 9.12271C100.865 9.32773 100.744 9.51404 100.591 9.67097C100.438 9.82791 100.256 9.9524 100.057 10.0373C99.8568 10.1223 99.6428 10.166 99.4265 10.166C99.2103 10.166 98.996 10.1223 98.7962 10.0373C98.5964 9.9524 98.4149 9.82791 98.262 9.67097C98.1092 9.51404 97.988 9.32773 97.9053 9.12271C97.8226 8.91768 97.7801 8.69795 97.7802 8.47606C97.7801 8.25417 97.8226 8.03444 97.9053 7.82941C97.988 7.62439 98.1092 7.43808 98.262 7.28115C98.4149 7.12421 98.5964 6.99972 98.7962 6.91478C98.996 6.82984 99.2103 6.78613 99.4265 6.78613C99.6428 6.78613 99.8568 6.82984 100.057 6.91478C100.256 6.99972 100.438 7.12421 100.591 7.28115C100.744 7.43808 100.865 7.62439 100.948 7.82941C101.031 8.03444 101.073 8.25417 101.073 8.47606Z" fill="#999B9E"/>
<path d="M130.348 15.8953H126.158V20.1716H130.348V15.8953Z" fill="#999B9E"/>
<path d="M47.2402 15.8953H43.0498V20.1716H47.2402V15.8953Z" fill="#999B9E"/>
<path d="M34.6699 15.8953H30.4795V20.1716H34.6699V15.8953Z" fill="#999B9E"/>
<path d="M22.2929 15.8953H18.1025V20.1716H22.2929V15.8953Z" fill="#999B9E"/>
<path d="M9.47261 15.8953H5.28217V20.1716H9.47261V15.8953Z" fill="#999B9E"/>
<path d="M15.3472 7.35952H15.8444C19.0556 7.35952 20.5523 9.07737 21.1777 13.6586L22.1721 13.6146L22.0394 6.34619H5.69906L5.53802 13.6146L6.49489 13.6586C6.66062 11.9407 6.85938 11.0156 7.29073 10.0905C8.05327 8.37233 9.64468 7.35952 11.6006 7.35952H12.2968V23.1732C12.2968 24.8471 12.1974 25.3758 11.7999 25.7723C11.4682 26.0806 10.805 26.2127 10.0422 26.2127H9.27967V27.2698H18.3643V26.2127H17.5971C16.8392 26.2127 16.1714 26.0803 15.8446 25.7723C15.4469 25.3758 15.3475 24.8469 15.3475 23.1732L15.3472 7.35952Z" fill="#ED008C"/>
<path d="M58.5699 27.2702L63.8642 8.79708V23.2936C63.8642 24.8756 63.7742 25.4316 63.4152 25.8164C63.1457 26.1156 62.521 26.2441 61.8285 26.2441H61.5592V27.2702H69.0428V26.2441H68.6533C67.9649 26.2441 67.3364 26.1158 67.0671 25.8164C66.7075 25.4316 66.6178 24.8756 66.6178 23.2936V10.9354C66.6178 9.35305 66.7075 8.75441 67.0671 8.36963C67.3663 8.11311 67.9649 7.94192 68.6533 7.94192H69.0428V6.95825H63.2357L58.8652 21.8822L54.5889 6.95825H48.8117V7.94192H49.3503C50.937 7.94192 51.2362 8.28404 51.2362 10.3367V22.0961C51.2362 23.9776 51.1464 24.7474 50.8769 25.3034C50.5777 25.8593 49.9447 26.2441 49.2904 26.2441H48.8115V27.2702H54.9776V26.2441H54.5887C53.8105 26.2441 53.1817 25.9447 52.8182 25.346C52.4634 24.7474 52.3736 24.1914 52.3736 22.0961V8.79734L57.6375 27.2704L58.5699 27.2702Z" fill="#999B9E"/>
<path d="M75.4789 12.8164C71.7672 12.8164 69.3427 15.7242 69.3427 20.3C69.3427 24.7045 71.7672 27.698 75.3853 27.698C79.0366 27.698 81.4614 24.7045 81.4614 20.2573C81.4614 15.8525 79.0367 12.8164 75.4789 12.8164ZM75.3593 13.7998C76.4327 13.7998 77.3604 14.484 77.8693 15.6387C78.3483 16.7077 78.5577 18.1617 78.5577 20.2571C78.5577 24.5758 77.51 26.7138 75.385 26.7138C73.2639 26.7138 72.2417 24.5755 72.2417 20.2141C72.2417 18.1614 72.4553 16.7077 72.9343 15.6387C73.4093 14.527 74.3714 13.7998 75.3593 13.7998Z" fill="#999B9E"/>
<path d="M86.4353 6.74438L82.1845 6.95823V7.89899H82.3898C83.6472 7.89899 83.9209 8.3267 83.9209 10.3365V24.2341C83.9209 26.03 83.861 26.5006 83.6217 27.2702H84.6095C85.3533 26.03 85.5372 25.8164 85.8367 25.8164C85.9821 25.8164 86.1273 25.859 86.3414 26.0729C87.8121 27.2702 88.4407 27.5267 89.7878 27.5267C93.0161 27.5267 95.3511 24.405 95.3511 19.9578C95.3511 15.7671 93.1915 12.9448 89.9631 12.9448C88.2869 12.9448 87.0639 13.7573 86.4353 15.2111V6.74438ZM89.5398 14.0138C91.4601 14.0138 92.4477 16.0665 92.4477 20.086C92.4477 24.3194 91.4299 26.5003 89.4842 26.5003C87.329 26.5003 86.1955 24.2765 86.1955 20.2143C86.1955 18.1616 86.4652 16.7507 87.0938 15.6815C87.6581 14.6554 88.6204 14.0138 89.5398 14.0138Z" fill="#999B9E"/>
<path d="M100.887 13.0303L96.5214 13.2868V14.2275H96.8507C98.1034 14.2275 98.3732 14.6552 98.3732 16.6223V23.8491C98.3732 25.8165 98.1037 26.2869 96.8507 26.2869H96.3759V27.27H102.894V26.2869H102.423C101.162 26.2869 100.888 25.8589 100.888 23.8491L100.887 13.0303Z" fill="#999B9E"/>
<path d="M108.462 6.74438L104.096 6.95823V7.89899H104.421C105.679 7.89899 105.948 8.3267 105.948 10.3365V23.849C105.948 25.859 105.679 26.2868 104.421 26.2868H103.947V27.2699H110.468V26.2868H109.989C108.727 26.2868 108.462 25.8588 108.462 23.849V6.74438Z" fill="#999B9E"/>
<path d="M122.377 20.1715C122.231 15.6386 120.076 12.8164 116.818 12.8164C113.67 12.8164 111.4 15.8952 111.4 20.1715C111.4 24.7469 113.64 27.6977 117.113 27.6977C119.358 27.6977 120.914 26.5002 122.201 23.8489L121.304 23.3785C120.256 25.6021 119.208 26.5002 117.592 26.5002C115.227 26.5002 114.214 24.6189 114.183 20.1715H122.377ZM114.213 19.1022C114.239 15.8952 115.282 13.8854 116.963 13.8854C118.639 13.8854 119.627 15.8525 119.597 19.1022H114.213Z" fill="#999B9E"/>
<path d="M131.921 12.4678C132.174 12.4678 132.421 12.5326 132.662 12.6624C132.903 12.7922 133.09 12.9779 133.225 13.2194C133.359 13.4608 133.426 13.7126 133.426 13.9749C133.426 14.2345 133.36 14.484 133.227 14.7234C133.095 14.963 132.909 15.149 132.671 15.2814C132.432 15.4138 132.182 15.4802 131.921 15.4802C131.66 15.4802 131.41 15.4141 131.171 15.2814C130.932 15.149 130.746 14.9633 130.613 14.7234C130.48 14.484 130.413 14.2345 130.413 13.9749C130.413 13.7126 130.481 13.4608 130.616 13.2194C130.751 12.9779 130.939 12.7919 131.18 12.6624C131.422 12.5326 131.668 12.4678 131.921 12.4678ZM131.921 12.7186C131.71 12.7186 131.504 12.7727 131.304 12.8812C131.104 12.9897 130.947 13.1442 130.834 13.3456C130.721 13.5469 130.665 13.7569 130.665 13.9746C130.665 14.1913 130.72 14.399 130.832 14.5977C130.942 14.7965 131.098 14.9513 131.297 15.0624C131.497 15.1735 131.705 15.2289 131.921 15.2289C132.138 15.2289 132.346 15.1735 132.545 15.0624C132.745 14.9515 132.899 14.7967 133.01 14.5977C133.12 14.399 133.175 14.1913 133.175 13.9746C133.175 13.7569 133.119 13.5469 133.007 13.3456C132.894 13.1444 132.738 12.9897 132.537 12.8812C132.337 12.7727 132.131 12.7186 131.921 12.7186ZM131.26 14.8058V13.185H131.818C132.009 13.185 132.147 13.2001 132.232 13.23C132.318 13.26 132.385 13.3123 132.436 13.3869C132.487 13.4613 132.512 13.5407 132.512 13.6245C132.512 13.7428 132.47 13.8461 132.385 13.9338C132.3 14.0215 132.188 14.0709 132.048 14.0816C132.105 14.1055 132.151 14.1341 132.185 14.1674C132.251 14.2312 132.331 14.3383 132.425 14.4887L132.623 14.8061H132.302L132.158 14.5504C132.045 14.3503 131.954 14.2249 131.886 14.1739C131.838 14.1362 131.768 14.1175 131.676 14.1175H131.522V14.8061L131.26 14.8058ZM131.522 13.8948H131.841C131.993 13.8948 132.097 13.8721 132.153 13.8266C132.208 13.7811 132.236 13.721 132.236 13.646C132.236 13.5979 132.222 13.5547 132.196 13.5167C132.169 13.4788 132.132 13.4501 132.084 13.4314C132.037 13.4127 131.949 13.4036 131.821 13.4036H131.522V13.8948Z" fill="#999B9E"/>
</svg>
