<svg width="91" height="26" viewBox="0 0 91 26" fill="none" xmlns="http://www.w3.org/2000/svg">
<g clip-path="url(#clip0_6_298)">
<mask id="mask0_6_298" style="mask-type:luminance" maskUnits="userSpaceOnUse" x="1" y="1" width="90" height="25">
<path d="M90.3212 1.02197H1.51654V25.022H90.3212V1.02197Z" fill="white"/>
</mask>
<g mask="url(#mask0_6_298)">
<path d="M13.7275 23.475C12.3916 23.7096 11.0322 23.7799 9.62596 23.9672L5.33679 11.4048V24.5064C4.00091 24.647 2.78218 24.8345 1.51654 25.022V1.02197H5.07914L9.95403 14.6394V1.02197H13.7275V23.475ZM21.1103 9.81104C22.5635 9.81104 24.7901 9.74071 26.126 9.74071V13.4906C24.4618 13.4906 22.5166 13.4906 21.1103 13.561V19.1392C23.3135 18.9986 25.5166 18.8109 27.7431 18.7406V22.3498L17.3602 23.1702V1.02197H27.7431V4.77198H21.1103V9.81104ZM41.6884 4.77207H37.7978V22.022C36.5322 22.022 35.2665 22.022 34.048 22.0688V4.77207H30.1574V1.02197H41.6886L41.6884 4.77207ZM47.7821 9.5533H52.915V13.3032H47.7821V21.8111H44.1022V1.02197H54.579V4.77198H47.7821V9.5533ZM60.6727 18.5298C62.8056 18.5765 64.9617 18.7409 67.0478 18.8578V22.561C63.6963 22.3499 60.3447 22.1393 56.9228 22.0688V1.02197H60.6727V18.5298ZM70.2118 22.8188C71.4071 22.8893 72.6727 22.9596 73.8915 23.1V1.02197H70.2118V22.8188ZM90.3213 1.02197L85.5634 12.4361L90.3213 25.022C88.9149 24.8345 87.5087 24.5766 86.1024 24.3422L83.4072 17.4049L80.6653 23.7799C79.3056 23.5453 77.9931 23.475 76.634 23.2875L81.4621 12.2953L77.1026 1.02197H81.1336L83.5946 7.32668L86.2197 1.02197H90.3213Z" fill="#D81F26"/>
</g>
</g>
<defs>
<clipPath id="clip0_6_298">
<rect width="90" height="25" fill="white" transform="translate(0.93158 0.593506)"/>
</clipPath>
</defs>
</svg>
