<svg width="133" height="24" viewBox="0 0 133 24" fill="none" xmlns="http://www.w3.org/2000/svg">
<g clip-path="url(#clip0_6_231)">
<mask id="mask0_6_231" style="mask-type:luminance" maskUnits="userSpaceOnUse" x="1" y="1" width="132" height="23">
<path d="M132.867 1.02197H1.74677V23.022H132.867V1.02197Z" fill="white"/>
</mask>
<g mask="url(#mask0_6_231)">
<path d="M53.2431 3.26152C53.2431 2.74104 53.4521 2.24189 53.8241 1.87386C54.1961 1.50583 54.7007 1.29907 55.2268 1.29907C55.7529 1.29907 56.2575 1.50583 56.6295 1.87386C57.0015 2.24189 57.2105 2.74104 57.2105 3.26152C57.1913 3.76931 56.9739 4.25 56.604 4.60255C56.2341 4.9551 55.7405 5.15207 55.2268 5.15207C54.7132 5.15207 54.2195 4.9551 53.8496 4.60255C53.4797 4.25 53.2623 3.76931 53.2431 3.26152Z" fill="#273B7D"/>
<path d="M84.54 16.3497C84.54 15.2605 85.4268 14.3804 86.5195 14.3804C87.0471 14.3804 87.5531 14.5878 87.9261 14.9568C88.2991 15.3259 88.5087 15.8264 88.5087 16.3483C88.5087 16.8703 88.2991 17.3708 87.9261 17.7399C87.5531 18.1089 87.0471 18.3163 86.5195 18.3163C85.4282 18.3163 84.54 17.4348 84.54 16.3483" fill="#499FDD"/>
<path d="M20.6871 15.4983C18.9797 15.4983 17.7917 14.1563 17.7917 12.2376C17.7917 10.3202 18.9797 8.97957 20.6885 8.97957C22.4055 8.97957 23.606 10.3202 23.606 12.2376C23.606 14.1863 22.4318 15.4983 20.6871 15.4983ZM20.6871 6.1138C17.0734 6.1138 14.4502 8.68985 14.4502 12.2376C14.4502 15.7866 17.0748 18.3613 20.6871 18.3613C24.316 18.3613 26.9489 15.7866 26.9489 12.2389C26.9489 8.68985 24.316 6.1138 20.6885 6.1138H20.6871ZM49.4006 12.5451C49.2748 12.3044 49.1158 12.0823 48.9282 11.885L48.8176 11.7716L48.9337 11.6622C49.0995 11.4887 49.2693 11.2837 49.4323 11.0459L52.6233 6.35569H48.75L46.3532 10.025C46.2179 10.2218 45.9444 10.3202 45.5341 10.3202H44.9885V3.38332C44.9885 1.99622 44.1141 1.80762 43.1706 1.80762H41.5543L41.5584 18.1809H44.9898V13.2694H45.3117C45.7026 13.2694 45.9678 13.3144 46.0908 13.5249L47.9833 17.0589C48.5123 18.0183 49.0386 18.1809 50.0305 18.1809H52.6593L50.7005 14.9776L49.402 12.5451H49.4006ZM66.0574 6.08647C64.3113 6.08647 63.1979 6.8545 62.5735 7.50363L62.3663 7.71136L62.2917 7.42847C62.1094 6.73287 61.4905 6.35159 60.5608 6.35159H59.0233L59.033 18.1768H62.4408V12.7268C62.4408 12.1938 62.5099 11.7319 62.6536 11.3096C63.0321 10.0318 64.0902 9.23786 65.4122 9.23786C66.4759 9.23786 66.8917 9.79407 66.8917 11.229V16.3797C66.8917 17.6042 67.4649 18.1768 68.704 18.1768H70.3258L70.3203 10.655C70.3203 7.66763 68.8464 6.08783 66.0574 6.08783V6.08647ZM55.2673 6.35569H53.6525L53.6635 15.4997V18.1809H55.3861L55.4469 18.1837L56.2509 18.1809H57.0494V18.1768H57.0548L57.0618 8.15277C57.0618 6.94333 56.4775 6.35705 55.2688 6.35705L55.2673 6.35569ZM34.0713 15.4983C32.3639 15.4983 31.1746 14.1563 31.1746 12.2376C31.1746 10.3202 32.364 8.97957 34.0728 8.97957C35.7857 8.97957 36.9903 10.3202 36.9903 12.2376C36.9903 14.1863 35.8161 15.4983 34.0728 15.4983H34.0713ZM34.0713 6.1138C30.4549 6.1138 27.8302 8.68985 27.8302 12.2376C27.8302 15.7866 30.4549 18.3613 34.0728 18.3613C37.6961 18.3613 40.3345 15.7866 40.3345 12.2389C40.3345 8.68985 37.6961 6.1138 34.0728 6.1138" fill="#273B7D"/>
<path d="M107.114 15.4985C105.406 15.4985 104.216 14.1565 104.216 12.2378C104.216 10.3204 105.406 8.97978 107.114 8.97978C108.829 8.97978 110.033 10.3204 110.033 12.2378C110.033 14.1866 108.859 15.4985 107.114 15.4985ZM107.114 6.11401C103.497 6.11401 100.874 8.69006 100.874 12.2378C100.874 15.7869 103.497 18.3616 107.114 18.3616C110.739 18.3616 113.376 15.7869 113.376 12.2392C113.376 8.69006 110.737 6.11401 107.114 6.11401Z" fill="#499FDD"/>
<path d="M77.5053 14.9777C75.6418 14.9777 74.9788 13.3706 74.9788 11.8632C74.9788 11.199 75.1486 9.03565 77.3271 9.03565C78.4087 9.03565 79.8495 9.34177 79.8495 11.9739C79.8495 14.457 78.5745 14.9777 77.5053 14.9777ZM81.6191 6.32431C80.9726 6.32431 80.4753 6.57986 80.2253 7.04588L80.1313 7.22627L79.9739 7.08961C79.4241 6.61949 78.4378 6.06055 76.8367 6.06055C73.6499 6.06055 71.5046 8.42888 71.5046 11.9507C71.5046 15.471 73.7245 17.9309 76.9003 17.9309C77.9847 17.9309 78.8425 17.6795 79.5221 17.1711L79.7846 16.9757V17.3036C79.7846 18.8834 78.7527 19.7553 76.8809 19.7553C75.9706 19.7553 75.1432 19.5367 74.5878 19.3371C73.8668 19.1212 73.4413 19.3003 73.1498 20.0177L72.8791 20.6792L72.4964 21.6467L72.7326 21.7711C73.9317 22.3997 75.4913 22.7755 76.9003 22.7755C79.8012 22.7755 83.1911 21.3064 83.1911 17.1711L83.2035 6.32431H81.6191Z" fill="#273B7D"/>
<path d="M7.99831 15.3631L5.22449 15.3604V12.0805C5.22449 11.3781 5.49939 11.0146 6.10582 10.9299H7.99831C9.34792 10.9299 10.2209 11.7717 10.2223 13.1342C10.2209 14.5336 9.37003 15.3618 7.99831 15.3618V15.3631ZM5.22449 6.51298V5.64929C5.22449 4.89355 5.54775 4.53414 6.2564 4.48767H7.67649C8.89349 4.48767 9.62286 5.20787 9.62286 6.41459C9.62286 7.33294 9.12277 8.40573 7.72067 8.40573H5.22449V6.51298ZM11.5402 9.78737L11.0387 9.50858L11.4767 9.13823C11.9864 8.70502 12.8387 7.73063 12.8387 6.0497C12.8387 3.47502 10.8219 1.81323 7.69858 1.81323H3.72844C3.28172 1.82934 2.85841 2.01487 2.5462 2.33137C2.23399 2.64787 2.05683 3.07108 2.05145 3.51328V18.1223H7.76898C11.2404 18.1223 13.481 16.2528 13.481 13.357C13.481 11.7977 12.7572 10.4652 11.5402 9.78737Z" fill="#273B7D"/>
<path d="M128.596 6.12622C127.893 6.12878 127.199 6.28767 126.566 6.59115C125.933 6.89463 125.377 7.33495 124.939 7.87957L124.693 8.18843L124.499 7.84267C123.867 6.70429 122.781 6.12622 121.271 6.12622C119.687 6.12622 118.624 7.00085 118.131 7.52016L117.808 7.86591L117.683 7.41083C117.504 6.75486 116.914 6.39544 116.022 6.39544H114.589L114.575 18.1755H117.829V12.9756C117.829 12.5192 117.887 12.0696 118.001 11.5981C118.312 10.3408 119.166 8.98926 120.601 9.12455C121.485 9.20928 121.919 9.88575 121.919 11.1922V18.1755H125.195V12.9756C125.195 12.4057 125.249 11.9794 125.379 11.553C125.642 10.3531 126.534 9.12318 127.918 9.12318C128.921 9.12318 129.291 9.68349 129.291 11.1922V16.4536C129.291 17.6426 129.827 18.1755 131.03 18.1755H132.561L132.564 10.6551C132.564 7.64998 131.227 6.12622 128.596 6.12622ZM98.9874 14.0853C98.9777 14.0976 97.5784 15.5571 95.7342 15.5571C94.0545 15.5571 92.3582 14.5376 92.3582 12.2622C92.3582 10.2971 93.6732 8.92366 95.5574 8.92366C96.168 8.92366 96.8643 9.13958 96.9734 9.50447L96.9886 9.56596C97.0582 9.81717 97.2096 10.0386 97.4194 10.196C97.6292 10.3534 97.8856 10.4379 98.1489 10.4365L99.9309 10.4392V8.89769C99.9309 6.86418 97.3159 6.12622 95.5574 6.12622C91.7945 6.12622 89.0649 8.7173 89.0649 12.2868C89.0649 15.8537 91.7642 18.442 95.4884 18.442C98.7181 18.442 100.475 16.3416 100.492 16.3211L100.586 16.2063L99.1739 13.8899L98.9874 14.0853Z" fill="#499FDD"/>
</g>
</g>
<defs>
<clipPath id="clip0_6_231">
<rect width="132" height="23" fill="white" transform="translate(0.93158 0.593506)"/>
</clipPath>
</defs>
</svg>
