<svg width="65" height="27" viewBox="0 0 65 27" fill="none" xmlns="http://www.w3.org/2000/svg">
<g clip-path="url(#clip0_6_243)">
<mask id="mask0_6_243" style="mask-type:luminance" maskUnits="userSpaceOnUse" x="1" y="1" width="64" height="26">
<path d="M64.1876 1.02197H1.86664V26.022H64.1876V1.02197Z" fill="white"/>
</mask>
<g mask="url(#mask0_6_243)">
<path d="M1.86664 24.2812H13.9839V26.0159H1.86664V24.2812Z" fill="#1F70C1"/>
<path d="M1.86664 20.9541H13.9839V22.6948H1.86664V20.9541Z" fill="#1F70C1"/>
<path d="M5.32367 17.6331H10.5212V19.3738H5.32367V17.6331Z" fill="#1F70C1"/>
<path d="M5.32367 14.312H10.5212V16.0528H5.32367V14.312Z" fill="#1F70C1"/>
<path d="M5.32367 10.991H10.5212V12.7317H5.32367V10.991Z" fill="#1F70C1"/>
<path d="M5.32367 7.66382H10.5212V9.40457H5.32367V7.66382Z" fill="#1F70C1"/>
<path d="M13.9839 4.34302H1.86664V6.08377H13.9839V4.34302Z" fill="#1F70C1"/>
<path d="M13.9839 1.02197H1.86664V2.76273H13.9839V1.02197Z" fill="#1F70C1"/>
<path d="M15.7121 22.6948H34.3479C34.6627 22.1578 34.8973 21.5714 35.0393 20.9541H15.7121V22.6948Z" fill="#1F70C1"/>
<path d="M32.897 14.312H19.1748V16.0528H34.3476C33.9525 15.386 33.4648 14.7997 32.897 14.312Z" fill="#1F70C1"/>
<path d="M19.1748 10.991V12.7317H32.897C33.4772 12.244 33.9648 11.6576 34.3476 10.991H19.1748Z" fill="#1F70C1"/>
<path d="M34.348 4.34302H15.7121V6.08377H35.0393C34.8788 5.46648 34.6442 4.8801 34.348 4.34302Z" fill="#1F70C1"/>
<path d="M28.6195 1.02197H15.7121V2.76273H33.0701C31.9097 1.68862 30.3356 1.02197 28.6195 1.02197Z" fill="#1F70C1"/>
<path d="M24.3661 7.66406H19.1748V9.40481H24.3661V7.66406Z" fill="#1F70C1"/>
<path d="M29.5637 9.40457H34.9958C35.1501 8.84904 35.2303 8.2626 35.2303 7.66382H29.5637V9.40457Z" fill="#1F70C1"/>
<path d="M19.1748 17.6331H24.3661V19.3738H19.1748V17.6331Z" fill="#1F70C1"/>
<path d="M29.5637 17.6331V19.3738H35.2303C35.2303 18.775 35.1501 18.1886 34.9958 17.6331H29.5637Z" fill="#1F70C1"/>
<path d="M15.7121 26.0035L28.6195 26.022C30.3479 26.022 31.9097 25.3554 33.0763 24.2812H15.7121V26.0035Z" fill="#1F70C1"/>
<path d="M36.4899 24.2812H45.1442V26.0159H36.4899V24.2812Z" fill="#1F70C1"/>
<path d="M36.4899 20.9541H45.1442V22.6948H36.4899V20.9541Z" fill="#1F70C1"/>
<path d="M39.947 17.6331H45.1445V19.3738H39.947V17.6331Z" fill="#1F70C1"/>
<path d="M39.947 14.312H45.1445V16.0528H39.947V14.312Z" fill="#1F70C1"/>
<path d="M47.5517 4.34302H36.4899V6.08377H48.1504L47.5517 4.34302Z" fill="#1F70C1"/>
<path d="M46.4035 1.02197H36.4899V2.76273H47.0023L46.4035 1.02197Z" fill="#1F70C1"/>
<path d="M55.5271 24.2812H64.1876V26.0159H55.5271V24.2812Z" fill="#1F70C1"/>
<path d="M55.5271 20.9539H64.1876V22.6945H55.5271V20.9539Z" fill="#1F70C1"/>
<path d="M55.5271 17.6331H60.7246V19.3738H55.5271V17.6331Z" fill="#1F70C1"/>
<path d="M55.5271 14.312H60.7246V16.0528H55.5271V14.312Z" fill="#1F70C1"/>
<path d="M55.5272 12.7317H60.7247V10.991H55.5272H50.8236L50.3359 12.3984L49.8482 10.991H45.1445H39.947V12.7317H45.1445V11.1329L45.6939 12.7317H54.9779L55.5272 11.1329V12.7317Z" fill="#1F70C1"/>
<path d="M60.7246 7.66382H51.9715L51.3728 9.40457H60.7246V7.66382Z" fill="#1F70C1"/>
<path d="M54.2743 1.02197L53.6755 2.76273H64.1879V1.02197H54.2743Z" fill="#1F70C1"/>
<path d="M50.3368 26.0035L50.9355 24.2812H49.738L50.3368 26.0035Z" fill="#1F70C1"/>
<path d="M49.187 22.6948H51.4833L52.1006 20.9541H48.5759L49.187 22.6948Z" fill="#1F70C1"/>
<path d="M48.021 19.3738H52.6506L53.2617 17.6331H47.4099L48.021 19.3738Z" fill="#1F70C1"/>
<path d="M46.8602 16.0528H53.817L54.4096 14.312H46.2614L46.8602 16.0528Z" fill="#1F70C1"/>
<path d="M39.947 9.40457H49.2988L48.7001 7.66382H39.947V9.40457Z" fill="#1F70C1"/>
<path d="M52.5273 6.08377H64.1878V4.34302H53.1199L52.5273 6.08377Z" fill="#1F70C1"/>
</g>
</g>
<defs>
<clipPath id="clip0_6_243">
<rect width="64" height="26" fill="white" transform="translate(0.93158 0.0935059)"/>
</clipPath>
</defs>
</svg>
