<svg width="109" height="34" viewBox="0 0 109 34" fill="none" xmlns="http://www.w3.org/2000/svg">
<g clip-path="url(#clip0_6_292)">
<mask id="mask0_6_292" style="mask-type:luminance" maskUnits="userSpaceOnUse" x="1" y="1" width="108" height="33">
<path d="M108.517 1.02197H1.82391V33.022H108.517V1.02197Z" fill="white"/>
</mask>
<g mask="url(#mask0_6_292)">
<path d="M17.8238 1.02197C8.9875 1.02197 1.82391 8.18537 1.82391 17.0217C1.82391 25.8589 8.9875 33.022 17.8238 33.022C26.6605 33.022 33.8237 25.8589 33.8237 17.0217C33.8237 8.18594 26.6611 1.02197 17.8238 1.02197ZM25.1613 24.0981C24.8739 24.5695 24.2599 24.7172 23.79 24.43C20.0329 22.1337 15.3037 21.6149 9.73434 22.8872C9.19766 23.0102 8.66269 22.6738 8.54042 22.1373C8.41757 21.6006 8.75249 21.0656 9.29051 20.9434C15.3853 19.55 20.6133 20.1497 24.8306 22.7267C25.3006 23.0152 25.4498 23.6281 25.1613 24.0981ZM27.1196 19.7422C26.7578 20.3293 25.9901 20.5135 25.4037 20.1529C21.1039 17.5098 14.5473 16.7443 9.46037 18.2884C8.80064 18.4877 8.10385 18.1159 7.90361 17.4573C7.70491 16.7976 8.07691 16.1021 8.73549 15.9015C14.5462 14.1384 21.7698 14.9924 26.7087 18.0274C27.2952 18.3885 27.4807 19.1564 27.1196 19.7422ZM27.2878 15.2057C22.1303 12.1428 13.6232 11.8612 8.69975 13.3554C7.90915 13.5952 7.07307 13.1489 6.83348 12.3583C6.59389 11.5673 7.03983 10.7318 7.831 10.4914C13.4828 8.77574 22.8781 9.10723 28.8151 12.6317C29.5262 13.0537 29.7595 13.9722 29.338 14.6823C28.9177 15.3935 27.9966 15.6279 27.2878 15.2057ZM45.3544 15.7926C42.5918 15.1338 42.1 14.6715 42.1 13.6999C42.1 12.7821 42.9642 12.1644 44.2493 12.1644C45.495 12.1644 46.7302 12.6334 48.0252 13.599C48.0644 13.6283 48.1135 13.6399 48.1618 13.6323C48.2101 13.625 48.2529 13.5985 48.2812 13.5585L49.6301 11.6571C49.6855 11.5788 49.6704 11.4708 49.5957 11.411C48.0544 10.1743 46.3188 9.57303 44.2902 9.57303C41.3074 9.57303 39.2239 11.3631 39.2239 13.9242C39.2239 16.6707 41.0211 17.6432 44.127 18.3939C46.7705 19.0028 47.2167 19.5129 47.2167 20.4248C47.2167 21.4353 46.3145 22.0635 44.8626 22.0635C43.2501 22.0635 41.9348 21.5204 40.4634 20.2462C40.427 20.2147 40.3769 20.2003 40.3307 20.203C40.2819 20.207 40.2374 20.2296 40.2065 20.2668L38.6941 22.0668C38.6306 22.1415 38.6386 22.2531 38.712 22.3177C40.4239 23.8459 42.5294 24.6532 44.8015 24.6532C48.0157 24.6532 50.0927 22.897 50.0927 20.1788C50.0984 17.8841 48.7247 16.6136 45.3601 15.7951L45.3544 15.7926ZM57.3644 13.0681C55.9712 13.0681 54.8284 13.6168 53.8861 14.7412V13.4756C53.8861 13.3757 53.8051 13.2943 53.7054 13.2943H51.2317C51.1318 13.2943 51.051 13.3757 51.051 13.4756V27.538C51.051 27.6379 51.1318 27.7193 51.2317 27.7193H53.7054C53.8051 27.7193 53.8861 27.6379 53.8861 27.538V23.0991C54.8286 24.1568 55.9716 24.6736 57.3644 24.6736C59.953 24.6736 62.5736 22.6809 62.5736 18.8715C62.5775 15.0612 59.9561 13.0679 57.3672 13.0679L57.3644 13.0681ZM59.6972 18.8715C59.6972 20.8113 58.5023 22.165 56.7914 22.165C55.0999 22.165 53.824 20.7498 53.824 18.8715C53.824 16.9934 55.0999 15.578 56.7914 15.578C58.4746 15.5778 59.6972 16.9628 59.6972 18.8715ZM69.2903 13.0681C65.9565 13.0681 63.3447 15.6352 63.3447 18.913C63.3447 22.1551 65.9386 24.6952 69.2494 24.6952C72.5951 24.6952 75.2149 22.1367 75.2149 18.8715C75.2149 15.6176 72.6129 13.0681 69.2903 13.0681ZM69.2903 22.1843C67.5171 22.1843 66.1802 20.7596 66.1802 18.8706C66.1802 16.9735 67.4709 15.5969 69.2494 15.5969C71.0341 15.5969 72.3799 17.0217 72.3799 18.912C72.3799 20.8087 71.0805 22.1843 69.2903 22.1843ZM82.334 13.2943H79.6119V10.5113C79.6119 10.4116 79.5313 10.3302 79.4314 10.3302H76.9581C76.858 10.3302 76.7768 10.4116 76.7768 10.5113V13.2943H75.5875C75.4879 13.2943 75.4073 13.3757 75.4073 13.4756V15.6015C75.4073 15.7013 75.4879 15.7828 75.5875 15.7828H76.7768V21.2836C76.7768 23.5066 77.8832 24.6337 80.0653 24.6337C80.9526 24.6337 81.6887 24.4505 82.3825 24.0571C82.4388 24.0255 82.4738 23.9648 82.4738 23.9002V21.8757C82.4738 21.8133 82.4413 21.7542 82.3878 21.7216C82.334 21.6877 82.2669 21.686 82.2117 21.7133C81.7352 21.9531 81.2745 22.0637 80.7596 22.0637C79.966 22.0637 79.6119 21.7034 79.6119 20.8958V15.7838H82.334C82.4339 15.7838 82.5143 15.7024 82.5143 15.6025V13.4768C82.5181 13.3768 82.4379 13.2955 82.3366 13.2955L82.334 13.2943ZM91.8182 13.3052V12.9634C91.8182 11.9578 92.2037 11.5094 93.0685 11.5094C93.5841 11.5094 93.9984 11.6118 94.4622 11.7666C94.5194 11.7845 94.579 11.7756 94.6254 11.7414C94.6732 11.7071 94.7001 11.6523 94.7001 11.5942V9.50979C94.7001 9.43011 94.6489 9.35961 94.5721 9.33611C94.082 9.19032 93.455 9.04073 92.5161 9.04073C90.2314 9.04073 89.0237 10.3273 89.0237 12.7601V13.2836H87.8353C87.7356 13.2836 87.6538 13.365 87.6538 13.4647V15.6015C87.6538 15.7013 87.7356 15.7828 87.8353 15.7828H89.0237V24.2676C89.0237 24.3675 89.1044 24.4489 89.2041 24.4489H91.6777C91.7777 24.4489 91.8591 24.3675 91.8591 24.2676V15.7834H94.1686L97.7064 24.2661C97.3048 25.1574 96.9099 25.3347 96.3707 25.3347C95.9349 25.3347 95.476 25.2046 95.0068 24.9478C94.9626 24.9235 94.9103 24.9195 94.8627 24.9342C94.8155 24.9508 94.7758 24.986 94.7557 25.0318L93.9173 26.8712C93.8774 26.9581 93.9116 27.0601 93.9953 27.1052C94.8705 27.5792 95.6606 27.7816 96.6371 27.7816C98.4636 27.7816 99.4732 26.9308 100.363 24.6419L104.655 13.5528C104.676 13.497 104.67 13.4339 104.636 13.3845C104.602 13.3354 104.547 13.3058 104.487 13.3058H101.912C101.835 13.3058 101.766 13.3548 101.74 13.4273L99.1021 20.9623L96.2127 13.4223C96.1864 13.3522 96.1187 13.3057 96.0439 13.3057L91.8182 13.3052ZM86.3195 13.2943H83.8458C83.7459 13.2943 83.6645 13.3757 83.6645 13.4756V24.2676C83.6645 24.3675 83.7459 24.4489 83.8458 24.4489H86.3195C86.4192 24.4489 86.5008 24.3675 86.5008 24.2676V13.4764C86.5008 13.4525 86.4962 13.4289 86.4871 13.4069C86.4779 13.3848 86.4646 13.3648 86.4477 13.348C86.4308 13.3311 86.4108 13.3178 86.3888 13.3087C86.3667 13.2996 86.3433 13.2942 86.3195 13.2943ZM85.0967 8.38045C84.1167 8.38045 83.3215 9.17371 83.3215 10.1537C83.3215 11.1342 84.1169 11.9284 85.0967 11.9284C86.0763 11.9284 86.8707 11.1342 86.8707 10.1537C86.8707 9.17391 86.0749 8.38045 85.0967 8.38045ZM106.767 16.7641C105.788 16.7641 105.026 15.9779 105.026 15.0232C105.026 14.0685 105.798 13.2733 106.776 13.2733C107.755 13.2733 108.517 14.0593 108.517 15.0132C108.517 15.968 107.745 16.7641 106.767 16.7641ZM106.777 13.4464C105.885 13.4464 105.21 14.1552 105.21 15.0232C105.21 15.8908 105.88 16.5901 106.768 16.5901C107.659 16.5901 108.335 15.8818 108.335 15.0132C108.335 14.1457 107.664 13.4464 106.777 13.4464ZM107.163 15.1923L107.655 15.8816H107.24L106.797 15.2492H106.415V15.8816H106.068V14.0543H106.883C107.307 14.0543 107.586 14.2716 107.586 14.6373C107.588 14.9368 107.413 15.1199 107.163 15.1923ZM106.868 14.3679H106.415V14.9458H106.868C107.095 14.9458 107.23 14.8352 107.23 14.6566C107.23 14.4686 107.093 14.3679 106.868 14.3679Z" fill="#2EBD59"/>
</g>
</g>
<defs>
<clipPath id="clip0_6_292">
<rect width="108" height="33" fill="white" transform="translate(0.93158 0.593506)"/>
</clipPath>
</defs>
</svg>
