<svg width="82" height="15" viewBox="0 0 82 15" fill="none" xmlns="http://www.w3.org/2000/svg">
<g clip-path="url(#clip0_6_39)">
<path d="M0.381592 5.54407H6.85147H10.7805V2.29443L0.381592 5.54407Z" fill="#FF9D28"/>
<path d="M10.7805 2.60083V14.6437L14.0302 0.995117L10.7805 2.60083Z" fill="#68C5ED"/>
<path d="M10.7802 5.54492H6.23071L10.7802 14.644V5.54492Z" fill="#044D80"/>
<path d="M0.381592 5.54492L6.88088 7.4947L6.00205 5.54492H0.381592Z" fill="#E54747"/>
<path d="M35.3846 6.21121H29.5185L27.7127 0.995605L25.8962 6.21121L20.03 6.20122L24.7742 9.4285L22.9578 14.6442L27.702 11.4169L32.4462 14.6442L30.6404 9.4285L35.3846 6.21121Z" fill="#00B67A"/>
<path d="M30.2669 10.5375L30.0591 9.52588L28.5608 11.232L30.2669 10.5375Z" fill="#005128"/>
<path d="M50.6161 10.6808C51.1115 11.5405 51.6014 12.3905 52.0909 13.2395C49.9232 14.8991 46.5507 15.0997 44.0541 13.1885C41.181 10.9875 40.7088 7.23181 42.247 4.52836C44.0161 1.41881 47.3268 0.731117 49.4584 1.23538C49.4007 1.36061 48.1241 4.00918 48.1241 4.00918C48.1241 4.00918 48.0231 4.01581 47.966 4.01691C47.336 4.04362 46.8667 4.19022 46.3637 4.45027C45.8119 4.73822 45.339 5.15695 44.9864 5.66986C44.6337 6.18277 44.4121 6.77424 44.3408 7.39259C44.2664 8.01968 44.3532 8.65539 44.5928 9.23965C44.7953 9.7336 45.0819 10.1723 45.4661 10.5427C46.0554 11.1114 46.7568 11.4636 47.5697 11.5801C48.3395 11.6906 49.0799 11.5812 49.7737 11.2326C50.0339 11.102 50.2553 10.9578 50.514 10.76C50.547 10.7387 50.5763 10.7116 50.6161 10.6808Z" fill="#FF492C"/>
<path d="M50.6209 3.14069C50.4951 3.01693 50.3785 2.90274 50.2625 2.78782C50.1933 2.71931 50.1266 2.64803 50.0557 2.58118C50.0303 2.55705 50.0004 2.52409 50.0004 2.52409C50.0004 2.52409 50.0246 2.47289 50.0349 2.45189C50.1706 2.1795 50.3833 1.98041 50.6356 1.82203C50.9147 1.64555 51.2397 1.55576 51.5698 1.564C51.9921 1.57229 52.3847 1.67745 52.716 1.96071C52.9606 2.16974 53.086 2.43495 53.1081 2.75154C53.145 3.28564 52.924 3.69468 52.4851 3.98014C52.2272 4.14811 51.9491 4.27795 51.6703 4.43173C51.5165 4.51664 51.385 4.59122 51.2347 4.74482C51.1025 4.89898 51.0961 5.04429 51.0961 5.04429L53.0938 5.04171V5.93144H50.0102V5.84543C49.9984 5.40821 50.0494 4.99677 50.2496 4.5997C50.4338 4.23541 50.72 3.96873 51.0638 3.76338C51.3287 3.60517 51.6075 3.47054 51.8729 3.31308C52.0366 3.21602 52.1523 3.07365 52.1514 2.8672C52.1514 2.69003 52.0224 2.53256 51.8383 2.48339C51.404 2.36625 50.962 2.55319 50.7321 2.95063C50.6986 3.00864 50.6644 3.06629 50.6209 3.14069ZM54.485 9.73475L52.8015 6.82743H49.47L47.7756 9.76477H51.1316L52.7877 12.6583L54.485 9.73475Z" fill="#FF492C"/>
<path d="M80.5326 7.42683L75.1403 2.0346C74.9539 1.86152 74.6743 1.86152 74.5013 2.0346L73.4361 3.09973L77.7632 7.42683C77.9363 7.59991 77.9363 7.89283 77.7632 8.06591L73.303 12.5262L74.3681 13.5913C74.5545 13.7644 74.8341 13.7644 75.0072 13.5913L80.5192 8.07922C80.7056 7.89282 80.7056 7.61323 80.5326 7.42683Z" fill="#009C9C"/>
<path d="M71.3464 2.43584L70.9603 2.04973C70.7739 1.87665 70.4943 1.87665 70.3212 2.04973L69.2561 3.11486L69.9618 3.82051L71.3464 5.20518L72.7311 3.82051L71.3464 2.43584Z" fill="#40E3E3"/>
<path d="M71.2263 10.4492L69.8416 11.8339L69.136 12.5396L70.2011 13.6047C70.3875 13.7778 70.6671 13.7778 70.8402 13.6047L71.2263 13.2186L72.611 11.8339L71.2263 10.4492Z" fill="#40E3E3"/>
<path d="M73.5962 7.42906C73.7693 7.61546 73.7693 7.89506 73.5962 8.06815L71.2263 10.4381L72.611 11.8228L76.3656 8.06815C76.5387 7.89506 76.5387 7.60215 76.3656 7.42906L72.7441 3.80762L71.3462 5.19229L73.5962 7.42906Z" fill="#1ABAB8"/>
<path d="M64.7956 7.55997L68.5502 3.80539L67.1655 2.42071L66.7661 2.0346C66.5797 1.86152 66.3001 1.86152 66.127 2.0346L60.6149 7.55997C60.4418 7.73305 60.4418 8.02597 60.6149 8.19905L66.0072 13.5913C66.1936 13.7644 66.4731 13.7644 66.6462 13.5913L67.0457 13.2052L68.4303 11.8205L64.8089 8.19905C64.6225 8.02597 64.6225 7.74637 64.7956 7.55997Z" fill="#87F0F0"/>
<path d="M68.9761 7.55865L70.6271 5.9077L69.2424 4.52303L68.5367 3.81738L64.8088 7.57197C64.6357 7.74505 64.6357 8.03796 64.8088 8.21104L68.4169 11.8192L69.1226 11.1136L70.5072 9.72886L68.9761 8.19773C68.803 8.03796 68.803 7.74505 68.9761 7.55865Z" fill="#40E3E3"/>
<path d="M68.976 8.19872L70.5072 9.72984L72.1581 8.07889C72.3312 7.90581 72.3312 7.6129 72.1581 7.43981L70.627 5.90869L68.976 7.55964C68.8163 7.74604 68.8163 8.02564 68.976 8.19872Z" fill="#17CFCF"/>
</g>
<defs>
<clipPath id="clip0_6_39">
<rect width="81" height="14" fill="white" transform="translate(0.381592 0.643555)"/>
</clipPath>
</defs>
</svg>
