<svg width="86" height="15" viewBox="0 0 86 15" fill="none" xmlns="http://www.w3.org/2000/svg">
<g clip-path="url(#clip0_6_32)">
<path d="M14.5449 6.30236C14.6567 6.19141 14.7685 6.04631 14.7685 5.89268C14.7685 5.63662 14.4933 5.5342 14.287 5.50006L9.97086 4.87699L8.03634 0.993497C7.95896 0.831329 7.81279 0.643555 7.61504 0.643555C7.41729 0.643555 7.27113 0.831329 7.19375 0.993497L5.25922 4.87699L0.94309 5.50006C0.728143 5.5342 0.461609 5.63662 0.461609 5.89268C0.461609 6.04631 0.573381 6.19141 0.676556 6.30236L3.80618 9.32381L3.06677 13.5914C3.0658 13.5982 3.06483 13.6048 3.06388 13.6113C3.05634 13.6628 3.04957 13.7091 3.04957 13.7621C3.04957 13.9841 3.16134 14.1889 3.41068 14.1889C3.53105 14.1889 3.64282 14.1462 3.7546 14.0865L7.61504 12.0722L11.4755 14.0865C11.5787 14.1462 11.699 14.1889 11.8194 14.1889C12.0687 14.1889 12.1719 13.9841 12.1719 13.7621C12.1719 13.7024 12.1719 13.6512 12.1633 13.5914L11.4239 9.32381L14.5449 6.30236Z" fill="#FFC800"/>
<path d="M32.1534 6.30236C32.2651 6.19141 32.3769 6.04631 32.3769 5.89268C32.3769 5.63662 32.1018 5.5342 31.8954 5.50006L27.5793 4.87699L25.6448 0.993497C25.5674 0.831329 25.4212 0.643555 25.2235 0.643555C25.0257 0.643555 24.8796 0.831329 24.8022 0.993497L22.8677 4.87699L18.5515 5.50006C18.3366 5.5342 18.0701 5.63662 18.0701 5.89268C18.0701 6.04631 18.1818 6.19141 18.285 6.30236L21.4146 9.32381L20.6752 13.5914C20.6742 13.5982 20.6733 13.6048 20.6723 13.6113C20.6648 13.6628 20.658 13.7091 20.658 13.7621C20.658 13.9841 20.7698 14.1889 21.0191 14.1889C21.1395 14.1889 21.2513 14.1462 21.363 14.0865L25.2235 12.0722L29.0839 14.0865C29.1871 14.1462 29.3075 14.1889 29.4278 14.1889C29.6772 14.1889 29.7804 13.9841 29.7804 13.7621C29.7804 13.7024 29.7804 13.6512 29.7718 13.5914L29.0323 9.32381L32.1534 6.30236Z" fill="#FFC800"/>
<path d="M49.7618 6.30236C49.8736 6.19141 49.9854 6.04631 49.9854 5.89268C49.9854 5.63662 49.7102 5.5342 49.5039 5.50006L45.1878 4.87699L43.2532 0.993497C43.1759 0.831329 43.0297 0.643555 42.8319 0.643555C42.6342 0.643555 42.488 0.831329 42.4106 0.993497L40.4761 4.87699L36.16 5.50006C35.945 5.5342 35.6785 5.63662 35.6785 5.89268C35.6785 6.04631 35.7903 6.19141 35.8935 6.30236L39.0231 9.32381L38.2837 13.5914C38.2827 13.5982 38.2817 13.6048 38.2808 13.6113C38.2732 13.6628 38.2665 13.7091 38.2665 13.7621C38.2665 13.9841 38.3782 14.1889 38.6276 14.1889C38.7479 14.1889 38.8597 14.1462 38.9715 14.0865L42.8319 12.0722L46.6924 14.0865C46.7956 14.1462 46.9159 14.1889 47.0363 14.1889C47.2856 14.1889 47.3888 13.9841 47.3888 13.7621C47.3888 13.7024 47.3888 13.6512 47.3802 13.5914L46.6408 9.32381L49.7618 6.30236Z" fill="#FFC800"/>
<path d="M67.3703 6.30236C67.482 6.19141 67.5938 6.04631 67.5938 5.89268C67.5938 5.63662 67.3187 5.5342 67.1123 5.50006L62.7962 4.87699L60.8617 0.993497C60.7843 0.831329 60.6381 0.643555 60.4404 0.643555C60.2426 0.643555 60.0965 0.831329 60.0191 0.993497L58.0846 4.87699L53.7684 5.50006C53.5535 5.5342 53.287 5.63662 53.287 5.89268C53.287 6.04631 53.3987 6.19141 53.5019 6.30236L56.6315 9.32381L55.8921 13.5914C55.8911 13.5982 55.8902 13.6048 55.8892 13.6113C55.8817 13.6628 55.8749 13.7091 55.8749 13.7621C55.8749 13.9841 55.9867 14.1889 56.236 14.1889C56.3564 14.1889 56.4682 14.1462 56.5799 14.0865L60.4404 12.0722L64.3008 14.0865C64.404 14.1462 64.5244 14.1889 64.6448 14.1889C64.8941 14.1889 64.9973 13.9841 64.9973 13.7621C64.9973 13.7024 64.9973 13.6512 64.9887 13.5914L64.2492 9.32381L67.3703 6.30236Z" fill="#FFC800"/>
<path d="M84.9787 6.30236C85.0905 6.19141 85.2023 6.04631 85.2023 5.89268C85.2023 5.63662 84.9271 5.5342 84.7208 5.50006L80.4047 4.87699L78.4701 0.993497C78.3928 0.831329 78.2466 0.643555 78.0488 0.643555C77.8511 0.643555 77.7049 0.831329 77.6275 0.993497L75.693 4.87699L71.3769 5.50006C71.1619 5.5342 70.8954 5.63662 70.8954 5.89268C70.8954 6.04631 71.0072 6.19141 71.1104 6.30236L74.24 9.32381L73.5006 13.5914C73.4996 13.5982 73.4986 13.6048 73.4977 13.6113C73.4901 13.6628 73.4834 13.7091 73.4834 13.7621C73.4834 13.9841 73.5951 14.1889 73.8445 14.1889C73.9649 14.1889 74.0766 14.1462 74.1884 14.0865L78.0488 12.0722L81.9093 14.0865C82.0125 14.1462 82.1328 14.1889 82.2532 14.1889C82.5025 14.1889 82.6057 13.9841 82.6057 13.7621C82.6057 13.7024 82.6057 13.6512 82.5971 13.5914L81.8577 9.32381L84.9787 6.30236Z" fill="#FFC800"/>
</g>
<defs>
<clipPath id="clip0_6_32">
<rect width="85" height="14" fill="white" transform="translate(0.461609 0.643555)"/>
</clipPath>
</defs>
</svg>
