<svg width="81" height="23" viewBox="0 0 81 23" fill="none" xmlns="http://www.w3.org/2000/svg">
<g clip-path="url(#clip0_6_285)">
<mask id="mask0_6_285" style="mask-type:luminance" maskUnits="userSpaceOnUse" x="1" y="1" width="80" height="22">
<path d="M80.8239 1.02197H1.18768V22.022H80.8239V1.02197Z" fill="white"/>
</mask>
<g mask="url(#mask0_6_285)">
<path d="M10.1289 5.49427V21.5853H7.64898V5.49427H1.18768V3.13225H16.5966V5.49427H10.1289ZM19.5452 21.5853V3.13225H22.0251V21.5853H19.5452ZM39.5251 16.3577C39.5251 19.4879 37.4309 21.5822 32.6781 21.5822H26.389V3.13225H32.4996C36.9559 3.13225 38.9354 5.13726 38.9354 8.03161C38.9354 9.91868 37.8421 11.3117 35.7733 12.0958C38.2437 12.6951 39.5251 14.2889 39.5251 16.3577ZM32.7068 5.43371H28.8976V11.2192H32.3211C34.9764 11.2192 36.4268 10.0398 36.4268 8.23881C36.4268 6.4378 35.1262 5.43371 32.7068 5.43371ZM32.5283 13.4952H28.9168V19.2807H32.914C35.6586 19.2807 37.0197 18.3053 37.0197 16.3863C37.0197 14.2634 35.1262 13.4952 32.5283 13.4952ZM55.884 6.51431C54.4081 5.47514 52.6454 4.9205 50.838 4.93325C46.8216 4.93325 44.1121 7.70966 44.1121 12.2871C44.1121 16.8645 46.8216 19.7843 50.8858 19.7843C52.7761 19.7525 54.6057 19.1181 56.1103 17.977L56.5215 20.4888C54.797 21.5025 52.8271 22.0316 50.8252 22.0252C45.4063 22.0252 41.5843 18.2766 41.5843 12.4018C41.5843 6.52706 45.4637 2.69236 50.8348 2.69236C52.8844 2.67961 54.899 3.20875 56.6777 4.22879L55.884 6.51431ZM71.8826 3.9929C71.6053 3.82715 71.3216 3.67414 71.0283 3.54026C68.6153 8.16549 64.2547 13.6641 58.4373 16.7944C58.7592 17.5275 59.1832 18.2097 59.6932 18.8281C64.6786 15.3886 69.2943 9.67642 71.8826 3.9929Z" fill="#3E8EDE"/>
<path d="M70.8076 3.4351C69.5422 2.89639 68.1778 2.62225 66.8008 2.635C61.3819 2.635 57.5472 6.82034 57.5472 12.3317C57.544 13.2147 57.6396 14.0945 57.8309 14.9551C63.3773 12.6951 68.3117 7.70969 70.8076 3.4351ZM72.1114 4.12043C69.2648 11.1204 65.7903 16.0708 61.3659 20.3294C62.9757 21.4132 64.8819 21.9774 66.8199 21.9424C72.2389 21.9424 76.0736 17.7283 76.0736 12.2138C76.0544 8.56397 74.5435 5.72699 72.1114 4.12043ZM76.0544 3.5116C75.9971 2.19511 77.0171 1.08263 78.3336 1.02526C79.6501 0.967879 80.7625 1.98792 80.8199 3.3044C80.8231 3.37453 80.8231 3.44147 80.8199 3.5116C80.8773 4.82808 79.8573 5.94056 78.5408 5.99794C77.2243 6.05531 76.1118 5.03528 76.0544 3.71879C76.0513 3.64867 76.0513 3.57854 76.0544 3.5116ZM80.549 3.5116C80.549 2.34812 79.6054 1.4014 78.442 1.4014C77.2785 1.4014 76.3318 2.34493 76.3318 3.50841V3.5116C76.335 4.67508 77.2817 5.61861 78.4483 5.61542C79.6118 5.61224 80.5554 4.66552 80.5522 3.49885V3.5116H80.549ZM77.5112 2.2493H78.6077C79.1401 2.2493 79.5385 2.51069 79.5385 3.01752C79.5513 3.36497 79.3186 3.67735 78.9775 3.75705L79.6246 4.65914H79.0636L78.4802 3.80167H77.9829V4.65914H77.5303V2.23655L77.5112 2.2493ZM78.5663 3.45741C78.7958 3.49885 79.0126 3.34584 79.054 3.11633C79.0572 3.09721 79.0604 3.07808 79.0604 3.05896C79.0604 2.83582 78.8787 2.65094 78.6555 2.65094C78.6268 2.65094 78.5982 2.65413 78.5695 2.66051H77.9861V3.44147H78.5727L78.5663 3.45741Z" fill="#3E8EDE"/>
</g>
</g>
<defs>
<clipPath id="clip0_6_285">
<rect width="80" height="22" fill="white" transform="translate(0.93158 0.0935059)"/>
</clipPath>
</defs>
</svg>
