<svg width="315" height="210" viewBox="0 0 315 210" fill="none" xmlns="http://www.w3.org/2000/svg">
<g clip-path="url(#clip0_6_708)">
<g clip-path="url(#clip1_6_708)">
<g clip-path="url(#clip2_6_708)">
<g opacity="0.6" filter="url(#filter0_f_6_708)">
<g filter="url(#filter1_d_6_708)">
<path d="M45.929 196.52C58.7554 196.52 69.1532 186.122 69.1532 173.296C69.1532 160.469 58.7554 150.071 45.929 150.071C33.1026 150.071 22.7048 160.469 22.7048 173.296C22.7048 186.122 33.1026 196.52 45.929 196.52Z" fill="white"/>
</g>
<mask id="mask0_6_708" style="mask-type:luminance" maskUnits="userSpaceOnUse" x="32" y="160" width="26" height="26">
<path d="M32.1669 160.394H57.1113V185.338H32.1669V160.394Z" fill="white"/>
</mask>
<g mask="url(#mask0_6_708)">
<path d="M54.8439 163.066H44.1196C44.1195 163.702 44.2446 164.332 44.4879 164.919C44.7311 165.507 45.0876 166.04 45.5371 166.49C45.9867 166.94 46.5204 167.296 47.1077 167.54C47.6951 167.783 48.3247 167.908 48.9604 167.908H50.9365V169.815C50.9372 171.098 51.4471 172.328 52.3542 173.236C53.2614 174.143 54.4915 174.653 55.7745 174.654V163.996C55.7745 163.483 55.3584 163.066 54.8439 163.066Z" fill="#2684FF"/>
<path d="M49.5378 168.41H38.8126C38.8133 169.693 39.3232 170.923 40.2304 171.831C41.1375 172.738 42.3677 173.248 43.6507 173.249H45.6267V175.162C45.6284 176.445 46.1392 177.675 47.047 178.582C47.9549 179.488 49.1854 179.998 50.4684 179.998V169.341C50.4684 168.827 50.0513 168.41 49.5378 168.41Z" fill="url(#paint0_linear_6_708)"/>
<path d="M44.228 173.752H33.5028C33.5028 174.388 33.6281 175.017 33.8714 175.605C34.1147 176.192 34.4714 176.726 34.921 177.175C35.3706 177.625 35.9043 177.981 36.4918 178.225C37.0792 178.468 37.7087 178.593 38.3445 178.593H40.326V180.501C40.3267 181.782 40.8359 183.012 41.7419 183.919C42.6479 184.826 43.8767 185.336 45.1586 185.339V174.682C45.1586 174.168 44.7416 173.752 44.228 173.752Z" fill="url(#paint1_linear_6_708)"/>
</g>
<g filter="url(#filter2_d_6_708)">
<path d="M280.022 144.267C292.848 144.267 303.246 133.869 303.246 121.043C303.246 108.216 292.848 97.8184 280.022 97.8184C267.195 97.8184 256.797 108.216 256.797 121.043C256.797 133.869 267.195 144.267 280.022 144.267Z" fill="white"/>
</g>
<path fill-rule="evenodd" clip-rule="evenodd" d="M287.145 121.437C286.419 121.427 285.699 121.562 285.025 121.834C284.351 122.105 283.738 122.508 283.222 123.018C282.705 123.528 282.295 124.136 282.015 124.806C281.735 125.476 281.591 126.195 281.591 126.921C281.591 127.647 281.735 128.366 282.015 129.036C282.295 129.706 282.706 130.314 283.222 130.824C283.739 131.334 284.352 131.737 285.026 132.008C285.699 132.279 286.42 132.414 287.146 132.405C288.589 132.386 289.965 131.8 290.979 130.773C291.992 129.747 292.56 128.363 292.56 126.92C292.56 125.478 291.991 124.094 290.978 123.067C289.965 122.041 288.588 121.455 287.145 121.437ZM272.898 121.437C271.443 121.437 270.049 122.015 269.02 123.044C267.992 124.072 267.414 125.467 267.414 126.922C267.414 128.376 267.992 129.771 269.02 130.799C270.049 131.828 271.443 132.406 272.898 132.406C274.352 132.406 275.747 131.828 276.776 130.799C277.804 129.771 278.382 128.376 278.382 126.922C278.382 125.467 277.804 124.072 276.776 123.044C275.747 122.015 274.352 121.437 272.898 121.437ZM285.505 114.582C285.505 115.302 285.364 116.016 285.088 116.681C284.812 117.346 284.408 117.951 283.899 118.46C283.39 118.969 282.785 119.373 282.12 119.649C281.455 119.924 280.742 120.066 280.022 120.066C279.302 120.066 278.588 119.924 277.923 119.649C277.258 119.373 276.653 118.969 276.144 118.46C275.635 117.951 275.231 117.346 274.955 116.681C274.68 116.016 274.538 115.302 274.538 114.582C274.538 113.128 275.116 111.733 276.144 110.705C277.172 109.676 278.567 109.099 280.022 109.099C281.476 109.099 282.871 109.676 283.899 110.705C284.928 111.733 285.505 113.128 285.505 114.582Z" fill="#F06A6A"/>
<g filter="url(#filter3_d_6_708)">
<path d="M282.469 70.9397C295.296 70.9397 305.694 60.5418 305.694 47.7154C305.694 34.8891 295.296 24.4912 282.469 24.4912C269.643 24.4912 259.245 34.8891 259.245 47.7154C259.245 60.5418 269.643 70.9397 282.469 70.9397Z" fill="white"/>
</g>
<path d="M273.53 54.5159C272.979 54.5168 272.437 54.3715 271.96 54.0948C271.483 53.818 271.088 53.4197 270.815 52.9405C270.547 52.4646 270.413 51.9246 270.428 51.3785C270.443 50.8323 270.606 50.3005 270.9 49.8399L276.49 41.0616C276.777 40.5903 277.184 40.2033 277.668 39.9399C278.153 39.6765 278.699 39.546 279.25 39.5618C279.802 39.575 280.339 39.7343 280.809 40.0236C281.278 40.3129 281.662 40.7217 281.921 41.2082C282.177 41.691 282.296 42.2342 282.267 42.7796C282.237 43.3251 282.059 43.8521 281.753 44.3043L276.166 53.0826C275.883 53.5241 275.493 53.8869 275.032 54.1374C274.571 54.388 274.055 54.5182 273.53 54.5159Z" fill="#F62B54"/>
<path d="M283.119 54.5146C282.568 54.5164 282.027 54.3717 281.551 54.0956C281.075 53.8194 280.681 53.4216 280.409 52.9429C280.141 52.4683 280.007 51.9297 280.022 51.3848C280.037 50.8399 280.2 50.3095 280.494 49.8505L286.074 41.0922C286.356 40.614 286.761 40.2199 287.246 39.9506C287.732 39.6813 288.28 39.5466 288.836 39.5605C289.391 39.5713 289.933 39.7306 290.406 40.0219C290.879 40.3131 291.265 40.7258 291.525 41.217C291.779 41.7041 291.894 42.2516 291.859 42.8C291.823 43.3483 291.638 43.8764 291.323 44.3267L285.744 53.0849C285.462 53.5247 285.073 53.8863 284.615 54.1361C284.156 54.386 283.641 54.5162 283.119 54.5146Z" fill="#FFCC00"/>
<path d="M292.493 54.5889C294.082 54.5889 295.371 53.3268 295.371 51.7706C295.371 50.2152 294.082 48.9531 292.493 48.9531C290.904 48.9531 289.615 50.2152 289.615 51.7706C289.615 53.3277 290.904 54.5889 292.493 54.5889Z" fill="#00CA72"/>
<g filter="url(#filter4_d_6_708)">
<path d="M218.389 191.36C226.702 191.36 233.441 184.621 233.441 176.307C233.441 167.994 226.702 161.255 218.389 161.255C210.076 161.255 203.336 167.994 203.336 176.307C203.336 184.621 210.076 191.36 218.389 191.36Z" fill="white"/>
</g>
<path d="M224.669 168.503H212.107C211.266 168.503 210.583 169.185 210.583 170.027V182.588C210.583 183.431 211.266 184.113 212.107 184.113H224.669C225.511 184.113 226.194 183.431 226.194 182.588V170.027C226.194 169.185 225.511 168.503 224.669 168.503Z" fill="url(#paint2_linear_6_708)"/>
<path d="M223.433 170.531H220.135C219.941 170.531 219.755 170.608 219.618 170.746C219.48 170.883 219.403 171.069 219.403 171.263V176.63C219.403 177.034 219.731 177.361 220.135 177.361H223.433C223.529 177.361 223.624 177.342 223.713 177.305C223.801 177.269 223.882 177.215 223.95 177.147C224.018 177.079 224.072 176.998 224.108 176.91C224.145 176.821 224.164 176.726 224.164 176.63V171.263C224.164 171.167 224.145 171.072 224.108 170.983C224.072 170.894 224.018 170.814 223.95 170.746C223.882 170.678 223.801 170.624 223.713 170.587C223.624 170.55 223.529 170.531 223.433 170.531ZM216.641 170.531H213.344C213.248 170.531 213.153 170.55 213.064 170.587C212.975 170.624 212.894 170.678 212.826 170.746C212.758 170.814 212.704 170.894 212.668 170.983C212.631 171.072 212.612 171.167 212.612 171.263V180.532C212.612 180.936 212.94 181.264 213.344 181.264H216.641C217.046 181.264 217.373 180.936 217.373 180.532V171.263C217.373 171.069 217.296 170.883 217.159 170.746C217.022 170.608 216.836 170.531 216.641 170.531Z" fill="white"/>
<g filter="url(#filter5_d_6_708)">
<path d="M128.934 191.36C137.247 191.36 143.986 184.621 143.986 176.307C143.986 167.994 137.247 161.255 128.934 161.255C120.621 161.255 113.882 167.994 113.882 176.307C113.882 184.621 120.621 191.36 128.934 191.36Z" fill="white"/>
</g>
<path d="M124.457 176.244C124.457 176.244 125.208 175.071 126.229 175.071C127.775 175.025 129.047 178.027 129.275 178.45C131.001 174.321 133.864 170.825 136.181 168.503H121.868V185.558C121.868 186.214 121.799 186.824 121.686 187.458C123.549 187.129 125.389 186.661 127.161 186.003C131.501 184.338 133.205 182.578 133.205 182.578L133.319 182.461L133.387 182.602C133.659 183.306 134.068 183.939 134.477 184.572C135.068 185.347 135.386 185.417 135.613 185.347C135.863 185.276 135.999 184.83 136.068 184.15C136.135 183.446 136.181 181.922 136.181 180.021V169.816C132.024 175.33 128.91 183.587 128.91 183.587C128.91 183.587 126.843 176.22 124.457 176.244Z" fill="#003059"/>
<g filter="url(#filter6_d_6_708)">
<path d="M110.135 52.3713C122.962 52.3713 133.36 41.9735 133.36 29.1471C133.36 16.3207 122.962 5.92285 110.135 5.92285C97.3089 5.92285 86.9111 16.3207 86.9111 29.1471C86.9111 41.9735 97.3089 52.3713 110.135 52.3713Z" fill="white"/>
</g>
<path d="M109.14 18.2473L99.198 22.3605C99.0756 22.4113 98.9711 22.4975 98.8979 22.6081C98.8248 22.7186 98.7862 22.8484 98.7872 22.9809C98.7882 23.1135 98.8286 23.2427 98.9034 23.3522C98.9782 23.4616 99.0839 23.5462 99.2071 23.5953L109.19 27.5537C110.067 27.9016 111.044 27.9016 111.921 27.5537L121.904 23.5953C122.028 23.5466 122.134 23.4621 122.209 23.3526C122.284 23.2431 122.324 23.1137 122.325 22.981C122.326 22.8482 122.288 22.7182 122.214 22.6076C122.141 22.4971 122.036 22.411 121.913 22.3605L111.972 18.2463C111.065 17.871 110.046 17.871 109.139 18.2463" fill="#FCB400"/>
<path d="M111.442 29.7149V39.6042C111.442 40.075 111.916 40.3964 112.354 40.2234L123.478 35.9062C123.602 35.857 123.708 35.7717 123.783 35.6612C123.858 35.5508 123.898 35.4204 123.897 35.287V25.3977C123.897 25.289 123.871 25.1819 123.82 25.0858C123.769 24.9897 123.696 24.9076 123.606 24.8465C123.516 24.7854 123.412 24.7473 123.304 24.7354C123.196 24.7236 123.087 24.7384 122.986 24.7785L111.862 29.0957C111.738 29.1449 111.631 29.2302 111.557 29.3407C111.482 29.4511 111.442 29.5815 111.442 29.7149Z" fill="#18BFFF"/>
<path d="M108.844 30.2252L105.543 31.8187L105.207 31.9808L98.2382 35.32C97.7965 35.5331 97.2329 35.2108 97.2329 34.7208V25.439C97.2329 25.2614 97.3239 25.1075 97.4459 24.9928C97.4962 24.9426 97.5532 24.8997 97.6153 24.8653C97.7066 24.8134 97.8083 24.7823 97.913 24.7745C98.0177 24.7666 98.1229 24.7821 98.2209 24.8198L108.789 29.0068C109.326 29.2198 109.368 29.972 108.844 30.2252Z" fill="#F82B60"/>
<path d="M108.844 30.2254L105.542 31.8189L97.4459 24.9921C97.496 24.9425 97.5527 24.9002 97.6144 24.8664C97.7057 24.8142 97.8074 24.7828 97.9123 24.7746C98.0172 24.7664 98.1226 24.7816 98.2209 24.8191L108.789 29.007C109.326 29.22 109.368 29.9722 108.844 30.2254Z" fill="black" fill-opacity="0.25"/>
<g filter="url(#filter7_d_6_708)">
<path d="M208.927 38.2533C217.24 38.2533 223.979 31.5141 223.979 23.2008C223.979 14.8876 217.24 8.14844 208.927 8.14844C200.613 8.14844 193.874 14.8876 193.874 23.2008C193.874 31.5141 200.613 38.2533 208.927 38.2533Z" fill="white"/>
</g>
<path fill-rule="evenodd" clip-rule="evenodd" d="M204.151 17.7155C204.652 18.1216 204.84 18.0906 205.779 18.0278L214.635 17.496C214.823 17.496 214.667 17.3093 214.604 17.2774L213.134 16.2148C212.851 15.9962 212.476 15.7449 211.757 15.8077L203.181 16.4333C202.868 16.4643 202.806 16.6209 202.93 16.7457L204.151 17.7155ZM204.683 19.7798V29.0981C204.683 29.5989 204.934 29.7865 205.496 29.7546L215.23 29.1919C215.794 29.1609 215.856 28.8167 215.856 28.4088V19.1542C215.856 18.7481 215.7 18.5295 215.356 18.5605L205.184 19.1542C204.809 19.1861 204.683 19.3728 204.683 19.7798ZM214.292 20.2797C214.354 20.5611 214.292 20.8425 214.01 20.8744L213.541 20.9672V27.8469C213.134 28.0655 212.758 28.1911 212.445 28.1911C211.944 28.1911 211.819 28.0345 211.444 27.5655L208.376 22.7502V27.4089L209.346 27.6284C209.346 27.6284 209.346 28.1911 208.563 28.1911L206.404 28.3159C206.341 28.1911 206.404 27.8788 206.624 27.816L207.187 27.6602V21.4981L206.404 21.4353C206.342 21.1539 206.498 20.7478 206.937 20.7159L209.253 20.5602L212.445 25.4383V21.1248L211.631 21.031C211.568 20.6868 211.819 20.4373 212.132 20.4063L214.292 20.2797ZM202.46 15.5892L211.381 14.9326C212.476 14.8379 212.758 14.9008 213.447 15.4016L216.294 17.4022C216.764 17.7464 216.921 17.8402 216.921 18.2154V29.1928C216.921 29.8803 216.67 30.2874 215.794 30.3493L205.434 30.9758C204.777 31.0067 204.464 30.9129 204.12 30.4749L202.022 27.754C201.647 27.2532 201.491 26.8789 201.491 26.4409V16.6828C201.491 16.121 201.742 15.6511 202.46 15.5892Z" fill="black"/>
<g filter="url(#filter8_d_6_708)">
<path d="M81.625 131.149C89.9382 131.149 96.6774 124.41 96.6774 116.096C96.6774 107.783 89.9382 101.044 81.625 101.044C73.3118 101.044 66.5726 107.783 66.5726 116.096C66.5726 124.41 73.3118 131.149 81.625 131.149Z" fill="white"/>
</g>
<path d="M77.3223 107.455H86.4849C87.4138 107.455 88.3045 107.824 88.9614 108.481C89.6183 109.138 89.9876 110.028 89.988 110.957V120.121C89.9876 121.05 89.6183 121.94 88.9614 122.597C88.3045 123.254 87.4138 123.623 86.4849 123.623H77.3223C76.3936 123.622 75.5031 123.253 74.8464 122.597C74.1897 121.94 73.8206 121.049 73.8201 120.121V110.957C73.8206 110.029 74.1897 109.138 74.8464 108.481C75.5031 107.825 76.3936 107.456 77.3223 107.455Z" fill="#FFD02F"/>
<path d="M85.0543 109.474H83.2796L84.7584 112.072L81.5048 109.474H79.7291L81.3564 112.651L77.9543 109.474H76.1786L77.9543 113.517L76.1786 121.603H77.9543L81.3564 112.938L79.7291 121.603H81.5048L84.7584 112.364L83.2796 121.603H85.0553L88.3089 111.493L85.0543 109.474Z" fill="#050038"/>
<g filter="url(#filter9_d_6_708)">
<path d="M32.167 96.7434C44.9933 96.7434 55.3912 86.3455 55.3912 73.5192C55.3912 60.6928 44.9933 50.2949 32.167 50.2949C19.3406 50.2949 8.94272 60.6928 8.94272 73.5192C8.94272 86.3455 19.3406 96.7434 32.167 96.7434Z" fill="white"/>
</g>
<path d="M24.8602 71.548C26.1924 71.548 26.8208 71.7711 27.786 72.6498L32.9628 77.3604C33.1158 77.4997 33.1468 77.5553 33.1777 77.639C33.1899 77.67 33.1949 77.7033 33.1923 77.7365C33.1923 77.7638 33.1923 77.8057 33.1777 77.8339C33.1468 77.9177 33.1158 77.9732 32.9628 78.1125L29.4242 81.3461C29.2712 81.4855 29.2102 81.5137 29.1182 81.541C29.0873 81.5556 29.0417 81.5556 29.0108 81.5556C28.9807 81.5556 28.9343 81.5556 28.9042 81.541C28.8123 81.5137 28.7503 81.4855 28.5974 81.3461L18.5642 72.2173C18.2728 71.9532 18.3803 71.548 18.8711 71.548H24.8602ZM39.4728 65.792C38.1406 65.792 37.5122 66.0151 36.5479 66.8938L31.3702 71.6044C31.2172 71.7437 31.1862 71.7993 31.1562 71.8831C31.1407 71.9104 31.1407 71.9523 31.1407 71.9805C31.1407 72.0078 31.1407 72.0497 31.1562 72.0779C31.1862 72.1617 31.2172 72.2173 31.3702 72.3566L34.9088 75.5765C35.0618 75.7158 35.1228 75.7441 35.2148 75.7714C35.2457 75.785 35.2913 75.785 35.3222 75.785C35.3532 75.785 35.3987 75.785 35.4297 75.7714C35.5207 75.7441 35.5827 75.7158 35.7356 75.5765L45.7688 66.4476C46.0602 66.1826 45.9527 65.7783 45.4619 65.7783H39.4728V65.792Z" fill="#08CF65"/>
</g>
<g filter="url(#filter10_d_6_708)">
<path d="M172.061 160.302C204.834 160.302 231.401 133.735 231.401 100.962C231.401 68.1895 204.834 41.6221 172.061 41.6221C139.289 41.6221 112.721 68.1895 112.721 100.962C112.721 133.735 139.289 160.302 172.061 160.302Z" fill="white"/>
</g>
<path d="M140.602 120.262L152.251 111.284C158.441 119.41 165.017 123.156 172.336 123.156C179.617 123.156 186.007 119.455 191.918 111.393L203.734 120.154C195.206 131.779 184.608 137.921 172.336 137.921C160.104 137.921 149.404 131.818 140.602 120.262Z" fill="url(#paint3_linear_6_708)"/>
<path d="M172.298 81.2506L151.563 99.2252L141.978 88.0429L172.342 61.7217L202.468 88.0629L192.839 99.2061L172.298 81.2506Z" fill="url(#paint4_linear_6_708)"/>
</g>
</g>
</g>
<defs>
<filter id="filter0_f_6_708" x="4.38966" y="1.36979" width="305.857" height="199.703" filterUnits="userSpaceOnUse" color-interpolation-filters="sRGB">
<feFlood flood-opacity="0" result="BackgroundImageFix"/>
<feBlend mode="normal" in="SourceGraphic" in2="BackgroundImageFix" result="shape"/>
<feGaussianBlur stdDeviation="2.27653" result="effect1_foregroundBlur_6_708"/>
</filter>
<filter id="filter1_d_6_708" x="14.4929" y="145.965" width="62.8722" height="62.872" filterUnits="userSpaceOnUse" color-interpolation-filters="sRGB">
<feFlood flood-opacity="0" result="BackgroundImageFix"/>
<feColorMatrix in="SourceAlpha" type="matrix" values="0 0 0 0 0 0 0 0 0 0 0 0 0 0 0 0 0 0 127 0" result="hardAlpha"/>
<feOffset dy="4.10595"/>
<feGaussianBlur stdDeviation="4.10595"/>
<feComposite in2="hardAlpha" operator="out"/>
<feColorMatrix type="matrix" values="0 0 0 0 0.343614 0 0 0 0 0.154931 0 0 0 0 0.808333 0 0 0 0.18 0"/>
<feBlend mode="normal" in2="BackgroundImageFix" result="effect1_dropShadow_6_708"/>
<feBlend mode="normal" in="SourceGraphic" in2="effect1_dropShadow_6_708" result="shape"/>
</filter>
<filter id="filter2_d_6_708" x="248.586" y="93.7124" width="62.8722" height="62.872" filterUnits="userSpaceOnUse" color-interpolation-filters="sRGB">
<feFlood flood-opacity="0" result="BackgroundImageFix"/>
<feColorMatrix in="SourceAlpha" type="matrix" values="0 0 0 0 0 0 0 0 0 0 0 0 0 0 0 0 0 0 127 0" result="hardAlpha"/>
<feOffset dy="4.10595"/>
<feGaussianBlur stdDeviation="4.10595"/>
<feComposite in2="hardAlpha" operator="out"/>
<feColorMatrix type="matrix" values="0 0 0 0 0.343614 0 0 0 0 0.154931 0 0 0 0 0.808333 0 0 0 0.18 0"/>
<feBlend mode="normal" in2="BackgroundImageFix" result="effect1_dropShadow_6_708"/>
<feBlend mode="normal" in="SourceGraphic" in2="effect1_dropShadow_6_708" result="shape"/>
</filter>
<filter id="filter3_d_6_708" x="251.033" y="20.3853" width="62.8722" height="62.872" filterUnits="userSpaceOnUse" color-interpolation-filters="sRGB">
<feFlood flood-opacity="0" result="BackgroundImageFix"/>
<feColorMatrix in="SourceAlpha" type="matrix" values="0 0 0 0 0 0 0 0 0 0 0 0 0 0 0 0 0 0 127 0" result="hardAlpha"/>
<feOffset dy="4.10595"/>
<feGaussianBlur stdDeviation="4.10595"/>
<feComposite in2="hardAlpha" operator="out"/>
<feColorMatrix type="matrix" values="0 0 0 0 0.343614 0 0 0 0 0.154931 0 0 0 0 0.808333 0 0 0 0.18 0"/>
<feBlend mode="normal" in2="BackgroundImageFix" result="effect1_dropShadow_6_708"/>
<feBlend mode="normal" in="SourceGraphic" in2="effect1_dropShadow_6_708" result="shape"/>
</filter>
<filter id="filter4_d_6_708" x="195.124" y="157.149" width="46.5286" height="46.5283" filterUnits="userSpaceOnUse" color-interpolation-filters="sRGB">
<feFlood flood-opacity="0" result="BackgroundImageFix"/>
<feColorMatrix in="SourceAlpha" type="matrix" values="0 0 0 0 0 0 0 0 0 0 0 0 0 0 0 0 0 0 127 0" result="hardAlpha"/>
<feOffset dy="4.10595"/>
<feGaussianBlur stdDeviation="4.10595"/>
<feComposite in2="hardAlpha" operator="out"/>
<feColorMatrix type="matrix" values="0 0 0 0 0.343614 0 0 0 0 0.154931 0 0 0 0 0.808333 0 0 0 0.18 0"/>
<feBlend mode="normal" in2="BackgroundImageFix" result="effect1_dropShadow_6_708"/>
<feBlend mode="normal" in="SourceGraphic" in2="effect1_dropShadow_6_708" result="shape"/>
</filter>
<filter id="filter5_d_6_708" x="105.67" y="157.149" width="46.5286" height="46.5283" filterUnits="userSpaceOnUse" color-interpolation-filters="sRGB">
<feFlood flood-opacity="0" result="BackgroundImageFix"/>
<feColorMatrix in="SourceAlpha" type="matrix" values="0 0 0 0 0 0 0 0 0 0 0 0 0 0 0 0 0 0 127 0" result="hardAlpha"/>
<feOffset dy="4.10595"/>
<feGaussianBlur stdDeviation="4.10595"/>
<feComposite in2="hardAlpha" operator="out"/>
<feColorMatrix type="matrix" values="0 0 0 0 0.343614 0 0 0 0 0.154931 0 0 0 0 0.808333 0 0 0 0.18 0"/>
<feBlend mode="normal" in2="BackgroundImageFix" result="effect1_dropShadow_6_708"/>
<feBlend mode="normal" in="SourceGraphic" in2="effect1_dropShadow_6_708" result="shape"/>
</filter>
<filter id="filter6_d_6_708" x="78.6992" y="1.81691" width="62.8723" height="62.872" filterUnits="userSpaceOnUse" color-interpolation-filters="sRGB">
<feFlood flood-opacity="0" result="BackgroundImageFix"/>
<feColorMatrix in="SourceAlpha" type="matrix" values="0 0 0 0 0 0 0 0 0 0 0 0 0 0 0 0 0 0 127 0" result="hardAlpha"/>
<feOffset dy="4.10595"/>
<feGaussianBlur stdDeviation="4.10595"/>
<feComposite in2="hardAlpha" operator="out"/>
<feColorMatrix type="matrix" values="0 0 0 0 0.343614 0 0 0 0 0.154931 0 0 0 0 0.808333 0 0 0 0.18 0"/>
<feBlend mode="normal" in2="BackgroundImageFix" result="effect1_dropShadow_6_708"/>
<feBlend mode="normal" in="SourceGraphic" in2="effect1_dropShadow_6_708" result="shape"/>
</filter>
<filter id="filter7_d_6_708" x="185.662" y="4.04249" width="46.5286" height="46.5283" filterUnits="userSpaceOnUse" color-interpolation-filters="sRGB">
<feFlood flood-opacity="0" result="BackgroundImageFix"/>
<feColorMatrix in="SourceAlpha" type="matrix" values="0 0 0 0 0 0 0 0 0 0 0 0 0 0 0 0 0 0 127 0" result="hardAlpha"/>
<feOffset dy="4.10595"/>
<feGaussianBlur stdDeviation="4.10595"/>
<feComposite in2="hardAlpha" operator="out"/>
<feColorMatrix type="matrix" values="0 0 0 0 0.343614 0 0 0 0 0.154931 0 0 0 0 0.808333 0 0 0 0.18 0"/>
<feBlend mode="normal" in2="BackgroundImageFix" result="effect1_dropShadow_6_708"/>
<feBlend mode="normal" in="SourceGraphic" in2="effect1_dropShadow_6_708" result="shape"/>
</filter>
<filter id="filter8_d_6_708" x="58.3607" y="96.938" width="46.5286" height="46.5283" filterUnits="userSpaceOnUse" color-interpolation-filters="sRGB">
<feFlood flood-opacity="0" result="BackgroundImageFix"/>
<feColorMatrix in="SourceAlpha" type="matrix" values="0 0 0 0 0 0 0 0 0 0 0 0 0 0 0 0 0 0 127 0" result="hardAlpha"/>
<feOffset dy="4.10595"/>
<feGaussianBlur stdDeviation="4.10595"/>
<feComposite in2="hardAlpha" operator="out"/>
<feColorMatrix type="matrix" values="0 0 0 0 0.343614 0 0 0 0 0.154931 0 0 0 0 0.808333 0 0 0 0.18 0"/>
<feBlend mode="normal" in2="BackgroundImageFix" result="effect1_dropShadow_6_708"/>
<feBlend mode="normal" in="SourceGraphic" in2="effect1_dropShadow_6_708" result="shape"/>
</filter>
<filter id="filter9_d_6_708" x="0.730825" y="46.189" width="62.8723" height="62.872" filterUnits="userSpaceOnUse" color-interpolation-filters="sRGB">
<feFlood flood-opacity="0" result="BackgroundImageFix"/>
<feColorMatrix in="SourceAlpha" type="matrix" values="0 0 0 0 0 0 0 0 0 0 0 0 0 0 0 0 0 0 127 0" result="hardAlpha"/>
<feOffset dy="4.10595"/>
<feGaussianBlur stdDeviation="4.10595"/>
<feComposite in2="hardAlpha" operator="out"/>
<feColorMatrix type="matrix" values="0 0 0 0 0.343614 0 0 0 0 0.154931 0 0 0 0 0.808333 0 0 0 0.18 0"/>
<feBlend mode="normal" in2="BackgroundImageFix" result="effect1_dropShadow_6_708"/>
<feBlend mode="normal" in="SourceGraphic" in2="effect1_dropShadow_6_708" result="shape"/>
</filter>
<filter id="filter10_d_6_708" x="100.077" y="35.2997" width="143.969" height="143.969" filterUnits="userSpaceOnUse" color-interpolation-filters="sRGB">
<feFlood flood-opacity="0" result="BackgroundImageFix"/>
<feColorMatrix in="SourceAlpha" type="matrix" values="0 0 0 0 0 0 0 0 0 0 0 0 0 0 0 0 0 0 127 0" result="hardAlpha"/>
<feOffset dy="6.32237"/>
<feGaussianBlur stdDeviation="6.32237"/>
<feComposite in2="hardAlpha" operator="out"/>
<feColorMatrix type="matrix" values="0 0 0 0 0.343614 0 0 0 0 0.154931 0 0 0 0 0.808333 0 0 0 0.18 0"/>
<feBlend mode="normal" in2="BackgroundImageFix" result="effect1_dropShadow_6_708"/>
<feBlend mode="normal" in="SourceGraphic" in2="effect1_dropShadow_6_708" result="shape"/>
</filter>
<linearGradient id="paint0_linear_6_708" x1="2956.16" y1="173.745" x2="1799.14" y2="1525.89" gradientUnits="userSpaceOnUse">
<stop offset="0.18" stop-color="#0052CC"/>
<stop offset="1" stop-color="#2684FF"/>
</linearGradient>
<linearGradient id="paint1_linear_6_708" x1="3029.25" y1="188.828" x2="1690.87" y2="1663.6" gradientUnits="userSpaceOnUse">
<stop offset="0.18" stop-color="#0052CC"/>
<stop offset="1" stop-color="#2684FF"/>
</linearGradient>
<linearGradient id="paint2_linear_6_708" x1="991.088" y1="168.503" x2="991.088" y2="1729.5" gradientUnits="userSpaceOnUse">
<stop stop-color="#0091E6"/>
<stop offset="1" stop-color="#0079BF"/>
</linearGradient>
<linearGradient id="paint3_linear_6_708" x1="140.602" y1="129.4" x2="203.734" y2="129.4" gradientUnits="userSpaceOnUse">
<stop stop-color="#8930FD"/>
<stop offset="1" stop-color="#49CCF9"/>
</linearGradient>
<linearGradient id="paint4_linear_6_708" x1="141.978" y1="87.2279" x2="202.468" y2="87.2279" gradientUnits="userSpaceOnUse">
<stop stop-color="#FF02F0"/>
<stop offset="1" stop-color="#FFC800"/>
</linearGradient>
<clipPath id="clip0_6_708">
<rect width="314.17" height="208.53" fill="white" transform="translate(0.101593 0.863281)"/>
</clipPath>
<clipPath id="clip1_6_708">
<rect width="314.17" height="208.53" fill="white" transform="translate(0.101593 0.863281)"/>
</clipPath>
<clipPath id="clip2_6_708">
<rect width="314.161" height="208.53" fill="white" transform="translate(0.10614 0.863281)"/>
</clipPath>
</defs>
</svg>
