<svg width="316" height="220" viewBox="0 0 316 220" fill="none" xmlns="http://www.w3.org/2000/svg">
<g clip-path="url(#clip0_6_636)">
<g clip-path="url(#clip1_6_636)">
<path d="M104.266 126.608C104.266 114.768 113.864 105.171 125.704 105.171C137.543 105.171 147.141 114.768 147.141 126.608" stroke="white" stroke-width="0.456632" stroke-dasharray="1.83 1.83"/>
<g filter="url(#filter0_d_6_636)">
<path d="M46.8917 206.222C59.7553 206.222 70.1833 195.794 70.1833 182.93C70.1833 170.067 59.7553 159.639 46.8917 159.639C34.0281 159.639 23.6001 170.067 23.6001 182.93C23.6001 195.794 34.0281 206.222 46.8917 206.222Z" fill="white"/>
</g>
<mask id="mask0_6_636" style="mask-type:luminance" maskUnits="userSpaceOnUse" x="33" y="169" width="26" height="27">
<path d="M58.1062 169.99H33.0892V195.007H58.1062V169.99Z" fill="white"/>
</mask>
<g mask="url(#mask0_6_636)">
<path d="M55.8329 172.671H45.0765C45.0765 173.959 45.5881 175.193 46.4986 176.104C47.4092 177.014 48.6443 177.527 49.932 177.527H51.9135V179.439C51.9153 182.119 54.0867 184.29 56.766 184.292V173.603C56.766 173.088 56.3483 172.671 55.8329 172.671Z" fill="#2684FF"/>
<path d="M50.5106 178.03H39.7543C39.756 180.71 41.9274 182.882 44.6068 182.883H46.5882V184.802C46.5916 187.482 48.7646 189.652 51.4438 189.652V178.964C51.4438 178.449 51.0259 178.03 50.5106 178.03Z" fill="url(#paint0_linear_6_636)"/>
<path d="M45.1854 183.387H34.429C34.429 186.068 36.603 188.242 39.2847 188.242H41.2723V190.155C41.274 192.832 43.4417 195.003 46.1186 195.007V184.319C46.1186 183.804 45.7008 183.387 45.1854 183.387Z" fill="url(#paint1_linear_6_636)"/>
</g>
<g filter="url(#filter1_d_6_636)">
<path d="M281.666 153.817C294.53 153.817 304.958 143.389 304.958 130.525C304.958 117.661 294.53 107.233 281.666 107.233C268.802 107.233 258.374 117.661 258.374 130.525C258.374 143.389 268.802 153.817 281.666 153.817Z" fill="white"/>
</g>
<path fill-rule="evenodd" clip-rule="evenodd" d="M288.811 130.921C285.773 130.921 283.311 133.384 283.311 136.421C283.311 139.459 285.773 141.921 288.811 141.921C291.848 141.921 294.31 139.459 294.31 136.421C294.31 133.384 291.848 130.921 288.811 130.921ZM274.522 130.922C271.485 130.922 269.022 133.384 269.022 136.421C269.022 139.459 271.485 141.921 274.522 141.921C277.559 141.921 280.022 139.459 280.022 136.421C280.022 133.384 277.559 130.922 274.522 130.922ZM287.166 124.047C287.166 127.084 284.704 129.546 281.666 129.546C278.629 129.546 276.166 127.084 276.166 124.047C276.166 121.009 278.629 118.547 281.666 118.547C284.704 118.547 287.166 121.009 287.166 124.047Z" fill="#F06A6A"/>
<g filter="url(#filter2_d_6_636)">
<path d="M282.865 80.3205C295.729 80.3205 306.157 69.8925 306.157 57.0289C306.157 44.1653 295.729 33.7373 282.865 33.7373C270.002 33.7373 259.574 44.1653 259.574 57.0289C259.574 69.8925 270.002 80.3205 282.865 80.3205Z" fill="white"/>
</g>
<path d="M273.9 63.8486C273.346 63.8498 272.803 63.7042 272.325 63.4266C271.847 63.149 271.45 62.7495 271.177 62.2687C270.908 61.7914 270.774 61.2498 270.789 60.702C270.804 60.1542 270.968 59.6208 271.263 59.159L276.87 50.3548C277.156 49.8817 277.564 49.4931 278.05 49.2289C278.536 48.9647 279.083 48.8342 279.637 48.8511C280.189 48.8643 280.729 49.0241 281.199 49.3143C281.67 49.6043 282.055 50.0143 282.315 50.502C282.838 51.4904 282.773 52.6794 282.146 53.6071L276.544 62.4113C276.26 62.854 275.869 63.2179 275.407 63.4692C274.944 63.7204 274.426 63.8509 273.9 63.8486Z" fill="#F62B54"/>
<path d="M283.516 63.8483C282.386 63.8483 281.346 63.2436 280.798 62.272C280.53 61.796 280.397 61.2558 280.411 60.7094C280.427 60.1631 280.59 59.6311 280.884 59.1705L286.48 50.3866C286.763 49.9067 287.168 49.5113 287.656 49.2412C288.143 48.9711 288.694 48.8363 289.25 48.8506C290.39 48.8756 291.424 49.5135 291.947 50.5112C292.465 51.5091 292.39 52.7052 291.745 53.6305L286.15 62.4145C285.867 62.8554 285.477 63.2178 285.017 63.4684C284.557 63.7189 284.041 63.8496 283.516 63.8483Z" fill="#FFCC00"/>
<path d="M292.918 63.9221C294.513 63.9221 295.805 62.657 295.805 61.0963C295.805 59.5356 294.513 58.2705 292.918 58.2705C291.325 58.2705 290.032 59.5356 290.032 61.0963C290.032 62.657 291.325 63.9221 292.918 63.9221Z" fill="#00CA72"/>
<g filter="url(#filter3_d_6_636)">
<path d="M219.854 201.047C228.191 201.047 234.95 194.288 234.95 185.951C234.95 177.613 228.191 170.854 219.854 170.854C211.516 170.854 204.757 177.613 204.757 185.951C204.757 194.288 211.516 201.047 219.854 201.047Z" fill="white"/>
</g>
<path d="M226.152 178.123H213.554C212.71 178.123 212.025 178.807 212.025 179.652V192.249C212.025 193.094 212.71 193.778 213.554 193.778H226.152C226.996 193.778 227.681 193.094 227.681 192.249V179.652C227.681 178.807 226.996 178.123 226.152 178.123Z" fill="url(#paint2_linear_6_636)"/>
<path d="M224.912 180.158H221.605C221.2 180.158 220.871 180.487 220.871 180.892V186.274C220.871 186.68 221.2 187.008 221.605 187.008H224.912C225.318 187.008 225.646 186.68 225.646 186.274V180.892C225.646 180.487 225.318 180.158 224.912 180.158Z" fill="white"/>
<path d="M218.101 180.158H214.794C214.389 180.158 214.06 180.487 214.06 180.892V190.188C214.06 190.593 214.389 190.922 214.794 190.922H218.101C218.507 190.922 218.835 190.593 218.835 190.188V180.892C218.835 180.487 218.507 180.158 218.101 180.158Z" fill="white"/>
<g filter="url(#filter4_d_6_636)">
<path d="M130.138 201.047C138.476 201.047 145.235 194.288 145.235 185.951C145.235 177.613 138.476 170.854 130.138 170.854C121.801 170.854 115.042 177.613 115.042 185.951C115.042 194.288 121.801 201.047 130.138 201.047Z" fill="white"/>
</g>
<path d="M125.649 185.887C125.649 185.887 126.401 184.71 127.426 184.71C128.976 184.664 130.252 187.675 130.48 188.099C132.211 183.958 135.083 180.452 137.406 178.123H123.051C123.051 179.558 123.051 194.028 123.051 195.228C123.051 195.886 122.983 196.498 122.869 197.134C124.737 196.804 126.583 196.334 128.36 195.674C132.713 194.004 134.421 192.239 134.421 192.239L134.536 192.122L134.604 192.263C134.877 192.969 135.287 193.604 135.697 194.239C136.29 195.016 136.609 195.086 136.837 195.016C137.087 194.945 137.224 194.498 137.293 193.816C137.36 193.11 137.406 191.581 137.406 189.675V179.44C133.237 184.97 130.115 193.251 130.115 193.251C130.115 193.251 128.041 185.863 125.649 185.887Z" fill="#003059"/>
<g filter="url(#filter5_d_6_636)">
<path d="M126.81 55.2609C139.674 55.2609 150.102 44.8329 150.102 31.9693C150.102 19.1057 139.674 8.67773 126.81 8.67773C113.947 8.67773 103.519 19.1057 103.519 31.9693C103.519 44.8329 113.947 55.2609 126.81 55.2609Z" fill="white"/>
</g>
<path d="M125.812 21.0363L115.841 25.1619C115.287 25.3913 115.293 26.179 115.85 26.4002L125.862 30.3704C126.742 30.7193 127.722 30.7193 128.601 30.3704L138.613 26.4C139.171 26.179 139.178 25.3915 138.623 25.1621L128.652 21.0362C127.743 20.6598 126.721 20.6598 125.811 21.0362" fill="#FCB400"/>
<path d="M128.121 32.5389V42.4574C128.121 42.929 128.597 43.2521 129.035 43.0783L140.192 38.748C140.316 38.6986 140.423 38.6131 140.497 38.5023C140.572 38.3916 140.613 38.2608 140.613 38.1269V28.2086C140.613 27.7369 140.137 27.4139 139.698 27.5877L128.542 31.918C128.418 31.9674 128.311 32.053 128.236 32.1637C128.161 32.2744 128.121 32.405 128.121 32.5389Z" fill="#18BFFF"/>
<path d="M125.515 33.0507L122.205 34.6493L121.868 34.8118L114.879 38.1607C114.436 38.3745 113.87 38.0516 113.87 37.5594V28.2503C113.87 28.0722 113.962 27.9185 114.084 27.8028C114.134 27.7528 114.192 27.7101 114.254 27.6758C114.42 27.5757 114.659 27.5489 114.861 27.629L125.46 31.8285C125.998 32.0422 126.041 32.7969 125.515 33.0507Z" fill="#F82B60"/>
<path d="M125.515 33.0507L122.204 34.6493L114.084 27.8027C114.134 27.7527 114.191 27.71 114.253 27.6758C114.42 27.5757 114.658 27.5489 114.861 27.629L125.46 31.8285C125.998 32.0422 126.04 32.7969 125.515 33.0507Z" fill="black" fill-opacity="0.25"/>
<g filter="url(#filter6_d_6_636)">
<path d="M209.451 42.0151C217.788 42.0151 224.547 35.2562 224.547 26.9187C224.547 18.5812 217.788 11.8223 209.451 11.8223C201.113 11.8223 194.354 18.5812 194.354 26.9187C194.354 35.2562 201.113 42.0151 209.451 42.0151Z" fill="white"/>
</g>
<path fill-rule="evenodd" clip-rule="evenodd" d="M204.662 21.417C205.164 21.8247 205.352 21.7935 206.294 21.7307L215.176 21.1973C215.364 21.1973 215.208 21.0094 215.145 20.9781L213.67 19.9117C213.387 19.6923 213.011 19.441 212.289 19.5039L203.688 20.1312C203.375 20.1622 203.312 20.3191 203.437 20.4448L204.662 21.417ZM205.195 23.487V32.8327C205.195 33.335 205.446 33.5228 206.01 33.4918L215.772 32.9269C216.338 32.8959 216.401 32.5504 216.401 32.1423V22.8594C216.401 22.4521 216.244 22.2324 215.898 22.2637L205.697 22.8594C205.321 22.8911 205.195 23.0794 205.195 23.487ZM214.832 23.9884C214.894 24.2708 214.832 24.5531 214.549 24.5849L214.078 24.6786V31.5782C213.67 31.7977 213.294 31.9232 212.98 31.9232C212.477 31.9232 212.351 31.7662 211.975 31.296L208.898 26.4663V31.1392L209.872 31.3588C209.872 31.3588 209.872 31.9232 209.086 31.9232L206.921 32.0487C206.858 31.9232 206.921 31.6098 207.141 31.547L207.706 31.3904V25.2119L206.921 25.149C206.859 24.8665 207.015 24.4591 207.455 24.4275L209.778 24.2709L212.98 29.1635V24.8354L212.163 24.7417C212.1 24.3963 212.351 24.1455 212.665 24.1145L214.832 23.9884ZM202.966 19.2844L211.912 18.6257C213.011 18.5314 213.294 18.5945 213.984 19.0961L216.84 21.1033C217.311 21.4484 217.468 21.5424 217.468 21.9186V32.9269C217.468 33.6168 217.216 34.0248 216.338 34.0872L205.948 34.7146C205.289 34.7461 204.975 34.6521 204.63 34.2127L202.526 31.4842C202.15 30.9819 201.993 30.6062 201.993 30.1667V20.3817C201.993 19.8176 202.245 19.3469 202.966 19.2844Z" fill="black"/>
<g filter="url(#filter7_d_6_636)">
<path d="M82.6919 140.662C91.0294 140.662 97.7883 133.903 97.7883 125.565C97.7883 117.228 91.0294 110.469 82.6919 110.469C74.3544 110.469 67.5955 117.228 67.5955 125.565C67.5955 133.903 74.3544 140.662 82.6919 140.662Z" fill="white"/>
</g>
<path d="M78.3766 116.898H87.566C89.5046 116.898 91.0786 118.473 91.0786 120.411V129.601C91.0786 131.539 89.5046 133.113 87.566 133.113H78.3766C76.4379 133.113 74.864 131.539 74.864 129.601V120.411C74.864 118.473 76.4379 116.898 78.3766 116.898Z" fill="#FFD02F"/>
<path d="M86.1313 118.923H84.351L85.8338 121.528L82.5707 118.923H80.7904L82.4219 122.109L79.0101 118.923H77.2297L79.0101 122.978L77.2297 131.088H79.0101L82.4219 122.397L80.7904 131.088H82.5707L85.8338 121.822L84.351 131.088H86.1313L89.3944 120.948L86.1313 118.923Z" fill="#050038"/>
<g filter="url(#filter8_d_6_636)">
<path d="M33.0893 106.154C45.9529 106.154 56.3809 95.7265 56.3809 82.8629C56.3809 69.9993 45.9529 59.5713 33.0893 59.5713C20.2257 59.5713 9.79767 69.9993 9.79767 82.8629C9.79767 95.7265 20.2257 106.154 33.0893 106.154Z" fill="white"/>
</g>
<path d="M25.7611 80.8867C27.0976 80.8867 27.7275 81.1104 28.6953 81.9909L33.8877 86.7154C34.0413 86.8553 34.072 86.9112 34.1028 86.995C34.1181 87.023 34.1181 87.0649 34.1181 87.0929C34.1181 87.1208 34.1181 87.1628 34.1028 87.1907C34.072 87.2746 34.0413 87.3305 33.8877 87.4703L30.339 90.7132C30.1854 90.8529 30.124 90.8808 30.0318 90.9089C30.001 90.9228 29.955 90.9228 29.9242 90.9228C29.8935 90.9228 29.8474 90.9228 29.8167 90.9089C29.7246 90.8808 29.6631 90.8529 29.5095 90.7132L19.4473 81.5576C19.1554 81.292 19.263 80.8867 19.7546 80.8867H25.7611Z" fill="#08CF65"/>
<path d="M40.417 75.1136C39.0805 75.1136 38.4507 75.3372 37.4829 76.2178L32.2904 80.9424C32.1368 81.0821 32.1061 81.1381 32.0753 81.2219C32.06 81.2499 32.06 81.2918 32.06 81.3198C32.06 81.3477 32.06 81.3896 32.0753 81.4177C32.1061 81.5015 32.1368 81.5574 32.2904 81.6972L35.8391 84.926C35.9927 85.0659 36.0542 85.0938 36.1463 85.1218C36.1771 85.1357 36.2231 85.1357 36.2539 85.1357C36.2846 85.1357 36.3307 85.1357 36.3614 85.1218C36.4536 85.0938 36.515 85.0659 36.6686 84.926L46.7309 75.7706C47.0227 75.505 46.9152 75.0996 46.4235 75.0996H40.417V75.1136Z" fill="#08CF65"/>
<g filter="url(#filter9_d_6_636)">
<path d="M168.094 154.464C192.153 154.464 211.658 134.96 211.658 110.9C211.658 86.8402 192.153 67.3359 168.094 67.3359C144.034 67.3359 124.53 86.8402 124.53 110.9C124.53 134.96 144.034 154.464 168.094 154.464Z" fill="white"/>
</g>
<path d="M145.066 124.582L153.618 117.991C158.163 123.957 162.99 126.706 168.364 126.706C173.709 126.706 178.4 123.99 182.74 118.071L191.414 124.503C185.153 133.037 177.372 137.546 168.364 137.546C159.384 137.546 151.528 133.066 145.066 124.582Z" fill="url(#paint3_linear_6_636)"/>
<path d="M168.336 95.9432L153.113 109.139L146.077 100.93L168.368 81.6055L190.485 100.943L183.415 109.124L168.336 95.9432Z" fill="url(#paint4_linear_6_636)"/>
<path fill-rule="evenodd" clip-rule="evenodd" d="M126.681 1.32031C126.377 1.32045 126.072 1.32506 125.769 1.33407L125.777 1.56228L125.789 2.01871L125.797 2.24693C126.093 2.23811 126.39 2.23365 126.688 2.23358C126.987 2.23365 127.283 2.23811 127.58 2.24693L127.587 2.01871L127.6 1.56228L127.607 1.33407C127.304 1.32506 127 1.32045 126.695 1.32031C126.691 1.32031 126.686 1.32031 126.681 1.32031ZM123.925 1.44406C123.309 1.49942 122.697 1.57309 122.092 1.66452L122.125 1.89028L122.194 2.3418L122.228 2.56756C122.815 2.47885 123.408 2.40738 124.007 2.35366L123.987 2.12626L123.945 1.67146L123.925 1.44406ZM120.272 1.99579C119.667 2.12513 119.069 2.27236 118.477 2.43692L118.538 2.65689L118.66 3.09681L118.722 3.31677C119.295 3.15716 119.876 3.01435 120.463 2.8889L120.416 2.66562L120.32 2.21907L120.272 1.99579ZM116.711 2.98635C116.128 3.18792 115.552 3.40667 114.984 3.64201L115.071 3.85291L115.247 4.27471L115.334 4.48561C115.884 4.25734 116.443 4.04517 117.01 3.84967L116.935 3.63384L116.786 3.20218L116.711 2.98635ZM113.3 4.40154C112.744 4.67228 112.198 4.95931 111.663 5.26201L111.775 5.46078L112 5.8583L112.112 6.05706C112.632 5.76341 113.161 5.48498 113.7 5.22235L113.599 5.01715L113.399 4.60675L113.3 4.40154ZM110.082 6.21967C109.564 6.55505 109.057 6.90563 108.562 7.2708L108.698 7.45459L108.969 7.82217L109.104 8.00597C109.584 7.65166 110.077 7.31151 110.579 6.98614L110.455 6.79451L110.206 6.41128L110.082 6.21967ZM107.108 8.41154C106.635 8.80642 106.173 9.21531 105.725 9.6376L105.882 9.80382L106.194 10.1362L106.351 10.3024C106.786 9.89271 107.234 9.49595 107.693 9.1128L107.547 8.93749L107.255 8.58686L107.108 8.41154ZM104.418 10.9444C103.996 11.3928 103.587 11.854 103.192 12.3273L103.368 12.4735L103.718 12.7662L103.894 12.9124C104.276 12.4531 104.674 12.0056 105.083 11.5705L104.917 11.414L104.584 11.1009L104.418 10.9444ZM102.052 13.7813C101.686 14.2769 101.336 14.7837 101.001 15.3014L101.192 15.4255L101.575 15.6738L101.767 15.7979C102.092 15.2957 102.433 14.8039 102.787 14.3232L102.602 14.1877L102.235 13.9169L102.052 13.7813ZM100.043 16.8822C99.7403 17.4178 99.4526 17.9634 99.1823 18.5183L99.3878 18.6184L99.7978 18.8186L100.003 18.9187C100.265 18.3803 100.544 17.8511 100.838 17.3316L100.639 17.2192L100.242 16.9946L100.043 16.8822ZM98.4225 20.2034C98.1878 20.7709 97.9686 21.347 97.7667 21.9312L97.9832 22.0056L98.4142 22.1546L98.6307 22.2291C98.8261 21.6625 99.038 21.1037 99.2663 20.5532L99.0554 20.4658L98.6334 20.2908L98.4225 20.2034ZM97.2179 23.696C97.0535 24.2875 96.9055 24.8862 96.7768 25.4915L96.9996 25.5392L97.4462 25.6346L97.6699 25.6823C97.7951 25.0952 97.9375 24.5145 98.0973 23.9408L97.8772 23.8797L97.438 23.7572L97.2179 23.696ZM96.4453 27.3106C96.3539 27.9163 96.2799 28.5278 96.2252 29.1445L96.4526 29.165L96.9074 29.2058L97.1348 29.2262C97.1877 28.6277 97.2599 28.0345 97.3485 27.4469L97.1229 27.4128L96.6708 27.3447L96.4453 27.3106ZM96.1147 30.9886C96.1055 31.2962 96.101 31.6049 96.101 31.9146C96.101 32.2244 96.1055 32.5331 96.1147 32.8407L96.343 32.8339L96.7996 32.8203L97.0279 32.8136C97.0188 32.515 97.0142 32.2154 97.0142 31.9146C97.0142 31.6139 97.0188 31.3143 97.0279 31.0157L96.7996 31.009L96.343 30.9954L96.1147 30.9886ZM96.2252 34.6848C96.2799 35.3015 96.3539 35.913 96.4453 36.5187L96.6708 36.4846L97.1229 36.4165L97.3485 36.3824C97.2599 35.7948 97.1877 35.2016 97.1348 34.6031L96.9074 34.6236L96.4526 34.6644L96.2252 34.6848ZM96.7768 38.3378C96.9055 38.9431 97.0535 39.5418 97.2179 40.1333L97.438 40.0721L97.8772 39.9496L98.0973 39.8884C97.9375 39.3148 97.7951 38.7341 97.6699 38.1469L97.4462 38.1947L96.9996 38.29L96.7768 38.3378ZM97.7667 41.8981C97.9686 42.4823 98.1878 43.0584 98.4225 43.6259L98.6334 43.5385L99.0554 43.3635L99.2663 43.2761C99.038 42.7256 98.8261 42.1668 98.6307 41.6002L98.4142 41.6747L97.9832 41.8236L97.7667 41.8981ZM99.1823 45.3109C99.4526 45.8659 99.7403 46.4115 100.043 46.947L100.242 46.8347L100.639 46.6101L100.838 46.4977C100.544 45.9782 100.265 45.4489 100.003 44.9106L99.7978 45.0107L99.3878 45.2108L99.1823 45.3109ZM101.001 48.5279C101.336 49.0455 101.686 49.5524 102.052 50.0479L102.235 49.9124L102.602 49.6415L102.787 49.5061C102.433 49.0254 102.092 48.5336 101.767 48.0314L101.575 48.1555L101.192 48.4038L101.001 48.5279ZM103.192 51.502C103.587 51.9753 103.996 52.4365 104.418 52.8849L104.584 52.7284L104.917 52.4153L105.083 52.2588C104.674 51.8237 104.276 51.3762 103.894 50.9169L103.718 51.0631L103.368 51.3557L103.192 51.502ZM105.725 54.1917C106.173 54.614 106.635 55.0229 107.108 55.4178L107.255 55.2424L107.547 54.8918L107.693 54.7165C107.234 54.3333 106.786 53.9365 106.351 53.5268L106.194 53.6931L105.882 54.0255L105.725 54.1917ZM108.562 56.5585C109.057 56.9236 109.564 57.2742 110.082 57.6096L110.206 57.418L110.455 57.0348L110.579 56.8432C110.077 56.5178 109.584 56.1776 109.104 55.8233L108.969 56.0071L108.698 56.3747L108.562 56.5585ZM111.663 58.5672C112.198 58.87 112.744 59.157 113.3 59.4277L113.399 59.2225L113.599 58.8122L113.7 58.607C113.161 58.3443 112.632 58.0659 112.112 57.7722L112 57.971L111.775 58.3685L111.663 58.5672ZM114.984 60.1873C115.552 60.4226 116.128 60.6413 116.711 60.8429L116.786 60.6271L116.935 60.1955L117.01 59.9796C116.443 59.7842 115.884 59.5719 115.334 59.3437L115.247 59.5546L115.071 59.9764L114.984 60.1873ZM118.477 61.3923C119.069 61.5569 119.667 61.7042 120.272 61.8335L120.32 61.6102L120.416 61.1636L120.463 60.9404C119.876 60.815 119.295 60.6721 118.722 60.5125L118.66 60.7325L118.538 61.1724L118.477 61.3923ZM122.092 62.1648C122.697 62.2562 123.309 62.3299 123.925 62.3852L123.945 62.1578L123.987 61.703L124.007 61.4756C123.408 61.4219 122.815 61.3504 122.228 61.2617L122.194 61.4875L122.125 61.939L122.092 62.1648ZM125.769 62.4952C126.077 62.5044 126.386 62.509 126.695 62.509V62.2807V61.824V61.5957C126.395 61.5957 126.095 61.5912 125.797 61.5824L125.789 61.8106L125.777 62.267L125.769 62.4952ZM131.149 2.56756C130.561 2.47885 129.968 2.40738 129.369 2.35366L129.39 2.12626L129.431 1.67146L129.452 1.44406C130.068 1.49942 130.68 1.57309 131.285 1.66452L131.252 1.89028L131.183 2.3418L131.149 2.56756ZM134.655 3.31677C134.081 3.15716 133.501 3.01434 132.914 2.8889L132.961 2.66562L133.056 2.21907L133.105 1.99579C133.709 2.12513 134.308 2.27236 134.9 2.43692L134.839 2.65689L134.716 3.09681L134.655 3.31677ZM138.043 4.48561C137.492 4.25734 136.933 4.04517 136.367 3.84967L136.441 3.63384L136.59 3.20218L136.664 2.98635C137.249 3.18792 137.825 3.40667 138.392 3.642L138.305 3.85291L138.13 4.27471L138.043 4.48561ZM141.265 6.05706C140.745 5.76341 140.215 5.48498 139.677 5.22235L139.777 5.01715L139.977 4.60675L140.077 4.40154C140.633 4.67228 141.178 4.95931 141.714 5.26201L141.602 5.46078L141.377 5.8583L141.265 6.05706ZM144.273 8.00596C143.792 7.65166 143.3 7.31151 142.798 6.98614L142.922 6.79451L143.171 6.41128L143.295 6.21967C143.812 6.55504 144.319 6.90563 144.814 7.2708L144.679 7.45458L144.408 7.82217L144.273 8.00596ZM147.025 10.3024C146.59 9.89271 146.142 9.49595 145.683 9.1128L145.83 8.93749L146.122 8.58686L146.268 8.41154C146.741 8.80642 147.203 9.21531 147.651 9.6376L147.495 9.80381L147.182 10.1362L147.025 10.3024ZM149.483 12.9124C149.099 12.4531 148.703 12.0056 148.293 11.5705L148.459 11.414L148.792 11.1009L148.958 10.9444C149.381 11.3928 149.789 11.854 150.184 12.3273L150.009 12.4735L149.658 12.7662L149.483 12.9124ZM151.61 15.7979C151.284 15.2957 150.944 14.8039 150.59 14.3232L150.773 14.1877L151.142 13.9169L151.325 13.7813C151.69 14.2769 152.041 14.7837 152.376 15.3014L152.184 15.4255L151.801 15.6738L151.61 15.7979ZM153.374 18.9187C153.111 18.3803 152.832 17.8511 152.539 17.3316L152.737 17.2192L153.135 16.9946L153.333 16.8822C153.637 17.4178 153.923 17.9634 154.195 18.5183L153.989 18.6184L153.579 18.8186L153.374 18.9187ZM154.746 22.2291C154.551 21.6625 154.339 21.1037 154.111 20.5532L154.321 20.4658L154.743 20.2908L154.953 20.2034C155.189 20.7709 155.408 21.347 155.609 21.9312L155.394 22.0056L154.962 22.1546L154.746 22.2291ZM155.707 25.6823C155.582 25.0952 155.438 24.5145 155.279 23.9408L155.499 23.8797L155.939 23.7572L156.159 23.696C156.323 24.2875 156.47 24.8862 156.6 25.4915L156.376 25.5392L155.93 25.6346L155.707 25.6823ZM156.242 29.2262C156.188 28.6277 156.117 28.0345 156.028 27.4469L156.254 27.4128L156.705 27.3447L156.932 27.3106C157.023 27.9163 157.096 28.5278 157.152 29.1445L156.924 29.1649L156.47 29.2058L156.242 29.2262ZM156.362 31.9146C156.362 31.6139 156.358 31.3143 156.349 31.0157L156.577 31.009L157.034 30.9954L157.261 30.9886C157.27 31.2962 157.275 31.6049 157.275 31.9146H157.047H156.59H156.362Z" fill="url(#paint5_linear_6_636)"/>
<path fill-rule="evenodd" clip-rule="evenodd" d="M17.1175 183.074C17.1087 183.372 17.1042 183.672 17.1042 183.972C17.1042 184.273 17.1087 184.572 17.1175 184.871L16.8893 184.878L16.4328 184.892L16.2047 184.898C16.1955 184.591 16.1909 184.282 16.1909 183.972C16.1909 183.663 16.1955 183.354 16.2046 183.046L16.4328 183.053L16.8893 183.066L17.1175 183.074ZM17.4382 179.505C17.3495 180.092 17.278 180.685 17.2243 181.284L16.9969 181.264L16.5421 181.222L16.3147 181.202C16.37 180.585 16.4437 179.974 16.5351 179.368L16.7609 179.402L17.2124 179.471L17.4382 179.505ZM18.1874 175.999C18.0278 176.572 17.8849 177.153 17.7594 177.74L17.5362 177.693L17.0897 177.597L16.8664 177.549C16.9957 176.944 17.143 176.345 17.3076 175.754L17.5275 175.815L17.9674 175.937L18.1874 175.999ZM19.3562 172.611C19.128 173.161 18.9157 173.72 18.7203 174.287L18.5044 174.212L18.0728 174.063L17.857 173.988C18.0585 173.405 18.2773 172.829 18.5126 172.261L18.7235 172.348L19.1453 172.524L19.3562 172.611ZM20.9277 169.389C20.634 169.909 20.3556 170.438 20.0929 170.977L19.8877 170.876L19.4773 170.676L19.2722 170.576C19.5429 170.021 19.8299 169.475 20.1326 168.94L20.3314 169.052L20.7289 169.277L20.9277 169.389ZM22.8766 166.381C22.5222 166.861 22.1821 167.354 21.8567 167.856L21.6651 167.732L21.2819 167.483L21.0903 167.359C21.4257 166.841 21.7763 166.334 22.1414 165.839L22.3252 165.975L22.6928 166.246L22.8766 166.381ZM25.173 163.628C24.7633 164.063 24.3665 164.511 23.9834 164.97L23.8081 164.824L23.4575 164.532L23.2821 164.385C23.677 163.912 24.0859 163.45 24.5082 163.002L24.6744 163.159L25.0068 163.471L25.173 163.628ZM27.783 161.171C27.3237 161.553 26.8762 161.951 26.4411 162.36L26.2846 162.194L25.9715 161.861L25.815 161.695C26.2634 161.273 26.7246 160.864 27.1979 160.469L27.3442 160.645L27.6367 160.995L27.783 161.171ZM30.6685 159.044C30.1663 159.369 29.6745 159.71 29.1938 160.064L29.0583 159.879L28.7875 159.512L28.6519 159.329C29.1475 158.963 29.6543 158.613 30.172 158.278L30.2961 158.468L30.5444 158.852L30.6685 159.044ZM33.7893 157.28C33.251 157.542 32.7217 157.821 32.2022 158.115L32.0898 157.916L31.8652 157.519L31.7527 157.32C32.2884 157.017 32.834 156.73 33.3889 156.459L33.489 156.665L33.6892 157.075L33.7893 157.28ZM37.0996 155.908C36.533 156.103 35.9743 156.315 35.4238 156.543L35.3364 156.332L35.1614 155.91L35.074 155.699C35.6415 155.465 36.2176 155.246 36.8018 155.044L36.8762 155.26L37.0252 155.691L37.0996 155.908ZM40.553 154.947C39.9658 155.072 39.3851 155.215 38.8115 155.374L38.7502 155.154L38.6278 154.715L38.5666 154.495C39.1581 154.33 39.7568 154.183 40.3621 154.054L40.4098 154.277L40.5052 154.723L40.553 154.947ZM44.0968 154.411C43.4983 154.465 42.9051 154.537 42.3175 154.625L42.2834 154.399L42.2153 153.948L42.1811 153.722C42.7869 153.631 43.3984 153.557 44.0151 153.501L44.0355 153.729L44.0763 154.183L44.0968 154.411ZM46.7852 154.291C46.4845 154.291 46.1849 154.296 45.8863 154.305L45.8796 154.077L45.866 153.62L45.8592 153.392C46.1668 153.382 46.4755 153.378 46.7852 153.378V153.606V154.063V154.291ZM16.3147 186.742C16.37 187.36 16.4437 187.971 16.5351 188.576L16.7609 188.542L17.2124 188.474L17.4382 188.44C17.3495 187.853 17.278 187.259 17.2243 186.661L16.9969 186.681L16.5421 186.722L16.3147 186.742ZM16.8664 190.395C16.9957 191.001 17.143 191.6 17.3076 192.191L17.5275 192.13L17.9674 192.007L18.1874 191.946C18.0278 191.372 17.8849 190.792 17.7595 190.204L17.5362 190.252L17.0897 190.348L16.8664 190.395ZM17.857 193.956C18.0585 194.54 18.2773 195.116 18.5126 195.684L18.7235 195.596L19.1453 195.421L19.3562 195.333C19.128 194.783 18.9157 194.225 18.7203 193.657L18.5044 193.732L18.0728 193.881L17.857 193.956ZM19.2722 197.369C19.5429 197.923 19.8299 198.469 20.1327 199.005L20.3314 198.892L20.7289 198.668L20.9277 198.555C20.634 198.036 20.3556 197.507 20.0929 196.968L19.8877 197.068L19.4774 197.268L19.2722 197.369ZM21.0903 200.585C21.4257 201.103 21.7763 201.61 22.1414 202.105L22.3252 201.97L22.6928 201.699L22.8766 201.564C22.5223 201.083 22.1821 200.591 21.8567 200.089L21.6651 200.213L21.2819 200.461L21.0903 200.585ZM23.2821 203.56C23.677 204.033 24.0859 204.494 24.5082 204.943L24.6744 204.786L25.0068 204.473L25.173 204.316C24.7633 203.881 24.3665 203.434 23.9834 202.975L23.8081 203.121L23.4575 203.413L23.2821 203.56ZM25.815 206.25C26.2634 206.671 26.7246 207.081 27.1979 207.475L27.3442 207.3L27.6367 206.949L27.783 206.774C27.3237 206.391 26.8762 205.994 26.4411 205.585L26.2846 205.751L25.9715 206.083L25.815 206.25ZM28.6519 208.616C29.1475 208.981 29.6543 209.332 30.172 209.667L30.2961 209.476L30.5444 209.092L30.6685 208.901C30.1663 208.576 29.6745 208.235 29.1938 207.881L29.0583 208.065L28.7875 208.432L28.6519 208.616ZM31.7528 210.625C32.2884 210.927 32.834 211.215 33.3889 211.485L33.489 211.28L33.6892 210.87L33.7893 210.664C33.251 210.402 32.7217 210.124 32.2022 209.829L32.0898 210.029L31.8652 210.426L31.7528 210.625ZM35.074 212.245C35.6415 212.48 36.2176 212.699 36.8018 212.901L36.8762 212.684L37.0252 212.253L37.0996 212.037C36.5331 211.841 35.9743 211.63 35.4238 211.401L35.3364 211.612L35.1614 212.034L35.074 212.245ZM38.5666 213.45C39.1581 213.615 39.7568 213.762 40.3621 213.891L40.4098 213.668L40.5052 213.221L40.553 212.998C39.9658 212.872 39.3851 212.73 38.8115 212.57L38.7503 212.79L38.6278 213.23L38.5666 213.45ZM42.1812 214.222C42.7869 214.314 43.3984 214.388 44.0151 214.443L44.0355 214.216L44.0763 213.761L44.0968 213.534C43.4983 213.48 42.9051 213.408 42.3175 213.319L42.2834 213.546L42.2153 213.997L42.1812 214.222ZM45.8592 214.553C46.1668 214.562 46.4755 214.567 46.7852 214.567C47.095 214.567 47.4037 214.562 47.7113 214.553L47.7045 214.325L47.6909 213.868L47.6842 213.64C47.3856 213.649 47.086 213.653 46.7852 213.653C46.4845 213.653 46.1849 213.649 45.8863 213.64L45.8796 213.868L45.866 214.325L45.8592 214.553ZM49.5554 214.443C50.1721 214.388 50.7836 214.314 51.3893 214.222L51.3552 213.997L51.2871 213.546L51.253 213.319C50.6654 213.408 50.0722 213.48 49.4737 213.534L49.4941 213.761L49.535 214.216L49.5554 214.443ZM53.2084 213.891C53.8137 213.762 54.4124 213.615 55.0039 213.45L54.9427 213.23L54.8202 212.79L54.759 212.57C54.1854 212.73 53.6047 212.872 53.0175 212.998L53.0653 213.221L53.1607 213.668L53.2084 213.891ZM56.7687 212.901C57.3529 212.699 57.929 212.48 58.4965 212.245L58.4091 212.034L58.2341 211.612L58.1467 211.401C57.5962 211.63 57.0374 211.841 56.4708 212.037L56.5453 212.253L56.6942 212.684L56.7687 212.901ZM60.1815 211.485C60.7365 211.215 61.2821 210.927 61.8177 210.625L61.7053 210.426L61.4807 210.029L61.3683 209.829C60.8488 210.124 60.3195 210.402 59.7812 210.664L59.8813 210.87L60.0815 211.28L60.1815 211.485ZM63.3985 209.667C63.9162 209.332 64.423 208.981 64.9186 208.616L64.783 208.432L64.5121 208.065L64.3767 207.881C63.896 208.235 63.4042 208.576 62.902 208.901L63.0261 209.092L63.2744 209.476L63.3985 209.667ZM66.3726 207.475C66.8459 207.081 67.3071 206.671 67.7555 206.25L67.599 206.083L67.2859 205.751L67.1294 205.585C66.6943 205.994 66.2468 206.391 65.7875 206.774L65.9337 206.949L66.2264 207.3L66.3726 207.475ZM69.0623 204.943C69.4846 204.494 69.8935 204.033 70.2884 203.56L70.113 203.413L69.7624 203.121L69.5871 202.975C69.2039 203.434 68.8071 203.881 68.3974 204.316L68.5637 204.473L68.8961 204.786L69.0623 204.943ZM71.4291 202.105C71.7942 201.61 72.1448 201.103 72.4802 200.585L72.2886 200.461L71.9054 200.213L71.7138 200.089C71.3884 200.591 71.0482 201.083 70.6939 201.564L70.8777 201.699L71.2453 201.97L71.4291 202.105ZM73.4378 199.005C73.7406 198.469 74.0276 197.923 74.2983 197.369L74.0931 197.268L73.6828 197.068L73.4776 196.968C73.2149 197.507 72.9365 198.036 72.6428 198.555L72.8416 198.668L73.2391 198.892L73.4378 199.005ZM75.0579 195.684C75.2932 195.116 75.512 194.54 75.7135 193.956L75.4977 193.881L75.066 193.732L74.8502 193.657C74.6547 194.225 74.4425 194.783 74.2143 195.333L74.4252 195.421L74.847 195.596L75.0579 195.684ZM76.2629 192.191C76.4275 191.6 76.5747 191.001 76.7041 190.395L76.4808 190.348L76.0342 190.252L75.811 190.204C75.6856 190.792 75.5427 191.372 75.3831 191.946L75.6031 192.007L76.043 192.13L76.2629 192.191ZM77.0354 188.576C77.1268 187.971 77.2005 187.36 77.2558 186.742L77.0284 186.722L76.5736 186.681L76.3462 186.661C76.2925 187.259 76.221 187.853 76.1323 188.44L76.3581 188.474L76.8096 188.542L77.0354 188.576ZM77.3658 184.898C77.375 184.591 77.3796 184.282 77.3796 183.972H77.1513H76.6946H76.4663C76.4663 184.273 76.4618 184.572 76.453 184.871L76.6812 184.878L77.1377 184.892L77.3658 184.898Z" fill="url(#paint6_linear_6_636)"/>
<path d="M76.9225 183.973C76.9225 167.328 90.4157 153.835 107.06 153.835" stroke="white" stroke-width="0.456632" stroke-dasharray="1.83 1.83"/>
<path d="M137.198 123.697C137.198 140.341 123.704 153.835 107.06 153.835" stroke="white" stroke-width="0.456632" stroke-dasharray="1.83 1.83"/>
<path fill-rule="evenodd" clip-rule="evenodd" d="M7.06415 66.2732C7.05473 66.2878 7.04531 66.3024 7.03593 66.317L7.22802 66.4404L7.6122 66.6872L7.8043 66.8106C7.96573 66.5593 8.13142 66.3096 8.30141 66.0616L8.23532 66.0163C8.24601 66.0003 8.2567 65.9844 8.26741 65.9684L8.07789 65.8411L7.69885 65.5865L7.50933 65.4592C7.33773 65.7145 7.16937 65.9733 7.00434 66.2355L7.06415 66.2732ZM10.44 63.1189C10.0519 63.569 9.67535 64.033 9.31109 64.5108L9.12952 64.3724L8.76638 64.0956L8.5848 63.9571C8.96022 63.4647 9.34834 62.9864 9.74839 62.5226L9.92129 62.6716L10.2671 62.9699L10.44 63.1189ZM12.9419 60.551C12.5012 60.9515 12.0709 61.3668 11.652 61.7969L11.4884 61.6375L11.1614 61.3189L10.9978 61.1595C11.4297 60.7162 11.8733 60.288 12.3276 59.8751L12.4812 60.0441L12.7883 60.382L12.9419 60.551ZM15.7357 58.3068C15.2493 58.6511 14.772 59.0109 14.3048 59.3862L14.1617 59.2082L13.8758 58.8522L13.7328 58.6743C14.2146 58.2873 14.7067 57.9162 15.2082 57.5614L15.34 57.7477L15.6038 58.1204L15.7357 58.3068ZM18.7818 56.4176C18.2566 56.7008 17.739 57.0003 17.2299 57.316L17.1096 57.1221L16.8689 56.7339L16.7486 56.54C17.2734 56.2145 17.8069 55.9057 18.3484 55.6137L18.4568 55.8146L18.6735 56.2166L18.7818 56.4176ZM22.0339 54.9099C21.4779 55.128 20.9281 55.3629 20.3852 55.6146L20.2891 55.4075L20.097 54.9932L20.0011 54.786C20.5606 54.5267 21.1274 54.2845 21.7004 54.0597L21.7837 54.2722L21.9505 54.6974L22.0339 54.9099ZM25.4438 53.8037C24.8653 53.9537 24.2911 54.121 23.7221 54.3056L23.6517 54.0884L23.5108 53.654L23.4404 53.4369C24.0267 53.2466 24.6184 53.0742 25.2147 52.9197L25.272 53.1407L25.3866 53.5827L25.4438 53.8037ZM28.9618 53.1142C28.3691 53.1938 27.779 53.2912 27.1925 53.4061L27.1485 53.1821L27.0607 52.7339L27.0167 52.5099C27.6212 52.3915 28.2294 52.2911 28.8403 52.2091L28.8707 52.4354L28.9315 52.8879L28.9618 53.1142ZM32.5368 52.8516C31.9384 52.8595 31.341 52.8853 30.7454 52.9291L30.7287 52.7014L30.6953 52.246L30.6786 52.0183C31.2924 51.9732 31.9081 51.9465 32.5249 51.9385L32.5278 52.1668L32.5338 52.6234L32.5368 52.8516ZM36.1175 53.0216C35.522 52.957 34.9257 52.9107 34.3296 52.8824L34.3404 52.6544L34.362 52.1983L34.3729 51.9702C34.9873 51.9993 35.602 52.0471 36.216 52.1136L36.1913 52.3407L36.1421 52.7946L36.1175 53.0216ZM39.6503 53.6234C39.0666 53.487 38.4807 53.3689 37.8932 53.2688L37.9315 53.0438L38.0082 52.5937L38.0466 52.3685C38.6522 52.4717 39.2563 52.5935 39.8581 52.7341L39.8061 52.9565L39.7022 53.4011L39.6503 53.6234ZM43.0845 54.65C42.5208 54.4434 41.9533 54.2549 41.3827 54.0844L41.4481 53.8656L41.5789 53.4281L41.6443 53.2094C42.2325 53.3852 42.8177 53.5795 43.3988 53.7925L43.3202 54.0069L43.1631 54.4356L43.0845 54.65ZM46.3687 56.085C45.8337 55.8116 45.2935 55.5561 44.749 55.3181L44.8405 55.1089L45.0233 54.6905L45.1147 54.4813C45.676 54.7266 46.2328 54.99 46.7842 55.2717L46.6803 55.475L46.4726 55.8817L46.3687 56.085ZM48.7079 57.4156C48.4534 57.2554 48.1974 57.0995 47.9401 56.948L48.0559 56.7513L48.2876 56.3578L48.4034 56.161C48.6686 56.3171 48.9323 56.4777 49.1944 56.6427L49.0728 56.8359L48.8296 57.2223L48.7079 57.4156ZM6.0843 67.9004C5.78137 68.4404 5.49648 68.9866 5.22953 69.5379L5.43502 69.6373L5.84601 69.8363L6.05151 69.9359C6.31047 69.401 6.58686 68.8712 6.88082 68.3472L6.68169 68.2355L6.28343 68.0121L6.0843 67.9004ZM4.47457 71.2257C4.23911 71.7981 4.02216 72.3752 3.82358 72.9561L4.03963 73.03L4.47171 73.1777L4.68775 73.2516C4.88036 72.6881 5.09078 72.1284 5.31917 71.5731L5.10803 71.4862L4.68572 71.3125L4.47457 71.2257ZM3.27924 74.7226C3.11532 75.3184 2.97011 75.9173 2.84346 76.5185L3.06687 76.5655L3.5137 76.6597L3.73711 76.7067C3.85996 76.1236 4.00079 75.5428 4.15978 74.9649L3.93965 74.9043L3.49938 74.7831L3.27924 74.7226ZM2.51755 78.3378C2.42717 78.9487 2.35555 79.5611 2.30254 80.1739L2.53 80.1936L2.98493 80.2329L3.2124 80.2527C3.26384 79.658 3.33331 79.064 3.42098 78.4715L3.19513 78.4381L2.74341 78.3713L2.51755 78.3378ZM2.19897 82.0193C2.18302 82.6359 2.18571 83.2522 2.20689 83.8673L2.43507 83.8594L2.89143 83.8437L3.11961 83.8359C3.09907 83.239 3.09645 82.6411 3.11192 82.0429L2.88369 82.037L2.4272 82.0252L2.19897 82.0193ZM2.32601 85.7116C2.38421 86.3252 2.46083 86.9368 2.5557 87.5454L2.7813 87.5103L3.23247 87.44L3.45807 87.4048C3.366 86.8142 3.29166 86.2208 3.23519 85.6254L3.00789 85.6469L2.5533 85.6901L2.32601 85.7116ZM2.89503 89.3621C3.02626 89.9639 3.17558 90.562 3.34282 91.1552L3.56256 91.0933L4.00207 90.9694L4.22182 90.9074C4.05955 90.3317 3.91466 89.7515 3.78734 89.1676L3.56426 89.2162L3.11811 89.3134L2.89503 89.3621ZM3.8975 92.9184C4.0998 93.4993 4.31976 94.0756 4.55722 94.6445L4.76794 94.5568L5.18937 94.3806L5.4001 94.2929C5.16972 93.7404 4.95631 93.1824 4.76002 92.618L4.54439 92.6929L4.11313 92.8426L3.8975 92.9184ZM5.31995 96.3277C5.59064 96.8802 5.87846 97.4254 6.18328 97.9624L6.38184 97.8501L6.77897 97.6245L6.97753 97.5122C6.68186 96.9907 6.40265 96.4619 6.14005 95.9258L5.93502 96.0263L5.52498 96.2272L5.31995 96.3277ZM7.14396 99.5414C7.47909 100.057 7.8307 100.562 8.19865 101.059L8.38208 100.923L8.74894 100.651L8.93237 100.515C8.5755 100.034 8.23445 99.5433 7.90939 99.0437L7.71803 99.1679L7.33532 99.4172L7.14396 99.5414ZM9.34393 102.51C9.73884 102.98 10.1495 103.44 10.5757 103.889L10.7413 103.731L11.0723 103.417L11.2379 103.26C10.8245 102.825 10.4262 102.378 10.0432 101.922L9.86838 102.069L9.51875 102.363L9.34393 102.51ZM11.8891 105.19C12.337 105.608 12.7998 106.015 13.2773 106.409L13.4226 106.233L13.7134 105.88L13.8588 105.704C13.3955 105.322 12.9465 104.928 12.5119 104.522L12.3562 104.689L12.0448 105.023L11.8891 105.19ZM14.7363 107.542C14.9849 107.723 15.2369 107.901 15.4925 108.077C15.748 108.252 16.0053 108.422 16.2642 108.589L16.3875 108.396L16.6344 108.013L16.7578 107.82C16.5064 107.659 16.2568 107.493 16.0087 107.323C15.7606 107.153 15.5159 106.98 15.2747 106.804L15.1401 106.988L14.8709 107.357L14.7363 107.542ZM17.8476 109.541C18.3876 109.843 18.9337 110.128 19.4851 110.396L19.5845 110.19L19.7835 109.778L19.8831 109.573C19.3482 109.314 18.8184 109.038 18.2943 108.743L18.1827 108.943L17.9593 109.342L17.8476 109.541ZM21.1729 111.15C21.7453 111.386 22.3224 111.603 22.9033 111.801L22.9772 111.585L23.1249 111.153L23.1988 110.937C22.6353 110.744 22.0755 110.533 21.5203 110.305L21.4334 110.517L21.2597 110.939L21.1729 111.15ZM24.6697 112.345C25.2656 112.51 25.8645 112.655 26.4657 112.781L26.5127 112.558L26.6069 112.111L26.6539 111.888C26.0708 111.765 25.4899 111.624 24.912 111.465L24.8515 111.685L24.7303 112.125L24.6697 112.345ZM28.285 113.107C28.8959 113.197 29.5082 113.269 30.1211 113.322L30.1407 113.094L30.1801 112.639L30.1998 112.412C29.6052 112.361 29.0112 112.292 28.4187 112.204L28.3853 112.429L28.3184 112.881L28.285 113.107ZM31.9665 113.426C32.5831 113.441 33.1994 113.439 33.8144 113.418L33.8066 113.189L33.7909 112.734L33.783 112.505C33.1862 112.525 32.5883 112.528 31.99 112.513L31.9842 112.741L31.9724 113.197L31.9665 113.426ZM35.6588 113.299C36.2724 113.24 36.884 113.164 37.4926 113.069L37.4574 112.843L37.3871 112.392L37.352 112.166C36.7614 112.259 36.1679 112.333 35.5726 112.389L35.5941 112.617L35.6372 113.071L35.6588 113.299ZM39.3093 112.73C39.9111 112.598 40.5091 112.45 41.1024 112.281L41.0405 112.062L40.9165 111.623L40.8546 111.403C40.2789 111.565 39.6987 111.71 39.1147 111.838L39.1633 112.06L39.2606 112.506L39.3093 112.73ZM42.8652 111.727C43.4465 111.525 44.0223 111.305 44.5916 111.068L44.5036 110.857L44.3278 110.435L44.24 110.225C43.6876 110.455 43.1291 110.669 42.5651 110.865L42.6401 111.081L42.7903 111.512L42.8652 111.727ZM46.2751 110.305C46.8275 110.034 47.3728 109.746 47.9098 109.441L47.7971 109.243L47.5717 108.846L47.459 108.647C46.938 108.943 46.4092 109.222 45.8733 109.485L45.9737 109.69L46.1746 110.1L46.2751 110.305ZM49.4888 108.48C50.0037 108.145 50.5098 107.794 51.0063 107.426L50.8704 107.243L50.5985 106.876L50.4625 106.692C49.9809 107.049 49.4901 107.39 48.9906 107.715L49.1152 107.907L49.3642 108.29L49.4888 108.48ZM52.4571 106.28C52.9271 105.886 53.387 105.475 53.8359 105.049L53.6787 104.883L53.3642 104.553L53.207 104.386C52.7716 104.8 52.3256 105.198 51.8697 105.582L52.0165 105.756L52.3102 106.106L52.4571 106.28ZM55.1374 103.736C55.5552 103.288 55.9616 102.825 56.3559 102.347L56.1798 102.202L55.8277 101.911L55.6517 101.766C55.2691 102.229 54.8748 102.678 54.4695 103.112L54.6365 103.268L54.9704 103.58L55.1374 103.736ZM57.489 100.888C57.6703 100.64 57.8487 100.388 58.0238 100.132L57.8355 100.004L57.4587 99.7451L57.2704 99.6163C57.1005 99.8638 56.9273 100.109 56.7512 100.35L56.9357 100.485L57.3046 100.753L57.489 100.888Z" fill="url(#paint7_linear_6_636)"/>
<path fill-rule="evenodd" clip-rule="evenodd" d="M311.347 131.132C311.347 131.137 311.347 131.142 311.347 131.146H311.575H311.817L312.018 131.152L312.247 131.159C312.247 131.155 312.247 131.151 312.247 131.146H312.26C312.26 130.994 312.259 130.842 312.257 130.689C312.259 130.538 312.26 130.385 312.26 130.233H312.247C312.247 130.229 312.247 130.225 312.247 130.22L312.018 130.227L311.817 130.233H311.575H311.347C311.347 130.237 311.347 130.242 311.347 130.247H311.333C311.338 130.394 311.342 130.542 311.343 130.689C311.342 130.837 311.338 130.984 311.333 131.132H311.347ZM311.013 126.678C311.101 127.267 311.174 127.859 311.227 128.457L311.455 128.437L311.91 128.396L312.137 128.376C312.081 127.76 312.007 127.148 311.916 126.542L311.691 126.576L311.239 126.645L311.013 126.678ZM310.264 123.172C310.424 123.746 310.566 124.327 310.692 124.914L310.915 124.866L311.362 124.771L311.585 124.723C311.456 124.118 311.309 123.519 311.143 122.928L310.924 122.989L310.484 123.111L310.264 123.172ZM309.095 119.785C309.323 120.336 309.535 120.894 309.731 121.461L309.947 121.386L310.378 121.237L310.595 121.163C310.393 120.579 310.175 120.002 309.939 119.435L309.728 119.522L309.306 119.697L309.095 119.785ZM307.523 116.563C307.817 117.083 308.096 117.612 308.358 118.15L308.564 118.05L308.974 117.85L309.179 117.75C308.909 117.195 308.621 116.65 308.319 116.114L308.12 116.226L307.722 116.451L307.523 116.563ZM305.574 113.555C305.929 114.035 306.269 114.527 306.595 115.03L306.786 114.906L307.17 114.657L307.361 114.533C307.026 114.015 306.675 113.508 306.31 113.013L306.126 113.148L305.759 113.42L305.574 113.555ZM303.278 110.802C303.689 111.237 304.085 111.684 304.468 112.144L304.643 111.998L304.994 111.705L305.169 111.559C304.774 111.085 304.365 110.624 303.943 110.176L303.777 110.333L303.445 110.646L303.278 110.802ZM300.668 108.345C301.128 108.727 301.575 109.125 302.01 109.534L302.167 109.367L302.48 109.035L302.636 108.869C302.188 108.447 301.727 108.038 301.254 107.643L301.108 107.819L300.814 108.169L300.668 108.345ZM297.782 106.218C298.285 106.543 298.777 106.883 299.257 107.238L299.393 107.054L299.664 106.686L299.8 106.503C299.304 106.137 298.797 105.787 298.279 105.451L298.155 105.643L297.907 106.026L297.782 106.218ZM294.662 104.454C295.201 104.716 295.729 104.995 296.249 105.289L296.361 105.09L296.586 104.692L296.698 104.493C296.163 104.191 295.617 103.904 295.063 103.633L294.962 103.839L294.762 104.249L294.662 104.454ZM291.352 103.082C291.918 103.277 292.477 103.489 293.028 103.717L293.115 103.506L293.29 103.084L293.378 102.873C292.81 102.639 292.233 102.419 291.65 102.218L291.575 102.434L291.426 102.866L291.352 103.082ZM287.898 102.121C288.485 102.246 289.066 102.389 289.64 102.548L289.701 102.328L289.823 101.889L289.885 101.669C289.294 101.504 288.695 101.356 288.089 101.228L288.042 101.45L287.947 101.897L287.898 102.121ZM284.355 101.586C284.953 101.639 285.547 101.711 286.134 101.799L286.168 101.574L286.236 101.122L286.27 100.896C285.664 100.805 285.053 100.731 284.436 100.676L284.416 100.903L284.375 101.358L284.355 101.586ZM281.666 101.465C281.967 101.465 282.266 101.47 282.565 101.479L282.572 101.25L282.586 100.794L282.592 100.565C282.284 100.556 281.976 100.552 281.666 100.552V100.78V101.237V101.465ZM312.137 133.003C312.081 133.62 312.007 134.231 311.916 134.838L311.691 134.803L311.239 134.735L311.013 134.701C311.101 134.113 311.174 133.52 311.227 132.921L311.455 132.942L311.91 132.983L312.137 133.003ZM311.585 136.656C311.456 137.261 311.309 137.86 311.143 138.451L310.924 138.39L310.484 138.268L310.264 138.207C310.424 137.633 310.566 137.052 310.692 136.465L310.915 136.513L311.362 136.608L311.585 136.656ZM310.595 140.217C310.393 140.801 310.175 141.376 309.939 141.945L309.728 141.857L309.306 141.682L309.095 141.595C309.323 141.044 309.535 140.485 309.731 139.919L309.947 139.993L310.378 140.142L310.595 140.217ZM309.179 143.629C308.909 144.185 308.621 144.73 308.319 145.265L308.12 145.153L307.722 144.928L307.523 144.816C307.817 144.296 308.096 143.767 308.358 143.229L308.564 143.329L308.974 143.529L309.179 143.629ZM307.361 146.846C307.026 147.364 306.675 147.871 306.31 148.367L306.126 148.231L305.759 147.96L305.574 147.824C305.929 147.344 306.269 146.852 306.595 146.35L306.786 146.474L307.17 146.722L307.361 146.846ZM305.169 149.821C304.774 150.294 304.365 150.755 303.943 151.203L303.777 151.047L303.445 150.734L303.278 150.578C303.689 150.142 304.085 149.694 304.468 149.235L304.643 149.381L304.994 149.674L305.169 149.821ZM302.636 152.51C302.188 152.932 301.727 153.341 301.254 153.737L301.108 153.561L300.814 153.211L300.668 153.035C301.128 152.652 301.575 152.255 302.01 151.845L302.167 152.011L302.48 152.344L302.636 152.51ZM299.8 154.877C299.304 155.242 298.797 155.592 298.279 155.928L298.155 155.737L297.907 155.353L297.782 155.161C298.285 154.836 298.777 154.496 299.257 154.142L299.393 154.326L299.664 154.693L299.8 154.877ZM296.698 156.886C296.163 157.189 295.617 157.475 295.063 157.746L294.962 157.541L294.762 157.13L294.662 156.926C295.201 156.663 295.729 156.384 296.249 156.091L296.361 156.289L296.586 156.687L296.698 156.886ZM293.378 158.506C292.81 158.741 292.233 158.96 291.65 159.161L291.575 158.946L291.426 158.514L291.352 158.298C291.918 158.103 292.477 157.89 293.028 157.662L293.115 157.873L293.29 158.295L293.378 158.506ZM289.885 159.711C289.294 159.876 288.695 160.023 288.089 160.152L288.042 159.929L287.947 159.482L287.898 159.259C288.485 159.133 289.066 158.991 289.64 158.831L289.701 159.051L289.823 159.491L289.885 159.711ZM286.27 160.483C285.664 160.574 285.053 160.648 284.436 160.704L284.416 160.476L284.375 160.022L284.355 159.794C284.953 159.74 285.547 159.669 286.134 159.581L286.168 159.806L286.236 160.257L286.27 160.483ZM282.592 160.813C282.284 160.823 281.976 160.827 281.666 160.827C281.356 160.827 281.048 160.823 280.74 160.813L280.746 160.585L280.76 160.129L280.767 159.901C281.066 159.909 281.366 159.914 281.666 159.914C281.967 159.914 282.266 159.909 282.565 159.901L282.572 160.129L282.586 160.585L282.592 160.813ZM278.896 160.704C278.28 160.648 277.668 160.574 277.062 160.483L277.096 160.257L277.165 159.806L277.198 159.581C277.786 159.669 278.379 159.74 278.977 159.794L278.957 160.022L278.916 160.476L278.896 160.704ZM275.243 160.152C274.638 160.023 274.039 159.876 273.448 159.711L273.509 159.491L273.631 159.051L273.692 158.831C274.266 158.991 274.847 159.133 275.434 159.259L275.386 159.482L275.291 159.929L275.243 160.152ZM271.682 159.161C271.099 158.96 270.522 158.741 269.955 158.506L270.042 158.295L270.217 157.873L270.305 157.662C270.855 157.89 271.414 158.103 271.981 158.298L271.906 158.514L271.757 158.946L271.682 159.161ZM268.269 157.746C267.715 157.475 267.169 157.189 266.634 156.886L266.746 156.687L266.971 156.289L267.083 156.091C267.603 156.384 268.132 156.663 268.67 156.926L268.57 157.13L268.37 157.541L268.269 157.746ZM265.053 155.928C264.535 155.592 264.028 155.242 263.533 154.877L263.668 154.693L263.94 154.326L264.075 154.142C264.555 154.496 265.047 154.836 265.55 155.161L265.425 155.353L265.177 155.737L265.053 155.928ZM262.078 153.737C261.605 153.341 261.144 152.932 260.696 152.51L260.853 152.344L261.165 152.011L261.322 151.845C261.757 152.255 262.204 152.652 262.664 153.035L262.518 153.211L262.225 153.561L262.078 153.737ZM259.389 151.203C258.967 150.755 258.558 150.294 258.163 149.821L258.339 149.674L258.689 149.381L258.865 149.235C259.247 149.694 259.645 150.142 260.054 150.578L259.887 150.734L259.555 151.047L259.389 151.203ZM257.023 148.367C256.657 147.871 256.307 147.364 255.971 146.846L256.163 146.722L256.546 146.474L256.738 146.35C257.063 146.852 257.403 147.344 257.758 147.824L257.573 147.96L257.206 148.231L257.023 148.367ZM255.013 145.265C254.711 144.73 254.423 144.185 254.153 143.629L254.359 143.529L254.769 143.329L254.974 143.229C255.236 143.767 255.515 144.296 255.809 144.816L255.61 144.928L255.212 145.153L255.013 145.265ZM253.393 141.945C253.159 141.376 252.939 140.801 252.738 140.217L252.954 140.142L253.385 139.993L253.601 139.919C253.797 140.485 254.009 141.044 254.237 141.595L254.026 141.682L253.604 141.857L253.393 141.945ZM252.189 138.451C252.024 137.86 251.876 137.261 251.748 136.656L251.97 136.608L252.417 136.513L252.641 136.465C252.766 137.052 252.908 137.633 253.068 138.207L252.848 138.268L252.409 138.39L252.189 138.451ZM251.416 134.838C251.325 134.231 251.251 133.62 251.196 133.003L251.423 132.983L251.878 132.942L252.106 132.921C252.159 133.52 252.231 134.113 252.319 134.701L252.094 134.735L251.642 134.803L251.416 134.838ZM251.085 131.159C251.076 130.851 251.072 130.542 251.072 130.233H251.3H251.757H251.985C251.985 130.534 251.99 130.834 251.999 131.132L251.77 131.139L251.314 131.152L251.085 131.159Z" fill="url(#paint8_linear_6_636)"/>
<path d="M251.528 131.175C251.528 114.53 238.035 101.037 221.391 101.037C204.746 101.037 192.166 113.616 192.166 130.262" stroke="white" stroke-width="0.456632" stroke-dasharray="1.83 1.83"/>
<path fill-rule="evenodd" clip-rule="evenodd" d="M308.65 41.9397C308.729 42.0712 308.806 42.2035 308.883 42.3366L309.081 42.2225L309.477 41.9942L309.674 41.88C309.52 41.6118 309.361 41.3468 309.199 41.0849L309.006 41.2049L308.852 41.2994C308.761 41.1616 308.669 41.0244 308.574 40.8876L308.386 41.0166L308.01 41.2747L307.821 41.4037C307.991 41.6519 308.157 41.9016 308.319 42.1529L308.511 42.0294L308.65 41.9397ZM306.361 38.6345C306.731 39.0989 307.09 39.577 307.436 40.0685L307.622 39.937L307.995 39.6743L308.182 39.5429C307.826 39.0365 307.457 38.5438 307.074 38.0649L306.896 38.2073L306.539 38.4921L306.361 38.6345ZM303.959 35.9727C304.384 36.3897 304.797 36.8213 305.2 37.2669L305.369 37.1141L305.709 36.8081L305.878 36.6551C305.463 36.1956 305.036 35.7507 304.598 35.3208L304.438 35.4838L304.119 35.8097L303.959 35.9727ZM301.253 33.6234C301.725 33.9859 302.189 34.3639 302.641 34.7567L302.791 34.5843L303.09 34.2396L303.24 34.0671C302.773 33.662 302.296 33.2724 301.808 32.8986L301.669 33.0798L301.392 33.4422L301.253 33.6234ZM298.281 31.6191C298.794 31.9222 299.3 32.2413 299.797 32.5763L299.925 32.387L300.18 32.0085L300.308 31.8191C299.796 31.4738 299.275 31.1449 298.744 30.8324L298.628 31.0291L298.397 31.4224L298.281 31.6191ZM295.088 29.9882C295.636 30.2274 296.176 30.4832 296.709 30.7555L296.813 30.5522L297.021 30.1455L297.125 29.9422C296.575 29.6615 296.018 29.3979 295.455 29.1514L295.363 29.3606L295.181 29.779L295.088 29.9882ZM291.724 28.7526C292.296 28.9245 292.864 29.1137 293.424 29.3198L293.504 29.1055L293.661 28.6769L293.739 28.4625C293.161 28.2501 292.576 28.0551 291.986 27.8779L291.92 28.0966L291.79 28.5339L291.724 28.7526ZM288.234 27.9291C288.823 28.0313 289.41 28.1511 289.991 28.2885L290.043 28.0663L290.148 27.6218L290.201 27.3996C289.601 27.2581 288.998 27.1345 288.39 27.0292L288.351 27.2542L288.274 27.7042L288.234 27.9291ZM284.673 27.5301C285.27 27.5608 285.865 27.6094 286.459 27.6759L286.484 27.4491L286.536 26.9953L286.561 26.7683C285.949 26.6998 285.335 26.6497 284.719 26.6181L284.707 26.846L284.684 27.3021L284.673 27.5301ZM281.087 27.5631C281.685 27.5213 282.283 27.4978 282.88 27.4924L282.877 27.264L282.873 26.8074L282.871 26.5791C282.256 26.5848 281.64 26.609 281.024 26.652L281.04 26.8797L281.072 27.3353L281.087 27.5631ZM277.534 28.0295C278.123 27.9155 278.713 27.8198 279.303 27.7422L279.274 27.5158L279.215 27.0631L279.185 26.8367C278.576 26.9167 277.967 27.0153 277.361 27.1328L277.404 27.357L277.491 27.8052L277.534 28.0295ZM274.063 28.924C274.635 28.7391 275.209 28.5724 275.786 28.4238L275.729 28.2027L275.615 27.7605L275.557 27.5394C274.963 27.6926 274.371 27.8645 273.782 28.0551L273.852 28.2724L273.993 28.7068L274.063 28.924ZM270.727 30.2324C271.272 29.9797 271.821 29.7449 272.375 29.528L272.291 29.3154L272.124 28.8903L272.041 28.6778C271.47 28.9014 270.904 29.1435 270.343 29.4038L270.438 29.611L270.63 30.0253L270.727 30.2324ZM268.338 31.4726C268.599 31.3223 268.86 31.1763 269.123 31.0347L269.016 30.8337L268.799 30.4316L268.69 30.2306C268.42 30.3765 268.15 30.5269 267.881 30.6818L267.995 30.8795L268.224 31.2749L268.338 31.4726ZM310.038 43.2426C310.342 43.7827 310.627 44.3287 310.893 44.8801L310.688 44.9796L310.277 45.1786L310.071 45.2781C309.812 44.7433 309.536 44.2134 309.242 43.6894L309.441 43.5777L309.839 43.3543L310.038 43.2426ZM311.649 46.568C311.883 47.1404 312.101 47.7175 312.299 48.2984L312.083 48.3722L311.651 48.52L311.435 48.5938C311.242 48.0304 311.032 47.4706 310.804 46.9154L311.015 46.8285L311.437 46.6548L311.649 46.568ZM312.843 50.0649C313.007 50.6607 313.153 51.2596 313.28 51.8607L313.056 51.9078L312.609 52.0019L312.386 52.049C312.263 51.4659 312.122 50.885 311.963 50.3071L312.183 50.2465L312.623 50.1254L312.843 50.0649ZM313.606 53.6801C313.695 54.291 313.767 54.9032 313.82 55.5161L313.593 55.5359L313.138 55.5752L312.911 55.5949C312.859 55.0003 312.789 54.4063 312.702 53.8137L312.928 53.7803L313.379 53.7134L313.606 53.6801ZM313.923 57.3615C313.94 57.9781 313.937 58.5944 313.916 59.2096L313.688 59.2017L313.231 59.186L313.003 59.1781C313.024 58.5813 313.027 57.9833 313.011 57.3851L313.239 57.3792L313.695 57.3674L313.923 57.3615ZM313.797 61.0538C313.739 61.6675 313.662 62.279 313.567 62.8876L313.342 62.8525L312.891 62.7822L312.665 62.747C312.756 62.1565 312.831 61.563 312.888 60.9676L313.115 60.9891L313.569 61.0322L313.797 61.0538ZM313.228 64.7043C313.097 65.3061 312.947 65.9041 312.78 66.4974L312.56 66.4355L312.121 66.3115L311.901 66.2496C312.063 65.674 312.208 65.0937 312.335 64.5098L312.558 64.5584L313.005 64.6557L313.228 64.7043ZM312.226 68.2604C312.023 68.8417 311.803 69.4174 311.565 69.9866L311.354 69.8988L310.933 69.723L310.722 69.635C310.953 69.0828 311.166 68.5242 311.363 67.9602L311.578 68.0352L312.009 68.1853L312.226 68.2604ZM310.803 71.6702C310.533 72.2226 310.244 72.7678 309.94 73.3049L309.741 73.1922L309.343 72.9668L309.145 72.8541C309.441 72.3331 309.72 71.8043 309.983 71.2683L310.187 71.3688L310.597 71.5698L310.803 71.6702ZM308.979 74.8839C308.644 75.3988 308.292 75.9049 307.924 76.4014L307.741 76.2654L307.374 75.9935L307.19 75.8575C307.547 75.3761 307.889 74.8852 308.214 74.3857L308.405 74.5102L308.787 74.7593L308.979 74.8839ZM306.779 77.8522C306.384 78.3222 305.974 78.7821 305.547 79.2309L305.382 79.0738L305.05 78.7593L304.885 78.6021C305.299 78.1667 305.697 77.7207 306.079 77.2648L306.255 77.4116L306.604 77.7053L306.779 77.8522ZM304.234 80.5324C303.785 80.9502 303.323 81.3567 302.846 81.751L302.7 81.5749L302.409 81.2229L302.264 81.0468C302.727 80.6642 303.176 80.2699 303.611 79.8646L303.766 80.0315L304.078 80.3655L304.234 80.5324ZM301.386 82.8841C301.138 83.0655 300.886 83.2437 300.63 83.4189C300.375 83.594 300.118 83.7646 299.858 83.931L299.735 83.7389L299.488 83.3547L299.365 83.1626C299.616 83.0012 299.866 82.8355 300.114 82.6654C300.362 82.4955 300.607 82.3224 300.848 82.1464L300.983 82.3307L301.252 82.6996L301.386 82.8841ZM298.276 84.8826C297.735 85.1855 297.189 85.4704 296.638 85.7374L296.539 85.5318L296.339 85.1208L296.24 84.9154C296.774 84.6565 297.305 84.38 297.828 84.086L297.94 84.2852L298.163 84.6835L298.276 84.8826ZM294.949 86.4923C294.378 86.7277 293.801 86.9447 293.22 87.1433L293.146 86.9273L292.998 86.4952L292.924 86.2791C293.487 86.0865 294.047 85.8761 294.602 85.6477L294.689 85.8589L294.863 86.2811L294.949 86.4923ZM291.453 87.6877C290.857 87.8516 290.258 87.9968 289.657 88.1234L289.61 87.9L289.516 87.4531L289.469 87.2298C290.052 87.1069 290.633 86.9661 291.211 86.8071L291.271 87.0272L291.392 87.4675L291.453 87.6877ZM287.838 88.4493C287.227 88.5397 286.614 88.6113 286.001 88.6643L285.982 88.4369L285.943 87.9819L285.923 87.7545C286.517 87.703 287.112 87.6336 287.704 87.5459L287.737 87.7718L287.804 88.2235L287.838 88.4493ZM284.157 88.7679C283.54 88.7839 282.924 88.7812 282.308 88.76L282.316 88.5318L282.332 88.0754L282.34 87.8473C282.936 87.8679 283.535 87.8704 284.133 87.855L284.138 88.0832L284.15 88.5397L284.157 88.7679ZM280.464 88.6408C279.851 88.5827 279.239 88.506 278.63 88.4112L278.665 88.1856L278.735 87.7344L278.771 87.5088C279.361 87.6009 279.955 87.6752 280.55 87.7317L280.529 87.959L280.485 88.4136L280.464 88.6408ZM276.814 88.0719C276.212 87.9406 275.614 87.7913 275.02 87.6241L275.082 87.4043L275.207 86.9648L275.268 86.7451C275.844 86.9074 276.424 87.0522 277.008 87.1795L276.959 87.4026L276.862 87.8488L276.814 88.0719ZM273.258 87.0694C272.676 86.8671 272.101 86.6471 271.532 86.4096L271.619 86.199L271.795 85.7775L271.883 85.5668C272.435 85.7972 272.994 86.0106 273.557 86.2069L273.482 86.4225L273.333 86.8538L273.258 87.0694ZM269.848 85.647C269.295 85.3763 268.75 85.0884 268.213 84.7836L268.326 84.585L268.551 84.1879L268.664 83.9893C269.185 84.285 269.713 84.5642 270.249 84.8269L270.149 85.0319L269.948 85.442L269.848 85.647ZM266.634 83.8229C266.119 83.4878 265.613 83.1361 265.117 82.7682L265.252 82.5848L265.524 82.218L265.66 82.0345C266.142 82.3914 266.633 82.7324 267.132 83.0575L267.007 83.2488L266.759 83.6316L266.634 83.8229ZM263.666 81.623C263.195 81.2281 262.736 80.8174 262.287 80.3911L262.444 80.2257L262.759 79.8945L262.916 79.7289C263.352 80.1424 263.797 80.5406 264.253 80.9237L264.106 81.0985L263.813 81.4482L263.666 81.623ZM260.985 79.0779C260.568 78.6298 260.161 78.1671 259.767 77.6896L259.943 77.5442L260.295 77.2534L260.471 77.1081C260.854 77.5714 261.248 78.0204 261.653 78.4549L261.487 78.6106L261.152 78.9222L260.985 79.0779ZM258.634 76.2306C258.453 75.982 258.274 75.7299 258.099 75.4744L258.287 75.3454L258.664 75.0873L258.853 74.9582C259.023 75.2063 259.195 75.4509 259.371 75.6922L259.187 75.8268L258.818 76.096L258.634 76.2306Z" fill="url(#paint9_linear_6_636)"/>
<path d="M104.217 126.175C104.217 138.014 94.6187 147.613 82.7798 147.613C70.9403 147.613 61.3426 138.014 61.3426 126.175" stroke="url(#paint10_linear_6_636)" stroke-width="0.456632" stroke-dasharray="1.83 1.83"/>
<path d="M198.333 186.45C198.333 198.29 207.93 207.888 219.77 207.888C231.609 207.888 241.207 198.29 241.207 186.45" stroke="url(#paint11_linear_6_636)" stroke-width="0.456632" stroke-dasharray="1.83 1.83"/>
<path d="M150.794 187.363C150.794 199.203 141.195 208.801 129.357 208.801C117.517 208.801 107.919 199.203 107.919 187.363" stroke="url(#paint12_linear_6_636)" stroke-width="0.456632" stroke-dasharray="1.83 1.83"/>
<path d="M188.287 26.1481C188.287 14.3087 197.884 4.71094 209.724 4.71094C221.563 4.71094 231.161 14.3087 231.161 26.1481" stroke="url(#paint13_linear_6_636)" stroke-width="0.456632" stroke-dasharray="1.83 1.83"/>
<path d="M150.843 187.796C150.843 161.765 171.946 140.661 197.978 140.661" stroke="white" stroke-width="0.456632" stroke-dasharray="1.83 1.83"/>
<path d="M197.978 187.796C197.978 161.765 176.875 140.661 150.844 140.661" stroke="white" stroke-width="0.456632" stroke-dasharray="1.83 1.83"/>
<path d="M143.123 84.4252C173.608 84.4252 185.133 54.2875 188.287 25.5215" stroke="white" stroke-width="0.456632" stroke-dasharray="1.83 1.83"/>
<path d="M125.782 62.0518C142.426 62.0518 155.92 75.5449 155.92 92.1895" stroke="white" stroke-width="0.456632" stroke-dasharray="1.83 1.83"/>
<path d="M57.1313 100.627C74.7459 74.9203 109.865 68.3604 135.571 85.975" stroke="white" stroke-width="0.456632" stroke-dasharray="1.83 1.83"/>
<path d="M180.214 67.6993C204.604 48.3026 239.852 52.0379 258.942 76.0424" stroke="white" stroke-width="0.456632" stroke-dasharray="1.83 1.83"/>
</g>
</g>
<defs>
<filter id="filter0_d_6_636" x="15.3636" y="155.52" width="63.0562" height="63.056" filterUnits="userSpaceOnUse" color-interpolation-filters="sRGB">
<feFlood flood-opacity="0" result="BackgroundImageFix"/>
<feColorMatrix in="SourceAlpha" type="matrix" values="0 0 0 0 0 0 0 0 0 0 0 0 0 0 0 0 0 0 127 0" result="hardAlpha"/>
<feOffset dy="4.11825"/>
<feGaussianBlur stdDeviation="4.11825"/>
<feComposite in2="hardAlpha" operator="out"/>
<feColorMatrix type="matrix" values="0 0 0 0 0.343614 0 0 0 0 0.154931 0 0 0 0 0.808333 0 0 0 0.18 0"/>
<feBlend mode="normal" in2="BackgroundImageFix" result="effect1_dropShadow_6_636"/>
<feBlend mode="normal" in="SourceGraphic" in2="effect1_dropShadow_6_636" result="shape"/>
</filter>
<filter id="filter1_d_6_636" x="250.138" y="103.115" width="63.0562" height="63.056" filterUnits="userSpaceOnUse" color-interpolation-filters="sRGB">
<feFlood flood-opacity="0" result="BackgroundImageFix"/>
<feColorMatrix in="SourceAlpha" type="matrix" values="0 0 0 0 0 0 0 0 0 0 0 0 0 0 0 0 0 0 127 0" result="hardAlpha"/>
<feOffset dy="4.11825"/>
<feGaussianBlur stdDeviation="4.11825"/>
<feComposite in2="hardAlpha" operator="out"/>
<feColorMatrix type="matrix" values="0 0 0 0 0.343614 0 0 0 0 0.154931 0 0 0 0 0.808333 0 0 0 0.18 0"/>
<feBlend mode="normal" in2="BackgroundImageFix" result="effect1_dropShadow_6_636"/>
<feBlend mode="normal" in="SourceGraphic" in2="effect1_dropShadow_6_636" result="shape"/>
</filter>
<filter id="filter2_d_6_636" x="251.337" y="29.6191" width="63.0562" height="63.056" filterUnits="userSpaceOnUse" color-interpolation-filters="sRGB">
<feFlood flood-opacity="0" result="BackgroundImageFix"/>
<feColorMatrix in="SourceAlpha" type="matrix" values="0 0 0 0 0 0 0 0 0 0 0 0 0 0 0 0 0 0 127 0" result="hardAlpha"/>
<feOffset dy="4.11825"/>
<feGaussianBlur stdDeviation="4.11825"/>
<feComposite in2="hardAlpha" operator="out"/>
<feColorMatrix type="matrix" values="0 0 0 0 0.343614 0 0 0 0 0.154931 0 0 0 0 0.808333 0 0 0 0.18 0"/>
<feBlend mode="normal" in2="BackgroundImageFix" result="effect1_dropShadow_6_636"/>
<feBlend mode="normal" in="SourceGraphic" in2="effect1_dropShadow_6_636" result="shape"/>
</filter>
<filter id="filter3_d_6_636" x="196.521" y="166.736" width="46.6659" height="46.6654" filterUnits="userSpaceOnUse" color-interpolation-filters="sRGB">
<feFlood flood-opacity="0" result="BackgroundImageFix"/>
<feColorMatrix in="SourceAlpha" type="matrix" values="0 0 0 0 0 0 0 0 0 0 0 0 0 0 0 0 0 0 127 0" result="hardAlpha"/>
<feOffset dy="4.11825"/>
<feGaussianBlur stdDeviation="4.11825"/>
<feComposite in2="hardAlpha" operator="out"/>
<feColorMatrix type="matrix" values="0 0 0 0 0.343614 0 0 0 0 0.154931 0 0 0 0 0.808333 0 0 0 0.18 0"/>
<feBlend mode="normal" in2="BackgroundImageFix" result="effect1_dropShadow_6_636"/>
<feBlend mode="normal" in="SourceGraphic" in2="effect1_dropShadow_6_636" result="shape"/>
</filter>
<filter id="filter4_d_6_636" x="106.805" y="166.736" width="46.6659" height="46.6654" filterUnits="userSpaceOnUse" color-interpolation-filters="sRGB">
<feFlood flood-opacity="0" result="BackgroundImageFix"/>
<feColorMatrix in="SourceAlpha" type="matrix" values="0 0 0 0 0 0 0 0 0 0 0 0 0 0 0 0 0 0 127 0" result="hardAlpha"/>
<feOffset dy="4.11825"/>
<feGaussianBlur stdDeviation="4.11825"/>
<feComposite in2="hardAlpha" operator="out"/>
<feColorMatrix type="matrix" values="0 0 0 0 0.343614 0 0 0 0 0.154931 0 0 0 0 0.808333 0 0 0 0.18 0"/>
<feBlend mode="normal" in2="BackgroundImageFix" result="effect1_dropShadow_6_636"/>
<feBlend mode="normal" in="SourceGraphic" in2="effect1_dropShadow_6_636" result="shape"/>
</filter>
<filter id="filter5_d_6_636" x="95.2823" y="4.55948" width="63.0562" height="63.056" filterUnits="userSpaceOnUse" color-interpolation-filters="sRGB">
<feFlood flood-opacity="0" result="BackgroundImageFix"/>
<feColorMatrix in="SourceAlpha" type="matrix" values="0 0 0 0 0 0 0 0 0 0 0 0 0 0 0 0 0 0 127 0" result="hardAlpha"/>
<feOffset dy="4.11825"/>
<feGaussianBlur stdDeviation="4.11825"/>
<feComposite in2="hardAlpha" operator="out"/>
<feColorMatrix type="matrix" values="0 0 0 0 0.343614 0 0 0 0 0.154931 0 0 0 0 0.808333 0 0 0 0.18 0"/>
<feBlend mode="normal" in2="BackgroundImageFix" result="effect1_dropShadow_6_636"/>
<feBlend mode="normal" in="SourceGraphic" in2="effect1_dropShadow_6_636" result="shape"/>
</filter>
<filter id="filter6_d_6_636" x="186.118" y="7.70401" width="46.6659" height="46.6654" filterUnits="userSpaceOnUse" color-interpolation-filters="sRGB">
<feFlood flood-opacity="0" result="BackgroundImageFix"/>
<feColorMatrix in="SourceAlpha" type="matrix" values="0 0 0 0 0 0 0 0 0 0 0 0 0 0 0 0 0 0 127 0" result="hardAlpha"/>
<feOffset dy="4.11825"/>
<feGaussianBlur stdDeviation="4.11825"/>
<feComposite in2="hardAlpha" operator="out"/>
<feColorMatrix type="matrix" values="0 0 0 0 0.343614 0 0 0 0 0.154931 0 0 0 0 0.808333 0 0 0 0.18 0"/>
<feBlend mode="normal" in2="BackgroundImageFix" result="effect1_dropShadow_6_636"/>
<feBlend mode="normal" in="SourceGraphic" in2="effect1_dropShadow_6_636" result="shape"/>
</filter>
<filter id="filter7_d_6_636" x="59.359" y="106.35" width="46.6659" height="46.6654" filterUnits="userSpaceOnUse" color-interpolation-filters="sRGB">
<feFlood flood-opacity="0" result="BackgroundImageFix"/>
<feColorMatrix in="SourceAlpha" type="matrix" values="0 0 0 0 0 0 0 0 0 0 0 0 0 0 0 0 0 0 127 0" result="hardAlpha"/>
<feOffset dy="4.11825"/>
<feGaussianBlur stdDeviation="4.11825"/>
<feComposite in2="hardAlpha" operator="out"/>
<feColorMatrix type="matrix" values="0 0 0 0 0.343614 0 0 0 0 0.154931 0 0 0 0 0.808333 0 0 0 0.18 0"/>
<feBlend mode="normal" in2="BackgroundImageFix" result="effect1_dropShadow_6_636"/>
<feBlend mode="normal" in="SourceGraphic" in2="effect1_dropShadow_6_636" result="shape"/>
</filter>
<filter id="filter8_d_6_636" x="1.56116" y="55.453" width="63.0562" height="63.056" filterUnits="userSpaceOnUse" color-interpolation-filters="sRGB">
<feFlood flood-opacity="0" result="BackgroundImageFix"/>
<feColorMatrix in="SourceAlpha" type="matrix" values="0 0 0 0 0 0 0 0 0 0 0 0 0 0 0 0 0 0 127 0" result="hardAlpha"/>
<feOffset dy="4.11825"/>
<feGaussianBlur stdDeviation="4.11825"/>
<feComposite in2="hardAlpha" operator="out"/>
<feColorMatrix type="matrix" values="0 0 0 0 0.343614 0 0 0 0 0.154931 0 0 0 0 0.808333 0 0 0 0.18 0"/>
<feBlend mode="normal" in2="BackgroundImageFix" result="effect1_dropShadow_6_636"/>
<feBlend mode="normal" in="SourceGraphic" in2="effect1_dropShadow_6_636" result="shape"/>
</filter>
<filter id="filter9_d_6_636" x="115.161" y="62.6516" width="105.865" height="105.865" filterUnits="userSpaceOnUse" color-interpolation-filters="sRGB">
<feFlood flood-opacity="0" result="BackgroundImageFix"/>
<feColorMatrix in="SourceAlpha" type="matrix" values="0 0 0 0 0 0 0 0 0 0 0 0 0 0 0 0 0 0 127 0" result="hardAlpha"/>
<feOffset dy="4.68429"/>
<feGaussianBlur stdDeviation="4.68429"/>
<feComposite in2="hardAlpha" operator="out"/>
<feColorMatrix type="matrix" values="0 0 0 0 0.343614 0 0 0 0 0.154931 0 0 0 0 0.808333 0 0 0 0.18 0"/>
<feBlend mode="normal" in2="BackgroundImageFix" result="effect1_dropShadow_6_636"/>
<feBlend mode="normal" in="SourceGraphic" in2="effect1_dropShadow_6_636" result="shape"/>
</filter>
<linearGradient id="paint0_linear_6_636" x1="2965.6" y1="183.381" x2="1805.2" y2="1539.47" gradientUnits="userSpaceOnUse">
<stop offset="0.18" stop-color="#0052CC"/>
<stop offset="1" stop-color="#2684FF"/>
</linearGradient>
<linearGradient id="paint1_linear_6_636" x1="3038.91" y1="198.507" x2="1696.63" y2="1677.58" gradientUnits="userSpaceOnUse">
<stop offset="0.18" stop-color="#0052CC"/>
<stop offset="1" stop-color="#2684FF"/>
</linearGradient>
<linearGradient id="paint2_linear_6_636" x1="994.804" y1="178.123" x2="994.804" y2="1743.67" gradientUnits="userSpaceOnUse">
<stop stop-color="#0091E6"/>
<stop offset="1" stop-color="#0079BF"/>
</linearGradient>
<linearGradient id="paint3_linear_6_636" x1="145.066" y1="131.291" x2="191.414" y2="131.291" gradientUnits="userSpaceOnUse">
<stop stop-color="#8930FD"/>
<stop offset="1" stop-color="#49CCF9"/>
</linearGradient>
<linearGradient id="paint4_linear_6_636" x1="146.077" y1="100.33" x2="190.485" y2="100.33" gradientUnits="userSpaceOnUse">
<stop stop-color="#FF02F0"/>
<stop offset="1" stop-color="#FFC800"/>
</linearGradient>
<linearGradient id="paint5_linear_6_636" x1="126.239" y1="11.821" x2="157.28" y2="10.1926" gradientUnits="userSpaceOnUse">
<stop stop-color="white"/>
<stop offset="0.984848" stop-color="white" stop-opacity="0"/>
</linearGradient>
<linearGradient id="paint6_linear_6_636" x1="28.2801" y1="189.222" x2="29.413" y2="154.638" gradientUnits="userSpaceOnUse">
<stop stop-color="white"/>
<stop offset="0.984848" stop-color="white" stop-opacity="0"/>
</linearGradient>
<linearGradient id="paint7_linear_6_636" x1="30.1061" y1="82.6873" x2="41.1019" y2="51.6413" gradientUnits="userSpaceOnUse">
<stop stop-color="white"/>
<stop offset="0.984848" stop-color="white" stop-opacity="0"/>
</linearGradient>
<linearGradient id="paint8_linear_6_636" x1="244.582" y1="130.689" x2="259.758" y2="90.6119" gradientUnits="userSpaceOnUse">
<stop stop-color="white"/>
<stop offset="0.984848" stop-color="white" stop-opacity="0"/>
</linearGradient>
<linearGradient id="paint9_linear_6_636" x1="288.789" y1="62.5072" x2="266.911" y2="30.2631" gradientUnits="userSpaceOnUse">
<stop stop-color="white"/>
<stop offset="0.984848" stop-color="white" stop-opacity="0"/>
</linearGradient>
<linearGradient id="paint10_linear_6_636" x1="82.7798" y1="149.886" x2="61.3426" y2="120.978" gradientUnits="userSpaceOnUse">
<stop stop-color="white"/>
<stop offset="0.984848" stop-color="white" stop-opacity="0"/>
</linearGradient>
<linearGradient id="paint11_linear_6_636" x1="219.77" y1="210.161" x2="241.207" y2="181.254" gradientUnits="userSpaceOnUse">
<stop stop-color="white"/>
<stop offset="0.984848" stop-color="white" stop-opacity="0"/>
</linearGradient>
<linearGradient id="paint12_linear_6_636" x1="129.357" y1="211.074" x2="107.92" y2="182.167" gradientUnits="userSpaceOnUse">
<stop stop-color="white"/>
<stop offset="0.984848" stop-color="white" stop-opacity="0"/>
</linearGradient>
<linearGradient id="paint13_linear_6_636" x1="209.724" y1="2.4373" x2="231.161" y2="31.345" gradientUnits="userSpaceOnUse">
<stop stop-color="white"/>
<stop offset="0.984848" stop-color="white" stop-opacity="0"/>
</linearGradient>
<clipPath id="clip0_6_636">
<rect width="314.17" height="218.27" fill="white" transform="translate(0.93158 0.863281)"/>
</clipPath>
<clipPath id="clip1_6_636">
<rect width="314.17" height="218.27" fill="white" transform="translate(0.93158 0.863281)"/>
</clipPath>
</defs>
</svg>
