<svg width="108" height="22" viewBox="0 0 108 22" fill="none" xmlns="http://www.w3.org/2000/svg">
<g clip-path="url(#clip0_6_982)">
<g clip-path="url(#clip1_6_982)">
<g clip-path="url(#clip2_6_982)">
<mask id="mask0_6_982" style="mask-type:luminance" maskUnits="userSpaceOnUse" x="0" y="0" width="107" height="22">
<path d="M106.867 0.643616H0.816589V21.6436H106.867V0.643616Z" fill="white"/>
</mask>
<g mask="url(#mask0_6_982)">
<path d="M0.816589 15.9143L3.84267 13.5728C5.4504 15.6922 7.15854 16.6691 9.05982 16.6691C10.951 16.6691 12.6108 15.7038 14.1461 13.601L17.2154 15.886C15.0001 18.9182 12.2473 20.5203 9.05982 20.5203C5.88251 20.5203 3.10299 18.9285 0.816589 15.9143Z" fill="url(#paint0_linear_6_982)"/>
<path d="M9.05016 5.73754L3.66394 10.4257L1.17419 7.50911L9.06156 0.643677L16.8867 7.5142L14.3855 10.4206L9.05016 5.73754Z" fill="url(#paint1_linear_6_982)"/>
<path fill-rule="evenodd" clip-rule="evenodd" d="M39.05 5.34771C39.05 6.36187 39.7821 7.10127 40.7861 7.10127V7.10259C41.7571 7.10259 42.5069 6.36187 42.5069 5.34771C42.5069 4.36693 41.7571 3.6275 40.7861 3.6275C39.8164 3.6275 39.05 4.36693 39.05 5.34771ZM37.9459 4.31546V17.4404H34.949V4.31546H37.9459ZM28.8195 17.6299C26.9807 17.6297 25.4482 17.0277 24.2054 15.8237C22.9624 14.6028 22.3498 13.038 22.3498 11.1278C22.3498 9.20217 22.9789 7.61934 24.2219 6.3805C25.4826 5.12503 27.0154 4.50627 28.8379 4.50627C31.0862 4.50627 33.0777 5.48576 34.2368 7.01727L32.2084 9.16752C31.2374 8.11741 30.1813 7.58464 29.0412 7.58464C28.0702 7.58464 27.2696 7.91072 26.6049 8.58214C25.958 9.25351 25.6351 10.0969 25.6351 11.1111C25.6351 12.0919 25.958 12.9173 26.6049 13.5887C27.2696 14.2421 28.0702 14.5682 29.0234 14.5682C30.2664 14.5682 31.3569 14.0175 32.2593 12.934L34.3716 14.9815C33.792 15.7556 33.0091 16.3924 32.0381 16.8904C31.0673 17.3898 29.9948 17.6298 28.8195 17.6299ZM42.3021 7.94442V17.4402H39.2874V7.94442H42.3021ZM44.4632 16.2529C45.3986 17.1823 46.5907 17.647 48.0726 17.647C50.0654 17.647 51.7507 16.6662 52.5692 15.0834L50.1671 13.6392C49.8265 14.3786 49.0258 14.86 48.1577 14.86C46.9478 14.86 46.0455 13.9306 46.0455 12.6751C46.0349 12.1053 46.2494 11.5546 46.6415 11.1449C47.0508 10.7315 47.5617 10.5249 48.1921 10.5249C49.0601 10.5249 49.7248 10.9382 50.2014 11.7469L52.6022 10.4735C51.8028 8.66724 50.082 7.70445 48.1235 7.70445C46.625 7.70445 45.4164 8.16792 44.4797 9.09733C43.543 10.0267 43.0829 11.2129 43.0829 12.6751C43.0829 14.1373 43.543 15.3247 44.4632 16.2529ZM63.0217 17.4404H59.4444L56.6672 13.6726L56.2251 14.086V17.4404H53.2295V4.31546H56.2261V10.6969L59.0528 7.94458H62.7146L58.6795 11.7637L63.0217 17.4404ZM63.2228 4.72776V12.5033C63.2228 16.2531 65.8116 17.664 68.4172 17.664C71.039 17.664 73.6115 16.2531 73.6115 12.5033V4.72776H70.3922V12.452C70.3922 13.8448 69.5748 14.5676 68.4172 14.5676C67.2417 14.5676 66.4243 13.8795 66.4243 12.452V4.72776H63.2228ZM80.7263 7.70445C82.0724 7.70445 83.1629 8.18587 84.0307 9.14867C84.8985 10.0948 85.3243 11.2822 85.3243 12.6751C85.3243 14.0692 84.8822 15.2554 84.0144 16.2362C83.145 17.199 82.0556 17.6817 80.7442 17.6817C79.7047 17.6817 78.8022 17.3376 78.0698 16.6495V21.3454H75.0553V7.94453H78.0194V8.82259C78.7513 8.08187 79.6538 7.70445 80.7263 7.70445ZM80.1478 10.5252C81.3747 10.5252 82.2588 11.4713 82.2588 12.7101H82.2604C82.2677 13.2849 82.0535 13.8401 81.6629 14.2583C81.2713 14.6884 80.7604 14.895 80.1478 14.895C79.534 14.895 79.0232 14.6884 78.6153 14.2583C78.2226 13.8283 78.0194 13.3122 78.0194 12.7101C78.0194 11.4713 78.9214 10.5252 80.1478 10.5252Z" fill="black"/>
<path fill-rule="evenodd" clip-rule="evenodd" d="M87.0856 16.8672C88.0926 17.4766 89.1788 17.8343 90.411 17.8343C92.5834 17.8343 94.0802 16.6287 94.0802 14.88C94.0802 13.754 93.4444 12.7472 92.1592 12.4557V12.4027C93.0071 12.098 93.7757 11.3429 93.7757 10.2566C93.7757 8.78609 92.3451 7.71304 90.5832 7.71304C89.298 7.71304 88.1188 8.2297 87.3109 8.94506L88.4632 10.7202C89.2187 10.2168 89.6954 10.0314 90.2388 10.0314C90.8347 10.0314 91.2982 10.3228 91.2982 10.8395C91.2982 11.3032 90.8877 11.6608 90.106 11.6608H89.1389V13.86H90.411C91.0998 13.86 91.5235 14.2044 91.5235 14.6813C91.5235 15.198 91.073 15.5689 90.2388 15.5689C89.7353 15.5689 88.9935 15.4232 88.0789 14.9065L87.0856 16.8672ZM102.309 17.8343C99.6856 17.8343 98.2414 15.7544 98.2414 12.7736C98.2414 9.79294 99.6856 7.71304 102.309 7.71304C104.945 7.71304 106.389 9.79294 106.389 12.7736C106.389 15.7544 104.945 17.8343 102.309 17.8343ZM102.322 15.5159C103.435 15.5159 103.951 14.3501 103.951 12.7736C103.951 11.2237 103.422 10.0314 102.322 10.0314C101.222 10.0314 100.679 11.2237 100.679 12.7736C100.679 14.3501 101.196 15.5159 102.322 15.5159ZM96.2159 17.8872C95.5009 17.8872 94.9176 17.3441 94.9176 16.6155C94.9176 15.9133 95.5009 15.3702 96.2159 15.3702C96.8916 15.3702 97.4612 15.9133 97.4612 16.6155C97.4612 17.3441 96.8916 17.8872 96.2159 17.8872Z" fill="black"/>
</g>
</g>
</g>
</g>
<defs>
<linearGradient id="paint0_linear_6_982" x1="0.816589" y1="21.7716" x2="17.2154" y2="21.7716" gradientUnits="userSpaceOnUse">
<stop stop-color="#7612FA"/>
<stop offset="1" stop-color="#40DDFF"/>
</linearGradient>
<linearGradient id="paint1_linear_6_982" x1="1.17419" y1="12.1875" x2="16.8867" y2="12.1875" gradientUnits="userSpaceOnUse">
<stop stop-color="#FA12E3"/>
<stop offset="1" stop-color="#FFD700"/>
</linearGradient>
<clipPath id="clip0_6_982">
<rect width="107" height="21" fill="white" transform="translate(0.341583 0.643616)"/>
</clipPath>
<clipPath id="clip1_6_982">
<rect width="107" height="21" fill="white" transform="translate(0.341583 0.643616)"/>
</clipPath>
<clipPath id="clip2_6_982">
<rect width="107" height="21" fill="white" transform="translate(0.341583 0.643616)"/>
</clipPath>
</defs>
</svg>
