<svg width="100" height="142" viewBox="0 0 100 142" fill="none" xmlns="http://www.w3.org/2000/svg">
<g clip-path="url(#clip0_6_812)">
<g clip-path="url(#clip1_6_812)">
<g clip-path="url(#clip2_6_812)">
<path d="M-29.6684 105.353L-5.8584 87.1133C6.7916 103.623 20.2316 111.233 35.1916 111.233C50.0716 111.233 63.1316 103.713 75.2116 87.3333L99.3616 105.133C81.9316 128.753 60.2716 141.233 35.1916 141.233C10.1916 141.233 -11.6784 128.833 -29.6684 105.353Z" fill="url(#paint0_linear_6_812)"/>
<path d="M35.1116 26.0736L-7.2684 62.5936L-26.8584 39.8736L35.2016 -13.6064L96.7716 39.9136L77.0916 62.5536L35.1116 26.0736Z" fill="url(#paint1_linear_6_812)"/>
</g>
</g>
</g>
<defs>
<linearGradient id="paint0_linear_6_812" x1="-29.6684" y1="3767.81" x2="99.3616" y2="3767.81" gradientUnits="userSpaceOnUse">
<stop stop-color="#8930FD"/>
<stop offset="1" stop-color="#49CCF9"/>
</linearGradient>
<linearGradient id="paint1_linear_6_812" x1="-26.8584" y1="5168.76" x2="96.7716" y2="5168.76" gradientUnits="userSpaceOnUse">
<stop stop-color="#FF02F0"/>
<stop offset="1" stop-color="#FFC800"/>
</linearGradient>
<clipPath id="clip0_6_812">
<rect width="130" height="155" fill="white" transform="translate(-30.0684 -13.7666)"/>
</clipPath>
<clipPath id="clip1_6_812">
<rect width="130" height="155" fill="white" transform="translate(-30.0684 -13.7666)"/>
</clipPath>
<clipPath id="clip2_6_812">
<rect width="130" height="155" fill="white" transform="translate(-30.0684 -13.7666)"/>
</clipPath>
</defs>
</svg>
