<svg width="32" height="32" viewBox="0 0 32 32" fill="none" xmlns="http://www.w3.org/2000/svg">
<g clip-path="url(#clip0_6_604)">
<path d="M28.0867 26.9288C28.7112 25.225 29.5317 22.0137 29.5317 16.9008C29.5317 15.3623 29.2644 11.6037 29.2644 11.6037C29.2644 11.6037 24.4528 10.5215 15.6316 10.5215C6.81044 10.5215 1.73159 11.6037 1.73159 11.6037L1.73157 16.9008C1.73157 22.1145 2.58473 25.3212 3.21329 26.9762C3.57707 27.9341 4.32738 28.6545 5.3105 28.9431C6.90714 29.4118 10.0302 30.0023 15.6316 30.0023C21.0837 30.0023 24.1877 29.4686 25.8217 29.0277C26.8894 28.7397 27.7061 27.9671 28.0867 26.9288Z" fill="#4AB9FD" fill-opacity="0.1"/>
<path d="M29.5317 17.3097C29.5317 20.4818 29.3634 22.9809 29.1604 24.8417C28.8742 27.4646 26.8912 29.3997 24.2645 29.6484C22.2392 29.8401 19.411 30.0018 15.6316 30.0018C11.8522 30.0018 9.02407 29.8401 6.9988 29.6484C4.37205 29.3997 2.38903 27.4646 2.10285 24.8417C1.89983 22.9809 1.73157 20.4818 1.73157 17.3097C1.73157 15.1292 1.81108 13.2228 1.92673 11.6032C1.97992 10.8583 2.04076 10.1741 2.10502 9.55176C2.39563 6.73749 4.53935 4.62614 7.35686 4.36872C9.39748 4.18228 12.1429 4.02734 15.6316 4.02734C19.1204 4.02734 21.8658 4.18228 23.9064 4.36872C26.7239 4.62614 28.8676 6.73749 29.1582 9.55176C29.2225 10.1741 29.2833 10.8583 29.3365 11.6032C29.4522 13.2228 29.5317 15.1292 29.5317 17.3097Z" fill="#4AB9FD" fill-opacity="0.1"/>
<path d="M29.3365 11.6032C29.2833 10.8583 29.2225 10.1741 29.1582 9.55176C28.8676 6.73749 26.7239 4.62614 23.9064 4.36872C21.8658 4.18228 19.1204 4.02734 15.6316 4.02734C12.1429 4.02734 9.39748 4.18228 7.35686 4.36872C4.53935 4.62614 2.39563 6.73749 2.10502 9.55176C2.04076 10.1741 1.97992 10.8583 1.92673 11.6032M29.3365 11.6032C29.4522 13.2228 29.5317 15.1292 29.5317 17.3097C29.5317 20.4818 29.3634 22.9809 29.1604 24.8417C28.8742 27.4646 26.8912 29.3997 24.2645 29.6484C22.2392 29.8401 19.411 30.0018 15.6316 30.0018C11.8522 30.0018 9.02407 29.8401 6.9988 29.6484C4.37205 29.3997 2.38903 27.4646 2.10285 24.8417C1.89983 22.9809 1.73157 20.4818 1.73157 17.3097C1.73157 15.1292 1.81108 13.2228 1.92673 11.6032M29.3365 11.6032C29.3365 11.6032 24.1914 10.521 15.6316 10.521C7.07183 10.521 1.92673 11.6032 1.92673 11.6032" stroke="#4AB9FD" stroke-width="2" stroke-linecap="round" stroke-linejoin="round"/>
<path d="M8.18847 1.86328C8.18847 1.86328 8.14734 2.72007 8.14734 6.7335M23.0755 1.86328C23.0755 1.86328 23.1166 2.72007 23.1166 6.7335" stroke="#4AB9FD" stroke-width="2" stroke-linecap="round" stroke-linejoin="round"/>
<path d="M20.9774 19.7207H10.2851M20.9774 19.7207L16.6307 24.0498M20.9774 19.7207L16.6307 15.3916" stroke="#4AB9FD" stroke-width="2" stroke-linecap="round" stroke-linejoin="round"/>
</g>
<defs>
<clipPath id="clip0_6_604">
<rect width="31" height="31" fill="white" transform="translate(0.261597 0.863281)"/>
</clipPath>
</defs>
</svg>
