<svg width="97" height="17" viewBox="0 0 97 17" fill="none" xmlns="http://www.w3.org/2000/svg">
<g clip-path="url(#clip0_6_435)">
<path d="M16.8861 7.00444C17.0128 6.87874 17.1394 6.71436 17.1394 6.54032C17.1394 6.25024 16.8277 6.13421 16.5939 6.09553L11.7043 5.38968L9.51275 0.990188C9.42509 0.806473 9.2595 0.59375 9.03548 0.59375C8.81145 0.59375 8.64587 0.806473 8.5582 0.990188L6.36664 5.38968L1.47703 6.09553C1.23353 6.13421 0.93158 6.25024 0.93158 6.54032C0.93158 6.71436 1.0582 6.87874 1.17509 7.00444L4.72054 10.4273L3.88288 15.2619C3.88178 15.2695 3.88069 15.277 3.8796 15.2844C3.87107 15.3428 3.8634 15.3952 3.8634 15.4553C3.8634 15.7067 3.99002 15.9388 4.27249 15.9388C4.40885 15.9388 4.53548 15.8905 4.6621 15.8228L9.03548 13.5408L13.4089 15.8228C13.5258 15.8905 13.6621 15.9388 13.7985 15.9388C14.0809 15.9388 14.1978 15.7067 14.1978 15.4553C14.1978 15.3876 14.1978 15.3296 14.1881 15.2619L13.3504 10.4273L16.8861 7.00444Z" fill="#FFC800"/>
<path d="M36.8342 7.00444C36.9608 6.87874 37.0874 6.71436 37.0874 6.54032C37.0874 6.25024 36.7758 6.13421 36.542 6.09553L31.6524 5.38968L29.4608 0.990188C29.3732 0.806473 29.2076 0.59375 28.9835 0.59375C28.7595 0.59375 28.5939 0.806473 28.5063 0.990188L26.3147 5.38968L21.4251 6.09553C21.1816 6.13421 20.8797 6.25024 20.8797 6.54032C20.8797 6.71436 21.0063 6.87874 21.1232 7.00444L24.6686 10.4273L23.8309 15.2619C23.8299 15.2695 23.8288 15.277 23.8277 15.2844C23.8191 15.3428 23.8115 15.3952 23.8115 15.4553C23.8115 15.7067 23.9381 15.9388 24.2206 15.9388C24.3569 15.9388 24.4835 15.8905 24.6102 15.8228L28.9835 13.5408L33.3569 15.8228C33.4738 15.8905 33.6102 15.9388 33.7465 15.9388C34.029 15.9388 34.1459 15.7067 34.1459 15.4553C34.1459 15.3876 34.1459 15.3296 34.1361 15.2619L33.2985 10.4273L36.8342 7.00444Z" fill="#FFC800"/>
<path d="M56.7822 7.00444C56.9089 6.87874 57.0355 6.71436 57.0355 6.54032C57.0355 6.25024 56.7238 6.13421 56.49 6.09553L51.6004 5.38968L49.4089 0.990188C49.3212 0.806473 49.1556 0.59375 48.9316 0.59375C48.7076 0.59375 48.542 0.806473 48.4543 0.990188L46.2628 5.38968L41.3732 6.09553C41.1297 6.13421 40.8277 6.25024 40.8277 6.54032C40.8277 6.71436 40.9543 6.87874 41.0712 7.00444L44.6167 10.4273L43.779 15.2619C43.7779 15.2695 43.7768 15.277 43.7757 15.2844C43.7672 15.3428 43.7595 15.3952 43.7595 15.4553C43.7595 15.7067 43.8861 15.9388 44.1686 15.9388C44.305 15.9388 44.4316 15.8905 44.5582 15.8228L48.9316 13.5408L53.305 15.8228C53.4219 15.8905 53.5582 15.9388 53.6946 15.9388C53.9771 15.9388 54.0939 15.7067 54.0939 15.4553C54.0939 15.3876 54.0939 15.3296 54.0842 15.2619L53.2465 10.4273L56.7822 7.00444Z" fill="#FFC800"/>
<path d="M76.7303 7.00444C76.8569 6.87874 76.9835 6.71436 76.9835 6.54032C76.9835 6.25024 76.6719 6.13421 76.4381 6.09553L71.5485 5.38968L69.3569 0.990188C69.2693 0.806473 69.1037 0.59375 68.8797 0.59375C68.6556 0.59375 68.49 0.806473 68.4024 0.990188L66.2108 5.38968L61.3212 6.09553C61.0777 6.13421 60.7758 6.25024 60.7758 6.54032C60.7758 6.71436 60.9024 6.87874 61.0193 7.00444L64.5647 10.4273L63.7271 15.2619C63.726 15.2695 63.7249 15.277 63.7238 15.2844C63.7152 15.3428 63.7076 15.3952 63.7076 15.4553C63.7076 15.7067 63.8342 15.9388 64.1167 15.9388C64.253 15.9388 64.3797 15.8905 64.5063 15.8228L68.8797 13.5408L73.253 15.8228C73.3699 15.8905 73.5063 15.9388 73.6426 15.9388C73.9251 15.9388 74.042 15.7067 74.042 15.4553C74.042 15.3876 74.042 15.3296 74.0322 15.2619L73.1946 10.4273L76.7303 7.00444Z" fill="#FFC800"/>
<path d="M96.6783 7.00444C96.805 6.87874 96.9316 6.71436 96.9316 6.54032C96.9316 6.25024 96.6199 6.13421 96.3861 6.09553L91.4965 5.38968L89.305 0.990188C89.2173 0.806473 89.0517 0.59375 88.8277 0.59375C88.6037 0.59375 88.4381 0.806473 88.3504 0.990188L86.1589 5.38968L81.2693 6.09553C81.0258 6.13421 80.7238 6.25024 80.7238 6.54032C80.7238 6.71436 80.8504 6.87874 80.9673 7.00444L84.5128 10.4273L83.6751 15.2619C83.674 15.2695 83.6729 15.277 83.6718 15.2844C83.6633 15.3428 83.6556 15.3952 83.6556 15.4553C83.6556 15.7067 83.7822 15.9388 84.0647 15.9388C84.2011 15.9388 84.3277 15.8905 84.4543 15.8228L88.8277 13.5408L93.2011 15.8228C93.318 15.8905 93.4543 15.9388 93.5907 15.9388C93.8732 15.9388 93.99 15.7067 93.99 15.4553C93.99 15.3876 93.99 15.3296 93.9803 15.2619L93.1426 10.4273L96.6783 7.00444Z" fill="#FFC800"/>
</g>
<defs>
<clipPath id="clip0_6_435">
<rect width="96" height="16" fill="white" transform="translate(0.93158 0.59375)"/>
</clipPath>
</defs>
</svg>
