<svg width="85" height="14" viewBox="0 0 85 14" fill="none" xmlns="http://www.w3.org/2000/svg">
<g clip-path="url(#clip0_6_441)">
<path d="M11.8401 8.43584C11.1621 10.5423 9.9754 12.3706 6.8999 12.4916C2.3238 12.4916 0.93158 8.67809 0.93158 6.63165C0.93158 1.36549 5.15704 0.09375 6.85197 0.09375C8.77664 0.09375 11.5011 0.978138 11.5011 3.25388C11.5011 4.05276 10.9924 4.8279 10.1693 4.8279C9.3704 4.8279 8.77663 4.29545 8.77663 3.43568C8.77663 2.28572 9.72105 2.1281 9.72105 1.81329C9.72105 1.01441 7.85684 0.687516 7.20305 0.687516C4.35772 0.687516 3.61886 2.75771 3.61886 6.63208C3.61886 8.41166 4.0671 9.7676 4.23637 10.1791C4.68461 11.1598 5.59232 11.7773 7.13007 11.8619C8.86171 11.9591 10.5083 10.5665 11.2225 8.43584H11.8401ZM15.4977 6.28101C15.4977 8.76273 15.5223 11.8987 18.5127 11.8987C21.5031 11.8987 21.5269 8.76273 21.5269 6.28058C21.5269 3.82346 21.5031 0.687516 18.5127 0.687516C15.5223 0.687516 15.4977 3.82303 15.4977 6.28101ZM24.2271 6.28101C24.2271 9.86433 21.624 12.4916 18.5248 12.4916C15.4251 12.4916 12.8104 9.85224 12.8104 6.28101C12.8104 2.70934 15.413 0.0941819 18.5127 0.0941819C21.6119 0.0941819 24.2271 2.69725 24.2271 6.28101ZM26.3215 1.07444H24.6991V0.396463H25.3166C25.8737 0.408986 26.4182 0.384803 26.9748 0.336007C27.5319 0.300165 28.089 0.215094 28.6339 0.0941819V3.2297H28.6944C29.5174 1.36549 30.6678 0.0941819 32.8227 0.0941819C33.8884 0.0941819 36.346 0.336007 36.346 3.0479V11.4141H37.9437V12.0921H32.4962V11.4141H34.0335V3.42359C34.0335 1.26876 33.3556 0.941432 32.1693 0.941432C30.1596 0.941432 28.6223 3.69003 28.6223 5.90532V11.402H30.22V12.08H24.6991V11.402H26.3215V1.07444ZM44.9299 0.396895V1.07487H46.7336L43.7432 9.56205H43.6828L40.8133 1.07444H42.3873V0.396463H37.0602V1.07444H38.4766L42.4356 12.4911H43.4526L47.5325 1.07444H48.9494V0.396463L44.9299 0.396895ZM56.9024 4.501V3.49614C56.9024 1.36549 55.6553 0.687516 54.1784 0.687516C52.3984 0.687516 51.5995 2.34574 51.539 2.55172C51.3572 3.18133 51.2484 3.84721 51.2484 4.501H56.9024ZM59.5659 8.43584C58.9726 11.184 56.9628 12.4916 54.3598 12.4916C51.3452 12.4916 48.4394 10.0703 48.4394 6.77718C48.4394 3.29058 50.7518 0.0941819 54.263 0.0941819C57.2776 0.0941819 59.5538 2.14019 59.5901 5.36078H51.2122V6.5712C51.2122 9.50116 51.5995 11.8619 54.8201 11.8619C56.5029 11.8619 58.4885 10.3851 58.9 8.43584H59.5659ZM61.8429 1.07444H60.2206V0.396463H60.8376C61.3947 0.408986 61.9397 0.384803 62.4963 0.336007C63.0534 0.300165 63.6104 0.215094 64.155 0.0941819V3.2297H64.2159C65.0389 1.36549 66.1893 0.0941819 68.3562 0.0941819C69.4216 0.0941819 71.8795 0.336007 71.8795 3.0479V11.4141H73.4777V12.0921H68.0293V11.4141H69.5671V3.42359C69.5671 1.26876 68.8891 0.941432 67.7024 0.941432C65.6927 0.941432 64.155 3.69003 64.155 5.90532V11.402H65.7532V12.08H60.2206V11.402H61.8429V1.07444ZM82.2314 4.501V3.49614C82.2314 1.36549 80.9847 0.687516 79.5074 0.687516C77.7278 0.687516 76.9285 2.34574 76.8801 2.55172C76.6988 3.18133 76.5895 3.84721 76.5895 4.501H82.2314ZM84.8949 8.43584C84.302 11.184 82.2923 12.4916 79.6892 12.4916C76.6746 12.4916 73.7809 10.0703 73.7809 6.77718C73.7809 3.29058 76.0812 0.0941819 79.6045 0.0941819C82.6192 0.0941819 84.8949 2.14019 84.9316 5.36078H76.5532V6.5712C76.5532 9.50116 76.9406 11.8619 80.1612 11.8619C81.844 11.8619 83.8296 10.3851 84.2411 8.43584H84.8949Z" fill="black"/>
</g>
<defs>
<clipPath id="clip0_6_441">
<rect width="84" height="13" fill="white" transform="translate(0.93158 0.09375)"/>
</clipPath>
</defs>
</svg>
